M48
; DRILL file KiCad 10.0.1 date 2026-06-25T19:28:49
; FORMAT={-:-/ absolute / metric / decimal}
; #@! TF.CreationDate,2026-06-25T19:28:49+02:00
; #@! TF.GenerationSoftware,Kicad,Pcbnew,10.0.1
; #@! TF.FileFunction,Plated,1,2,PTH
FMAT,2
METRIC
; #@! TA.AperFunction,Plated,PTH,ComponentDrill
T1C0.800
; #@! TA.AperFunction,Plated,PTH,ComponentDrill
T2C1.000
%
G90
G05
T1
X52.2Y-177.6
X52.2Y-185.22
X53.75Y-194.1
X53.75Y-212.7
X54.0Y-199.59
X54.0Y-207.21
X55.3Y-167.48
X55.3Y-175.1
X55.3Y-177.6
X55.3Y-185.22
X55.6Y-127.0
X55.6Y-130.5
X56.8Y-141.45
X56.8Y-143.95
X57.25Y-194.1
X57.25Y-212.7
X57.6Y-66.19
X57.6Y-73.81
X57.6Y-75.99
X57.6Y-83.61
X57.6Y-102.39
X57.6Y-110.01
X57.6Y-112.19
X57.6Y-119.81
X58.4Y-167.49
X58.4Y-175.11
X58.4Y-177.6
X58.4Y-185.22
X58.95Y-59.4
X58.95Y-95.5
X59.0Y-199.39
X59.0Y-207.01
X59.7Y-133.99
X59.7Y-141.61
X59.7Y-143.79
X59.7Y-151.41
X60.7Y-66.19
X60.7Y-73.81
X60.7Y-75.99
X60.7Y-83.61
X60.7Y-102.39
X60.7Y-110.01
X60.7Y-112.19
X60.7Y-119.81
X62.38Y-170.0
X62.38Y-172.54
X62.38Y-175.08
X62.38Y-177.62
X62.38Y-185.7
X62.38Y-188.24
X62.38Y-190.78
X62.38Y-193.32
X62.45Y-59.4
X62.45Y-95.5
X62.79Y-138.89
X62.79Y-141.43
X62.79Y-143.97
X62.79Y-146.51
X63.7Y-167.2
X63.7Y-180.4
X63.7Y-182.9
X63.7Y-196.1
X63.8Y-66.19
X63.8Y-73.81
X63.8Y-75.99
X63.8Y-83.61
X63.8Y-102.39
X63.8Y-110.01
X63.8Y-112.19
X63.8Y-119.81
X64.1Y-136.1
X64.1Y-149.3
X65.4Y-203.09
X65.4Y-210.71
X65.4Y-212.85
X65.4Y-215.35
X66.6Y-127.0
X66.6Y-130.5
X68.4Y-71.25
X68.4Y-73.75
X68.4Y-107.45
X68.4Y-109.95
X68.7Y-167.2
X68.7Y-180.4
X68.7Y-182.9
X68.7Y-196.1
X69.1Y-136.1
X69.1Y-149.3
X70.0Y-170.0
X70.0Y-172.54
X70.0Y-175.08
X70.0Y-177.62
X70.0Y-185.7
X70.0Y-188.24
X70.0Y-190.78
X70.0Y-193.32
X70.41Y-138.89
X70.41Y-141.43
X70.41Y-143.97
X70.41Y-146.51
X71.19Y-71.19
X71.19Y-73.73
X71.19Y-76.27
X71.19Y-78.81
X71.19Y-107.39
X71.19Y-109.93
X71.19Y-112.47
X71.19Y-115.01
X72.4Y-81.6
X72.46Y-86.005
X72.46Y-122.205
X72.5Y-68.4
X72.5Y-104.6
X72.5Y-117.8
X73.0Y-183.85
X73.0Y-186.35
X73.1Y-172.49
X73.1Y-180.11
X73.1Y-190.39
X73.1Y-198.01
X73.15Y-61.4
X73.25Y-97.5
X73.5Y-133.99
X73.5Y-141.61
X73.5Y-143.79
X73.5Y-151.41
X75.0Y-86.005
X75.0Y-122.205
X76.05Y-160.7
X76.4Y-141.45
X76.4Y-143.95
X76.65Y-61.4
X76.75Y-97.5
X76.8Y-172.49
X76.8Y-180.11
X76.8Y-190.39
X76.8Y-198.01
X76.9Y-183.85
X76.9Y-186.35
X77.4Y-81.6
X77.5Y-68.4
X77.5Y-104.6
X77.5Y-117.8
X77.54Y-86.005
X77.54Y-122.205
X78.81Y-71.19
X78.81Y-73.73
X78.81Y-76.27
X78.81Y-78.81
X78.81Y-107.39
X78.81Y-109.93
X78.81Y-112.47
X78.81Y-115.01
X79.55Y-160.7
X79.88Y-170.0
X79.88Y-172.54
X79.88Y-175.08
X79.88Y-177.62
X79.88Y-185.7
X79.88Y-188.24
X79.88Y-190.78
X79.88Y-193.32
X80.25Y-151.3
X81.2Y-167.2
X81.2Y-180.4
X81.2Y-182.9
X81.2Y-196.1
X81.6Y-71.25
X81.6Y-73.75
X81.6Y-107.45
X81.6Y-109.95
X83.75Y-151.3
X84.55Y-160.7
X84.6Y-203.09
X84.6Y-210.71
X84.6Y-212.85
X84.6Y-215.35
X86.1Y-66.19
X86.1Y-73.81
X86.1Y-75.99
X86.1Y-83.61
X86.1Y-102.39
X86.1Y-110.01
X86.1Y-112.19
X86.1Y-119.81
X86.2Y-167.2
X86.2Y-180.4
X86.2Y-182.9
X86.2Y-196.1
X87.45Y-59.4
X87.45Y-95.5
X87.5Y-170.0
X87.5Y-172.54
X87.5Y-175.08
X87.5Y-177.62
X87.5Y-185.7
X87.5Y-188.24
X87.5Y-190.78
X87.5Y-193.32
X88.05Y-160.7
X89.2Y-66.19
X89.2Y-73.81
X89.2Y-75.99
X89.2Y-83.61
X89.2Y-102.39
X89.2Y-110.01
X89.2Y-112.19
X89.2Y-119.81
X90.95Y-59.4
X90.95Y-95.5
X91.1Y-199.59
X91.1Y-207.21
X91.6Y-167.49
X91.6Y-175.11
X91.6Y-177.59
X91.6Y-185.21
X92.3Y-66.19
X92.3Y-73.81
X92.3Y-75.99
X92.3Y-83.61
X92.3Y-102.39
X92.3Y-110.01
X92.3Y-112.19
X92.3Y-119.81
X92.75Y-194.1
X92.95Y-212.7
X93.05Y-160.7
X94.7Y-167.49
X94.7Y-175.11
X94.7Y-177.59
X94.7Y-185.21
X96.0Y-199.49
X96.0Y-207.11
X96.25Y-194.1
X96.45Y-212.7
X96.55Y-160.7
X97.8Y-177.59
X97.8Y-185.21
T2
X52.775Y-54.425
X52.775Y-56.965
X52.775Y-59.505
X52.775Y-62.045
X52.775Y-64.585
X52.775Y-67.125
X52.775Y-94.1
X52.775Y-96.64
X52.775Y-99.18
X52.775Y-101.72
X52.775Y-138.925
X52.775Y-141.465
X52.775Y-144.005
X52.775Y-146.545
X52.775Y-149.085
X52.775Y-151.625
X65.43Y-199.4
X67.97Y-199.4
X82.03Y-199.4
X84.57Y-199.4
X97.275Y-54.425
X97.275Y-56.965
X97.275Y-59.505
X97.275Y-62.045
X97.275Y-64.585
X97.275Y-67.125
X97.275Y-94.1
X97.275Y-96.64
X97.275Y-99.18
X97.275Y-101.72
X97.275Y-104.26
X97.275Y-106.8
X97.275Y-138.925
X97.275Y-141.465
X97.275Y-144.005
X97.275Y-146.545
X97.275Y-149.085
X97.275Y-151.625
M30
