%TF.GenerationSoftware,KiCad,Pcbnew,10.0.1*%
%TF.CreationDate,2026-06-25T19:53:09+02:00*%
%TF.ProjectId,DMH_Output_PCB_LEDs,444d485f-4f75-4747-9075-745f5043425f,1*%
%TF.SameCoordinates,Original*%
%TF.FileFunction,Legend,Top*%
%TF.FilePolarity,Positive*%
%FSLAX46Y46*%
G04 Gerber Fmt 4.6, Leading zero omitted, Abs format (unit mm)*
G04 Created by KiCad (PCBNEW 10.0.1) date 2026-06-25 19:53:09*
%MOMM*%
%LPD*%
G01*
G04 APERTURE LIST*
%ADD10C,0.100000*%
%ADD11C,0.250000*%
%ADD12C,0.150000*%
%ADD13C,0.120000*%
%ADD14C,2.700000*%
%ADD15R,1.700000X1.700000*%
G04 APERTURE END LIST*
D10*
X75723750Y-139750000D02*
X77723750Y-139750000D01*
X77723750Y-149750000D01*
X75723750Y-149750000D01*
X75723750Y-139750000D01*
G36*
X75723750Y-139750000D02*
G01*
X77723750Y-139750000D01*
X77723750Y-149750000D01*
X75723750Y-149750000D01*
X75723750Y-139750000D01*
G37*
D11*
X79173369Y-152059523D02*
X78173369Y-152059523D01*
X78173369Y-152059523D02*
X78887654Y-151726190D01*
X78887654Y-151726190D02*
X78173369Y-151392857D01*
X78173369Y-151392857D02*
X79173369Y-151392857D01*
X79173369Y-150916666D02*
X78173369Y-150916666D01*
X78792416Y-150821428D02*
X79173369Y-150535714D01*
X78506702Y-150535714D02*
X78887654Y-150916666D01*
X79173369Y-149583333D02*
X79173369Y-150154761D01*
X79173369Y-149869047D02*
X78173369Y-149869047D01*
X78173369Y-149869047D02*
X78316226Y-149964285D01*
X78316226Y-149964285D02*
X78411464Y-150059523D01*
X78411464Y-150059523D02*
X78459083Y-150154761D01*
X79078130Y-149154761D02*
X79125750Y-149107142D01*
X79125750Y-149107142D02*
X79173369Y-149154761D01*
X79173369Y-149154761D02*
X79125750Y-149202380D01*
X79125750Y-149202380D02*
X79078130Y-149154761D01*
X79078130Y-149154761D02*
X79173369Y-149154761D01*
X79173369Y-148154762D02*
X79173369Y-148726190D01*
X79173369Y-148440476D02*
X78173369Y-148440476D01*
X78173369Y-148440476D02*
X78316226Y-148535714D01*
X78316226Y-148535714D02*
X78411464Y-148630952D01*
X78411464Y-148630952D02*
X78459083Y-148726190D01*
X78792416Y-146964285D02*
X78792416Y-146202381D01*
X78173369Y-144678571D02*
X78887654Y-144678571D01*
X78887654Y-144678571D02*
X79030511Y-144726190D01*
X79030511Y-144726190D02*
X79125750Y-144821428D01*
X79125750Y-144821428D02*
X79173369Y-144964285D01*
X79173369Y-144964285D02*
X79173369Y-145059523D01*
X78506702Y-143773809D02*
X79173369Y-143773809D01*
X78506702Y-144202380D02*
X79030511Y-144202380D01*
X79030511Y-144202380D02*
X79125750Y-144154761D01*
X79125750Y-144154761D02*
X79173369Y-144059523D01*
X79173369Y-144059523D02*
X79173369Y-143916666D01*
X79173369Y-143916666D02*
X79125750Y-143821428D01*
X79125750Y-143821428D02*
X79078130Y-143773809D01*
X78506702Y-143297618D02*
X79173369Y-143297618D01*
X78601940Y-143297618D02*
X78554321Y-143249999D01*
X78554321Y-143249999D02*
X78506702Y-143154761D01*
X78506702Y-143154761D02*
X78506702Y-143011904D01*
X78506702Y-143011904D02*
X78554321Y-142916666D01*
X78554321Y-142916666D02*
X78649559Y-142869047D01*
X78649559Y-142869047D02*
X79173369Y-142869047D01*
X79125750Y-142011904D02*
X79173369Y-142107142D01*
X79173369Y-142107142D02*
X79173369Y-142297618D01*
X79173369Y-142297618D02*
X79125750Y-142392856D01*
X79125750Y-142392856D02*
X79030511Y-142440475D01*
X79030511Y-142440475D02*
X78649559Y-142440475D01*
X78649559Y-142440475D02*
X78554321Y-142392856D01*
X78554321Y-142392856D02*
X78506702Y-142297618D01*
X78506702Y-142297618D02*
X78506702Y-142107142D01*
X78506702Y-142107142D02*
X78554321Y-142011904D01*
X78554321Y-142011904D02*
X78649559Y-141964285D01*
X78649559Y-141964285D02*
X78744797Y-141964285D01*
X78744797Y-141964285D02*
X78840035Y-142440475D01*
X78268607Y-140821427D02*
X78220988Y-140773808D01*
X78220988Y-140773808D02*
X78173369Y-140678570D01*
X78173369Y-140678570D02*
X78173369Y-140440475D01*
X78173369Y-140440475D02*
X78220988Y-140345237D01*
X78220988Y-140345237D02*
X78268607Y-140297618D01*
X78268607Y-140297618D02*
X78363845Y-140249999D01*
X78363845Y-140249999D02*
X78459083Y-140249999D01*
X78459083Y-140249999D02*
X78601940Y-140297618D01*
X78601940Y-140297618D02*
X79173369Y-140869046D01*
X79173369Y-140869046D02*
X79173369Y-140249999D01*
X78173369Y-139630951D02*
X78173369Y-139535713D01*
X78173369Y-139535713D02*
X78220988Y-139440475D01*
X78220988Y-139440475D02*
X78268607Y-139392856D01*
X78268607Y-139392856D02*
X78363845Y-139345237D01*
X78363845Y-139345237D02*
X78554321Y-139297618D01*
X78554321Y-139297618D02*
X78792416Y-139297618D01*
X78792416Y-139297618D02*
X78982892Y-139345237D01*
X78982892Y-139345237D02*
X79078130Y-139392856D01*
X79078130Y-139392856D02*
X79125750Y-139440475D01*
X79125750Y-139440475D02*
X79173369Y-139535713D01*
X79173369Y-139535713D02*
X79173369Y-139630951D01*
X79173369Y-139630951D02*
X79125750Y-139726189D01*
X79125750Y-139726189D02*
X79078130Y-139773808D01*
X79078130Y-139773808D02*
X78982892Y-139821427D01*
X78982892Y-139821427D02*
X78792416Y-139869046D01*
X78792416Y-139869046D02*
X78554321Y-139869046D01*
X78554321Y-139869046D02*
X78363845Y-139821427D01*
X78363845Y-139821427D02*
X78268607Y-139773808D01*
X78268607Y-139773808D02*
X78220988Y-139726189D01*
X78220988Y-139726189D02*
X78173369Y-139630951D01*
X78268607Y-138916665D02*
X78220988Y-138869046D01*
X78220988Y-138869046D02*
X78173369Y-138773808D01*
X78173369Y-138773808D02*
X78173369Y-138535713D01*
X78173369Y-138535713D02*
X78220988Y-138440475D01*
X78220988Y-138440475D02*
X78268607Y-138392856D01*
X78268607Y-138392856D02*
X78363845Y-138345237D01*
X78363845Y-138345237D02*
X78459083Y-138345237D01*
X78459083Y-138345237D02*
X78601940Y-138392856D01*
X78601940Y-138392856D02*
X79173369Y-138964284D01*
X79173369Y-138964284D02*
X79173369Y-138345237D01*
X78173369Y-137488094D02*
X78173369Y-137678570D01*
X78173369Y-137678570D02*
X78220988Y-137773808D01*
X78220988Y-137773808D02*
X78268607Y-137821427D01*
X78268607Y-137821427D02*
X78411464Y-137916665D01*
X78411464Y-137916665D02*
X78601940Y-137964284D01*
X78601940Y-137964284D02*
X78982892Y-137964284D01*
X78982892Y-137964284D02*
X79078130Y-137916665D01*
X79078130Y-137916665D02*
X79125750Y-137869046D01*
X79125750Y-137869046D02*
X79173369Y-137773808D01*
X79173369Y-137773808D02*
X79173369Y-137583332D01*
X79173369Y-137583332D02*
X79125750Y-137488094D01*
X79125750Y-137488094D02*
X79078130Y-137440475D01*
X79078130Y-137440475D02*
X78982892Y-137392856D01*
X78982892Y-137392856D02*
X78744797Y-137392856D01*
X78744797Y-137392856D02*
X78649559Y-137440475D01*
X78649559Y-137440475D02*
X78601940Y-137488094D01*
X78601940Y-137488094D02*
X78554321Y-137583332D01*
X78554321Y-137583332D02*
X78554321Y-137773808D01*
X78554321Y-137773808D02*
X78601940Y-137869046D01*
X78601940Y-137869046D02*
X78649559Y-137916665D01*
X78649559Y-137916665D02*
X78744797Y-137964284D01*
D12*
X73761905Y-124504819D02*
X73761905Y-123504819D01*
X73761905Y-123981009D02*
X74333333Y-123981009D01*
X74333333Y-124504819D02*
X74333333Y-123504819D01*
X74761905Y-123600057D02*
X74809524Y-123552438D01*
X74809524Y-123552438D02*
X74904762Y-123504819D01*
X74904762Y-123504819D02*
X75142857Y-123504819D01*
X75142857Y-123504819D02*
X75238095Y-123552438D01*
X75238095Y-123552438D02*
X75285714Y-123600057D01*
X75285714Y-123600057D02*
X75333333Y-123695295D01*
X75333333Y-123695295D02*
X75333333Y-123790533D01*
X75333333Y-123790533D02*
X75285714Y-123933390D01*
X75285714Y-123933390D02*
X74714286Y-124504819D01*
X74714286Y-124504819D02*
X75333333Y-124504819D01*
X75714286Y-123600057D02*
X75761905Y-123552438D01*
X75761905Y-123552438D02*
X75857143Y-123504819D01*
X75857143Y-123504819D02*
X76095238Y-123504819D01*
X76095238Y-123504819D02*
X76190476Y-123552438D01*
X76190476Y-123552438D02*
X76238095Y-123600057D01*
X76238095Y-123600057D02*
X76285714Y-123695295D01*
X76285714Y-123695295D02*
X76285714Y-123790533D01*
X76285714Y-123790533D02*
X76238095Y-123933390D01*
X76238095Y-123933390D02*
X75666667Y-124504819D01*
X75666667Y-124504819D02*
X76285714Y-124504819D01*
X73761905Y-86004819D02*
X73761905Y-85004819D01*
X73761905Y-85481009D02*
X74333333Y-85481009D01*
X74333333Y-86004819D02*
X74333333Y-85004819D01*
X74761905Y-85100057D02*
X74809524Y-85052438D01*
X74809524Y-85052438D02*
X74904762Y-85004819D01*
X74904762Y-85004819D02*
X75142857Y-85004819D01*
X75142857Y-85004819D02*
X75238095Y-85052438D01*
X75238095Y-85052438D02*
X75285714Y-85100057D01*
X75285714Y-85100057D02*
X75333333Y-85195295D01*
X75333333Y-85195295D02*
X75333333Y-85290533D01*
X75333333Y-85290533D02*
X75285714Y-85433390D01*
X75285714Y-85433390D02*
X74714286Y-86004819D01*
X74714286Y-86004819D02*
X75333333Y-86004819D01*
X76285714Y-86004819D02*
X75714286Y-86004819D01*
X76000000Y-86004819D02*
X76000000Y-85004819D01*
X76000000Y-85004819D02*
X75904762Y-85147676D01*
X75904762Y-85147676D02*
X75809524Y-85242914D01*
X75809524Y-85242914D02*
X75714286Y-85290533D01*
%TO.C,J29*%
D13*
X86120000Y-128620000D02*
X87500000Y-128620000D01*
X86120000Y-130000000D02*
X86120000Y-128620000D01*
X86120000Y-131270000D02*
X86120000Y-131380000D01*
X86120000Y-131270000D02*
X88880000Y-131270000D01*
X86120000Y-131380000D02*
X88880000Y-131380000D01*
X88880000Y-131270000D02*
X88880000Y-131380000D01*
%TO.C,J0*%
X61120000Y-83620000D02*
X62500000Y-83620000D01*
X61120000Y-85000000D02*
X61120000Y-83620000D01*
X61120000Y-86270000D02*
X61120000Y-86380000D01*
X61120000Y-86270000D02*
X63880000Y-86270000D01*
X61120000Y-86380000D02*
X63880000Y-86380000D01*
X63880000Y-86270000D02*
X63880000Y-86380000D01*
%TD*%
%LPC*%
D14*
%TO.C,H22*%
X75000000Y-127250000D03*
%TD*%
%TO.C,H21*%
X75000000Y-88750000D03*
%TD*%
D15*
%TO.C,J29*%
X87500000Y-130000000D03*
%TD*%
%TO.C,J0*%
X62500000Y-85000000D03*
%TD*%
%LPD*%
M02*
