%TF.GenerationSoftware,KiCad,Pcbnew,9.0.7*%
%TF.CreationDate,2026-03-10T18:11:30-03:00*%
%TF.ProjectId,DMH_Output_PCB_LEDs,444d485f-4f75-4747-9075-745f5043425f,1*%
%TF.SameCoordinates,Original*%
%TF.FileFunction,Copper,L1,Top*%
%TF.FilePolarity,Positive*%
%FSLAX46Y46*%
G04 Gerber Fmt 4.6, Leading zero omitted, Abs format (unit mm)*
G04 Created by KiCad (PCBNEW 9.0.7) date 2026-03-10 18:11:30*
%MOMM*%
%LPD*%
G01*
G04 APERTURE LIST*
%TA.AperFunction,ComponentPad*%
%ADD10R,1.700000X1.700000*%
%TD*%
G04 APERTURE END LIST*
D10*
%TO.P,J0,1,Pin_1*%
%TO.N,GND*%
X62500000Y-85000000D03*
%TD*%
%TA.AperFunction,Conductor*%
%TO.N,GND*%
G36*
X89442539Y-83020185D02*
G01*
X89488294Y-83072989D01*
X89499500Y-83124500D01*
X89499500Y-131875500D01*
X89479815Y-131942539D01*
X89427011Y-131988294D01*
X89375500Y-131999500D01*
X79934108Y-131999500D01*
X79806812Y-132033608D01*
X79692686Y-132099500D01*
X79692683Y-132099502D01*
X79599502Y-132192683D01*
X79599500Y-132192686D01*
X79533608Y-132306812D01*
X79499500Y-132434108D01*
X79499500Y-155065891D01*
X79533608Y-155193187D01*
X79566554Y-155250250D01*
X79599500Y-155307314D01*
X79692686Y-155400500D01*
X79806814Y-155466392D01*
X79934108Y-155500500D01*
X96875500Y-155500500D01*
X96942539Y-155520185D01*
X96988294Y-155572989D01*
X96999500Y-155624500D01*
X96999500Y-162875500D01*
X96979815Y-162942539D01*
X96927011Y-162988294D01*
X96875500Y-162999500D01*
X94874500Y-162999500D01*
X94807461Y-162979815D01*
X94761706Y-162927011D01*
X94750500Y-162875500D01*
X94750500Y-161162472D01*
X94750500Y-161162468D01*
X94720101Y-160990062D01*
X94660225Y-160825555D01*
X94572692Y-160673945D01*
X94572691Y-160673943D01*
X94572690Y-160673942D01*
X94460163Y-160539836D01*
X94326057Y-160427309D01*
X94174446Y-160339775D01*
X94009937Y-160279898D01*
X93837534Y-160249500D01*
X93837532Y-160249500D01*
X93815892Y-160249500D01*
X89315892Y-160249500D01*
X89250000Y-160249500D01*
X89162468Y-160249500D01*
X89162465Y-160249500D01*
X88990062Y-160279898D01*
X88825553Y-160339775D01*
X88673942Y-160427309D01*
X88539836Y-160539836D01*
X88427309Y-160673942D01*
X88339775Y-160825553D01*
X88279898Y-160990062D01*
X88249500Y-161162465D01*
X88249500Y-162875500D01*
X88229815Y-162942539D01*
X88177011Y-162988294D01*
X88125500Y-162999500D01*
X78374500Y-162999500D01*
X78307461Y-162979815D01*
X78261706Y-162927011D01*
X78250500Y-162875500D01*
X78250500Y-161162472D01*
X78250500Y-161162468D01*
X78220101Y-160990062D01*
X78185033Y-160893713D01*
X80649500Y-160893713D01*
X80649500Y-161106286D01*
X80682753Y-161316239D01*
X80748444Y-161518414D01*
X80844951Y-161707820D01*
X80969890Y-161879786D01*
X81120213Y-162030109D01*
X81292179Y-162155048D01*
X81292181Y-162155049D01*
X81292184Y-162155051D01*
X81481588Y-162251557D01*
X81683757Y-162317246D01*
X81893713Y-162350500D01*
X81893714Y-162350500D01*
X82106286Y-162350500D01*
X82106287Y-162350500D01*
X82316243Y-162317246D01*
X82518412Y-162251557D01*
X82707816Y-162155051D01*
X82729789Y-162139086D01*
X82879786Y-162030109D01*
X82879788Y-162030106D01*
X82879792Y-162030104D01*
X83030104Y-161879792D01*
X83030106Y-161879788D01*
X83030109Y-161879786D01*
X83155048Y-161707820D01*
X83155047Y-161707820D01*
X83155051Y-161707816D01*
X83251557Y-161518412D01*
X83317246Y-161316243D01*
X83350500Y-161106287D01*
X83350500Y-160893713D01*
X83317246Y-160683757D01*
X83251557Y-160481588D01*
X83155051Y-160292184D01*
X83155049Y-160292181D01*
X83155048Y-160292179D01*
X83030109Y-160120213D01*
X82879786Y-159969890D01*
X82707820Y-159844951D01*
X82518414Y-159748444D01*
X82518413Y-159748443D01*
X82518412Y-159748443D01*
X82316243Y-159682754D01*
X82316241Y-159682753D01*
X82316240Y-159682753D01*
X82154957Y-159657208D01*
X82106287Y-159649500D01*
X81893713Y-159649500D01*
X81845042Y-159657208D01*
X81683760Y-159682753D01*
X81481585Y-159748444D01*
X81292179Y-159844951D01*
X81120213Y-159969890D01*
X80969890Y-160120213D01*
X80844951Y-160292179D01*
X80748444Y-160481585D01*
X80682753Y-160683760D01*
X80649500Y-160893713D01*
X78185033Y-160893713D01*
X78160225Y-160825555D01*
X78072692Y-160673945D01*
X78072691Y-160673943D01*
X78072690Y-160673942D01*
X77960163Y-160539836D01*
X77826057Y-160427309D01*
X77674446Y-160339775D01*
X77509937Y-160279898D01*
X77337534Y-160249500D01*
X77337532Y-160249500D01*
X77315892Y-160249500D01*
X72815892Y-160249500D01*
X72750000Y-160249500D01*
X72662468Y-160249500D01*
X72662465Y-160249500D01*
X72490062Y-160279898D01*
X72325553Y-160339775D01*
X72173942Y-160427309D01*
X72039836Y-160539836D01*
X71927309Y-160673942D01*
X71839775Y-160825553D01*
X71779898Y-160990062D01*
X71749500Y-161162465D01*
X71749500Y-162875500D01*
X71729815Y-162942539D01*
X71677011Y-162988294D01*
X71625500Y-162999500D01*
X70624500Y-162999500D01*
X70557461Y-162979815D01*
X70511706Y-162927011D01*
X70500500Y-162875500D01*
X70500500Y-132434110D01*
X70500500Y-132434108D01*
X70466392Y-132306814D01*
X70400500Y-132192686D01*
X70307314Y-132099500D01*
X70250250Y-132066554D01*
X70193187Y-132033608D01*
X70129539Y-132016554D01*
X70065892Y-131999500D01*
X70065891Y-131999500D01*
X60624500Y-131999500D01*
X60557461Y-131979815D01*
X60511706Y-131927011D01*
X60500500Y-131875500D01*
X60500500Y-125162465D01*
X63249500Y-125162465D01*
X63249500Y-126837534D01*
X63279898Y-127009937D01*
X63339775Y-127174446D01*
X63427309Y-127326057D01*
X63539836Y-127460163D01*
X63673942Y-127572690D01*
X63673943Y-127572691D01*
X63673945Y-127572692D01*
X63825555Y-127660225D01*
X63990062Y-127720101D01*
X64162468Y-127750500D01*
X64162472Y-127750500D01*
X68837528Y-127750500D01*
X68837532Y-127750500D01*
X69009938Y-127720101D01*
X69174445Y-127660225D01*
X69326055Y-127572692D01*
X69460163Y-127460163D01*
X69572692Y-127326055D01*
X69660225Y-127174445D01*
X69671411Y-127143713D01*
X73649500Y-127143713D01*
X73649500Y-127356287D01*
X73682754Y-127566243D01*
X73713290Y-127660224D01*
X73748444Y-127768414D01*
X73844951Y-127957820D01*
X73969890Y-128129786D01*
X74120213Y-128280109D01*
X74292179Y-128405048D01*
X74292181Y-128405049D01*
X74292184Y-128405051D01*
X74481588Y-128501557D01*
X74683757Y-128567246D01*
X74893713Y-128600500D01*
X74893714Y-128600500D01*
X75106286Y-128600500D01*
X75106287Y-128600500D01*
X75316243Y-128567246D01*
X75518412Y-128501557D01*
X75707816Y-128405051D01*
X75729789Y-128389086D01*
X75879786Y-128280109D01*
X75879788Y-128280106D01*
X75879792Y-128280104D01*
X76030104Y-128129792D01*
X76030106Y-128129788D01*
X76030109Y-128129786D01*
X76155048Y-127957820D01*
X76155047Y-127957820D01*
X76155051Y-127957816D01*
X76251557Y-127768412D01*
X76317246Y-127566243D01*
X76350500Y-127356287D01*
X76350500Y-127143713D01*
X76317246Y-126933757D01*
X76251557Y-126731588D01*
X76155051Y-126542184D01*
X76155049Y-126542181D01*
X76155048Y-126542179D01*
X76030109Y-126370213D01*
X75879786Y-126219890D01*
X75707820Y-126094951D01*
X75518414Y-125998444D01*
X75518413Y-125998443D01*
X75518412Y-125998443D01*
X75316243Y-125932754D01*
X75316241Y-125932753D01*
X75316240Y-125932753D01*
X75154957Y-125907208D01*
X75106287Y-125899500D01*
X74893713Y-125899500D01*
X74845042Y-125907208D01*
X74683760Y-125932753D01*
X74481585Y-125998444D01*
X74292179Y-126094951D01*
X74120213Y-126219890D01*
X73969890Y-126370213D01*
X73844951Y-126542179D01*
X73748444Y-126731585D01*
X73682753Y-126933760D01*
X73670688Y-127009937D01*
X73649500Y-127143713D01*
X69671411Y-127143713D01*
X69720101Y-127009938D01*
X69750500Y-126837532D01*
X69750500Y-126750000D01*
X69750500Y-126684108D01*
X69750500Y-125184108D01*
X69750500Y-125162468D01*
X69750499Y-125162465D01*
X80249500Y-125162465D01*
X80249500Y-126837534D01*
X80279898Y-127009937D01*
X80339775Y-127174446D01*
X80427309Y-127326057D01*
X80539836Y-127460163D01*
X80673942Y-127572690D01*
X80673943Y-127572691D01*
X80673945Y-127572692D01*
X80825555Y-127660225D01*
X80990062Y-127720101D01*
X81162468Y-127750500D01*
X81162472Y-127750500D01*
X85837528Y-127750500D01*
X85837532Y-127750500D01*
X86009938Y-127720101D01*
X86174445Y-127660225D01*
X86326055Y-127572692D01*
X86460163Y-127460163D01*
X86572692Y-127326055D01*
X86660225Y-127174445D01*
X86720101Y-127009938D01*
X86750500Y-126837532D01*
X86750500Y-126750000D01*
X86750500Y-126684108D01*
X86750500Y-125184108D01*
X86750500Y-125162468D01*
X86720101Y-124990062D01*
X86660225Y-124825555D01*
X86572692Y-124673945D01*
X86572691Y-124673943D01*
X86572690Y-124673942D01*
X86460163Y-124539836D01*
X86326057Y-124427309D01*
X86174446Y-124339775D01*
X86009937Y-124279898D01*
X85837534Y-124249500D01*
X85837532Y-124249500D01*
X85815892Y-124249500D01*
X81315892Y-124249500D01*
X81250000Y-124249500D01*
X81162468Y-124249500D01*
X81162465Y-124249500D01*
X80990062Y-124279898D01*
X80825553Y-124339775D01*
X80673942Y-124427309D01*
X80539836Y-124539836D01*
X80427309Y-124673942D01*
X80339775Y-124825553D01*
X80279898Y-124990062D01*
X80249500Y-125162465D01*
X69750499Y-125162465D01*
X69720101Y-124990062D01*
X69660225Y-124825555D01*
X69572692Y-124673945D01*
X69572691Y-124673943D01*
X69572690Y-124673942D01*
X69460163Y-124539836D01*
X69326057Y-124427309D01*
X69174446Y-124339775D01*
X69009937Y-124279898D01*
X68837534Y-124249500D01*
X68837532Y-124249500D01*
X68815892Y-124249500D01*
X64315892Y-124249500D01*
X64250000Y-124249500D01*
X64162468Y-124249500D01*
X64162465Y-124249500D01*
X63990062Y-124279898D01*
X63825553Y-124339775D01*
X63673942Y-124427309D01*
X63539836Y-124539836D01*
X63427309Y-124673942D01*
X63339775Y-124825553D01*
X63279898Y-124990062D01*
X63249500Y-125162465D01*
X60500500Y-125162465D01*
X60500500Y-121162465D01*
X63249500Y-121162465D01*
X63249500Y-122837534D01*
X63279898Y-123009937D01*
X63339775Y-123174446D01*
X63427309Y-123326057D01*
X63539836Y-123460163D01*
X63673942Y-123572690D01*
X63673943Y-123572691D01*
X63673945Y-123572692D01*
X63825555Y-123660225D01*
X63990062Y-123720101D01*
X64162468Y-123750500D01*
X64162472Y-123750500D01*
X68837528Y-123750500D01*
X68837532Y-123750500D01*
X69009938Y-123720101D01*
X69174445Y-123660225D01*
X69326055Y-123572692D01*
X69460163Y-123460163D01*
X69572692Y-123326055D01*
X69660225Y-123174445D01*
X69720101Y-123009938D01*
X69750500Y-122837532D01*
X69750500Y-122750000D01*
X69750500Y-122684108D01*
X69750500Y-121184108D01*
X69750500Y-121162468D01*
X69750499Y-121162465D01*
X80249500Y-121162465D01*
X80249500Y-122837534D01*
X80279898Y-123009937D01*
X80339775Y-123174446D01*
X80427309Y-123326057D01*
X80539836Y-123460163D01*
X80673942Y-123572690D01*
X80673943Y-123572691D01*
X80673945Y-123572692D01*
X80825555Y-123660225D01*
X80990062Y-123720101D01*
X81162468Y-123750500D01*
X81162472Y-123750500D01*
X85837528Y-123750500D01*
X85837532Y-123750500D01*
X86009938Y-123720101D01*
X86174445Y-123660225D01*
X86326055Y-123572692D01*
X86460163Y-123460163D01*
X86572692Y-123326055D01*
X86660225Y-123174445D01*
X86720101Y-123009938D01*
X86750500Y-122837532D01*
X86750500Y-122750000D01*
X86750500Y-122684108D01*
X86750500Y-121184108D01*
X86750500Y-121162468D01*
X86720101Y-120990062D01*
X86660225Y-120825555D01*
X86572692Y-120673945D01*
X86572691Y-120673943D01*
X86572690Y-120673942D01*
X86460163Y-120539836D01*
X86326057Y-120427309D01*
X86174446Y-120339775D01*
X86009937Y-120279898D01*
X85837534Y-120249500D01*
X85837532Y-120249500D01*
X85815892Y-120249500D01*
X81315892Y-120249500D01*
X81250000Y-120249500D01*
X81162468Y-120249500D01*
X81162465Y-120249500D01*
X80990062Y-120279898D01*
X80825553Y-120339775D01*
X80673942Y-120427309D01*
X80539836Y-120539836D01*
X80427309Y-120673942D01*
X80339775Y-120825553D01*
X80279898Y-120990062D01*
X80249500Y-121162465D01*
X69750499Y-121162465D01*
X69720101Y-120990062D01*
X69660225Y-120825555D01*
X69572692Y-120673945D01*
X69572691Y-120673943D01*
X69572690Y-120673942D01*
X69460163Y-120539836D01*
X69326057Y-120427309D01*
X69174446Y-120339775D01*
X69009937Y-120279898D01*
X68837534Y-120249500D01*
X68837532Y-120249500D01*
X68815892Y-120249500D01*
X64315892Y-120249500D01*
X64250000Y-120249500D01*
X64162468Y-120249500D01*
X64162465Y-120249500D01*
X63990062Y-120279898D01*
X63825553Y-120339775D01*
X63673942Y-120427309D01*
X63539836Y-120539836D01*
X63427309Y-120673942D01*
X63339775Y-120825553D01*
X63279898Y-120990062D01*
X63249500Y-121162465D01*
X60500500Y-121162465D01*
X60500500Y-117162465D01*
X63249500Y-117162465D01*
X63249500Y-118837534D01*
X63279898Y-119009937D01*
X63339775Y-119174446D01*
X63427309Y-119326057D01*
X63539836Y-119460163D01*
X63673942Y-119572690D01*
X63673943Y-119572691D01*
X63673945Y-119572692D01*
X63825555Y-119660225D01*
X63990062Y-119720101D01*
X64162468Y-119750500D01*
X64162472Y-119750500D01*
X68837528Y-119750500D01*
X68837532Y-119750500D01*
X69009938Y-119720101D01*
X69174445Y-119660225D01*
X69326055Y-119572692D01*
X69460163Y-119460163D01*
X69572692Y-119326055D01*
X69660225Y-119174445D01*
X69720101Y-119009938D01*
X69750500Y-118837532D01*
X69750500Y-118750000D01*
X69750500Y-118684108D01*
X69750500Y-117184108D01*
X69750500Y-117162468D01*
X69750499Y-117162465D01*
X80249500Y-117162465D01*
X80249500Y-118837534D01*
X80279898Y-119009937D01*
X80339775Y-119174446D01*
X80427309Y-119326057D01*
X80539836Y-119460163D01*
X80673942Y-119572690D01*
X80673943Y-119572691D01*
X80673945Y-119572692D01*
X80825555Y-119660225D01*
X80990062Y-119720101D01*
X81162468Y-119750500D01*
X81162472Y-119750500D01*
X85837528Y-119750500D01*
X85837532Y-119750500D01*
X86009938Y-119720101D01*
X86174445Y-119660225D01*
X86326055Y-119572692D01*
X86460163Y-119460163D01*
X86572692Y-119326055D01*
X86660225Y-119174445D01*
X86720101Y-119009938D01*
X86750500Y-118837532D01*
X86750500Y-118750000D01*
X86750500Y-118684108D01*
X86750500Y-117184108D01*
X86750500Y-117162468D01*
X86720101Y-116990062D01*
X86660225Y-116825555D01*
X86572692Y-116673945D01*
X86572691Y-116673943D01*
X86572690Y-116673942D01*
X86460163Y-116539836D01*
X86326057Y-116427309D01*
X86174446Y-116339775D01*
X86009937Y-116279898D01*
X85837534Y-116249500D01*
X85837532Y-116249500D01*
X85815892Y-116249500D01*
X81315892Y-116249500D01*
X81250000Y-116249500D01*
X81162468Y-116249500D01*
X81162465Y-116249500D01*
X80990062Y-116279898D01*
X80825553Y-116339775D01*
X80673942Y-116427309D01*
X80539836Y-116539836D01*
X80427309Y-116673942D01*
X80339775Y-116825553D01*
X80279898Y-116990062D01*
X80249500Y-117162465D01*
X69750499Y-117162465D01*
X69720101Y-116990062D01*
X69660225Y-116825555D01*
X69572692Y-116673945D01*
X69572691Y-116673943D01*
X69572690Y-116673942D01*
X69460163Y-116539836D01*
X69326057Y-116427309D01*
X69174446Y-116339775D01*
X69009937Y-116279898D01*
X68837534Y-116249500D01*
X68837532Y-116249500D01*
X68815892Y-116249500D01*
X64315892Y-116249500D01*
X64250000Y-116249500D01*
X64162468Y-116249500D01*
X64162465Y-116249500D01*
X63990062Y-116279898D01*
X63825553Y-116339775D01*
X63673942Y-116427309D01*
X63539836Y-116539836D01*
X63427309Y-116673942D01*
X63339775Y-116825553D01*
X63279898Y-116990062D01*
X63249500Y-117162465D01*
X60500500Y-117162465D01*
X60500500Y-113162465D01*
X63249500Y-113162465D01*
X63249500Y-114837534D01*
X63279898Y-115009937D01*
X63339775Y-115174446D01*
X63427309Y-115326057D01*
X63539836Y-115460163D01*
X63673942Y-115572690D01*
X63673943Y-115572691D01*
X63673945Y-115572692D01*
X63825555Y-115660225D01*
X63990062Y-115720101D01*
X64162468Y-115750500D01*
X64162472Y-115750500D01*
X68837528Y-115750500D01*
X68837532Y-115750500D01*
X69009938Y-115720101D01*
X69174445Y-115660225D01*
X69326055Y-115572692D01*
X69460163Y-115460163D01*
X69572692Y-115326055D01*
X69660225Y-115174445D01*
X69720101Y-115009938D01*
X69750500Y-114837532D01*
X69750500Y-114750000D01*
X69750500Y-114684108D01*
X69750500Y-113184108D01*
X69750500Y-113162468D01*
X69750499Y-113162465D01*
X80249500Y-113162465D01*
X80249500Y-114837534D01*
X80279898Y-115009937D01*
X80339775Y-115174446D01*
X80427309Y-115326057D01*
X80539836Y-115460163D01*
X80673942Y-115572690D01*
X80673943Y-115572691D01*
X80673945Y-115572692D01*
X80825555Y-115660225D01*
X80990062Y-115720101D01*
X81162468Y-115750500D01*
X81162472Y-115750500D01*
X85837528Y-115750500D01*
X85837532Y-115750500D01*
X86009938Y-115720101D01*
X86174445Y-115660225D01*
X86326055Y-115572692D01*
X86460163Y-115460163D01*
X86572692Y-115326055D01*
X86660225Y-115174445D01*
X86720101Y-115009938D01*
X86750500Y-114837532D01*
X86750500Y-114750000D01*
X86750500Y-114684108D01*
X86750500Y-113184108D01*
X86750500Y-113162468D01*
X86720101Y-112990062D01*
X86660225Y-112825555D01*
X86572692Y-112673945D01*
X86572691Y-112673943D01*
X86572690Y-112673942D01*
X86460163Y-112539836D01*
X86326057Y-112427309D01*
X86174446Y-112339775D01*
X86009937Y-112279898D01*
X85837534Y-112249500D01*
X85837532Y-112249500D01*
X85815892Y-112249500D01*
X81315892Y-112249500D01*
X81250000Y-112249500D01*
X81162468Y-112249500D01*
X81162465Y-112249500D01*
X80990062Y-112279898D01*
X80825553Y-112339775D01*
X80673942Y-112427309D01*
X80539836Y-112539836D01*
X80427309Y-112673942D01*
X80339775Y-112825553D01*
X80279898Y-112990062D01*
X80249500Y-113162465D01*
X69750499Y-113162465D01*
X69720101Y-112990062D01*
X69660225Y-112825555D01*
X69572692Y-112673945D01*
X69572691Y-112673943D01*
X69572690Y-112673942D01*
X69460163Y-112539836D01*
X69326057Y-112427309D01*
X69174446Y-112339775D01*
X69009937Y-112279898D01*
X68837534Y-112249500D01*
X68837532Y-112249500D01*
X68815892Y-112249500D01*
X64315892Y-112249500D01*
X64250000Y-112249500D01*
X64162468Y-112249500D01*
X64162465Y-112249500D01*
X63990062Y-112279898D01*
X63825553Y-112339775D01*
X63673942Y-112427309D01*
X63539836Y-112539836D01*
X63427309Y-112673942D01*
X63339775Y-112825553D01*
X63279898Y-112990062D01*
X63249500Y-113162465D01*
X60500500Y-113162465D01*
X60500500Y-109162465D01*
X63249500Y-109162465D01*
X63249500Y-110837534D01*
X63279898Y-111009937D01*
X63339775Y-111174446D01*
X63427309Y-111326057D01*
X63539836Y-111460163D01*
X63673942Y-111572690D01*
X63673943Y-111572691D01*
X63673945Y-111572692D01*
X63825555Y-111660225D01*
X63990062Y-111720101D01*
X64162468Y-111750500D01*
X64162472Y-111750500D01*
X68837528Y-111750500D01*
X68837532Y-111750500D01*
X69009938Y-111720101D01*
X69174445Y-111660225D01*
X69326055Y-111572692D01*
X69460163Y-111460163D01*
X69572692Y-111326055D01*
X69660225Y-111174445D01*
X69720101Y-111009938D01*
X69750500Y-110837532D01*
X69750500Y-110750000D01*
X69750500Y-110684108D01*
X69750500Y-109184108D01*
X69750500Y-109162468D01*
X69750499Y-109162465D01*
X80249500Y-109162465D01*
X80249500Y-110837534D01*
X80279898Y-111009937D01*
X80339775Y-111174446D01*
X80427309Y-111326057D01*
X80539836Y-111460163D01*
X80673942Y-111572690D01*
X80673943Y-111572691D01*
X80673945Y-111572692D01*
X80825555Y-111660225D01*
X80990062Y-111720101D01*
X81162468Y-111750500D01*
X81162472Y-111750500D01*
X85837528Y-111750500D01*
X85837532Y-111750500D01*
X86009938Y-111720101D01*
X86174445Y-111660225D01*
X86326055Y-111572692D01*
X86460163Y-111460163D01*
X86572692Y-111326055D01*
X86660225Y-111174445D01*
X86720101Y-111009938D01*
X86750500Y-110837532D01*
X86750500Y-110750000D01*
X86750500Y-110684108D01*
X86750500Y-109184108D01*
X86750500Y-109162468D01*
X86720101Y-108990062D01*
X86660225Y-108825555D01*
X86572692Y-108673945D01*
X86572691Y-108673943D01*
X86572690Y-108673942D01*
X86460163Y-108539836D01*
X86326057Y-108427309D01*
X86174446Y-108339775D01*
X86009937Y-108279898D01*
X85837534Y-108249500D01*
X85837532Y-108249500D01*
X85815892Y-108249500D01*
X81315892Y-108249500D01*
X81250000Y-108249500D01*
X81162468Y-108249500D01*
X81162465Y-108249500D01*
X80990062Y-108279898D01*
X80825553Y-108339775D01*
X80673942Y-108427309D01*
X80539836Y-108539836D01*
X80427309Y-108673942D01*
X80339775Y-108825553D01*
X80279898Y-108990062D01*
X80249500Y-109162465D01*
X69750499Y-109162465D01*
X69720101Y-108990062D01*
X69660225Y-108825555D01*
X69572692Y-108673945D01*
X69572691Y-108673943D01*
X69572690Y-108673942D01*
X69460163Y-108539836D01*
X69326057Y-108427309D01*
X69174446Y-108339775D01*
X69009937Y-108279898D01*
X68837534Y-108249500D01*
X68837532Y-108249500D01*
X68815892Y-108249500D01*
X64315892Y-108249500D01*
X64250000Y-108249500D01*
X64162468Y-108249500D01*
X64162465Y-108249500D01*
X63990062Y-108279898D01*
X63825553Y-108339775D01*
X63673942Y-108427309D01*
X63539836Y-108539836D01*
X63427309Y-108673942D01*
X63339775Y-108825553D01*
X63279898Y-108990062D01*
X63249500Y-109162465D01*
X60500500Y-109162465D01*
X60500500Y-105162465D01*
X63249500Y-105162465D01*
X63249500Y-106837534D01*
X63279898Y-107009937D01*
X63339775Y-107174446D01*
X63427309Y-107326057D01*
X63539836Y-107460163D01*
X63673942Y-107572690D01*
X63673943Y-107572691D01*
X63673945Y-107572692D01*
X63825555Y-107660225D01*
X63990062Y-107720101D01*
X64162468Y-107750500D01*
X64162472Y-107750500D01*
X68837528Y-107750500D01*
X68837532Y-107750500D01*
X69009938Y-107720101D01*
X69174445Y-107660225D01*
X69326055Y-107572692D01*
X69460163Y-107460163D01*
X69572692Y-107326055D01*
X69660225Y-107174445D01*
X69720101Y-107009938D01*
X69750500Y-106837532D01*
X69750500Y-106750000D01*
X69750500Y-106684108D01*
X69750500Y-105184108D01*
X69750500Y-105162468D01*
X69750499Y-105162465D01*
X80249500Y-105162465D01*
X80249500Y-106837534D01*
X80279898Y-107009937D01*
X80339775Y-107174446D01*
X80427309Y-107326057D01*
X80539836Y-107460163D01*
X80673942Y-107572690D01*
X80673943Y-107572691D01*
X80673945Y-107572692D01*
X80825555Y-107660225D01*
X80990062Y-107720101D01*
X81162468Y-107750500D01*
X81162472Y-107750500D01*
X85837528Y-107750500D01*
X85837532Y-107750500D01*
X86009938Y-107720101D01*
X86174445Y-107660225D01*
X86326055Y-107572692D01*
X86460163Y-107460163D01*
X86572692Y-107326055D01*
X86660225Y-107174445D01*
X86720101Y-107009938D01*
X86750500Y-106837532D01*
X86750500Y-106750000D01*
X86750500Y-106684108D01*
X86750500Y-105184108D01*
X86750500Y-105162468D01*
X86720101Y-104990062D01*
X86660225Y-104825555D01*
X86572692Y-104673945D01*
X86572691Y-104673943D01*
X86572690Y-104673942D01*
X86460163Y-104539836D01*
X86326057Y-104427309D01*
X86174446Y-104339775D01*
X86009937Y-104279898D01*
X85837534Y-104249500D01*
X85837532Y-104249500D01*
X85815892Y-104249500D01*
X81315892Y-104249500D01*
X81250000Y-104249500D01*
X81162468Y-104249500D01*
X81162465Y-104249500D01*
X80990062Y-104279898D01*
X80825553Y-104339775D01*
X80673942Y-104427309D01*
X80539836Y-104539836D01*
X80427309Y-104673942D01*
X80339775Y-104825553D01*
X80279898Y-104990062D01*
X80249500Y-105162465D01*
X69750499Y-105162465D01*
X69720101Y-104990062D01*
X69660225Y-104825555D01*
X69572692Y-104673945D01*
X69572691Y-104673943D01*
X69572690Y-104673942D01*
X69460163Y-104539836D01*
X69326057Y-104427309D01*
X69174446Y-104339775D01*
X69009937Y-104279898D01*
X68837534Y-104249500D01*
X68837532Y-104249500D01*
X68815892Y-104249500D01*
X64315892Y-104249500D01*
X64250000Y-104249500D01*
X64162468Y-104249500D01*
X64162465Y-104249500D01*
X63990062Y-104279898D01*
X63825553Y-104339775D01*
X63673942Y-104427309D01*
X63539836Y-104539836D01*
X63427309Y-104673942D01*
X63339775Y-104825553D01*
X63279898Y-104990062D01*
X63249500Y-105162465D01*
X60500500Y-105162465D01*
X60500500Y-101162465D01*
X63249500Y-101162465D01*
X63249500Y-102837534D01*
X63279898Y-103009937D01*
X63339775Y-103174446D01*
X63427309Y-103326057D01*
X63539836Y-103460163D01*
X63673942Y-103572690D01*
X63673943Y-103572691D01*
X63673945Y-103572692D01*
X63825555Y-103660225D01*
X63990062Y-103720101D01*
X64162468Y-103750500D01*
X64162472Y-103750500D01*
X68837528Y-103750500D01*
X68837532Y-103750500D01*
X69009938Y-103720101D01*
X69174445Y-103660225D01*
X69326055Y-103572692D01*
X69460163Y-103460163D01*
X69572692Y-103326055D01*
X69660225Y-103174445D01*
X69720101Y-103009938D01*
X69750500Y-102837532D01*
X69750500Y-102750000D01*
X69750500Y-102684108D01*
X69750500Y-101184108D01*
X69750500Y-101162468D01*
X69750499Y-101162465D01*
X80249500Y-101162465D01*
X80249500Y-102837534D01*
X80279898Y-103009937D01*
X80339775Y-103174446D01*
X80427309Y-103326057D01*
X80539836Y-103460163D01*
X80673942Y-103572690D01*
X80673943Y-103572691D01*
X80673945Y-103572692D01*
X80825555Y-103660225D01*
X80990062Y-103720101D01*
X81162468Y-103750500D01*
X81162472Y-103750500D01*
X85837528Y-103750500D01*
X85837532Y-103750500D01*
X86009938Y-103720101D01*
X86174445Y-103660225D01*
X86326055Y-103572692D01*
X86460163Y-103460163D01*
X86572692Y-103326055D01*
X86660225Y-103174445D01*
X86720101Y-103009938D01*
X86750500Y-102837532D01*
X86750500Y-102750000D01*
X86750500Y-102684108D01*
X86750500Y-101184108D01*
X86750500Y-101162468D01*
X86720101Y-100990062D01*
X86660225Y-100825555D01*
X86572692Y-100673945D01*
X86572691Y-100673943D01*
X86572690Y-100673942D01*
X86460163Y-100539836D01*
X86326057Y-100427309D01*
X86174446Y-100339775D01*
X86009937Y-100279898D01*
X85837534Y-100249500D01*
X85837532Y-100249500D01*
X85815892Y-100249500D01*
X81315892Y-100249500D01*
X81250000Y-100249500D01*
X81162468Y-100249500D01*
X81162465Y-100249500D01*
X80990062Y-100279898D01*
X80825553Y-100339775D01*
X80673942Y-100427309D01*
X80539836Y-100539836D01*
X80427309Y-100673942D01*
X80339775Y-100825553D01*
X80279898Y-100990062D01*
X80249500Y-101162465D01*
X69750499Y-101162465D01*
X69720101Y-100990062D01*
X69660225Y-100825555D01*
X69572692Y-100673945D01*
X69572691Y-100673943D01*
X69572690Y-100673942D01*
X69460163Y-100539836D01*
X69326057Y-100427309D01*
X69174446Y-100339775D01*
X69009937Y-100279898D01*
X68837534Y-100249500D01*
X68837532Y-100249500D01*
X68815892Y-100249500D01*
X64315892Y-100249500D01*
X64250000Y-100249500D01*
X64162468Y-100249500D01*
X64162465Y-100249500D01*
X63990062Y-100279898D01*
X63825553Y-100339775D01*
X63673942Y-100427309D01*
X63539836Y-100539836D01*
X63427309Y-100673942D01*
X63339775Y-100825553D01*
X63279898Y-100990062D01*
X63249500Y-101162465D01*
X60500500Y-101162465D01*
X60500500Y-97162465D01*
X63249500Y-97162465D01*
X63249500Y-98837534D01*
X63279898Y-99009937D01*
X63339775Y-99174446D01*
X63427309Y-99326057D01*
X63539836Y-99460163D01*
X63673942Y-99572690D01*
X63673943Y-99572691D01*
X63673945Y-99572692D01*
X63825555Y-99660225D01*
X63990062Y-99720101D01*
X64162468Y-99750500D01*
X64162472Y-99750500D01*
X68837528Y-99750500D01*
X68837532Y-99750500D01*
X69009938Y-99720101D01*
X69174445Y-99660225D01*
X69326055Y-99572692D01*
X69460163Y-99460163D01*
X69572692Y-99326055D01*
X69660225Y-99174445D01*
X69720101Y-99009938D01*
X69750500Y-98837532D01*
X69750500Y-98750000D01*
X69750500Y-98684108D01*
X69750500Y-97184108D01*
X69750500Y-97162468D01*
X69750499Y-97162465D01*
X80249500Y-97162465D01*
X80249500Y-98837534D01*
X80279898Y-99009937D01*
X80339775Y-99174446D01*
X80427309Y-99326057D01*
X80539836Y-99460163D01*
X80673942Y-99572690D01*
X80673943Y-99572691D01*
X80673945Y-99572692D01*
X80825555Y-99660225D01*
X80990062Y-99720101D01*
X81162468Y-99750500D01*
X81162472Y-99750500D01*
X85837528Y-99750500D01*
X85837532Y-99750500D01*
X86009938Y-99720101D01*
X86174445Y-99660225D01*
X86326055Y-99572692D01*
X86460163Y-99460163D01*
X86572692Y-99326055D01*
X86660225Y-99174445D01*
X86720101Y-99009938D01*
X86750500Y-98837532D01*
X86750500Y-98750000D01*
X86750500Y-98684108D01*
X86750500Y-97184108D01*
X86750500Y-97162468D01*
X86720101Y-96990062D01*
X86660225Y-96825555D01*
X86572692Y-96673945D01*
X86572691Y-96673943D01*
X86572690Y-96673942D01*
X86460163Y-96539836D01*
X86326057Y-96427309D01*
X86174446Y-96339775D01*
X86009937Y-96279898D01*
X85837534Y-96249500D01*
X85837532Y-96249500D01*
X85815892Y-96249500D01*
X81315892Y-96249500D01*
X81250000Y-96249500D01*
X81162468Y-96249500D01*
X81162465Y-96249500D01*
X80990062Y-96279898D01*
X80825553Y-96339775D01*
X80673942Y-96427309D01*
X80539836Y-96539836D01*
X80427309Y-96673942D01*
X80339775Y-96825553D01*
X80279898Y-96990062D01*
X80249500Y-97162465D01*
X69750499Y-97162465D01*
X69720101Y-96990062D01*
X69660225Y-96825555D01*
X69572692Y-96673945D01*
X69572691Y-96673943D01*
X69572690Y-96673942D01*
X69460163Y-96539836D01*
X69326057Y-96427309D01*
X69174446Y-96339775D01*
X69009937Y-96279898D01*
X68837534Y-96249500D01*
X68837532Y-96249500D01*
X68815892Y-96249500D01*
X64315892Y-96249500D01*
X64250000Y-96249500D01*
X64162468Y-96249500D01*
X64162465Y-96249500D01*
X63990062Y-96279898D01*
X63825553Y-96339775D01*
X63673942Y-96427309D01*
X63539836Y-96539836D01*
X63427309Y-96673942D01*
X63339775Y-96825553D01*
X63279898Y-96990062D01*
X63249500Y-97162465D01*
X60500500Y-97162465D01*
X60500500Y-93162465D01*
X63249500Y-93162465D01*
X63249500Y-94837534D01*
X63279898Y-95009937D01*
X63339775Y-95174446D01*
X63427309Y-95326057D01*
X63539836Y-95460163D01*
X63673942Y-95572690D01*
X63673943Y-95572691D01*
X63673945Y-95572692D01*
X63825555Y-95660225D01*
X63990062Y-95720101D01*
X64162468Y-95750500D01*
X64162472Y-95750500D01*
X68837528Y-95750500D01*
X68837532Y-95750500D01*
X69009938Y-95720101D01*
X69174445Y-95660225D01*
X69326055Y-95572692D01*
X69460163Y-95460163D01*
X69572692Y-95326055D01*
X69660225Y-95174445D01*
X69720101Y-95009938D01*
X69750500Y-94837532D01*
X69750500Y-94750000D01*
X69750500Y-94684108D01*
X69750500Y-93184108D01*
X69750500Y-93162468D01*
X69750499Y-93162465D01*
X80249500Y-93162465D01*
X80249500Y-94837534D01*
X80279898Y-95009937D01*
X80339775Y-95174446D01*
X80427309Y-95326057D01*
X80539836Y-95460163D01*
X80673942Y-95572690D01*
X80673943Y-95572691D01*
X80673945Y-95572692D01*
X80825555Y-95660225D01*
X80990062Y-95720101D01*
X81162468Y-95750500D01*
X81162472Y-95750500D01*
X85837528Y-95750500D01*
X85837532Y-95750500D01*
X86009938Y-95720101D01*
X86174445Y-95660225D01*
X86326055Y-95572692D01*
X86460163Y-95460163D01*
X86572692Y-95326055D01*
X86660225Y-95174445D01*
X86720101Y-95009938D01*
X86750500Y-94837532D01*
X86750500Y-94750000D01*
X86750500Y-94684108D01*
X86750500Y-93184108D01*
X86750500Y-93162468D01*
X86720101Y-92990062D01*
X86660225Y-92825555D01*
X86572692Y-92673945D01*
X86572691Y-92673943D01*
X86572690Y-92673942D01*
X86460163Y-92539836D01*
X86326057Y-92427309D01*
X86174446Y-92339775D01*
X86009937Y-92279898D01*
X85837534Y-92249500D01*
X85837532Y-92249500D01*
X85815892Y-92249500D01*
X81315892Y-92249500D01*
X81250000Y-92249500D01*
X81162468Y-92249500D01*
X81162465Y-92249500D01*
X80990062Y-92279898D01*
X80825553Y-92339775D01*
X80673942Y-92427309D01*
X80539836Y-92539836D01*
X80427309Y-92673942D01*
X80339775Y-92825553D01*
X80279898Y-92990062D01*
X80249500Y-93162465D01*
X69750499Y-93162465D01*
X69720101Y-92990062D01*
X69660225Y-92825555D01*
X69572692Y-92673945D01*
X69572691Y-92673943D01*
X69572690Y-92673942D01*
X69460163Y-92539836D01*
X69326057Y-92427309D01*
X69174446Y-92339775D01*
X69009937Y-92279898D01*
X68837534Y-92249500D01*
X68837532Y-92249500D01*
X68815892Y-92249500D01*
X64315892Y-92249500D01*
X64250000Y-92249500D01*
X64162468Y-92249500D01*
X64162465Y-92249500D01*
X63990062Y-92279898D01*
X63825553Y-92339775D01*
X63673942Y-92427309D01*
X63539836Y-92539836D01*
X63427309Y-92673942D01*
X63339775Y-92825553D01*
X63279898Y-92990062D01*
X63249500Y-93162465D01*
X60500500Y-93162465D01*
X60500500Y-89162465D01*
X63249500Y-89162465D01*
X63249500Y-90837534D01*
X63279898Y-91009937D01*
X63339775Y-91174446D01*
X63427309Y-91326057D01*
X63539836Y-91460163D01*
X63673942Y-91572690D01*
X63673943Y-91572691D01*
X63673945Y-91572692D01*
X63825555Y-91660225D01*
X63990062Y-91720101D01*
X64162468Y-91750500D01*
X64162472Y-91750500D01*
X68837528Y-91750500D01*
X68837532Y-91750500D01*
X69009938Y-91720101D01*
X69174445Y-91660225D01*
X69326055Y-91572692D01*
X69460163Y-91460163D01*
X69572692Y-91326055D01*
X69660225Y-91174445D01*
X69720101Y-91009938D01*
X69750500Y-90837532D01*
X69750500Y-90750000D01*
X69750500Y-90684108D01*
X69750500Y-89184108D01*
X69750500Y-89162468D01*
X69720101Y-88990062D01*
X69660225Y-88825555D01*
X69572692Y-88673945D01*
X69572691Y-88673943D01*
X69572690Y-88673942D01*
X69547325Y-88643713D01*
X73649500Y-88643713D01*
X73649500Y-88856286D01*
X73682753Y-89066239D01*
X73682753Y-89066241D01*
X73682754Y-89066243D01*
X73682754Y-89066244D01*
X73748444Y-89268414D01*
X73844951Y-89457820D01*
X73969890Y-89629786D01*
X74120213Y-89780109D01*
X74292179Y-89905048D01*
X74292181Y-89905049D01*
X74292184Y-89905051D01*
X74481588Y-90001557D01*
X74683757Y-90067246D01*
X74893713Y-90100500D01*
X74893714Y-90100500D01*
X75106286Y-90100500D01*
X75106287Y-90100500D01*
X75316243Y-90067246D01*
X75518412Y-90001557D01*
X75707816Y-89905051D01*
X75729789Y-89889086D01*
X75879786Y-89780109D01*
X75879788Y-89780106D01*
X75879792Y-89780104D01*
X76030104Y-89629792D01*
X76030106Y-89629788D01*
X76030109Y-89629786D01*
X76155048Y-89457820D01*
X76155047Y-89457820D01*
X76155051Y-89457816D01*
X76251557Y-89268412D01*
X76285981Y-89162465D01*
X80249500Y-89162465D01*
X80249500Y-90837534D01*
X80279898Y-91009937D01*
X80339775Y-91174446D01*
X80427309Y-91326057D01*
X80539836Y-91460163D01*
X80673942Y-91572690D01*
X80673943Y-91572691D01*
X80673945Y-91572692D01*
X80825555Y-91660225D01*
X80990062Y-91720101D01*
X81162468Y-91750500D01*
X81162472Y-91750500D01*
X85837528Y-91750500D01*
X85837532Y-91750500D01*
X86009938Y-91720101D01*
X86174445Y-91660225D01*
X86326055Y-91572692D01*
X86460163Y-91460163D01*
X86572692Y-91326055D01*
X86660225Y-91174445D01*
X86720101Y-91009938D01*
X86750500Y-90837532D01*
X86750500Y-90750000D01*
X86750500Y-90684108D01*
X86750500Y-89184108D01*
X86750500Y-89162468D01*
X86720101Y-88990062D01*
X86660225Y-88825555D01*
X86572692Y-88673945D01*
X86572691Y-88673943D01*
X86572690Y-88673942D01*
X86460163Y-88539836D01*
X86326057Y-88427309D01*
X86174446Y-88339775D01*
X86009937Y-88279898D01*
X85837534Y-88249500D01*
X85837532Y-88249500D01*
X85815892Y-88249500D01*
X81315892Y-88249500D01*
X81250000Y-88249500D01*
X81162468Y-88249500D01*
X81162465Y-88249500D01*
X80990062Y-88279898D01*
X80825553Y-88339775D01*
X80673942Y-88427309D01*
X80539836Y-88539836D01*
X80427309Y-88673942D01*
X80339775Y-88825553D01*
X80279898Y-88990062D01*
X80249500Y-89162465D01*
X76285981Y-89162465D01*
X76317246Y-89066243D01*
X76350500Y-88856287D01*
X76350500Y-88643713D01*
X76317246Y-88433757D01*
X76251557Y-88231588D01*
X76155051Y-88042184D01*
X76155049Y-88042181D01*
X76155048Y-88042179D01*
X76030109Y-87870213D01*
X75879786Y-87719890D01*
X75707820Y-87594951D01*
X75518414Y-87498444D01*
X75518413Y-87498443D01*
X75518412Y-87498443D01*
X75316243Y-87432754D01*
X75316241Y-87432753D01*
X75316240Y-87432753D01*
X75154957Y-87407208D01*
X75106287Y-87399500D01*
X74893713Y-87399500D01*
X74845042Y-87407208D01*
X74683760Y-87432753D01*
X74481585Y-87498444D01*
X74292179Y-87594951D01*
X74120213Y-87719890D01*
X73969890Y-87870213D01*
X73844951Y-88042179D01*
X73748444Y-88231585D01*
X73682753Y-88433760D01*
X73649500Y-88643713D01*
X69547325Y-88643713D01*
X69460163Y-88539836D01*
X69326057Y-88427309D01*
X69174446Y-88339775D01*
X69009937Y-88279898D01*
X68837534Y-88249500D01*
X68837532Y-88249500D01*
X68815892Y-88249500D01*
X64315892Y-88249500D01*
X64250000Y-88249500D01*
X64162468Y-88249500D01*
X64162465Y-88249500D01*
X63990062Y-88279898D01*
X63825553Y-88339775D01*
X63673942Y-88427309D01*
X63539836Y-88539836D01*
X63427309Y-88673942D01*
X63339775Y-88825553D01*
X63279898Y-88990062D01*
X63249500Y-89162465D01*
X60500500Y-89162465D01*
X60500500Y-84102155D01*
X61150000Y-84102155D01*
X61150000Y-84750000D01*
X62066988Y-84750000D01*
X62034075Y-84807007D01*
X62000000Y-84934174D01*
X62000000Y-85065826D01*
X62034075Y-85192993D01*
X62066988Y-85250000D01*
X61150000Y-85250000D01*
X61150000Y-85897844D01*
X61156401Y-85957372D01*
X61156403Y-85957379D01*
X61206645Y-86092086D01*
X61206649Y-86092093D01*
X61292809Y-86207187D01*
X61292812Y-86207190D01*
X61407906Y-86293350D01*
X61407913Y-86293354D01*
X61542620Y-86343596D01*
X61542627Y-86343598D01*
X61602155Y-86349999D01*
X61602172Y-86350000D01*
X62250000Y-86350000D01*
X62250000Y-85433012D01*
X62307007Y-85465925D01*
X62434174Y-85500000D01*
X62565826Y-85500000D01*
X62692993Y-85465925D01*
X62750000Y-85433012D01*
X62750000Y-86350000D01*
X63397828Y-86350000D01*
X63397844Y-86349999D01*
X63457372Y-86343598D01*
X63457379Y-86343596D01*
X63592086Y-86293354D01*
X63592093Y-86293350D01*
X63707187Y-86207190D01*
X63707190Y-86207187D01*
X63793350Y-86092093D01*
X63793354Y-86092086D01*
X63843596Y-85957379D01*
X63843598Y-85957372D01*
X63849999Y-85897844D01*
X63850000Y-85897827D01*
X63850000Y-85250000D01*
X62933012Y-85250000D01*
X62965925Y-85192993D01*
X63000000Y-85065826D01*
X63000000Y-84934174D01*
X62965925Y-84807007D01*
X62933012Y-84750000D01*
X63850000Y-84750000D01*
X63850000Y-84102172D01*
X63849999Y-84102155D01*
X63843598Y-84042627D01*
X63843596Y-84042620D01*
X63793354Y-83907913D01*
X63793350Y-83907906D01*
X63707190Y-83792812D01*
X63707187Y-83792809D01*
X63592093Y-83706649D01*
X63592086Y-83706645D01*
X63457379Y-83656403D01*
X63457372Y-83656401D01*
X63397844Y-83650000D01*
X62750000Y-83650000D01*
X62750000Y-84566988D01*
X62692993Y-84534075D01*
X62565826Y-84500000D01*
X62434174Y-84500000D01*
X62307007Y-84534075D01*
X62250000Y-84566988D01*
X62250000Y-83650000D01*
X61602155Y-83650000D01*
X61542627Y-83656401D01*
X61542620Y-83656403D01*
X61407913Y-83706645D01*
X61407906Y-83706649D01*
X61292812Y-83792809D01*
X61292809Y-83792812D01*
X61206649Y-83907906D01*
X61206645Y-83907913D01*
X61156403Y-84042620D01*
X61156401Y-84042627D01*
X61150000Y-84102155D01*
X60500500Y-84102155D01*
X60500500Y-83124500D01*
X60520185Y-83057461D01*
X60572989Y-83011706D01*
X60624500Y-83000500D01*
X89375500Y-83000500D01*
X89442539Y-83020185D01*
G37*
%TD.AperFunction*%
%TD*%
M02*
