%TF.GenerationSoftware,KiCad,Pcbnew,10.0.1*%
%TF.CreationDate,2026-06-25T19:53:14+02:00*%
%TF.ProjectId,DMH_Output_PCB_LEDs,444d485f-4f75-4747-9075-745f5043425f,1*%
%TF.SameCoordinates,Original*%
%TF.FileFunction,Drillmap*%
%TF.FilePolarity,Positive*%
%FSLAX45Y45*%
G04 Gerber Fmt 4.5, Leading zero omitted, Abs format (unit mm)*
G04 Created by KiCad (PCBNEW 10.0.1) date 2026-06-25 19:53:14*
%MOMM*%
%LPD*%
G01*
G04 APERTURE LIST*
%ADD10C,0.050000*%
%ADD11C,0.200000*%
%ADD12C,0.100000*%
G04 APERTURE END LIST*
D10*
X6875000Y-11675000D02*
G75*
G02*
X6925000Y-11725000I0J-50000D01*
G01*
X7000000Y-13250000D02*
X6000000Y-13250000D01*
X8075000Y-12275000D02*
X8075000Y-12125000D01*
X6925000Y-12125000D02*
X6925000Y-12275000D01*
X8575000Y-9675000D02*
G75*
G02*
X8625000Y-9725000I0J-50000D01*
G01*
X8575000Y-11525000D02*
X8125000Y-11525000D01*
X8075000Y-11725000D02*
G75*
G02*
X8125000Y-11675000I50000J0D01*
G01*
X7225000Y-16350000D02*
X7000000Y-16350000D01*
X8575000Y-11925000D02*
X8125000Y-11925000D01*
X8000000Y-13250000D02*
X8000000Y-15500000D01*
X8075000Y-10125000D02*
G75*
G02*
X8125000Y-10075000I50000J0D01*
G01*
X6425000Y-8875000D02*
X6875000Y-8875000D01*
X8125000Y-10325000D02*
G75*
G02*
X8075000Y-10275000I0J50000D01*
G01*
X8575000Y-10725000D02*
X8125000Y-10725000D01*
X6925000Y-11325000D02*
X6925000Y-11475000D01*
X6425000Y-11925000D02*
G75*
G02*
X6375000Y-11875000I0J50000D01*
G01*
X9425000Y-16350000D02*
X9750000Y-16350000D01*
X8875000Y-16350000D02*
X7775000Y-16350000D01*
X6000000Y-13250000D02*
X6000000Y-8250000D01*
X6425000Y-11125000D02*
G75*
G02*
X6375000Y-11075000I0J50000D01*
G01*
X6375000Y-12675000D02*
X6375000Y-12525000D01*
X6375000Y-11475000D02*
X6375000Y-11325000D01*
X8125000Y-9925000D02*
G75*
G02*
X8075000Y-9875000I0J50000D01*
G01*
X8575000Y-9525000D02*
X8125000Y-9525000D01*
X6925000Y-9475000D02*
G75*
G02*
X6875000Y-9525000I-50000J0D01*
G01*
X6375000Y-8925000D02*
G75*
G02*
X6425000Y-8875000I50000J0D01*
G01*
X6375000Y-9475000D02*
X6375000Y-9325000D01*
X8625000Y-9475000D02*
G75*
G02*
X8575000Y-9525000I-50000J0D01*
G01*
X6875000Y-10075000D02*
G75*
G02*
X6925000Y-10125000I0J-50000D01*
G01*
X6875000Y-10325000D02*
X6425000Y-10325000D01*
X8125000Y-9275000D02*
X8575000Y-9275000D01*
X8575000Y-10075000D02*
G75*
G02*
X8625000Y-10125000I0J-50000D01*
G01*
X6875000Y-11275000D02*
G75*
G02*
X6925000Y-11325000I0J-50000D01*
G01*
X6925000Y-12525000D02*
X6925000Y-12675000D01*
X8075000Y-10675000D02*
X8075000Y-10525000D01*
X6375000Y-11325000D02*
G75*
G02*
X6425000Y-11275000I50000J0D01*
G01*
X6875000Y-9675000D02*
G75*
G02*
X6925000Y-9725000I0J-50000D01*
G01*
X8625000Y-10525000D02*
X8625000Y-10675000D01*
X8075000Y-9075000D02*
X8075000Y-8925000D01*
X9375000Y-16075000D02*
G75*
G02*
X9425000Y-16125000I0J-50000D01*
G01*
X6375000Y-10125000D02*
G75*
G02*
X6425000Y-10075000I50000J0D01*
G01*
X8575000Y-9125000D02*
X8125000Y-9125000D01*
X6925000Y-10275000D02*
G75*
G02*
X6875000Y-10325000I-50000J0D01*
G01*
X6375000Y-12125000D02*
G75*
G02*
X6425000Y-12075000I50000J0D01*
G01*
X6425000Y-10875000D02*
X6875000Y-10875000D01*
X8125000Y-8875000D02*
X8575000Y-8875000D01*
X6875000Y-11525000D02*
X6425000Y-11525000D01*
X6425000Y-12325000D02*
G75*
G02*
X6375000Y-12275000I0J50000D01*
G01*
X6425000Y-9125000D02*
G75*
G02*
X6375000Y-9075000I0J50000D01*
G01*
X6425000Y-10475000D02*
X6875000Y-10475000D01*
X7225000Y-16350000D02*
X7225000Y-16125000D01*
X6425000Y-10725000D02*
G75*
G02*
X6375000Y-10675000I0J50000D01*
G01*
X8075000Y-9725000D02*
G75*
G02*
X8125000Y-9675000I50000J0D01*
G01*
X8125000Y-10875000D02*
X8575000Y-10875000D01*
X8075000Y-11475000D02*
X8075000Y-11325000D01*
X7000000Y-16350000D02*
X7000000Y-13250000D01*
X6925000Y-11875000D02*
G75*
G02*
X6875000Y-11925000I-50000J0D01*
G01*
X8625000Y-12525000D02*
X8625000Y-12675000D01*
X8875000Y-16350000D02*
X8875000Y-16125000D01*
X8125000Y-10725000D02*
G75*
G02*
X8075000Y-10675000I0J50000D01*
G01*
X8625000Y-10275000D02*
G75*
G02*
X8575000Y-10325000I-50000J0D01*
G01*
X8575000Y-10875000D02*
G75*
G02*
X8625000Y-10925000I0J-50000D01*
G01*
X8625000Y-8925000D02*
X8625000Y-9075000D01*
X6925000Y-8925000D02*
X6925000Y-9075000D01*
X6875000Y-10725000D02*
X6425000Y-10725000D01*
X8625000Y-9875000D02*
G75*
G02*
X8575000Y-9925000I-50000J0D01*
G01*
X8625000Y-9075000D02*
G75*
G02*
X8575000Y-9125000I-50000J0D01*
G01*
X8625000Y-12275000D02*
G75*
G02*
X8575000Y-12325000I-50000J0D01*
G01*
X7775000Y-16125000D02*
X7775000Y-16350000D01*
X9000000Y-8250000D02*
X9000000Y-13250000D01*
X6875000Y-9525000D02*
X6425000Y-9525000D01*
X6875000Y-9925000D02*
X6425000Y-9925000D01*
X8075000Y-10925000D02*
G75*
G02*
X8125000Y-10875000I50000J0D01*
G01*
X8125000Y-9525000D02*
G75*
G02*
X8075000Y-9475000I0J50000D01*
G01*
X7275000Y-16075000D02*
X7725000Y-16075000D01*
X8625000Y-11075000D02*
G75*
G02*
X8575000Y-11125000I-50000J0D01*
G01*
X7725000Y-16075000D02*
G75*
G02*
X7775000Y-16125000I0J-50000D01*
G01*
X8575000Y-10325000D02*
X8125000Y-10325000D01*
X6375000Y-10675000D02*
X6375000Y-10525000D01*
X8075000Y-10525000D02*
G75*
G02*
X8125000Y-10475000I50000J0D01*
G01*
X6875000Y-10475000D02*
G75*
G02*
X6925000Y-10525000I0J-50000D01*
G01*
X8575000Y-9275000D02*
G75*
G02*
X8625000Y-9325000I0J-50000D01*
G01*
X6375000Y-9725000D02*
G75*
G02*
X6425000Y-9675000I50000J0D01*
G01*
X6425000Y-11275000D02*
X6875000Y-11275000D01*
X6425000Y-12725000D02*
G75*
G02*
X6375000Y-12675000I0J50000D01*
G01*
X8625000Y-11475000D02*
G75*
G02*
X8575000Y-11525000I-50000J0D01*
G01*
X8625000Y-10925000D02*
X8625000Y-11075000D01*
X8925000Y-16075000D02*
X9375000Y-16075000D01*
X8625000Y-11725000D02*
X8625000Y-11875000D01*
X8125000Y-10475000D02*
X8575000Y-10475000D01*
X6425000Y-10075000D02*
X6875000Y-10075000D01*
X8125000Y-11925000D02*
G75*
G02*
X8075000Y-11875000I0J50000D01*
G01*
X8125000Y-12725000D02*
G75*
G02*
X8075000Y-12675000I0J50000D01*
G01*
X8625000Y-9725000D02*
X8625000Y-9875000D01*
X6925000Y-12275000D02*
G75*
G02*
X6875000Y-12325000I-50000J0D01*
G01*
X8575000Y-11125000D02*
X8125000Y-11125000D01*
X9750000Y-16350000D02*
X9750000Y-15500000D01*
X6425000Y-9525000D02*
G75*
G02*
X6375000Y-9475000I0J50000D01*
G01*
X8575000Y-9925000D02*
X8125000Y-9925000D01*
X6925000Y-10925000D02*
X6925000Y-11075000D01*
X8575000Y-11675000D02*
G75*
G02*
X8625000Y-11725000I0J-50000D01*
G01*
X9425000Y-16125000D02*
X9425000Y-16350000D01*
X6375000Y-12275000D02*
X6375000Y-12125000D01*
X6925000Y-9325000D02*
X6925000Y-9475000D01*
X6425000Y-12075000D02*
X6875000Y-12075000D01*
X8625000Y-10675000D02*
G75*
G02*
X8575000Y-10725000I-50000J0D01*
G01*
X8575000Y-11275000D02*
G75*
G02*
X8625000Y-11325000I0J-50000D01*
G01*
X6425000Y-11675000D02*
X6875000Y-11675000D01*
X6925000Y-9725000D02*
X6925000Y-9875000D01*
X6875000Y-9275000D02*
G75*
G02*
X6925000Y-9325000I0J-50000D01*
G01*
X8575000Y-12725000D02*
X8125000Y-12725000D01*
X6875000Y-9125000D02*
X6425000Y-9125000D01*
X6375000Y-9325000D02*
G75*
G02*
X6425000Y-9275000I50000J0D01*
G01*
X6875000Y-12075000D02*
G75*
G02*
X6925000Y-12125000I0J-50000D01*
G01*
X8125000Y-9675000D02*
X8575000Y-9675000D01*
X6375000Y-11075000D02*
X6375000Y-10925000D01*
X8575000Y-10475000D02*
G75*
G02*
X8625000Y-10525000I0J-50000D01*
G01*
X8125000Y-10075000D02*
X8575000Y-10075000D01*
X8625000Y-9325000D02*
X8625000Y-9475000D01*
X8075000Y-10275000D02*
X8075000Y-10125000D01*
X8075000Y-11875000D02*
X8075000Y-11725000D01*
X6000000Y-8250000D02*
X9000000Y-8250000D01*
X8125000Y-11275000D02*
X8575000Y-11275000D01*
X8075000Y-12525000D02*
G75*
G02*
X8125000Y-12475000I50000J0D01*
G01*
X8075000Y-12675000D02*
X8075000Y-12525000D01*
X8075000Y-8925000D02*
G75*
G02*
X8125000Y-8875000I50000J0D01*
G01*
X6925000Y-11075000D02*
G75*
G02*
X6875000Y-11125000I-50000J0D01*
G01*
X8625000Y-12675000D02*
G75*
G02*
X8575000Y-12725000I-50000J0D01*
G01*
X6875000Y-8875000D02*
G75*
G02*
X6925000Y-8925000I0J-50000D01*
G01*
X6375000Y-9075000D02*
X6375000Y-8925000D01*
X8125000Y-11675000D02*
X8575000Y-11675000D01*
X6375000Y-10275000D02*
X6375000Y-10125000D01*
X6425000Y-9675000D02*
X6875000Y-9675000D01*
X8125000Y-11125000D02*
G75*
G02*
X8075000Y-11075000I0J50000D01*
G01*
X6875000Y-10875000D02*
G75*
G02*
X6925000Y-10925000I0J-50000D01*
G01*
X6425000Y-12475000D02*
X6875000Y-12475000D01*
X6375000Y-10925000D02*
G75*
G02*
X6425000Y-10875000I50000J0D01*
G01*
X8075000Y-11325000D02*
G75*
G02*
X8125000Y-11275000I50000J0D01*
G01*
X9750000Y-15500000D02*
X8000000Y-15500000D01*
X8625000Y-11875000D02*
G75*
G02*
X8575000Y-11925000I-50000J0D01*
G01*
X6375000Y-9875000D02*
X6375000Y-9725000D01*
X8575000Y-12075000D02*
G75*
G02*
X8625000Y-12125000I0J-50000D01*
G01*
X6375000Y-12525000D02*
G75*
G02*
X6425000Y-12475000I50000J0D01*
G01*
X8625000Y-12125000D02*
X8625000Y-12275000D01*
X6875000Y-11125000D02*
X6425000Y-11125000D01*
X6925000Y-9075000D02*
G75*
G02*
X6875000Y-9125000I-50000J0D01*
G01*
X6925000Y-11725000D02*
X6925000Y-11875000D01*
X6375000Y-11875000D02*
X6375000Y-11725000D01*
X8575000Y-12475000D02*
G75*
G02*
X8625000Y-12525000I0J-50000D01*
G01*
X8875000Y-16125000D02*
G75*
G02*
X8925000Y-16075000I50000J0D01*
G01*
X7225000Y-16125000D02*
G75*
G02*
X7275000Y-16075000I50000J0D01*
G01*
X6425000Y-9925000D02*
G75*
G02*
X6375000Y-9875000I0J50000D01*
G01*
X6425000Y-11525000D02*
G75*
G02*
X6375000Y-11475000I0J50000D01*
G01*
X8125000Y-12475000D02*
X8575000Y-12475000D01*
X6925000Y-12675000D02*
G75*
G02*
X6875000Y-12725000I-50000J0D01*
G01*
X6875000Y-12325000D02*
X6425000Y-12325000D01*
X8075000Y-9325000D02*
G75*
G02*
X8125000Y-9275000I50000J0D01*
G01*
X6925000Y-10525000D02*
X6925000Y-10675000D01*
X6425000Y-10325000D02*
G75*
G02*
X6375000Y-10275000I0J50000D01*
G01*
X8625000Y-10125000D02*
X8625000Y-10275000D01*
X8075000Y-9475000D02*
X8075000Y-9325000D01*
X8075000Y-9875000D02*
X8075000Y-9725000D01*
X6375000Y-11725000D02*
G75*
G02*
X6425000Y-11675000I50000J0D01*
G01*
X8125000Y-12075000D02*
X8575000Y-12075000D01*
X6925000Y-10125000D02*
X6925000Y-10275000D01*
X6875000Y-11925000D02*
X6425000Y-11925000D01*
X6425000Y-9275000D02*
X6875000Y-9275000D01*
X8075000Y-11075000D02*
X8075000Y-10925000D01*
X6875000Y-12725000D02*
X6425000Y-12725000D01*
X8125000Y-9125000D02*
G75*
G02*
X8075000Y-9075000I0J50000D01*
G01*
X6925000Y-10675000D02*
G75*
G02*
X6875000Y-10725000I-50000J0D01*
G01*
X6875000Y-12475000D02*
G75*
G02*
X6925000Y-12525000I0J-50000D01*
G01*
X6925000Y-11475000D02*
G75*
G02*
X6875000Y-11525000I-50000J0D01*
G01*
X8125000Y-12325000D02*
G75*
G02*
X8075000Y-12275000I0J50000D01*
G01*
X8625000Y-11325000D02*
X8625000Y-11475000D01*
X8125000Y-11525000D02*
G75*
G02*
X8075000Y-11475000I0J50000D01*
G01*
X6375000Y-10525000D02*
G75*
G02*
X6425000Y-10475000I50000J0D01*
G01*
X8575000Y-12325000D02*
X8125000Y-12325000D01*
X8075000Y-12125000D02*
G75*
G02*
X8125000Y-12075000I50000J0D01*
G01*
X9000000Y-13250000D02*
X8000000Y-13250000D01*
X8575000Y-8875000D02*
G75*
G02*
X8625000Y-8925000I0J-50000D01*
G01*
X6925000Y-9875000D02*
G75*
G02*
X6875000Y-9925000I-50000J0D01*
G01*
D11*
D12*
X6200000Y-8450000D02*
X6300000Y-8550000D01*
X6300000Y-8450000D02*
X6200000Y-8550000D01*
X8700000Y-12950000D02*
X8800000Y-13050000D01*
X8800000Y-12950000D02*
X8700000Y-13050000D01*
D11*
X6258277Y-16663984D02*
X6258277Y-16463984D01*
X6258277Y-16463984D02*
X6305896Y-16463984D01*
X6305896Y-16463984D02*
X6334467Y-16473508D01*
X6334467Y-16473508D02*
X6353515Y-16492555D01*
X6353515Y-16492555D02*
X6363039Y-16511603D01*
X6363039Y-16511603D02*
X6372562Y-16549698D01*
X6372562Y-16549698D02*
X6372562Y-16578269D01*
X6372562Y-16578269D02*
X6363039Y-16616365D01*
X6363039Y-16616365D02*
X6353515Y-16635412D01*
X6353515Y-16635412D02*
X6334467Y-16654460D01*
X6334467Y-16654460D02*
X6305896Y-16663984D01*
X6305896Y-16663984D02*
X6258277Y-16663984D01*
X6458277Y-16663984D02*
X6458277Y-16530650D01*
X6458277Y-16568746D02*
X6467801Y-16549698D01*
X6467801Y-16549698D02*
X6477324Y-16540174D01*
X6477324Y-16540174D02*
X6496372Y-16530650D01*
X6496372Y-16530650D02*
X6515420Y-16530650D01*
X6582086Y-16663984D02*
X6582086Y-16530650D01*
X6582086Y-16463984D02*
X6572562Y-16473508D01*
X6572562Y-16473508D02*
X6582086Y-16483031D01*
X6582086Y-16483031D02*
X6591610Y-16473508D01*
X6591610Y-16473508D02*
X6582086Y-16463984D01*
X6582086Y-16463984D02*
X6582086Y-16483031D01*
X6705896Y-16663984D02*
X6686848Y-16654460D01*
X6686848Y-16654460D02*
X6677324Y-16635412D01*
X6677324Y-16635412D02*
X6677324Y-16463984D01*
X6810658Y-16663984D02*
X6791610Y-16654460D01*
X6791610Y-16654460D02*
X6782086Y-16635412D01*
X6782086Y-16635412D02*
X6782086Y-16463984D01*
X7039229Y-16663984D02*
X7039229Y-16463984D01*
X7039229Y-16463984D02*
X7105896Y-16606841D01*
X7105896Y-16606841D02*
X7172562Y-16463984D01*
X7172562Y-16463984D02*
X7172562Y-16663984D01*
X7353515Y-16663984D02*
X7353515Y-16559222D01*
X7353515Y-16559222D02*
X7343991Y-16540174D01*
X7343991Y-16540174D02*
X7324943Y-16530650D01*
X7324943Y-16530650D02*
X7286848Y-16530650D01*
X7286848Y-16530650D02*
X7267801Y-16540174D01*
X7353515Y-16654460D02*
X7334467Y-16663984D01*
X7334467Y-16663984D02*
X7286848Y-16663984D01*
X7286848Y-16663984D02*
X7267801Y-16654460D01*
X7267801Y-16654460D02*
X7258277Y-16635412D01*
X7258277Y-16635412D02*
X7258277Y-16616365D01*
X7258277Y-16616365D02*
X7267801Y-16597317D01*
X7267801Y-16597317D02*
X7286848Y-16587793D01*
X7286848Y-16587793D02*
X7334467Y-16587793D01*
X7334467Y-16587793D02*
X7353515Y-16578269D01*
X7448753Y-16530650D02*
X7448753Y-16730650D01*
X7448753Y-16540174D02*
X7467801Y-16530650D01*
X7467801Y-16530650D02*
X7505896Y-16530650D01*
X7505896Y-16530650D02*
X7524943Y-16540174D01*
X7524943Y-16540174D02*
X7534467Y-16549698D01*
X7534467Y-16549698D02*
X7543991Y-16568746D01*
X7543991Y-16568746D02*
X7543991Y-16625888D01*
X7543991Y-16625888D02*
X7534467Y-16644936D01*
X7534467Y-16644936D02*
X7524943Y-16654460D01*
X7524943Y-16654460D02*
X7505896Y-16663984D01*
X7505896Y-16663984D02*
X7467801Y-16663984D01*
X7467801Y-16663984D02*
X7448753Y-16654460D01*
X7629705Y-16644936D02*
X7639229Y-16654460D01*
X7639229Y-16654460D02*
X7629705Y-16663984D01*
X7629705Y-16663984D02*
X7620182Y-16654460D01*
X7620182Y-16654460D02*
X7629705Y-16644936D01*
X7629705Y-16644936D02*
X7629705Y-16663984D01*
X7629705Y-16540174D02*
X7639229Y-16549698D01*
X7639229Y-16549698D02*
X7629705Y-16559222D01*
X7629705Y-16559222D02*
X7620182Y-16549698D01*
X7620182Y-16549698D02*
X7629705Y-16540174D01*
X7629705Y-16540174D02*
X7629705Y-16559222D01*
D12*
X5897500Y-16942500D02*
X5997500Y-17042500D01*
X5997500Y-16942500D02*
X5897500Y-17042500D01*
D11*
X6363039Y-17083984D02*
X6248753Y-17083984D01*
X6305896Y-17083984D02*
X6305896Y-16883984D01*
X6305896Y-16883984D02*
X6286848Y-16912555D01*
X6286848Y-16912555D02*
X6267801Y-16931603D01*
X6267801Y-16931603D02*
X6248753Y-16941127D01*
X6458277Y-17074460D02*
X6458277Y-17083984D01*
X6458277Y-17083984D02*
X6448753Y-17103031D01*
X6448753Y-17103031D02*
X6439229Y-17112555D01*
X6582086Y-16883984D02*
X6601134Y-16883984D01*
X6601134Y-16883984D02*
X6620182Y-16893508D01*
X6620182Y-16893508D02*
X6629705Y-16903031D01*
X6629705Y-16903031D02*
X6639229Y-16922079D01*
X6639229Y-16922079D02*
X6648753Y-16960174D01*
X6648753Y-16960174D02*
X6648753Y-17007793D01*
X6648753Y-17007793D02*
X6639229Y-17045889D01*
X6639229Y-17045889D02*
X6629705Y-17064936D01*
X6629705Y-17064936D02*
X6620182Y-17074460D01*
X6620182Y-17074460D02*
X6601134Y-17083984D01*
X6601134Y-17083984D02*
X6582086Y-17083984D01*
X6582086Y-17083984D02*
X6563039Y-17074460D01*
X6563039Y-17074460D02*
X6553515Y-17064936D01*
X6553515Y-17064936D02*
X6543991Y-17045889D01*
X6543991Y-17045889D02*
X6534467Y-17007793D01*
X6534467Y-17007793D02*
X6534467Y-16960174D01*
X6534467Y-16960174D02*
X6543991Y-16922079D01*
X6543991Y-16922079D02*
X6553515Y-16903031D01*
X6553515Y-16903031D02*
X6563039Y-16893508D01*
X6563039Y-16893508D02*
X6582086Y-16883984D01*
X6772562Y-16883984D02*
X6791610Y-16883984D01*
X6791610Y-16883984D02*
X6810658Y-16893508D01*
X6810658Y-16893508D02*
X6820182Y-16903031D01*
X6820182Y-16903031D02*
X6829705Y-16922079D01*
X6829705Y-16922079D02*
X6839229Y-16960174D01*
X6839229Y-16960174D02*
X6839229Y-17007793D01*
X6839229Y-17007793D02*
X6829705Y-17045889D01*
X6829705Y-17045889D02*
X6820182Y-17064936D01*
X6820182Y-17064936D02*
X6810658Y-17074460D01*
X6810658Y-17074460D02*
X6791610Y-17083984D01*
X6791610Y-17083984D02*
X6772562Y-17083984D01*
X6772562Y-17083984D02*
X6753515Y-17074460D01*
X6753515Y-17074460D02*
X6743991Y-17064936D01*
X6743991Y-17064936D02*
X6734467Y-17045889D01*
X6734467Y-17045889D02*
X6724943Y-17007793D01*
X6724943Y-17007793D02*
X6724943Y-16960174D01*
X6724943Y-16960174D02*
X6734467Y-16922079D01*
X6734467Y-16922079D02*
X6743991Y-16903031D01*
X6743991Y-16903031D02*
X6753515Y-16893508D01*
X6753515Y-16893508D02*
X6772562Y-16883984D01*
X6963039Y-16883984D02*
X6982086Y-16883984D01*
X6982086Y-16883984D02*
X7001134Y-16893508D01*
X7001134Y-16893508D02*
X7010658Y-16903031D01*
X7010658Y-16903031D02*
X7020182Y-16922079D01*
X7020182Y-16922079D02*
X7029705Y-16960174D01*
X7029705Y-16960174D02*
X7029705Y-17007793D01*
X7029705Y-17007793D02*
X7020182Y-17045889D01*
X7020182Y-17045889D02*
X7010658Y-17064936D01*
X7010658Y-17064936D02*
X7001134Y-17074460D01*
X7001134Y-17074460D02*
X6982086Y-17083984D01*
X6982086Y-17083984D02*
X6963039Y-17083984D01*
X6963039Y-17083984D02*
X6943991Y-17074460D01*
X6943991Y-17074460D02*
X6934467Y-17064936D01*
X6934467Y-17064936D02*
X6924943Y-17045889D01*
X6924943Y-17045889D02*
X6915420Y-17007793D01*
X6915420Y-17007793D02*
X6915420Y-16960174D01*
X6915420Y-16960174D02*
X6924943Y-16922079D01*
X6924943Y-16922079D02*
X6934467Y-16903031D01*
X6934467Y-16903031D02*
X6943991Y-16893508D01*
X6943991Y-16893508D02*
X6963039Y-16883984D01*
X7115420Y-17083984D02*
X7115420Y-16950650D01*
X7115420Y-16969698D02*
X7124943Y-16960174D01*
X7124943Y-16960174D02*
X7143991Y-16950650D01*
X7143991Y-16950650D02*
X7172563Y-16950650D01*
X7172563Y-16950650D02*
X7191610Y-16960174D01*
X7191610Y-16960174D02*
X7201134Y-16979222D01*
X7201134Y-16979222D02*
X7201134Y-17083984D01*
X7201134Y-16979222D02*
X7210658Y-16960174D01*
X7210658Y-16960174D02*
X7229705Y-16950650D01*
X7229705Y-16950650D02*
X7258277Y-16950650D01*
X7258277Y-16950650D02*
X7277324Y-16960174D01*
X7277324Y-16960174D02*
X7286848Y-16979222D01*
X7286848Y-16979222D02*
X7286848Y-17083984D01*
X7382086Y-17083984D02*
X7382086Y-16950650D01*
X7382086Y-16969698D02*
X7391610Y-16960174D01*
X7391610Y-16960174D02*
X7410658Y-16950650D01*
X7410658Y-16950650D02*
X7439229Y-16950650D01*
X7439229Y-16950650D02*
X7458277Y-16960174D01*
X7458277Y-16960174D02*
X7467801Y-16979222D01*
X7467801Y-16979222D02*
X7467801Y-17083984D01*
X7467801Y-16979222D02*
X7477324Y-16960174D01*
X7477324Y-16960174D02*
X7496372Y-16950650D01*
X7496372Y-16950650D02*
X7524943Y-16950650D01*
X7524943Y-16950650D02*
X7543991Y-16960174D01*
X7543991Y-16960174D02*
X7553515Y-16979222D01*
X7553515Y-16979222D02*
X7553515Y-17083984D01*
X7943991Y-16874460D02*
X7772563Y-17131603D01*
X8201134Y-16883984D02*
X8220182Y-16883984D01*
X8220182Y-16883984D02*
X8239229Y-16893508D01*
X8239229Y-16893508D02*
X8248753Y-16903031D01*
X8248753Y-16903031D02*
X8258277Y-16922079D01*
X8258277Y-16922079D02*
X8267801Y-16960174D01*
X8267801Y-16960174D02*
X8267801Y-17007793D01*
X8267801Y-17007793D02*
X8258277Y-17045889D01*
X8258277Y-17045889D02*
X8248753Y-17064936D01*
X8248753Y-17064936D02*
X8239229Y-17074460D01*
X8239229Y-17074460D02*
X8220182Y-17083984D01*
X8220182Y-17083984D02*
X8201134Y-17083984D01*
X8201134Y-17083984D02*
X8182086Y-17074460D01*
X8182086Y-17074460D02*
X8172563Y-17064936D01*
X8172563Y-17064936D02*
X8163039Y-17045889D01*
X8163039Y-17045889D02*
X8153515Y-17007793D01*
X8153515Y-17007793D02*
X8153515Y-16960174D01*
X8153515Y-16960174D02*
X8163039Y-16922079D01*
X8163039Y-16922079D02*
X8172563Y-16903031D01*
X8172563Y-16903031D02*
X8182086Y-16893508D01*
X8182086Y-16893508D02*
X8201134Y-16883984D01*
X8363039Y-17074460D02*
X8363039Y-17083984D01*
X8363039Y-17083984D02*
X8353515Y-17103031D01*
X8353515Y-17103031D02*
X8343991Y-17112555D01*
X8486848Y-16883984D02*
X8505896Y-16883984D01*
X8505896Y-16883984D02*
X8524944Y-16893508D01*
X8524944Y-16893508D02*
X8534468Y-16903031D01*
X8534468Y-16903031D02*
X8543991Y-16922079D01*
X8543991Y-16922079D02*
X8553515Y-16960174D01*
X8553515Y-16960174D02*
X8553515Y-17007793D01*
X8553515Y-17007793D02*
X8543991Y-17045889D01*
X8543991Y-17045889D02*
X8534468Y-17064936D01*
X8534468Y-17064936D02*
X8524944Y-17074460D01*
X8524944Y-17074460D02*
X8505896Y-17083984D01*
X8505896Y-17083984D02*
X8486848Y-17083984D01*
X8486848Y-17083984D02*
X8467801Y-17074460D01*
X8467801Y-17074460D02*
X8458277Y-17064936D01*
X8458277Y-17064936D02*
X8448753Y-17045889D01*
X8448753Y-17045889D02*
X8439229Y-17007793D01*
X8439229Y-17007793D02*
X8439229Y-16960174D01*
X8439229Y-16960174D02*
X8448753Y-16922079D01*
X8448753Y-16922079D02*
X8458277Y-16903031D01*
X8458277Y-16903031D02*
X8467801Y-16893508D01*
X8467801Y-16893508D02*
X8486848Y-16883984D01*
X8620182Y-16883984D02*
X8743991Y-16883984D01*
X8743991Y-16883984D02*
X8677325Y-16960174D01*
X8677325Y-16960174D02*
X8705896Y-16960174D01*
X8705896Y-16960174D02*
X8724944Y-16969698D01*
X8724944Y-16969698D02*
X8734468Y-16979222D01*
X8734468Y-16979222D02*
X8743991Y-16998270D01*
X8743991Y-16998270D02*
X8743991Y-17045889D01*
X8743991Y-17045889D02*
X8734468Y-17064936D01*
X8734468Y-17064936D02*
X8724944Y-17074460D01*
X8724944Y-17074460D02*
X8705896Y-17083984D01*
X8705896Y-17083984D02*
X8648753Y-17083984D01*
X8648753Y-17083984D02*
X8629706Y-17074460D01*
X8629706Y-17074460D02*
X8620182Y-17064936D01*
X8839229Y-17083984D02*
X8877325Y-17083984D01*
X8877325Y-17083984D02*
X8896372Y-17074460D01*
X8896372Y-17074460D02*
X8905896Y-17064936D01*
X8905896Y-17064936D02*
X8924944Y-17036365D01*
X8924944Y-17036365D02*
X8934468Y-16998270D01*
X8934468Y-16998270D02*
X8934468Y-16922079D01*
X8934468Y-16922079D02*
X8924944Y-16903031D01*
X8924944Y-16903031D02*
X8915420Y-16893508D01*
X8915420Y-16893508D02*
X8896372Y-16883984D01*
X8896372Y-16883984D02*
X8858277Y-16883984D01*
X8858277Y-16883984D02*
X8839229Y-16893508D01*
X8839229Y-16893508D02*
X8829706Y-16903031D01*
X8829706Y-16903031D02*
X8820182Y-16922079D01*
X8820182Y-16922079D02*
X8820182Y-16969698D01*
X8820182Y-16969698D02*
X8829706Y-16988746D01*
X8829706Y-16988746D02*
X8839229Y-16998270D01*
X8839229Y-16998270D02*
X8858277Y-17007793D01*
X8858277Y-17007793D02*
X8896372Y-17007793D01*
X8896372Y-17007793D02*
X8915420Y-16998270D01*
X8915420Y-16998270D02*
X8924944Y-16988746D01*
X8924944Y-16988746D02*
X8934468Y-16969698D01*
X9105896Y-16950650D02*
X9105896Y-17083984D01*
X9058277Y-16874460D02*
X9010658Y-17017317D01*
X9010658Y-17017317D02*
X9134468Y-17017317D01*
X9201134Y-16883984D02*
X9201134Y-16922079D01*
X9277325Y-16883984D02*
X9277325Y-16922079D01*
X9572563Y-17160174D02*
X9563039Y-17150650D01*
X9563039Y-17150650D02*
X9543991Y-17122079D01*
X9543991Y-17122079D02*
X9534468Y-17103031D01*
X9534468Y-17103031D02*
X9524944Y-17074460D01*
X9524944Y-17074460D02*
X9515420Y-17026841D01*
X9515420Y-17026841D02*
X9515420Y-16988746D01*
X9515420Y-16988746D02*
X9524944Y-16941127D01*
X9524944Y-16941127D02*
X9534468Y-16912555D01*
X9534468Y-16912555D02*
X9543991Y-16893508D01*
X9543991Y-16893508D02*
X9563039Y-16864936D01*
X9563039Y-16864936D02*
X9572563Y-16855412D01*
X9639230Y-16903031D02*
X9648753Y-16893508D01*
X9648753Y-16893508D02*
X9667801Y-16883984D01*
X9667801Y-16883984D02*
X9715420Y-16883984D01*
X9715420Y-16883984D02*
X9734468Y-16893508D01*
X9734468Y-16893508D02*
X9743991Y-16903031D01*
X9743991Y-16903031D02*
X9753515Y-16922079D01*
X9753515Y-16922079D02*
X9753515Y-16941127D01*
X9753515Y-16941127D02*
X9743991Y-16969698D01*
X9743991Y-16969698D02*
X9629706Y-17083984D01*
X9629706Y-17083984D02*
X9753515Y-17083984D01*
X9991611Y-17083984D02*
X9991611Y-16883984D01*
X10077325Y-17083984D02*
X10077325Y-16979222D01*
X10077325Y-16979222D02*
X10067801Y-16960174D01*
X10067801Y-16960174D02*
X10048753Y-16950650D01*
X10048753Y-16950650D02*
X10020182Y-16950650D01*
X10020182Y-16950650D02*
X10001134Y-16960174D01*
X10001134Y-16960174D02*
X9991611Y-16969698D01*
X10201134Y-17083984D02*
X10182087Y-17074460D01*
X10182087Y-17074460D02*
X10172563Y-17064936D01*
X10172563Y-17064936D02*
X10163039Y-17045889D01*
X10163039Y-17045889D02*
X10163039Y-16988746D01*
X10163039Y-16988746D02*
X10172563Y-16969698D01*
X10172563Y-16969698D02*
X10182087Y-16960174D01*
X10182087Y-16960174D02*
X10201134Y-16950650D01*
X10201134Y-16950650D02*
X10229706Y-16950650D01*
X10229706Y-16950650D02*
X10248753Y-16960174D01*
X10248753Y-16960174D02*
X10258277Y-16969698D01*
X10258277Y-16969698D02*
X10267801Y-16988746D01*
X10267801Y-16988746D02*
X10267801Y-17045889D01*
X10267801Y-17045889D02*
X10258277Y-17064936D01*
X10258277Y-17064936D02*
X10248753Y-17074460D01*
X10248753Y-17074460D02*
X10229706Y-17083984D01*
X10229706Y-17083984D02*
X10201134Y-17083984D01*
X10382087Y-17083984D02*
X10363039Y-17074460D01*
X10363039Y-17074460D02*
X10353515Y-17055412D01*
X10353515Y-17055412D02*
X10353515Y-16883984D01*
X10534468Y-17074460D02*
X10515420Y-17083984D01*
X10515420Y-17083984D02*
X10477325Y-17083984D01*
X10477325Y-17083984D02*
X10458277Y-17074460D01*
X10458277Y-17074460D02*
X10448753Y-17055412D01*
X10448753Y-17055412D02*
X10448753Y-16979222D01*
X10448753Y-16979222D02*
X10458277Y-16960174D01*
X10458277Y-16960174D02*
X10477325Y-16950650D01*
X10477325Y-16950650D02*
X10515420Y-16950650D01*
X10515420Y-16950650D02*
X10534468Y-16960174D01*
X10534468Y-16960174D02*
X10543992Y-16979222D01*
X10543992Y-16979222D02*
X10543992Y-16998270D01*
X10543992Y-16998270D02*
X10448753Y-17017317D01*
X10620182Y-17074460D02*
X10639230Y-17083984D01*
X10639230Y-17083984D02*
X10677325Y-17083984D01*
X10677325Y-17083984D02*
X10696373Y-17074460D01*
X10696373Y-17074460D02*
X10705896Y-17055412D01*
X10705896Y-17055412D02*
X10705896Y-17045889D01*
X10705896Y-17045889D02*
X10696373Y-17026841D01*
X10696373Y-17026841D02*
X10677325Y-17017317D01*
X10677325Y-17017317D02*
X10648753Y-17017317D01*
X10648753Y-17017317D02*
X10629706Y-17007793D01*
X10629706Y-17007793D02*
X10620182Y-16988746D01*
X10620182Y-16988746D02*
X10620182Y-16979222D01*
X10620182Y-16979222D02*
X10629706Y-16960174D01*
X10629706Y-16960174D02*
X10648753Y-16950650D01*
X10648753Y-16950650D02*
X10677325Y-16950650D01*
X10677325Y-16950650D02*
X10696373Y-16960174D01*
X10772563Y-17160174D02*
X10782087Y-17150650D01*
X10782087Y-17150650D02*
X10801134Y-17122079D01*
X10801134Y-17122079D02*
X10810658Y-17103031D01*
X10810658Y-17103031D02*
X10820182Y-17074460D01*
X10820182Y-17074460D02*
X10829706Y-17026841D01*
X10829706Y-17026841D02*
X10829706Y-16988746D01*
X10829706Y-16988746D02*
X10820182Y-16941127D01*
X10820182Y-16941127D02*
X10810658Y-16912555D01*
X10810658Y-16912555D02*
X10801134Y-16893508D01*
X10801134Y-16893508D02*
X10782087Y-16864936D01*
X10782087Y-16864936D02*
X10772563Y-16855412D01*
M02*
