M48
; DRILL file {KiCad 9.0.7} date 2026-03-10T17:37:35-0300
; FORMAT={-:-/ absolute / metric / decimal}
; #@! TF.CreationDate,2026-03-10T17:37:35-03:00
; #@! TF.GenerationSoftware,Kicad,Pcbnew,9.0.7
; #@! TF.FileFunction,Plated,1,2,PTH
FMAT,2
METRIC
; #@! TA.AperFunction,Plated,PTH,ViaDrill
T1C0.300
; #@! TA.AperFunction,Plated,PTH,ComponentDrill
T2C0.800
; #@! TA.AperFunction,Plated,PTH,ComponentDrill
T3C0.900
; #@! TA.AperFunction,Plated,PTH,ComponentDrill
T4C1.000
; #@! TA.AperFunction,Plated,PTH,ComponentDrill
T5C1.100
%
G90
G05
T1
X75.0Y-158.25
T2
X52.75Y-154.44
X52.75Y-162.06
X53.6Y-131.0
X53.6Y-136.0
X53.69Y-82.635
X53.69Y-85.175
X53.69Y-87.715
X53.69Y-90.255
X53.69Y-92.795
X53.69Y-95.335
X53.69Y-97.875
X53.69Y-107.635
X53.69Y-110.175
X53.69Y-112.715
X53.69Y-115.255
X53.69Y-117.795
X53.69Y-120.335
X53.69Y-122.875
X55.0Y-79.25
X55.0Y-101.25
X55.0Y-104.25
X55.0Y-126.25
X56.19Y-44.5
X56.19Y-49.5
X56.19Y-53.75
X56.385Y-130.44
X56.385Y-138.06
X58.69Y-159.0
X58.69Y-162.0
X58.925Y-130.44
X58.925Y-138.06
X58.94Y-66.5
X58.94Y-71.5
X60.0Y-79.25
X60.0Y-101.25
X60.0Y-104.25
X60.0Y-126.25
X60.21Y-60.2
X61.31Y-82.635
X61.31Y-85.175
X61.31Y-87.715
X61.31Y-90.255
X61.31Y-92.795
X61.31Y-95.335
X61.31Y-97.875
X61.31Y-107.635
X61.31Y-110.175
X61.31Y-112.715
X61.31Y-115.255
X61.31Y-117.795
X61.31Y-120.335
X61.31Y-122.875
X61.465Y-130.44
X61.465Y-138.06
X62.75Y-60.2
X63.81Y-44.5
X63.81Y-49.5
X63.81Y-53.75
X64.005Y-130.44
X64.005Y-138.06
X64.5Y-76.9
X64.5Y-81.9
X65.29Y-60.2
X66.31Y-159.0
X66.31Y-162.0
X66.545Y-130.44
X66.545Y-138.06
X66.56Y-66.5
X66.56Y-71.5
X66.69Y-44.5
X66.69Y-49.5
X66.69Y-53.75
X67.385Y-76.94
X67.385Y-84.56
X69.085Y-130.44
X69.085Y-138.06
X69.925Y-76.94
X69.925Y-84.56
X71.19Y-93.0
X71.19Y-96.0
X71.19Y-99.0
X71.19Y-102.0
X71.19Y-105.0
X71.19Y-108.0
X71.19Y-111.0
X71.19Y-114.0
X71.19Y-117.0
X71.19Y-120.0
X71.19Y-123.0
X71.19Y-142.0
X71.19Y-145.0
X71.19Y-148.0
X71.19Y-155.25
X71.19Y-158.25
X71.625Y-130.44
X71.625Y-138.06
X72.465Y-76.94
X72.465Y-84.56
X74.31Y-44.5
X74.31Y-49.5
X74.31Y-53.75
X75.0Y-131.75
X75.0Y-136.75
X75.005Y-76.94
X75.005Y-84.56
X77.545Y-76.94
X77.545Y-84.56
X78.385Y-130.44
X78.385Y-138.06
X78.81Y-93.0
X78.81Y-96.0
X78.81Y-99.0
X78.81Y-102.0
X78.81Y-105.0
X78.81Y-108.0
X78.81Y-111.0
X78.81Y-114.0
X78.81Y-117.0
X78.81Y-120.0
X78.81Y-123.0
X78.81Y-142.0
X78.81Y-145.0
X78.81Y-148.0
X78.81Y-155.25
X78.81Y-158.25
X80.0Y-44.46
X80.0Y-47.0
X80.0Y-49.54
X80.085Y-76.94
X80.085Y-84.56
X80.925Y-130.44
X80.925Y-138.06
X82.625Y-76.94
X82.625Y-84.56
X83.46Y-71.3
X83.465Y-130.44
X83.465Y-138.06
X84.94Y-44.5
X84.94Y-49.5
X84.94Y-54.5
X85.44Y-159.0
X85.5Y-76.9
X85.5Y-81.9
X86.0Y-71.3
X86.005Y-130.44
X86.005Y-138.06
X88.54Y-71.3
X88.545Y-130.44
X88.545Y-138.06
X88.69Y-82.635
X88.69Y-85.175
X88.69Y-87.715
X88.69Y-90.255
X88.69Y-92.795
X88.69Y-95.335
X88.69Y-97.875
X88.69Y-107.635
X88.69Y-110.175
X88.69Y-112.715
X88.69Y-115.255
X88.69Y-117.795
X88.69Y-120.335
X88.69Y-122.875
X90.0Y-79.25
X90.0Y-101.25
X90.0Y-104.25
X90.0Y-126.25
X91.085Y-130.44
X91.085Y-138.06
X92.56Y-44.5
X92.56Y-49.5
X92.56Y-54.5
X92.9Y-69.5
X92.9Y-74.5
X93.06Y-159.0
X93.625Y-130.44
X93.625Y-138.06
X95.0Y-79.25
X95.0Y-101.25
X95.0Y-104.25
X95.0Y-126.25
X96.31Y-82.635
X96.31Y-85.175
X96.31Y-87.715
X96.31Y-90.255
X96.31Y-92.795
X96.31Y-95.335
X96.31Y-97.875
X96.31Y-107.635
X96.31Y-110.175
X96.31Y-112.715
X96.31Y-115.255
X96.31Y-117.795
X96.31Y-120.335
X96.31Y-122.875
X96.49Y-131.0
X96.49Y-136.0
X97.25Y-154.44
X97.25Y-162.06
T3
X65.23Y-90.0
X65.23Y-94.0
X65.23Y-98.0
X65.23Y-102.0
X65.23Y-106.0
X65.23Y-110.0
X65.23Y-114.0
X65.23Y-118.0
X65.23Y-122.0
X65.23Y-126.0
X67.77Y-90.0
X67.77Y-94.0
X67.77Y-98.0
X67.77Y-102.0
X67.77Y-106.0
X67.77Y-110.0
X67.77Y-114.0
X67.77Y-118.0
X67.77Y-122.0
X67.77Y-126.0
X72.46Y-162.0
X75.0Y-162.0
X77.54Y-162.0
X82.23Y-90.0
X82.23Y-94.0
X82.23Y-98.0
X82.23Y-102.0
X82.23Y-106.0
X82.23Y-110.0
X82.23Y-114.0
X82.23Y-118.0
X82.23Y-122.0
X82.23Y-126.0
X84.77Y-90.0
X84.77Y-94.0
X84.77Y-98.0
X84.77Y-102.0
X84.77Y-106.0
X84.77Y-110.0
X84.77Y-114.0
X84.77Y-118.0
X84.77Y-122.0
X84.77Y-126.0
X88.96Y-162.0
X91.5Y-162.0
X94.04Y-162.0
T4
X52.775Y-54.425
X52.775Y-56.965
X52.775Y-59.505
X52.775Y-62.045
X52.775Y-64.585
X52.775Y-67.125
X52.775Y-138.925
X52.775Y-141.465
X52.775Y-144.005
X52.775Y-146.545
X52.775Y-149.085
X52.775Y-151.625
X60.0Y-152.5
X60.0Y-155.0
X62.5Y-152.5
X62.5Y-155.0
X65.0Y-152.5
X65.0Y-155.0
X70.0Y-151.725
X72.5Y-69.5
X72.5Y-72.0
X72.54Y-151.725
X75.0Y-69.5
X75.0Y-72.0
X77.5Y-69.5
X77.5Y-72.0
X77.5Y-151.7
X80.04Y-151.7
X85.0Y-152.5
X85.0Y-155.0
X87.5Y-152.5
X87.5Y-155.0
X90.0Y-152.5
X90.0Y-155.0
X97.275Y-54.425
X97.275Y-56.965
X97.275Y-59.505
X97.275Y-62.045
X97.275Y-64.585
X97.275Y-67.125
X97.275Y-138.925
X97.275Y-141.465
X97.275Y-144.005
X97.275Y-146.545
X97.275Y-149.085
X97.275Y-151.625
T5
G00X57.75Y-145.35
M15
G01X57.75Y-144.65
M16
G05
G00X67.25Y-145.35
M15
G01X67.25Y-144.65
M16
G05
G00X70.25Y-62.35
M15
G01X70.25Y-61.65
M16
G05
G00X79.75Y-62.35
M15
G01X79.75Y-61.65
M16
G05
G00X82.75Y-145.35
M15
G01X82.75Y-144.65
M16
G05
G00X92.25Y-145.35
M15
G01X92.25Y-144.65
M16
G05
M30
