%TF.GenerationSoftware,KiCad,Pcbnew,9.0.7*%
%TF.CreationDate,2026-03-10T17:37:20-03:00*%
%TF.ProjectId,DMH_Output_PCB_Controls,444d485f-4f75-4747-9075-745f5043425f,1*%
%TF.SameCoordinates,Original*%
%TF.FileFunction,Soldermask,Bot*%
%TF.FilePolarity,Negative*%
%FSLAX46Y46*%
G04 Gerber Fmt 4.6, Leading zero omitted, Abs format (unit mm)*
G04 Created by KiCad (PCBNEW 9.0.7) date 2026-03-10 17:37:20*
%MOMM*%
%LPD*%
G01*
G04 APERTURE LIST*
G04 Aperture macros list*
%AMRoundRect*
0 Rectangle with rounded corners*
0 $1 Rounding radius*
0 $2 $3 $4 $5 $6 $7 $8 $9 X,Y pos of 4 corners*
0 Add a 4 corners polygon primitive as box body*
4,1,4,$2,$3,$4,$5,$6,$7,$8,$9,$2,$3,0*
0 Add four circle primitives for the rounded corners*
1,1,$1+$1,$2,$3*
1,1,$1+$1,$4,$5*
1,1,$1+$1,$6,$7*
1,1,$1+$1,$8,$9*
0 Add four rect primitives between the rounded corners*
20,1,$1+$1,$2,$3,$4,$5,0*
20,1,$1+$1,$4,$5,$6,$7,0*
20,1,$1+$1,$6,$7,$8,$9,0*
20,1,$1+$1,$8,$9,$2,$3,0*%
G04 Aperture macros list end*
%ADD10C,1.600000*%
%ADD11R,1.800000X1.800000*%
%ADD12C,1.800000*%
%ADD13R,1.500000X1.500000*%
%ADD14C,1.500000*%
%ADD15RoundRect,0.250000X-0.550000X-0.550000X0.550000X-0.550000X0.550000X0.550000X-0.550000X0.550000X0*%
%ADD16C,2.200000*%
%ADD17O,2.720000X3.240000*%
%ADD18RoundRect,0.250000X0.550000X-0.550000X0.550000X0.550000X-0.550000X0.550000X-0.550000X-0.550000X0*%
%ADD19RoundRect,0.250000X0.550000X0.550000X-0.550000X0.550000X-0.550000X-0.550000X0.550000X-0.550000X0*%
%ADD20R,1.700000X1.700000*%
%ADD21C,1.700000*%
G04 APERTURE END LIST*
D10*
%TO.C,C66*%
X90000000Y-79250000D03*
X95000000Y-79250000D03*
%TD*%
%TO.C,R11*%
X71190000Y-99000000D03*
X78810000Y-99000000D03*
%TD*%
%TO.C,R4*%
X92560000Y-54500000D03*
X84940000Y-54500000D03*
%TD*%
D11*
%TO.C,D22*%
X65230000Y-110000000D03*
D12*
X67770000Y-110000000D03*
%TD*%
D10*
%TO.C,R105*%
X78810000Y-148000000D03*
X71190000Y-148000000D03*
%TD*%
D11*
%TO.C,D32*%
X94040000Y-162000000D03*
D12*
X91500000Y-162000000D03*
X88960000Y-162000000D03*
%TD*%
D10*
%TO.C,R22*%
X58940000Y-71500000D03*
X66560000Y-71500000D03*
%TD*%
D13*
%TO.C,U21*%
X83460000Y-71300000D03*
D14*
X86000000Y-71300000D03*
X88540000Y-71300000D03*
%TD*%
D11*
%TO.C,D20*%
X65230000Y-102000000D03*
D12*
X67770000Y-102000000D03*
%TD*%
D15*
%TO.C,U2*%
X53690000Y-82635000D03*
D10*
X53690000Y-85175000D03*
X53690000Y-87715000D03*
X53690000Y-90255000D03*
X53690000Y-92795000D03*
X53690000Y-95335000D03*
X53690000Y-97875000D03*
X61310000Y-97875000D03*
X61310000Y-95335000D03*
X61310000Y-92795000D03*
X61310000Y-90255000D03*
X61310000Y-87715000D03*
X61310000Y-85175000D03*
X61310000Y-82635000D03*
%TD*%
%TO.C,C77*%
X64500000Y-81900000D03*
X64500000Y-76900000D03*
%TD*%
D16*
%TO.C,H22*%
X75000000Y-127250000D03*
%TD*%
D11*
%TO.C,D17*%
X65230000Y-90000000D03*
D12*
X67770000Y-90000000D03*
%TD*%
D10*
%TO.C,C65*%
X55000000Y-104250000D03*
X60000000Y-104250000D03*
%TD*%
%TO.C,C58*%
X55000000Y-79250000D03*
X60000000Y-79250000D03*
%TD*%
%TO.C,R9*%
X71190000Y-93000000D03*
X78810000Y-93000000D03*
%TD*%
%TO.C,R10*%
X71190000Y-96000000D03*
X78810000Y-96000000D03*
%TD*%
%TO.C,R21*%
X63810000Y-44500000D03*
X56190000Y-44500000D03*
%TD*%
%TO.C,R13*%
X71190000Y-105000000D03*
X78810000Y-105000000D03*
%TD*%
D11*
%TO.C,D23*%
X65230000Y-114000000D03*
D12*
X67770000Y-114000000D03*
%TD*%
D10*
%TO.C,R90*%
X66310000Y-159000000D03*
X58690000Y-159000000D03*
%TD*%
%TO.C,R15*%
X71190000Y-111000000D03*
X78810000Y-111000000D03*
%TD*%
D11*
%TO.C,D7*%
X82230000Y-126000000D03*
D12*
X84770000Y-126000000D03*
%TD*%
D17*
%TO.C,RV3*%
X82750000Y-145000000D03*
X92250000Y-145000000D03*
D11*
X85000000Y-152500000D03*
D12*
X87500000Y-152500000D03*
X90000000Y-152500000D03*
X85000000Y-155000000D03*
X87500000Y-155000000D03*
X90000000Y-155000000D03*
%TD*%
D10*
%TO.C,R88*%
X66310000Y-162000000D03*
X58690000Y-162000000D03*
%TD*%
%TO.C,R19*%
X71190000Y-123000000D03*
X78810000Y-123000000D03*
%TD*%
D18*
%TO.C,U24*%
X56385000Y-138060000D03*
D10*
X58925000Y-138060000D03*
X61465000Y-138060000D03*
X64005000Y-138060000D03*
X66545000Y-138060000D03*
X69085000Y-138060000D03*
X71625000Y-138060000D03*
X71625000Y-130440000D03*
X69085000Y-130440000D03*
X66545000Y-130440000D03*
X64005000Y-130440000D03*
X61465000Y-130440000D03*
X58925000Y-130440000D03*
X56385000Y-130440000D03*
%TD*%
D15*
%TO.C,U4*%
X88690000Y-82635000D03*
D10*
X88690000Y-85175000D03*
X88690000Y-87715000D03*
X88690000Y-90255000D03*
X88690000Y-92795000D03*
X88690000Y-95335000D03*
X88690000Y-97875000D03*
X96310000Y-97875000D03*
X96310000Y-95335000D03*
X96310000Y-92795000D03*
X96310000Y-90255000D03*
X96310000Y-87715000D03*
X96310000Y-85175000D03*
X96310000Y-82635000D03*
%TD*%
D18*
%TO.C,U6*%
X67385000Y-84560000D03*
D10*
X69925000Y-84560000D03*
X72465000Y-84560000D03*
X75005000Y-84560000D03*
X77545000Y-84560000D03*
X80085000Y-84560000D03*
X82625000Y-84560000D03*
X82625000Y-76940000D03*
X80085000Y-76940000D03*
X77545000Y-76940000D03*
X75005000Y-76940000D03*
X72465000Y-76940000D03*
X69925000Y-76940000D03*
X67385000Y-76940000D03*
%TD*%
D11*
%TO.C,D25*%
X65230000Y-122000000D03*
D12*
X67770000Y-122000000D03*
%TD*%
D11*
%TO.C,D31*%
X77540000Y-162000000D03*
D12*
X75000000Y-162000000D03*
X72460000Y-162000000D03*
%TD*%
D11*
%TO.C,D19*%
X65230000Y-98000000D03*
D12*
X67770000Y-98000000D03*
%TD*%
D17*
%TO.C,RV1*%
X70250000Y-62000000D03*
X79750000Y-62000000D03*
D11*
X72500000Y-69500000D03*
D12*
X75000000Y-69500000D03*
X77500000Y-69500000D03*
X72500000Y-72000000D03*
X75000000Y-72000000D03*
X77500000Y-72000000D03*
%TD*%
D11*
%TO.C,D15*%
X82230000Y-94000000D03*
D12*
X84770000Y-94000000D03*
%TD*%
D11*
%TO.C,D14*%
X82230000Y-98000000D03*
D12*
X84770000Y-98000000D03*
%TD*%
D10*
%TO.C,C68*%
X90000000Y-101250000D03*
X95000000Y-101250000D03*
%TD*%
%TO.C,R102*%
X78810000Y-145000000D03*
X71190000Y-145000000D03*
%TD*%
%TO.C,C42*%
X92900000Y-69500000D03*
X92900000Y-74500000D03*
%TD*%
D11*
%TO.C,D16*%
X82230000Y-90000000D03*
D12*
X84770000Y-90000000D03*
%TD*%
D11*
%TO.C,D12*%
X82230000Y-106000000D03*
D12*
X84770000Y-106000000D03*
%TD*%
D10*
%TO.C,R24*%
X92560000Y-44500000D03*
X84940000Y-44500000D03*
%TD*%
%TO.C,R18*%
X71190000Y-120000000D03*
X78810000Y-120000000D03*
%TD*%
D13*
%TO.C,Q1*%
X60210000Y-60200000D03*
D14*
X62750000Y-60200000D03*
X65290000Y-60200000D03*
%TD*%
D19*
%TO.C,D27*%
X63810000Y-49500000D03*
D10*
X56190000Y-49500000D03*
%TD*%
%TO.C,C60*%
X55000000Y-101250000D03*
X60000000Y-101250000D03*
%TD*%
%TO.C,R109*%
X97250000Y-162060000D03*
X97250000Y-154440000D03*
%TD*%
%TO.C,R23*%
X74310000Y-44500000D03*
X66690000Y-44500000D03*
%TD*%
D16*
%TO.C,H21*%
X75000000Y-88750000D03*
%TD*%
D11*
%TO.C,D18*%
X65230000Y-94000000D03*
D12*
X67770000Y-94000000D03*
%TD*%
D15*
%TO.C,U3*%
X53690000Y-107635000D03*
D10*
X53690000Y-110175000D03*
X53690000Y-112715000D03*
X53690000Y-115255000D03*
X53690000Y-117795000D03*
X53690000Y-120335000D03*
X53690000Y-122875000D03*
X61310000Y-122875000D03*
X61310000Y-120335000D03*
X61310000Y-117795000D03*
X61310000Y-115255000D03*
X61310000Y-112715000D03*
X61310000Y-110175000D03*
X61310000Y-107635000D03*
%TD*%
D11*
%TO.C,D26*%
X65230000Y-126000000D03*
D12*
X67770000Y-126000000D03*
%TD*%
D10*
%TO.C,C43*%
X53600000Y-136000000D03*
X53600000Y-131000000D03*
%TD*%
D16*
%TO.C,H23*%
X82000000Y-161000000D03*
%TD*%
D10*
%TO.C,R16*%
X71190000Y-114000000D03*
X78810000Y-114000000D03*
%TD*%
D17*
%TO.C,RV2*%
X57750000Y-145000000D03*
X67250000Y-145000000D03*
D11*
X60000000Y-152500000D03*
D12*
X62500000Y-152500000D03*
X65000000Y-152500000D03*
X60000000Y-155000000D03*
X62500000Y-155000000D03*
X65000000Y-155000000D03*
%TD*%
D13*
%TO.C,Q2*%
X80000000Y-49540000D03*
D14*
X80000000Y-47000000D03*
X80000000Y-44460000D03*
%TD*%
D11*
%TO.C,D8*%
X82230000Y-122000000D03*
D12*
X84770000Y-122000000D03*
%TD*%
D10*
%TO.C,C74*%
X90000000Y-126250000D03*
X95000000Y-126250000D03*
%TD*%
%TO.C,R25*%
X92560000Y-49500000D03*
X84940000Y-49500000D03*
%TD*%
%TO.C,C78*%
X85500000Y-81900000D03*
X85500000Y-76900000D03*
%TD*%
D19*
%TO.C,D29*%
X74310000Y-49500000D03*
D10*
X66690000Y-49500000D03*
%TD*%
D15*
%TO.C,U5*%
X88690000Y-107635000D03*
D10*
X88690000Y-110175000D03*
X88690000Y-112715000D03*
X88690000Y-115255000D03*
X88690000Y-117795000D03*
X88690000Y-120335000D03*
X88690000Y-122875000D03*
X96310000Y-122875000D03*
X96310000Y-120335000D03*
X96310000Y-117795000D03*
X96310000Y-115255000D03*
X96310000Y-112715000D03*
X96310000Y-110175000D03*
X96310000Y-107635000D03*
%TD*%
%TO.C,R14*%
X71190000Y-108000000D03*
X78810000Y-108000000D03*
%TD*%
D11*
%TO.C,D11*%
X82230000Y-110000000D03*
D12*
X84770000Y-110000000D03*
%TD*%
D19*
%TO.C,D28*%
X63810000Y-53750000D03*
D10*
X56190000Y-53750000D03*
%TD*%
D11*
%TO.C,D13*%
X82230000Y-102000000D03*
D12*
X84770000Y-102000000D03*
%TD*%
D10*
%TO.C,C73*%
X90000000Y-104250000D03*
X95000000Y-104250000D03*
%TD*%
%TO.C,C67*%
X55000000Y-126250000D03*
X60000000Y-126250000D03*
%TD*%
%TO.C,C41*%
X96490000Y-136000000D03*
X96490000Y-131000000D03*
%TD*%
%TO.C,R110*%
X85440000Y-159000000D03*
X93060000Y-159000000D03*
%TD*%
D11*
%TO.C,D10*%
X82230000Y-114000000D03*
D12*
X84770000Y-114000000D03*
%TD*%
D10*
%TO.C,R108*%
X71190000Y-155250000D03*
X78810000Y-155250000D03*
%TD*%
%TO.C,R85*%
X71190000Y-158250000D03*
X78810000Y-158250000D03*
%TD*%
%TO.C,C44*%
X75000000Y-136750000D03*
X75000000Y-131750000D03*
%TD*%
%TO.C,R20*%
X58940000Y-66500000D03*
X66560000Y-66500000D03*
%TD*%
%TO.C,R91*%
X52750000Y-154440000D03*
X52750000Y-162060000D03*
%TD*%
%TO.C,R17*%
X71190000Y-117000000D03*
X78810000Y-117000000D03*
%TD*%
%TO.C,R99*%
X71190000Y-142000000D03*
X78810000Y-142000000D03*
%TD*%
D11*
%TO.C,D24*%
X65230000Y-118000000D03*
D12*
X67770000Y-118000000D03*
%TD*%
D11*
%TO.C,D21*%
X65230000Y-106000000D03*
D12*
X67770000Y-106000000D03*
%TD*%
D11*
%TO.C,D9*%
X82230000Y-118000000D03*
D12*
X84770000Y-118000000D03*
%TD*%
D18*
%TO.C,U25*%
X78385000Y-138060000D03*
D10*
X80925000Y-138060000D03*
X83465000Y-138060000D03*
X86005000Y-138060000D03*
X88545000Y-138060000D03*
X91085000Y-138060000D03*
X93625000Y-138060000D03*
X93625000Y-130440000D03*
X91085000Y-130440000D03*
X88545000Y-130440000D03*
X86005000Y-130440000D03*
X83465000Y-130440000D03*
X80925000Y-130440000D03*
X78385000Y-130440000D03*
%TD*%
%TO.C,R12*%
X71190000Y-102000000D03*
X78810000Y-102000000D03*
%TD*%
D19*
%TO.C,D30*%
X74310000Y-53750000D03*
D10*
X66690000Y-53750000D03*
%TD*%
D20*
%TO.C,J12*%
X52775000Y-138925000D03*
D21*
X52775000Y-141465000D03*
X52775000Y-144005000D03*
X52775000Y-146545000D03*
X52775000Y-149085000D03*
X52775000Y-151625000D03*
%TD*%
D20*
%TO.C,J22*%
X77500000Y-151700000D03*
D21*
X80040000Y-151700000D03*
%TD*%
D20*
%TO.C,J10*%
X52775000Y-54425000D03*
D21*
X52775000Y-56965000D03*
X52775000Y-59505000D03*
X52775000Y-62045000D03*
X52775000Y-64585000D03*
X52775000Y-67125000D03*
%TD*%
D20*
%TO.C,J11*%
X97275000Y-54425000D03*
D21*
X97275000Y-56965000D03*
X97275000Y-59505000D03*
X97275000Y-62045000D03*
X97275000Y-64585000D03*
X97275000Y-67125000D03*
%TD*%
D20*
%TO.C,J21*%
X70000000Y-151725000D03*
D21*
X72540000Y-151725000D03*
%TD*%
D20*
%TO.C,J13*%
X97275000Y-138925000D03*
D21*
X97275000Y-141465000D03*
X97275000Y-144005000D03*
X97275000Y-146545000D03*
X97275000Y-149085000D03*
X97275000Y-151625000D03*
%TD*%
M02*
