%TF.GenerationSoftware,KiCad,Pcbnew,10.0.1*%
%TF.CreationDate,2026-07-05T12:33:33+02:00*%
%TF.ProjectId,DMH_Output_PCB_Controls,444d485f-4f75-4747-9075-745f5043425f,1*%
%TF.SameCoordinates,Original*%
%TF.FileFunction,Drillmap*%
%TF.FilePolarity,Positive*%
%FSLAX45Y45*%
G04 Gerber Fmt 4.5, Leading zero omitted, Abs format (unit mm)*
G04 Created by KiCad (PCBNEW 10.0.1) date 2026-07-05 12:33:33*
%MOMM*%
%LPD*%
G01*
G04 APERTURE LIST*
%ADD10C,0.050000*%
%ADD11C,0.200000*%
%ADD12C,0.100000*%
%ADD13C,0.110000*%
G04 APERTURE END LIST*
D10*
X5100000Y-4250000D02*
X9900000Y-4250000D01*
X9900000Y-16350000D01*
X5100000Y-16350000D01*
X5100000Y-4250000D01*
D11*
D12*
X7485000Y-15810000D02*
X7515000Y-15840000D01*
X7515000Y-15810000D02*
X7485000Y-15840000D01*
X5315000Y-15444000D02*
G75*
G02*
X5235000Y-15444000I-40000J0D01*
G01*
X5235000Y-15444000D02*
G75*
G02*
X5315000Y-15444000I40000J0D01*
G01*
X5315000Y-16206000D02*
G75*
G02*
X5235000Y-16206000I-40000J0D01*
G01*
X5235000Y-16206000D02*
G75*
G02*
X5315000Y-16206000I40000J0D01*
G01*
X5400000Y-13100000D02*
G75*
G02*
X5320000Y-13100000I-40000J0D01*
G01*
X5320000Y-13100000D02*
G75*
G02*
X5400000Y-13100000I40000J0D01*
G01*
X5400000Y-13600000D02*
G75*
G02*
X5320000Y-13600000I-40000J0D01*
G01*
X5320000Y-13600000D02*
G75*
G02*
X5400000Y-13600000I40000J0D01*
G01*
X5409000Y-8263500D02*
G75*
G02*
X5329000Y-8263500I-40000J0D01*
G01*
X5329000Y-8263500D02*
G75*
G02*
X5409000Y-8263500I40000J0D01*
G01*
X5409000Y-8517500D02*
G75*
G02*
X5329000Y-8517500I-40000J0D01*
G01*
X5329000Y-8517500D02*
G75*
G02*
X5409000Y-8517500I40000J0D01*
G01*
X5409000Y-8771500D02*
G75*
G02*
X5329000Y-8771500I-40000J0D01*
G01*
X5329000Y-8771500D02*
G75*
G02*
X5409000Y-8771500I40000J0D01*
G01*
X5409000Y-9025500D02*
G75*
G02*
X5329000Y-9025500I-40000J0D01*
G01*
X5329000Y-9025500D02*
G75*
G02*
X5409000Y-9025500I40000J0D01*
G01*
X5409000Y-9279500D02*
G75*
G02*
X5329000Y-9279500I-40000J0D01*
G01*
X5329000Y-9279500D02*
G75*
G02*
X5409000Y-9279500I40000J0D01*
G01*
X5409000Y-9533500D02*
G75*
G02*
X5329000Y-9533500I-40000J0D01*
G01*
X5329000Y-9533500D02*
G75*
G02*
X5409000Y-9533500I40000J0D01*
G01*
X5409000Y-9787500D02*
G75*
G02*
X5329000Y-9787500I-40000J0D01*
G01*
X5329000Y-9787500D02*
G75*
G02*
X5409000Y-9787500I40000J0D01*
G01*
X5409000Y-10763500D02*
G75*
G02*
X5329000Y-10763500I-40000J0D01*
G01*
X5329000Y-10763500D02*
G75*
G02*
X5409000Y-10763500I40000J0D01*
G01*
X5409000Y-11017500D02*
G75*
G02*
X5329000Y-11017500I-40000J0D01*
G01*
X5329000Y-11017500D02*
G75*
G02*
X5409000Y-11017500I40000J0D01*
G01*
X5409000Y-11271500D02*
G75*
G02*
X5329000Y-11271500I-40000J0D01*
G01*
X5329000Y-11271500D02*
G75*
G02*
X5409000Y-11271500I40000J0D01*
G01*
X5409000Y-11525500D02*
G75*
G02*
X5329000Y-11525500I-40000J0D01*
G01*
X5329000Y-11525500D02*
G75*
G02*
X5409000Y-11525500I40000J0D01*
G01*
X5409000Y-11779500D02*
G75*
G02*
X5329000Y-11779500I-40000J0D01*
G01*
X5329000Y-11779500D02*
G75*
G02*
X5409000Y-11779500I40000J0D01*
G01*
X5409000Y-12033500D02*
G75*
G02*
X5329000Y-12033500I-40000J0D01*
G01*
X5329000Y-12033500D02*
G75*
G02*
X5409000Y-12033500I40000J0D01*
G01*
X5409000Y-12287500D02*
G75*
G02*
X5329000Y-12287500I-40000J0D01*
G01*
X5329000Y-12287500D02*
G75*
G02*
X5409000Y-12287500I40000J0D01*
G01*
X5540000Y-7925000D02*
G75*
G02*
X5460000Y-7925000I-40000J0D01*
G01*
X5460000Y-7925000D02*
G75*
G02*
X5540000Y-7925000I40000J0D01*
G01*
X5540000Y-10125000D02*
G75*
G02*
X5460000Y-10125000I-40000J0D01*
G01*
X5460000Y-10125000D02*
G75*
G02*
X5540000Y-10125000I40000J0D01*
G01*
X5540000Y-10425000D02*
G75*
G02*
X5460000Y-10425000I-40000J0D01*
G01*
X5460000Y-10425000D02*
G75*
G02*
X5540000Y-10425000I40000J0D01*
G01*
X5540000Y-12625000D02*
G75*
G02*
X5460000Y-12625000I-40000J0D01*
G01*
X5460000Y-12625000D02*
G75*
G02*
X5540000Y-12625000I40000J0D01*
G01*
X5659000Y-4450000D02*
G75*
G02*
X5579000Y-4450000I-40000J0D01*
G01*
X5579000Y-4450000D02*
G75*
G02*
X5659000Y-4450000I40000J0D01*
G01*
X5659000Y-4950000D02*
G75*
G02*
X5579000Y-4950000I-40000J0D01*
G01*
X5579000Y-4950000D02*
G75*
G02*
X5659000Y-4950000I40000J0D01*
G01*
X5659000Y-5375000D02*
G75*
G02*
X5579000Y-5375000I-40000J0D01*
G01*
X5579000Y-5375000D02*
G75*
G02*
X5659000Y-5375000I40000J0D01*
G01*
X5678500Y-13044000D02*
G75*
G02*
X5598500Y-13044000I-40000J0D01*
G01*
X5598500Y-13044000D02*
G75*
G02*
X5678500Y-13044000I40000J0D01*
G01*
X5678500Y-13806000D02*
G75*
G02*
X5598500Y-13806000I-40000J0D01*
G01*
X5598500Y-13806000D02*
G75*
G02*
X5678500Y-13806000I40000J0D01*
G01*
X5909000Y-15900000D02*
G75*
G02*
X5829000Y-15900000I-40000J0D01*
G01*
X5829000Y-15900000D02*
G75*
G02*
X5909000Y-15900000I40000J0D01*
G01*
X5909000Y-16200000D02*
G75*
G02*
X5829000Y-16200000I-40000J0D01*
G01*
X5829000Y-16200000D02*
G75*
G02*
X5909000Y-16200000I40000J0D01*
G01*
X5932500Y-13044000D02*
G75*
G02*
X5852500Y-13044000I-40000J0D01*
G01*
X5852500Y-13044000D02*
G75*
G02*
X5932500Y-13044000I40000J0D01*
G01*
X5932500Y-13806000D02*
G75*
G02*
X5852500Y-13806000I-40000J0D01*
G01*
X5852500Y-13806000D02*
G75*
G02*
X5932500Y-13806000I40000J0D01*
G01*
X5934000Y-6650000D02*
G75*
G02*
X5854000Y-6650000I-40000J0D01*
G01*
X5854000Y-6650000D02*
G75*
G02*
X5934000Y-6650000I40000J0D01*
G01*
X6040000Y-7925000D02*
G75*
G02*
X5960000Y-7925000I-40000J0D01*
G01*
X5960000Y-7925000D02*
G75*
G02*
X6040000Y-7925000I40000J0D01*
G01*
X6040000Y-10125000D02*
G75*
G02*
X5960000Y-10125000I-40000J0D01*
G01*
X5960000Y-10125000D02*
G75*
G02*
X6040000Y-10125000I40000J0D01*
G01*
X6040000Y-10425000D02*
G75*
G02*
X5960000Y-10425000I-40000J0D01*
G01*
X5960000Y-10425000D02*
G75*
G02*
X6040000Y-10425000I40000J0D01*
G01*
X6040000Y-12625000D02*
G75*
G02*
X5960000Y-12625000I-40000J0D01*
G01*
X5960000Y-12625000D02*
G75*
G02*
X6040000Y-12625000I40000J0D01*
G01*
X6061000Y-6020000D02*
G75*
G02*
X5981000Y-6020000I-40000J0D01*
G01*
X5981000Y-6020000D02*
G75*
G02*
X6061000Y-6020000I40000J0D01*
G01*
X6171000Y-8263500D02*
G75*
G02*
X6091000Y-8263500I-40000J0D01*
G01*
X6091000Y-8263500D02*
G75*
G02*
X6171000Y-8263500I40000J0D01*
G01*
X6171000Y-8517500D02*
G75*
G02*
X6091000Y-8517500I-40000J0D01*
G01*
X6091000Y-8517500D02*
G75*
G02*
X6171000Y-8517500I40000J0D01*
G01*
X6171000Y-8771500D02*
G75*
G02*
X6091000Y-8771500I-40000J0D01*
G01*
X6091000Y-8771500D02*
G75*
G02*
X6171000Y-8771500I40000J0D01*
G01*
X6171000Y-9025500D02*
G75*
G02*
X6091000Y-9025500I-40000J0D01*
G01*
X6091000Y-9025500D02*
G75*
G02*
X6171000Y-9025500I40000J0D01*
G01*
X6171000Y-9279500D02*
G75*
G02*
X6091000Y-9279500I-40000J0D01*
G01*
X6091000Y-9279500D02*
G75*
G02*
X6171000Y-9279500I40000J0D01*
G01*
X6171000Y-9533500D02*
G75*
G02*
X6091000Y-9533500I-40000J0D01*
G01*
X6091000Y-9533500D02*
G75*
G02*
X6171000Y-9533500I40000J0D01*
G01*
X6171000Y-9787500D02*
G75*
G02*
X6091000Y-9787500I-40000J0D01*
G01*
X6091000Y-9787500D02*
G75*
G02*
X6171000Y-9787500I40000J0D01*
G01*
X6171000Y-10763500D02*
G75*
G02*
X6091000Y-10763500I-40000J0D01*
G01*
X6091000Y-10763500D02*
G75*
G02*
X6171000Y-10763500I40000J0D01*
G01*
X6171000Y-11017500D02*
G75*
G02*
X6091000Y-11017500I-40000J0D01*
G01*
X6091000Y-11017500D02*
G75*
G02*
X6171000Y-11017500I40000J0D01*
G01*
X6171000Y-11271500D02*
G75*
G02*
X6091000Y-11271500I-40000J0D01*
G01*
X6091000Y-11271500D02*
G75*
G02*
X6171000Y-11271500I40000J0D01*
G01*
X6171000Y-11525500D02*
G75*
G02*
X6091000Y-11525500I-40000J0D01*
G01*
X6091000Y-11525500D02*
G75*
G02*
X6171000Y-11525500I40000J0D01*
G01*
X6171000Y-11779500D02*
G75*
G02*
X6091000Y-11779500I-40000J0D01*
G01*
X6091000Y-11779500D02*
G75*
G02*
X6171000Y-11779500I40000J0D01*
G01*
X6171000Y-12033500D02*
G75*
G02*
X6091000Y-12033500I-40000J0D01*
G01*
X6091000Y-12033500D02*
G75*
G02*
X6171000Y-12033500I40000J0D01*
G01*
X6171000Y-12287500D02*
G75*
G02*
X6091000Y-12287500I-40000J0D01*
G01*
X6091000Y-12287500D02*
G75*
G02*
X6171000Y-12287500I40000J0D01*
G01*
X6186500Y-13044000D02*
G75*
G02*
X6106500Y-13044000I-40000J0D01*
G01*
X6106500Y-13044000D02*
G75*
G02*
X6186500Y-13044000I40000J0D01*
G01*
X6186500Y-13806000D02*
G75*
G02*
X6106500Y-13806000I-40000J0D01*
G01*
X6106500Y-13806000D02*
G75*
G02*
X6186500Y-13806000I40000J0D01*
G01*
X6315000Y-6020000D02*
G75*
G02*
X6235000Y-6020000I-40000J0D01*
G01*
X6235000Y-6020000D02*
G75*
G02*
X6315000Y-6020000I40000J0D01*
G01*
X6421000Y-4450000D02*
G75*
G02*
X6341000Y-4450000I-40000J0D01*
G01*
X6341000Y-4450000D02*
G75*
G02*
X6421000Y-4450000I40000J0D01*
G01*
X6421000Y-4950000D02*
G75*
G02*
X6341000Y-4950000I-40000J0D01*
G01*
X6341000Y-4950000D02*
G75*
G02*
X6421000Y-4950000I40000J0D01*
G01*
X6421000Y-5375000D02*
G75*
G02*
X6341000Y-5375000I-40000J0D01*
G01*
X6341000Y-5375000D02*
G75*
G02*
X6421000Y-5375000I40000J0D01*
G01*
X6440500Y-13044000D02*
G75*
G02*
X6360500Y-13044000I-40000J0D01*
G01*
X6360500Y-13044000D02*
G75*
G02*
X6440500Y-13044000I40000J0D01*
G01*
X6440500Y-13806000D02*
G75*
G02*
X6360500Y-13806000I-40000J0D01*
G01*
X6360500Y-13806000D02*
G75*
G02*
X6440500Y-13806000I40000J0D01*
G01*
X6490000Y-7690000D02*
G75*
G02*
X6410000Y-7690000I-40000J0D01*
G01*
X6410000Y-7690000D02*
G75*
G02*
X6490000Y-7690000I40000J0D01*
G01*
X6490000Y-8190000D02*
G75*
G02*
X6410000Y-8190000I-40000J0D01*
G01*
X6410000Y-8190000D02*
G75*
G02*
X6490000Y-8190000I40000J0D01*
G01*
X6569000Y-6020000D02*
G75*
G02*
X6489000Y-6020000I-40000J0D01*
G01*
X6489000Y-6020000D02*
G75*
G02*
X6569000Y-6020000I40000J0D01*
G01*
X6671000Y-15900000D02*
G75*
G02*
X6591000Y-15900000I-40000J0D01*
G01*
X6591000Y-15900000D02*
G75*
G02*
X6671000Y-15900000I40000J0D01*
G01*
X6671000Y-16200000D02*
G75*
G02*
X6591000Y-16200000I-40000J0D01*
G01*
X6591000Y-16200000D02*
G75*
G02*
X6671000Y-16200000I40000J0D01*
G01*
X6694500Y-13044000D02*
G75*
G02*
X6614500Y-13044000I-40000J0D01*
G01*
X6614500Y-13044000D02*
G75*
G02*
X6694500Y-13044000I40000J0D01*
G01*
X6694500Y-13806000D02*
G75*
G02*
X6614500Y-13806000I-40000J0D01*
G01*
X6614500Y-13806000D02*
G75*
G02*
X6694500Y-13806000I40000J0D01*
G01*
X6696000Y-6650000D02*
G75*
G02*
X6616000Y-6650000I-40000J0D01*
G01*
X6616000Y-6650000D02*
G75*
G02*
X6696000Y-6650000I40000J0D01*
G01*
X6709000Y-4450000D02*
G75*
G02*
X6629000Y-4450000I-40000J0D01*
G01*
X6629000Y-4450000D02*
G75*
G02*
X6709000Y-4450000I40000J0D01*
G01*
X6709000Y-4950000D02*
G75*
G02*
X6629000Y-4950000I-40000J0D01*
G01*
X6629000Y-4950000D02*
G75*
G02*
X6709000Y-4950000I40000J0D01*
G01*
X6709000Y-5375000D02*
G75*
G02*
X6629000Y-5375000I-40000J0D01*
G01*
X6629000Y-5375000D02*
G75*
G02*
X6709000Y-5375000I40000J0D01*
G01*
X6778500Y-7694000D02*
G75*
G02*
X6698500Y-7694000I-40000J0D01*
G01*
X6698500Y-7694000D02*
G75*
G02*
X6778500Y-7694000I40000J0D01*
G01*
X6778500Y-8456000D02*
G75*
G02*
X6698500Y-8456000I-40000J0D01*
G01*
X6698500Y-8456000D02*
G75*
G02*
X6778500Y-8456000I40000J0D01*
G01*
X6948500Y-13044000D02*
G75*
G02*
X6868500Y-13044000I-40000J0D01*
G01*
X6868500Y-13044000D02*
G75*
G02*
X6948500Y-13044000I40000J0D01*
G01*
X6948500Y-13806000D02*
G75*
G02*
X6868500Y-13806000I-40000J0D01*
G01*
X6868500Y-13806000D02*
G75*
G02*
X6948500Y-13806000I40000J0D01*
G01*
X7032500Y-7694000D02*
G75*
G02*
X6952500Y-7694000I-40000J0D01*
G01*
X6952500Y-7694000D02*
G75*
G02*
X7032500Y-7694000I40000J0D01*
G01*
X7032500Y-8456000D02*
G75*
G02*
X6952500Y-8456000I-40000J0D01*
G01*
X6952500Y-8456000D02*
G75*
G02*
X7032500Y-8456000I40000J0D01*
G01*
X7159000Y-9300000D02*
G75*
G02*
X7079000Y-9300000I-40000J0D01*
G01*
X7079000Y-9300000D02*
G75*
G02*
X7159000Y-9300000I40000J0D01*
G01*
X7159000Y-9600000D02*
G75*
G02*
X7079000Y-9600000I-40000J0D01*
G01*
X7079000Y-9600000D02*
G75*
G02*
X7159000Y-9600000I40000J0D01*
G01*
X7159000Y-9900000D02*
G75*
G02*
X7079000Y-9900000I-40000J0D01*
G01*
X7079000Y-9900000D02*
G75*
G02*
X7159000Y-9900000I40000J0D01*
G01*
X7159000Y-10200000D02*
G75*
G02*
X7079000Y-10200000I-40000J0D01*
G01*
X7079000Y-10200000D02*
G75*
G02*
X7159000Y-10200000I40000J0D01*
G01*
X7159000Y-10500000D02*
G75*
G02*
X7079000Y-10500000I-40000J0D01*
G01*
X7079000Y-10500000D02*
G75*
G02*
X7159000Y-10500000I40000J0D01*
G01*
X7159000Y-10800000D02*
G75*
G02*
X7079000Y-10800000I-40000J0D01*
G01*
X7079000Y-10800000D02*
G75*
G02*
X7159000Y-10800000I40000J0D01*
G01*
X7159000Y-11100000D02*
G75*
G02*
X7079000Y-11100000I-40000J0D01*
G01*
X7079000Y-11100000D02*
G75*
G02*
X7159000Y-11100000I40000J0D01*
G01*
X7159000Y-11400000D02*
G75*
G02*
X7079000Y-11400000I-40000J0D01*
G01*
X7079000Y-11400000D02*
G75*
G02*
X7159000Y-11400000I40000J0D01*
G01*
X7159000Y-11700000D02*
G75*
G02*
X7079000Y-11700000I-40000J0D01*
G01*
X7079000Y-11700000D02*
G75*
G02*
X7159000Y-11700000I40000J0D01*
G01*
X7159000Y-12000000D02*
G75*
G02*
X7079000Y-12000000I-40000J0D01*
G01*
X7079000Y-12000000D02*
G75*
G02*
X7159000Y-12000000I40000J0D01*
G01*
X7159000Y-12300000D02*
G75*
G02*
X7079000Y-12300000I-40000J0D01*
G01*
X7079000Y-12300000D02*
G75*
G02*
X7159000Y-12300000I40000J0D01*
G01*
X7159000Y-14200000D02*
G75*
G02*
X7079000Y-14200000I-40000J0D01*
G01*
X7079000Y-14200000D02*
G75*
G02*
X7159000Y-14200000I40000J0D01*
G01*
X7159000Y-14500000D02*
G75*
G02*
X7079000Y-14500000I-40000J0D01*
G01*
X7079000Y-14500000D02*
G75*
G02*
X7159000Y-14500000I40000J0D01*
G01*
X7159000Y-14800000D02*
G75*
G02*
X7079000Y-14800000I-40000J0D01*
G01*
X7079000Y-14800000D02*
G75*
G02*
X7159000Y-14800000I40000J0D01*
G01*
X7159000Y-15525000D02*
G75*
G02*
X7079000Y-15525000I-40000J0D01*
G01*
X7079000Y-15525000D02*
G75*
G02*
X7159000Y-15525000I40000J0D01*
G01*
X7159000Y-15825000D02*
G75*
G02*
X7079000Y-15825000I-40000J0D01*
G01*
X7079000Y-15825000D02*
G75*
G02*
X7159000Y-15825000I40000J0D01*
G01*
X7202500Y-13044000D02*
G75*
G02*
X7122500Y-13044000I-40000J0D01*
G01*
X7122500Y-13044000D02*
G75*
G02*
X7202500Y-13044000I40000J0D01*
G01*
X7202500Y-13806000D02*
G75*
G02*
X7122500Y-13806000I-40000J0D01*
G01*
X7122500Y-13806000D02*
G75*
G02*
X7202500Y-13806000I40000J0D01*
G01*
X7286500Y-7694000D02*
G75*
G02*
X7206500Y-7694000I-40000J0D01*
G01*
X7206500Y-7694000D02*
G75*
G02*
X7286500Y-7694000I40000J0D01*
G01*
X7286500Y-8456000D02*
G75*
G02*
X7206500Y-8456000I-40000J0D01*
G01*
X7206500Y-8456000D02*
G75*
G02*
X7286500Y-8456000I40000J0D01*
G01*
X7471000Y-4450000D02*
G75*
G02*
X7391000Y-4450000I-40000J0D01*
G01*
X7391000Y-4450000D02*
G75*
G02*
X7471000Y-4450000I40000J0D01*
G01*
X7471000Y-4950000D02*
G75*
G02*
X7391000Y-4950000I-40000J0D01*
G01*
X7391000Y-4950000D02*
G75*
G02*
X7471000Y-4950000I40000J0D01*
G01*
X7471000Y-5375000D02*
G75*
G02*
X7391000Y-5375000I-40000J0D01*
G01*
X7391000Y-5375000D02*
G75*
G02*
X7471000Y-5375000I40000J0D01*
G01*
X7540000Y-13175000D02*
G75*
G02*
X7460000Y-13175000I-40000J0D01*
G01*
X7460000Y-13175000D02*
G75*
G02*
X7540000Y-13175000I40000J0D01*
G01*
X7540000Y-13675000D02*
G75*
G02*
X7460000Y-13675000I-40000J0D01*
G01*
X7460000Y-13675000D02*
G75*
G02*
X7540000Y-13675000I40000J0D01*
G01*
X7540500Y-7694000D02*
G75*
G02*
X7460500Y-7694000I-40000J0D01*
G01*
X7460500Y-7694000D02*
G75*
G02*
X7540500Y-7694000I40000J0D01*
G01*
X7540500Y-8456000D02*
G75*
G02*
X7460500Y-8456000I-40000J0D01*
G01*
X7460500Y-8456000D02*
G75*
G02*
X7540500Y-8456000I40000J0D01*
G01*
X7794500Y-7694000D02*
G75*
G02*
X7714500Y-7694000I-40000J0D01*
G01*
X7714500Y-7694000D02*
G75*
G02*
X7794500Y-7694000I40000J0D01*
G01*
X7794500Y-8456000D02*
G75*
G02*
X7714500Y-8456000I-40000J0D01*
G01*
X7714500Y-8456000D02*
G75*
G02*
X7794500Y-8456000I40000J0D01*
G01*
X7878500Y-13044000D02*
G75*
G02*
X7798500Y-13044000I-40000J0D01*
G01*
X7798500Y-13044000D02*
G75*
G02*
X7878500Y-13044000I40000J0D01*
G01*
X7878500Y-13806000D02*
G75*
G02*
X7798500Y-13806000I-40000J0D01*
G01*
X7798500Y-13806000D02*
G75*
G02*
X7878500Y-13806000I40000J0D01*
G01*
X7921000Y-9300000D02*
G75*
G02*
X7841000Y-9300000I-40000J0D01*
G01*
X7841000Y-9300000D02*
G75*
G02*
X7921000Y-9300000I40000J0D01*
G01*
X7921000Y-9600000D02*
G75*
G02*
X7841000Y-9600000I-40000J0D01*
G01*
X7841000Y-9600000D02*
G75*
G02*
X7921000Y-9600000I40000J0D01*
G01*
X7921000Y-9900000D02*
G75*
G02*
X7841000Y-9900000I-40000J0D01*
G01*
X7841000Y-9900000D02*
G75*
G02*
X7921000Y-9900000I40000J0D01*
G01*
X7921000Y-10200000D02*
G75*
G02*
X7841000Y-10200000I-40000J0D01*
G01*
X7841000Y-10200000D02*
G75*
G02*
X7921000Y-10200000I40000J0D01*
G01*
X7921000Y-10500000D02*
G75*
G02*
X7841000Y-10500000I-40000J0D01*
G01*
X7841000Y-10500000D02*
G75*
G02*
X7921000Y-10500000I40000J0D01*
G01*
X7921000Y-10800000D02*
G75*
G02*
X7841000Y-10800000I-40000J0D01*
G01*
X7841000Y-10800000D02*
G75*
G02*
X7921000Y-10800000I40000J0D01*
G01*
X7921000Y-11100000D02*
G75*
G02*
X7841000Y-11100000I-40000J0D01*
G01*
X7841000Y-11100000D02*
G75*
G02*
X7921000Y-11100000I40000J0D01*
G01*
X7921000Y-11400000D02*
G75*
G02*
X7841000Y-11400000I-40000J0D01*
G01*
X7841000Y-11400000D02*
G75*
G02*
X7921000Y-11400000I40000J0D01*
G01*
X7921000Y-11700000D02*
G75*
G02*
X7841000Y-11700000I-40000J0D01*
G01*
X7841000Y-11700000D02*
G75*
G02*
X7921000Y-11700000I40000J0D01*
G01*
X7921000Y-12000000D02*
G75*
G02*
X7841000Y-12000000I-40000J0D01*
G01*
X7841000Y-12000000D02*
G75*
G02*
X7921000Y-12000000I40000J0D01*
G01*
X7921000Y-12300000D02*
G75*
G02*
X7841000Y-12300000I-40000J0D01*
G01*
X7841000Y-12300000D02*
G75*
G02*
X7921000Y-12300000I40000J0D01*
G01*
X7921000Y-14200000D02*
G75*
G02*
X7841000Y-14200000I-40000J0D01*
G01*
X7841000Y-14200000D02*
G75*
G02*
X7921000Y-14200000I40000J0D01*
G01*
X7921000Y-14500000D02*
G75*
G02*
X7841000Y-14500000I-40000J0D01*
G01*
X7841000Y-14500000D02*
G75*
G02*
X7921000Y-14500000I40000J0D01*
G01*
X7921000Y-14800000D02*
G75*
G02*
X7841000Y-14800000I-40000J0D01*
G01*
X7841000Y-14800000D02*
G75*
G02*
X7921000Y-14800000I40000J0D01*
G01*
X7921000Y-15525000D02*
G75*
G02*
X7841000Y-15525000I-40000J0D01*
G01*
X7841000Y-15525000D02*
G75*
G02*
X7921000Y-15525000I40000J0D01*
G01*
X7921000Y-15825000D02*
G75*
G02*
X7841000Y-15825000I-40000J0D01*
G01*
X7841000Y-15825000D02*
G75*
G02*
X7921000Y-15825000I40000J0D01*
G01*
X8040000Y-4446000D02*
G75*
G02*
X7960000Y-4446000I-40000J0D01*
G01*
X7960000Y-4446000D02*
G75*
G02*
X8040000Y-4446000I40000J0D01*
G01*
X8040000Y-4700000D02*
G75*
G02*
X7960000Y-4700000I-40000J0D01*
G01*
X7960000Y-4700000D02*
G75*
G02*
X8040000Y-4700000I40000J0D01*
G01*
X8040000Y-4954000D02*
G75*
G02*
X7960000Y-4954000I-40000J0D01*
G01*
X7960000Y-4954000D02*
G75*
G02*
X8040000Y-4954000I40000J0D01*
G01*
X8048500Y-7694000D02*
G75*
G02*
X7968500Y-7694000I-40000J0D01*
G01*
X7968500Y-7694000D02*
G75*
G02*
X8048500Y-7694000I40000J0D01*
G01*
X8048500Y-8456000D02*
G75*
G02*
X7968500Y-8456000I-40000J0D01*
G01*
X7968500Y-8456000D02*
G75*
G02*
X8048500Y-8456000I40000J0D01*
G01*
X8132500Y-13044000D02*
G75*
G02*
X8052500Y-13044000I-40000J0D01*
G01*
X8052500Y-13044000D02*
G75*
G02*
X8132500Y-13044000I40000J0D01*
G01*
X8132500Y-13806000D02*
G75*
G02*
X8052500Y-13806000I-40000J0D01*
G01*
X8052500Y-13806000D02*
G75*
G02*
X8132500Y-13806000I40000J0D01*
G01*
X8302500Y-7694000D02*
G75*
G02*
X8222500Y-7694000I-40000J0D01*
G01*
X8222500Y-7694000D02*
G75*
G02*
X8302500Y-7694000I40000J0D01*
G01*
X8302500Y-8456000D02*
G75*
G02*
X8222500Y-8456000I-40000J0D01*
G01*
X8222500Y-8456000D02*
G75*
G02*
X8302500Y-8456000I40000J0D01*
G01*
X8386000Y-7130000D02*
G75*
G02*
X8306000Y-7130000I-40000J0D01*
G01*
X8306000Y-7130000D02*
G75*
G02*
X8386000Y-7130000I40000J0D01*
G01*
X8386500Y-13044000D02*
G75*
G02*
X8306500Y-13044000I-40000J0D01*
G01*
X8306500Y-13044000D02*
G75*
G02*
X8386500Y-13044000I40000J0D01*
G01*
X8386500Y-13806000D02*
G75*
G02*
X8306500Y-13806000I-40000J0D01*
G01*
X8306500Y-13806000D02*
G75*
G02*
X8386500Y-13806000I40000J0D01*
G01*
X8534000Y-4450000D02*
G75*
G02*
X8454000Y-4450000I-40000J0D01*
G01*
X8454000Y-4450000D02*
G75*
G02*
X8534000Y-4450000I40000J0D01*
G01*
X8534000Y-5450000D02*
G75*
G02*
X8454000Y-5450000I-40000J0D01*
G01*
X8454000Y-5450000D02*
G75*
G02*
X8534000Y-5450000I40000J0D01*
G01*
X8584000Y-15900000D02*
G75*
G02*
X8504000Y-15900000I-40000J0D01*
G01*
X8504000Y-15900000D02*
G75*
G02*
X8584000Y-15900000I40000J0D01*
G01*
X8590000Y-7690000D02*
G75*
G02*
X8510000Y-7690000I-40000J0D01*
G01*
X8510000Y-7690000D02*
G75*
G02*
X8590000Y-7690000I40000J0D01*
G01*
X8590000Y-8190000D02*
G75*
G02*
X8510000Y-8190000I-40000J0D01*
G01*
X8510000Y-8190000D02*
G75*
G02*
X8590000Y-8190000I40000J0D01*
G01*
X8640000Y-7130000D02*
G75*
G02*
X8560000Y-7130000I-40000J0D01*
G01*
X8560000Y-7130000D02*
G75*
G02*
X8640000Y-7130000I40000J0D01*
G01*
X8640500Y-13044000D02*
G75*
G02*
X8560500Y-13044000I-40000J0D01*
G01*
X8560500Y-13044000D02*
G75*
G02*
X8640500Y-13044000I40000J0D01*
G01*
X8640500Y-13806000D02*
G75*
G02*
X8560500Y-13806000I-40000J0D01*
G01*
X8560500Y-13806000D02*
G75*
G02*
X8640500Y-13806000I40000J0D01*
G01*
X8894000Y-7130000D02*
G75*
G02*
X8814000Y-7130000I-40000J0D01*
G01*
X8814000Y-7130000D02*
G75*
G02*
X8894000Y-7130000I40000J0D01*
G01*
X8894500Y-13044000D02*
G75*
G02*
X8814500Y-13044000I-40000J0D01*
G01*
X8814500Y-13044000D02*
G75*
G02*
X8894500Y-13044000I40000J0D01*
G01*
X8894500Y-13806000D02*
G75*
G02*
X8814500Y-13806000I-40000J0D01*
G01*
X8814500Y-13806000D02*
G75*
G02*
X8894500Y-13806000I40000J0D01*
G01*
X8909000Y-8263500D02*
G75*
G02*
X8829000Y-8263500I-40000J0D01*
G01*
X8829000Y-8263500D02*
G75*
G02*
X8909000Y-8263500I40000J0D01*
G01*
X8909000Y-8517500D02*
G75*
G02*
X8829000Y-8517500I-40000J0D01*
G01*
X8829000Y-8517500D02*
G75*
G02*
X8909000Y-8517500I40000J0D01*
G01*
X8909000Y-8771500D02*
G75*
G02*
X8829000Y-8771500I-40000J0D01*
G01*
X8829000Y-8771500D02*
G75*
G02*
X8909000Y-8771500I40000J0D01*
G01*
X8909000Y-9025500D02*
G75*
G02*
X8829000Y-9025500I-40000J0D01*
G01*
X8829000Y-9025500D02*
G75*
G02*
X8909000Y-9025500I40000J0D01*
G01*
X8909000Y-9279500D02*
G75*
G02*
X8829000Y-9279500I-40000J0D01*
G01*
X8829000Y-9279500D02*
G75*
G02*
X8909000Y-9279500I40000J0D01*
G01*
X8909000Y-9533500D02*
G75*
G02*
X8829000Y-9533500I-40000J0D01*
G01*
X8829000Y-9533500D02*
G75*
G02*
X8909000Y-9533500I40000J0D01*
G01*
X8909000Y-9787500D02*
G75*
G02*
X8829000Y-9787500I-40000J0D01*
G01*
X8829000Y-9787500D02*
G75*
G02*
X8909000Y-9787500I40000J0D01*
G01*
X8909000Y-10763500D02*
G75*
G02*
X8829000Y-10763500I-40000J0D01*
G01*
X8829000Y-10763500D02*
G75*
G02*
X8909000Y-10763500I40000J0D01*
G01*
X8909000Y-11017500D02*
G75*
G02*
X8829000Y-11017500I-40000J0D01*
G01*
X8829000Y-11017500D02*
G75*
G02*
X8909000Y-11017500I40000J0D01*
G01*
X8909000Y-11271500D02*
G75*
G02*
X8829000Y-11271500I-40000J0D01*
G01*
X8829000Y-11271500D02*
G75*
G02*
X8909000Y-11271500I40000J0D01*
G01*
X8909000Y-11525500D02*
G75*
G02*
X8829000Y-11525500I-40000J0D01*
G01*
X8829000Y-11525500D02*
G75*
G02*
X8909000Y-11525500I40000J0D01*
G01*
X8909000Y-11779500D02*
G75*
G02*
X8829000Y-11779500I-40000J0D01*
G01*
X8829000Y-11779500D02*
G75*
G02*
X8909000Y-11779500I40000J0D01*
G01*
X8909000Y-12033500D02*
G75*
G02*
X8829000Y-12033500I-40000J0D01*
G01*
X8829000Y-12033500D02*
G75*
G02*
X8909000Y-12033500I40000J0D01*
G01*
X8909000Y-12287500D02*
G75*
G02*
X8829000Y-12287500I-40000J0D01*
G01*
X8829000Y-12287500D02*
G75*
G02*
X8909000Y-12287500I40000J0D01*
G01*
X9040000Y-7925000D02*
G75*
G02*
X8960000Y-7925000I-40000J0D01*
G01*
X8960000Y-7925000D02*
G75*
G02*
X9040000Y-7925000I40000J0D01*
G01*
X9040000Y-10125000D02*
G75*
G02*
X8960000Y-10125000I-40000J0D01*
G01*
X8960000Y-10125000D02*
G75*
G02*
X9040000Y-10125000I40000J0D01*
G01*
X9040000Y-10425000D02*
G75*
G02*
X8960000Y-10425000I-40000J0D01*
G01*
X8960000Y-10425000D02*
G75*
G02*
X9040000Y-10425000I40000J0D01*
G01*
X9040000Y-12625000D02*
G75*
G02*
X8960000Y-12625000I-40000J0D01*
G01*
X8960000Y-12625000D02*
G75*
G02*
X9040000Y-12625000I40000J0D01*
G01*
X9148500Y-13044000D02*
G75*
G02*
X9068500Y-13044000I-40000J0D01*
G01*
X9068500Y-13044000D02*
G75*
G02*
X9148500Y-13044000I40000J0D01*
G01*
X9148500Y-13806000D02*
G75*
G02*
X9068500Y-13806000I-40000J0D01*
G01*
X9068500Y-13806000D02*
G75*
G02*
X9148500Y-13806000I40000J0D01*
G01*
X9296000Y-4450000D02*
G75*
G02*
X9216000Y-4450000I-40000J0D01*
G01*
X9216000Y-4450000D02*
G75*
G02*
X9296000Y-4450000I40000J0D01*
G01*
X9296000Y-5450000D02*
G75*
G02*
X9216000Y-5450000I-40000J0D01*
G01*
X9216000Y-5450000D02*
G75*
G02*
X9296000Y-5450000I40000J0D01*
G01*
X9330000Y-6950000D02*
G75*
G02*
X9250000Y-6950000I-40000J0D01*
G01*
X9250000Y-6950000D02*
G75*
G02*
X9330000Y-6950000I40000J0D01*
G01*
X9330000Y-7450000D02*
G75*
G02*
X9250000Y-7450000I-40000J0D01*
G01*
X9250000Y-7450000D02*
G75*
G02*
X9330000Y-7450000I40000J0D01*
G01*
X9346000Y-15900000D02*
G75*
G02*
X9266000Y-15900000I-40000J0D01*
G01*
X9266000Y-15900000D02*
G75*
G02*
X9346000Y-15900000I40000J0D01*
G01*
X9402500Y-13044000D02*
G75*
G02*
X9322500Y-13044000I-40000J0D01*
G01*
X9322500Y-13044000D02*
G75*
G02*
X9402500Y-13044000I40000J0D01*
G01*
X9402500Y-13806000D02*
G75*
G02*
X9322500Y-13806000I-40000J0D01*
G01*
X9322500Y-13806000D02*
G75*
G02*
X9402500Y-13806000I40000J0D01*
G01*
X9540000Y-7925000D02*
G75*
G02*
X9460000Y-7925000I-40000J0D01*
G01*
X9460000Y-7925000D02*
G75*
G02*
X9540000Y-7925000I40000J0D01*
G01*
X9540000Y-10125000D02*
G75*
G02*
X9460000Y-10125000I-40000J0D01*
G01*
X9460000Y-10125000D02*
G75*
G02*
X9540000Y-10125000I40000J0D01*
G01*
X9540000Y-10425000D02*
G75*
G02*
X9460000Y-10425000I-40000J0D01*
G01*
X9460000Y-10425000D02*
G75*
G02*
X9540000Y-10425000I40000J0D01*
G01*
X9540000Y-12625000D02*
G75*
G02*
X9460000Y-12625000I-40000J0D01*
G01*
X9460000Y-12625000D02*
G75*
G02*
X9540000Y-12625000I40000J0D01*
G01*
X9671000Y-8263500D02*
G75*
G02*
X9591000Y-8263500I-40000J0D01*
G01*
X9591000Y-8263500D02*
G75*
G02*
X9671000Y-8263500I40000J0D01*
G01*
X9671000Y-8517500D02*
G75*
G02*
X9591000Y-8517500I-40000J0D01*
G01*
X9591000Y-8517500D02*
G75*
G02*
X9671000Y-8517500I40000J0D01*
G01*
X9671000Y-8771500D02*
G75*
G02*
X9591000Y-8771500I-40000J0D01*
G01*
X9591000Y-8771500D02*
G75*
G02*
X9671000Y-8771500I40000J0D01*
G01*
X9671000Y-9025500D02*
G75*
G02*
X9591000Y-9025500I-40000J0D01*
G01*
X9591000Y-9025500D02*
G75*
G02*
X9671000Y-9025500I40000J0D01*
G01*
X9671000Y-9279500D02*
G75*
G02*
X9591000Y-9279500I-40000J0D01*
G01*
X9591000Y-9279500D02*
G75*
G02*
X9671000Y-9279500I40000J0D01*
G01*
X9671000Y-9533500D02*
G75*
G02*
X9591000Y-9533500I-40000J0D01*
G01*
X9591000Y-9533500D02*
G75*
G02*
X9671000Y-9533500I40000J0D01*
G01*
X9671000Y-9787500D02*
G75*
G02*
X9591000Y-9787500I-40000J0D01*
G01*
X9591000Y-9787500D02*
G75*
G02*
X9671000Y-9787500I40000J0D01*
G01*
X9671000Y-10763500D02*
G75*
G02*
X9591000Y-10763500I-40000J0D01*
G01*
X9591000Y-10763500D02*
G75*
G02*
X9671000Y-10763500I40000J0D01*
G01*
X9671000Y-11017500D02*
G75*
G02*
X9591000Y-11017500I-40000J0D01*
G01*
X9591000Y-11017500D02*
G75*
G02*
X9671000Y-11017500I40000J0D01*
G01*
X9671000Y-11271500D02*
G75*
G02*
X9591000Y-11271500I-40000J0D01*
G01*
X9591000Y-11271500D02*
G75*
G02*
X9671000Y-11271500I40000J0D01*
G01*
X9671000Y-11525500D02*
G75*
G02*
X9591000Y-11525500I-40000J0D01*
G01*
X9591000Y-11525500D02*
G75*
G02*
X9671000Y-11525500I40000J0D01*
G01*
X9671000Y-11779500D02*
G75*
G02*
X9591000Y-11779500I-40000J0D01*
G01*
X9591000Y-11779500D02*
G75*
G02*
X9671000Y-11779500I40000J0D01*
G01*
X9671000Y-12033500D02*
G75*
G02*
X9591000Y-12033500I-40000J0D01*
G01*
X9591000Y-12033500D02*
G75*
G02*
X9671000Y-12033500I40000J0D01*
G01*
X9671000Y-12287500D02*
G75*
G02*
X9591000Y-12287500I-40000J0D01*
G01*
X9591000Y-12287500D02*
G75*
G02*
X9671000Y-12287500I40000J0D01*
G01*
X9689000Y-13100000D02*
G75*
G02*
X9609000Y-13100000I-40000J0D01*
G01*
X9609000Y-13100000D02*
G75*
G02*
X9689000Y-13100000I40000J0D01*
G01*
X9689000Y-13600000D02*
G75*
G02*
X9609000Y-13600000I-40000J0D01*
G01*
X9609000Y-13600000D02*
G75*
G02*
X9689000Y-13600000I40000J0D01*
G01*
X9765000Y-15444000D02*
G75*
G02*
X9685000Y-15444000I-40000J0D01*
G01*
X9685000Y-15444000D02*
G75*
G02*
X9765000Y-15444000I40000J0D01*
G01*
X9765000Y-16206000D02*
G75*
G02*
X9685000Y-16206000I-40000J0D01*
G01*
X9685000Y-16206000D02*
G75*
G02*
X9765000Y-16206000I40000J0D01*
G01*
X6523000Y-8955000D02*
X6523000Y-9045000D01*
X6478000Y-9000000D02*
X6568000Y-9000000D01*
X6523000Y-9355000D02*
X6523000Y-9445000D01*
X6478000Y-9400000D02*
X6568000Y-9400000D01*
X6523000Y-9755000D02*
X6523000Y-9845000D01*
X6478000Y-9800000D02*
X6568000Y-9800000D01*
X6523000Y-10155000D02*
X6523000Y-10245000D01*
X6478000Y-10200000D02*
X6568000Y-10200000D01*
X6523000Y-10555000D02*
X6523000Y-10645000D01*
X6478000Y-10600000D02*
X6568000Y-10600000D01*
X6523000Y-10955000D02*
X6523000Y-11045000D01*
X6478000Y-11000000D02*
X6568000Y-11000000D01*
X6523000Y-11355000D02*
X6523000Y-11445000D01*
X6478000Y-11400000D02*
X6568000Y-11400000D01*
X6523000Y-11755000D02*
X6523000Y-11845000D01*
X6478000Y-11800000D02*
X6568000Y-11800000D01*
X6523000Y-12155000D02*
X6523000Y-12245000D01*
X6478000Y-12200000D02*
X6568000Y-12200000D01*
X6523000Y-12555000D02*
X6523000Y-12645000D01*
X6478000Y-12600000D02*
X6568000Y-12600000D01*
X6777000Y-8955000D02*
X6777000Y-9045000D01*
X6732000Y-9000000D02*
X6822000Y-9000000D01*
X6777000Y-9355000D02*
X6777000Y-9445000D01*
X6732000Y-9400000D02*
X6822000Y-9400000D01*
X6777000Y-9755000D02*
X6777000Y-9845000D01*
X6732000Y-9800000D02*
X6822000Y-9800000D01*
X6777000Y-10155000D02*
X6777000Y-10245000D01*
X6732000Y-10200000D02*
X6822000Y-10200000D01*
X6777000Y-10555000D02*
X6777000Y-10645000D01*
X6732000Y-10600000D02*
X6822000Y-10600000D01*
X6777000Y-10955000D02*
X6777000Y-11045000D01*
X6732000Y-11000000D02*
X6822000Y-11000000D01*
X6777000Y-11355000D02*
X6777000Y-11445000D01*
X6732000Y-11400000D02*
X6822000Y-11400000D01*
X6777000Y-11755000D02*
X6777000Y-11845000D01*
X6732000Y-11800000D02*
X6822000Y-11800000D01*
X6777000Y-12155000D02*
X6777000Y-12245000D01*
X6732000Y-12200000D02*
X6822000Y-12200000D01*
X6777000Y-12555000D02*
X6777000Y-12645000D01*
X6732000Y-12600000D02*
X6822000Y-12600000D01*
X7246000Y-16155000D02*
X7246000Y-16245000D01*
X7201000Y-16200000D02*
X7291000Y-16200000D01*
X7500000Y-16155000D02*
X7500000Y-16245000D01*
X7455000Y-16200000D02*
X7545000Y-16200000D01*
X7754000Y-16155000D02*
X7754000Y-16245000D01*
X7709000Y-16200000D02*
X7799000Y-16200000D01*
X8223000Y-8955000D02*
X8223000Y-9045000D01*
X8178000Y-9000000D02*
X8268000Y-9000000D01*
X8223000Y-9355000D02*
X8223000Y-9445000D01*
X8178000Y-9400000D02*
X8268000Y-9400000D01*
X8223000Y-9755000D02*
X8223000Y-9845000D01*
X8178000Y-9800000D02*
X8268000Y-9800000D01*
X8223000Y-10155000D02*
X8223000Y-10245000D01*
X8178000Y-10200000D02*
X8268000Y-10200000D01*
X8223000Y-10555000D02*
X8223000Y-10645000D01*
X8178000Y-10600000D02*
X8268000Y-10600000D01*
X8223000Y-10955000D02*
X8223000Y-11045000D01*
X8178000Y-11000000D02*
X8268000Y-11000000D01*
X8223000Y-11355000D02*
X8223000Y-11445000D01*
X8178000Y-11400000D02*
X8268000Y-11400000D01*
X8223000Y-11755000D02*
X8223000Y-11845000D01*
X8178000Y-11800000D02*
X8268000Y-11800000D01*
X8223000Y-12155000D02*
X8223000Y-12245000D01*
X8178000Y-12200000D02*
X8268000Y-12200000D01*
X8223000Y-12555000D02*
X8223000Y-12645000D01*
X8178000Y-12600000D02*
X8268000Y-12600000D01*
X8477000Y-8955000D02*
X8477000Y-9045000D01*
X8432000Y-9000000D02*
X8522000Y-9000000D01*
X8477000Y-9355000D02*
X8477000Y-9445000D01*
X8432000Y-9400000D02*
X8522000Y-9400000D01*
X8477000Y-9755000D02*
X8477000Y-9845000D01*
X8432000Y-9800000D02*
X8522000Y-9800000D01*
X8477000Y-10155000D02*
X8477000Y-10245000D01*
X8432000Y-10200000D02*
X8522000Y-10200000D01*
X8477000Y-10555000D02*
X8477000Y-10645000D01*
X8432000Y-10600000D02*
X8522000Y-10600000D01*
X8477000Y-10955000D02*
X8477000Y-11045000D01*
X8432000Y-11000000D02*
X8522000Y-11000000D01*
X8477000Y-11355000D02*
X8477000Y-11445000D01*
X8432000Y-11400000D02*
X8522000Y-11400000D01*
X8477000Y-11755000D02*
X8477000Y-11845000D01*
X8432000Y-11800000D02*
X8522000Y-11800000D01*
X8477000Y-12155000D02*
X8477000Y-12245000D01*
X8432000Y-12200000D02*
X8522000Y-12200000D01*
X8477000Y-12555000D02*
X8477000Y-12645000D01*
X8432000Y-12600000D02*
X8522000Y-12600000D01*
X8896000Y-16155000D02*
X8896000Y-16245000D01*
X8851000Y-16200000D02*
X8941000Y-16200000D01*
X9150000Y-16155000D02*
X9150000Y-16245000D01*
X9105000Y-16200000D02*
X9195000Y-16200000D01*
X9404000Y-16155000D02*
X9404000Y-16245000D01*
X9359000Y-16200000D02*
X9449000Y-16200000D01*
X5312856Y-5477856D02*
X5312856Y-5407144D01*
X5242144Y-5407144D01*
X5242144Y-5477856D01*
X5312856Y-5477856D01*
X5312856Y-5731856D02*
X5312856Y-5661144D01*
X5242144Y-5661144D01*
X5242144Y-5731856D01*
X5312856Y-5731856D01*
X5312856Y-5985856D02*
X5312856Y-5915144D01*
X5242144Y-5915144D01*
X5242144Y-5985856D01*
X5312856Y-5985856D01*
X5312856Y-6239856D02*
X5312856Y-6169144D01*
X5242144Y-6169144D01*
X5242144Y-6239856D01*
X5312856Y-6239856D01*
X5312856Y-6493856D02*
X5312856Y-6423144D01*
X5242144Y-6423144D01*
X5242144Y-6493856D01*
X5312856Y-6493856D01*
X5312856Y-6747856D02*
X5312856Y-6677144D01*
X5242144Y-6677144D01*
X5242144Y-6747856D01*
X5312856Y-6747856D01*
X5312856Y-13927856D02*
X5312856Y-13857144D01*
X5242144Y-13857144D01*
X5242144Y-13927856D01*
X5312856Y-13927856D01*
X5312856Y-14181856D02*
X5312856Y-14111144D01*
X5242144Y-14111144D01*
X5242144Y-14181856D01*
X5312856Y-14181856D01*
X5312856Y-14435856D02*
X5312856Y-14365144D01*
X5242144Y-14365144D01*
X5242144Y-14435856D01*
X5312856Y-14435856D01*
X5312856Y-14689856D02*
X5312856Y-14619144D01*
X5242144Y-14619144D01*
X5242144Y-14689856D01*
X5312856Y-14689856D01*
X5312856Y-14943856D02*
X5312856Y-14873144D01*
X5242144Y-14873144D01*
X5242144Y-14943856D01*
X5312856Y-14943856D01*
X5312856Y-15197856D02*
X5312856Y-15127144D01*
X5242144Y-15127144D01*
X5242144Y-15197856D01*
X5312856Y-15197856D01*
X6035356Y-15285356D02*
X6035356Y-15214644D01*
X5964644Y-15214644D01*
X5964644Y-15285356D01*
X6035356Y-15285356D01*
X6035356Y-15535356D02*
X6035356Y-15464644D01*
X5964644Y-15464644D01*
X5964644Y-15535356D01*
X6035356Y-15535356D01*
X6285356Y-15285356D02*
X6285356Y-15214644D01*
X6214644Y-15214644D01*
X6214644Y-15285356D01*
X6285356Y-15285356D01*
X6285356Y-15535356D02*
X6285356Y-15464644D01*
X6214644Y-15464644D01*
X6214644Y-15535356D01*
X6285356Y-15535356D01*
X6535356Y-15285356D02*
X6535356Y-15214644D01*
X6464644Y-15214644D01*
X6464644Y-15285356D01*
X6535356Y-15285356D01*
X6535356Y-15535356D02*
X6535356Y-15464644D01*
X6464644Y-15464644D01*
X6464644Y-15535356D01*
X6535356Y-15535356D01*
X7035356Y-15207856D02*
X7035356Y-15137144D01*
X6964644Y-15137144D01*
X6964644Y-15207856D01*
X7035356Y-15207856D01*
X7285356Y-6985356D02*
X7285356Y-6914644D01*
X7214644Y-6914644D01*
X7214644Y-6985356D01*
X7285356Y-6985356D01*
X7285356Y-7235356D02*
X7285356Y-7164644D01*
X7214644Y-7164644D01*
X7214644Y-7235356D01*
X7285356Y-7235356D01*
X7289356Y-15207856D02*
X7289356Y-15137144D01*
X7218644Y-15137144D01*
X7218644Y-15207856D01*
X7289356Y-15207856D01*
X7535356Y-6985356D02*
X7535356Y-6914644D01*
X7464644Y-6914644D01*
X7464644Y-6985356D01*
X7535356Y-6985356D01*
X7535356Y-7235356D02*
X7535356Y-7164644D01*
X7464644Y-7164644D01*
X7464644Y-7235356D01*
X7535356Y-7235356D01*
X7785356Y-6985356D02*
X7785356Y-6914644D01*
X7714644Y-6914644D01*
X7714644Y-6985356D01*
X7785356Y-6985356D01*
X7785356Y-7235356D02*
X7785356Y-7164644D01*
X7714644Y-7164644D01*
X7714644Y-7235356D01*
X7785356Y-7235356D01*
X7785356Y-15205356D02*
X7785356Y-15134644D01*
X7714644Y-15134644D01*
X7714644Y-15205356D01*
X7785356Y-15205356D01*
X8039356Y-15205356D02*
X8039356Y-15134644D01*
X7968644Y-15134644D01*
X7968644Y-15205356D01*
X8039356Y-15205356D01*
X8535356Y-15285356D02*
X8535356Y-15214644D01*
X8464644Y-15214644D01*
X8464644Y-15285356D01*
X8535356Y-15285356D01*
X8535356Y-15535356D02*
X8535356Y-15464644D01*
X8464644Y-15464644D01*
X8464644Y-15535356D01*
X8535356Y-15535356D01*
X8785356Y-15285356D02*
X8785356Y-15214644D01*
X8714644Y-15214644D01*
X8714644Y-15285356D01*
X8785356Y-15285356D01*
X8785356Y-15535356D02*
X8785356Y-15464644D01*
X8714644Y-15464644D01*
X8714644Y-15535356D01*
X8785356Y-15535356D01*
X9035356Y-15285356D02*
X9035356Y-15214644D01*
X8964644Y-15214644D01*
X8964644Y-15285356D01*
X9035356Y-15285356D01*
X9035356Y-15535356D02*
X9035356Y-15464644D01*
X8964644Y-15464644D01*
X8964644Y-15535356D01*
X9035356Y-15535356D01*
X9762856Y-5477856D02*
X9762856Y-5407144D01*
X9692144Y-5407144D01*
X9692144Y-5477856D01*
X9762856Y-5477856D01*
X9762856Y-5731856D02*
X9762856Y-5661144D01*
X9692144Y-5661144D01*
X9692144Y-5731856D01*
X9762856Y-5731856D01*
X9762856Y-5985856D02*
X9762856Y-5915144D01*
X9692144Y-5915144D01*
X9692144Y-5985856D01*
X9762856Y-5985856D01*
X9762856Y-6239856D02*
X9762856Y-6169144D01*
X9692144Y-6169144D01*
X9692144Y-6239856D01*
X9762856Y-6239856D01*
X9762856Y-6493856D02*
X9762856Y-6423144D01*
X9692144Y-6423144D01*
X9692144Y-6493856D01*
X9762856Y-6493856D01*
X9762856Y-6747856D02*
X9762856Y-6677144D01*
X9692144Y-6677144D01*
X9692144Y-6747856D01*
X9762856Y-6747856D01*
X9762856Y-13927856D02*
X9762856Y-13857144D01*
X9692144Y-13857144D01*
X9692144Y-13927856D01*
X9762856Y-13927856D01*
X9762856Y-14181856D02*
X9762856Y-14111144D01*
X9692144Y-14111144D01*
X9692144Y-14181856D01*
X9762856Y-14181856D01*
X9762856Y-14435856D02*
X9762856Y-14365144D01*
X9692144Y-14365144D01*
X9692144Y-14435856D01*
X9762856Y-14435856D01*
X9762856Y-14689856D02*
X9762856Y-14619144D01*
X9692144Y-14619144D01*
X9692144Y-14689856D01*
X9762856Y-14689856D01*
X9762856Y-14943856D02*
X9762856Y-14873144D01*
X9692144Y-14873144D01*
X9692144Y-14943856D01*
X9762856Y-14943856D01*
X9762856Y-15197856D02*
X9762856Y-15127144D01*
X9692144Y-15127144D01*
X9692144Y-15197856D01*
X9762856Y-15197856D01*
D13*
X5775000Y-14555000D02*
X5830000Y-14500000D01*
X5775000Y-14445000D01*
X5720000Y-14500000D01*
X5775000Y-14555000D01*
D12*
X5830000Y-14535000D02*
X5830000Y-14465000D01*
X5720000Y-14465000D02*
G75*
G02*
X5830000Y-14465000I55000J0D01*
G01*
X5720000Y-14465000D02*
X5720000Y-14535000D01*
X5720000Y-14535000D02*
G75*
G03*
X5830000Y-14535000I55000J0D01*
G01*
D13*
X6725000Y-14555000D02*
X6780000Y-14500000D01*
X6725000Y-14445000D01*
X6670000Y-14500000D01*
X6725000Y-14555000D01*
D12*
X6780000Y-14535000D02*
X6780000Y-14465000D01*
X6670000Y-14465000D02*
G75*
G02*
X6780000Y-14465000I55000J0D01*
G01*
X6670000Y-14465000D02*
X6670000Y-14535000D01*
X6670000Y-14535000D02*
G75*
G03*
X6780000Y-14535000I55000J0D01*
G01*
D13*
X7025000Y-6255000D02*
X7080000Y-6200000D01*
X7025000Y-6145000D01*
X6970000Y-6200000D01*
X7025000Y-6255000D01*
D12*
X7080000Y-6235000D02*
X7080000Y-6165000D01*
X6970000Y-6165000D02*
G75*
G02*
X7080000Y-6165000I55000J0D01*
G01*
X6970000Y-6165000D02*
X6970000Y-6235000D01*
X6970000Y-6235000D02*
G75*
G03*
X7080000Y-6235000I55000J0D01*
G01*
D13*
X7975000Y-6255000D02*
X8030000Y-6200000D01*
X7975000Y-6145000D01*
X7920000Y-6200000D01*
X7975000Y-6255000D01*
D12*
X8030000Y-6235000D02*
X8030000Y-6165000D01*
X7920000Y-6165000D02*
G75*
G02*
X8030000Y-6165000I55000J0D01*
G01*
X7920000Y-6165000D02*
X7920000Y-6235000D01*
X7920000Y-6235000D02*
G75*
G03*
X8030000Y-6235000I55000J0D01*
G01*
D13*
X8275000Y-14555000D02*
X8330000Y-14500000D01*
X8275000Y-14445000D01*
X8220000Y-14500000D01*
X8275000Y-14555000D01*
D12*
X8330000Y-14535000D02*
X8330000Y-14465000D01*
X8220000Y-14465000D02*
G75*
G02*
X8330000Y-14465000I55000J0D01*
G01*
X8220000Y-14465000D02*
X8220000Y-14535000D01*
X8220000Y-14535000D02*
G75*
G03*
X8330000Y-14535000I55000J0D01*
G01*
D13*
X9225000Y-14555000D02*
X9280000Y-14500000D01*
X9225000Y-14445000D01*
X9170000Y-14500000D01*
X9225000Y-14555000D01*
D12*
X9280000Y-14535000D02*
X9280000Y-14465000D01*
X9170000Y-14465000D02*
G75*
G02*
X9280000Y-14465000I55000J0D01*
G01*
X9170000Y-14465000D02*
X9170000Y-14535000D01*
X9170000Y-14535000D02*
G75*
G03*
X9280000Y-14535000I55000J0D01*
G01*
D11*
X5358277Y-16663984D02*
X5358277Y-16463984D01*
X5358277Y-16463984D02*
X5405896Y-16463984D01*
X5405896Y-16463984D02*
X5434467Y-16473508D01*
X5434467Y-16473508D02*
X5453515Y-16492555D01*
X5453515Y-16492555D02*
X5463039Y-16511603D01*
X5463039Y-16511603D02*
X5472563Y-16549698D01*
X5472563Y-16549698D02*
X5472563Y-16578269D01*
X5472563Y-16578269D02*
X5463039Y-16616365D01*
X5463039Y-16616365D02*
X5453515Y-16635412D01*
X5453515Y-16635412D02*
X5434467Y-16654460D01*
X5434467Y-16654460D02*
X5405896Y-16663984D01*
X5405896Y-16663984D02*
X5358277Y-16663984D01*
X5558277Y-16663984D02*
X5558277Y-16530650D01*
X5558277Y-16568746D02*
X5567801Y-16549698D01*
X5567801Y-16549698D02*
X5577324Y-16540174D01*
X5577324Y-16540174D02*
X5596372Y-16530650D01*
X5596372Y-16530650D02*
X5615420Y-16530650D01*
X5682086Y-16663984D02*
X5682086Y-16530650D01*
X5682086Y-16463984D02*
X5672562Y-16473508D01*
X5672562Y-16473508D02*
X5682086Y-16483031D01*
X5682086Y-16483031D02*
X5691610Y-16473508D01*
X5691610Y-16473508D02*
X5682086Y-16463984D01*
X5682086Y-16463984D02*
X5682086Y-16483031D01*
X5805896Y-16663984D02*
X5786848Y-16654460D01*
X5786848Y-16654460D02*
X5777324Y-16635412D01*
X5777324Y-16635412D02*
X5777324Y-16463984D01*
X5910658Y-16663984D02*
X5891610Y-16654460D01*
X5891610Y-16654460D02*
X5882086Y-16635412D01*
X5882086Y-16635412D02*
X5882086Y-16463984D01*
X6139229Y-16663984D02*
X6139229Y-16463984D01*
X6139229Y-16463984D02*
X6205896Y-16606841D01*
X6205896Y-16606841D02*
X6272562Y-16463984D01*
X6272562Y-16463984D02*
X6272562Y-16663984D01*
X6453515Y-16663984D02*
X6453515Y-16559222D01*
X6453515Y-16559222D02*
X6443991Y-16540174D01*
X6443991Y-16540174D02*
X6424943Y-16530650D01*
X6424943Y-16530650D02*
X6386848Y-16530650D01*
X6386848Y-16530650D02*
X6367801Y-16540174D01*
X6453515Y-16654460D02*
X6434467Y-16663984D01*
X6434467Y-16663984D02*
X6386848Y-16663984D01*
X6386848Y-16663984D02*
X6367801Y-16654460D01*
X6367801Y-16654460D02*
X6358277Y-16635412D01*
X6358277Y-16635412D02*
X6358277Y-16616365D01*
X6358277Y-16616365D02*
X6367801Y-16597317D01*
X6367801Y-16597317D02*
X6386848Y-16587793D01*
X6386848Y-16587793D02*
X6434467Y-16587793D01*
X6434467Y-16587793D02*
X6453515Y-16578269D01*
X6548753Y-16530650D02*
X6548753Y-16730650D01*
X6548753Y-16540174D02*
X6567801Y-16530650D01*
X6567801Y-16530650D02*
X6605896Y-16530650D01*
X6605896Y-16530650D02*
X6624943Y-16540174D01*
X6624943Y-16540174D02*
X6634467Y-16549698D01*
X6634467Y-16549698D02*
X6643991Y-16568746D01*
X6643991Y-16568746D02*
X6643991Y-16625888D01*
X6643991Y-16625888D02*
X6634467Y-16644936D01*
X6634467Y-16644936D02*
X6624943Y-16654460D01*
X6624943Y-16654460D02*
X6605896Y-16663984D01*
X6605896Y-16663984D02*
X6567801Y-16663984D01*
X6567801Y-16663984D02*
X6548753Y-16654460D01*
X6729705Y-16644936D02*
X6739229Y-16654460D01*
X6739229Y-16654460D02*
X6729705Y-16663984D01*
X6729705Y-16663984D02*
X6720182Y-16654460D01*
X6720182Y-16654460D02*
X6729705Y-16644936D01*
X6729705Y-16644936D02*
X6729705Y-16663984D01*
X6729705Y-16540174D02*
X6739229Y-16549698D01*
X6739229Y-16549698D02*
X6729705Y-16559222D01*
X6729705Y-16559222D02*
X6720182Y-16549698D01*
X6720182Y-16549698D02*
X6729705Y-16540174D01*
X6729705Y-16540174D02*
X6729705Y-16559222D01*
D12*
X5067500Y-16977500D02*
X5097500Y-17007500D01*
X5097500Y-16977500D02*
X5067500Y-17007500D01*
D11*
X5396372Y-16883984D02*
X5415420Y-16883984D01*
X5415420Y-16883984D02*
X5434467Y-16893508D01*
X5434467Y-16893508D02*
X5443991Y-16903031D01*
X5443991Y-16903031D02*
X5453515Y-16922079D01*
X5453515Y-16922079D02*
X5463039Y-16960174D01*
X5463039Y-16960174D02*
X5463039Y-17007793D01*
X5463039Y-17007793D02*
X5453515Y-17045889D01*
X5453515Y-17045889D02*
X5443991Y-17064936D01*
X5443991Y-17064936D02*
X5434467Y-17074460D01*
X5434467Y-17074460D02*
X5415420Y-17083984D01*
X5415420Y-17083984D02*
X5396372Y-17083984D01*
X5396372Y-17083984D02*
X5377324Y-17074460D01*
X5377324Y-17074460D02*
X5367801Y-17064936D01*
X5367801Y-17064936D02*
X5358277Y-17045889D01*
X5358277Y-17045889D02*
X5348753Y-17007793D01*
X5348753Y-17007793D02*
X5348753Y-16960174D01*
X5348753Y-16960174D02*
X5358277Y-16922079D01*
X5358277Y-16922079D02*
X5367801Y-16903031D01*
X5367801Y-16903031D02*
X5377324Y-16893508D01*
X5377324Y-16893508D02*
X5396372Y-16883984D01*
X5548753Y-17064936D02*
X5558277Y-17074460D01*
X5558277Y-17074460D02*
X5548753Y-17083984D01*
X5548753Y-17083984D02*
X5539229Y-17074460D01*
X5539229Y-17074460D02*
X5548753Y-17064936D01*
X5548753Y-17064936D02*
X5548753Y-17083984D01*
X5624943Y-16883984D02*
X5748753Y-16883984D01*
X5748753Y-16883984D02*
X5682086Y-16960174D01*
X5682086Y-16960174D02*
X5710658Y-16960174D01*
X5710658Y-16960174D02*
X5729705Y-16969698D01*
X5729705Y-16969698D02*
X5739229Y-16979222D01*
X5739229Y-16979222D02*
X5748753Y-16998270D01*
X5748753Y-16998270D02*
X5748753Y-17045889D01*
X5748753Y-17045889D02*
X5739229Y-17064936D01*
X5739229Y-17064936D02*
X5729705Y-17074460D01*
X5729705Y-17074460D02*
X5710658Y-17083984D01*
X5710658Y-17083984D02*
X5653515Y-17083984D01*
X5653515Y-17083984D02*
X5634467Y-17074460D01*
X5634467Y-17074460D02*
X5624943Y-17064936D01*
X5872562Y-16883984D02*
X5891610Y-16883984D01*
X5891610Y-16883984D02*
X5910658Y-16893508D01*
X5910658Y-16893508D02*
X5920182Y-16903031D01*
X5920182Y-16903031D02*
X5929705Y-16922079D01*
X5929705Y-16922079D02*
X5939229Y-16960174D01*
X5939229Y-16960174D02*
X5939229Y-17007793D01*
X5939229Y-17007793D02*
X5929705Y-17045889D01*
X5929705Y-17045889D02*
X5920182Y-17064936D01*
X5920182Y-17064936D02*
X5910658Y-17074460D01*
X5910658Y-17074460D02*
X5891610Y-17083984D01*
X5891610Y-17083984D02*
X5872562Y-17083984D01*
X5872562Y-17083984D02*
X5853515Y-17074460D01*
X5853515Y-17074460D02*
X5843991Y-17064936D01*
X5843991Y-17064936D02*
X5834467Y-17045889D01*
X5834467Y-17045889D02*
X5824943Y-17007793D01*
X5824943Y-17007793D02*
X5824943Y-16960174D01*
X5824943Y-16960174D02*
X5834467Y-16922079D01*
X5834467Y-16922079D02*
X5843991Y-16903031D01*
X5843991Y-16903031D02*
X5853515Y-16893508D01*
X5853515Y-16893508D02*
X5872562Y-16883984D01*
X6063039Y-16883984D02*
X6082086Y-16883984D01*
X6082086Y-16883984D02*
X6101134Y-16893508D01*
X6101134Y-16893508D02*
X6110658Y-16903031D01*
X6110658Y-16903031D02*
X6120182Y-16922079D01*
X6120182Y-16922079D02*
X6129705Y-16960174D01*
X6129705Y-16960174D02*
X6129705Y-17007793D01*
X6129705Y-17007793D02*
X6120182Y-17045889D01*
X6120182Y-17045889D02*
X6110658Y-17064936D01*
X6110658Y-17064936D02*
X6101134Y-17074460D01*
X6101134Y-17074460D02*
X6082086Y-17083984D01*
X6082086Y-17083984D02*
X6063039Y-17083984D01*
X6063039Y-17083984D02*
X6043991Y-17074460D01*
X6043991Y-17074460D02*
X6034467Y-17064936D01*
X6034467Y-17064936D02*
X6024943Y-17045889D01*
X6024943Y-17045889D02*
X6015420Y-17007793D01*
X6015420Y-17007793D02*
X6015420Y-16960174D01*
X6015420Y-16960174D02*
X6024943Y-16922079D01*
X6024943Y-16922079D02*
X6034467Y-16903031D01*
X6034467Y-16903031D02*
X6043991Y-16893508D01*
X6043991Y-16893508D02*
X6063039Y-16883984D01*
X6215420Y-17083984D02*
X6215420Y-16950650D01*
X6215420Y-16969698D02*
X6224943Y-16960174D01*
X6224943Y-16960174D02*
X6243991Y-16950650D01*
X6243991Y-16950650D02*
X6272563Y-16950650D01*
X6272563Y-16950650D02*
X6291610Y-16960174D01*
X6291610Y-16960174D02*
X6301134Y-16979222D01*
X6301134Y-16979222D02*
X6301134Y-17083984D01*
X6301134Y-16979222D02*
X6310658Y-16960174D01*
X6310658Y-16960174D02*
X6329705Y-16950650D01*
X6329705Y-16950650D02*
X6358277Y-16950650D01*
X6358277Y-16950650D02*
X6377324Y-16960174D01*
X6377324Y-16960174D02*
X6386848Y-16979222D01*
X6386848Y-16979222D02*
X6386848Y-17083984D01*
X6482086Y-17083984D02*
X6482086Y-16950650D01*
X6482086Y-16969698D02*
X6491610Y-16960174D01*
X6491610Y-16960174D02*
X6510658Y-16950650D01*
X6510658Y-16950650D02*
X6539229Y-16950650D01*
X6539229Y-16950650D02*
X6558277Y-16960174D01*
X6558277Y-16960174D02*
X6567801Y-16979222D01*
X6567801Y-16979222D02*
X6567801Y-17083984D01*
X6567801Y-16979222D02*
X6577324Y-16960174D01*
X6577324Y-16960174D02*
X6596372Y-16950650D01*
X6596372Y-16950650D02*
X6624943Y-16950650D01*
X6624943Y-16950650D02*
X6643991Y-16960174D01*
X6643991Y-16960174D02*
X6653515Y-16979222D01*
X6653515Y-16979222D02*
X6653515Y-17083984D01*
X7043991Y-16874460D02*
X6872563Y-17131603D01*
X7301134Y-16883984D02*
X7320182Y-16883984D01*
X7320182Y-16883984D02*
X7339229Y-16893508D01*
X7339229Y-16893508D02*
X7348753Y-16903031D01*
X7348753Y-16903031D02*
X7358277Y-16922079D01*
X7358277Y-16922079D02*
X7367801Y-16960174D01*
X7367801Y-16960174D02*
X7367801Y-17007793D01*
X7367801Y-17007793D02*
X7358277Y-17045889D01*
X7358277Y-17045889D02*
X7348753Y-17064936D01*
X7348753Y-17064936D02*
X7339229Y-17074460D01*
X7339229Y-17074460D02*
X7320182Y-17083984D01*
X7320182Y-17083984D02*
X7301134Y-17083984D01*
X7301134Y-17083984D02*
X7282086Y-17074460D01*
X7282086Y-17074460D02*
X7272563Y-17064936D01*
X7272563Y-17064936D02*
X7263039Y-17045889D01*
X7263039Y-17045889D02*
X7253515Y-17007793D01*
X7253515Y-17007793D02*
X7253515Y-16960174D01*
X7253515Y-16960174D02*
X7263039Y-16922079D01*
X7263039Y-16922079D02*
X7272563Y-16903031D01*
X7272563Y-16903031D02*
X7282086Y-16893508D01*
X7282086Y-16893508D02*
X7301134Y-16883984D01*
X7453515Y-17064936D02*
X7463039Y-17074460D01*
X7463039Y-17074460D02*
X7453515Y-17083984D01*
X7453515Y-17083984D02*
X7443991Y-17074460D01*
X7443991Y-17074460D02*
X7453515Y-17064936D01*
X7453515Y-17064936D02*
X7453515Y-17083984D01*
X7586848Y-16883984D02*
X7605896Y-16883984D01*
X7605896Y-16883984D02*
X7624944Y-16893508D01*
X7624944Y-16893508D02*
X7634467Y-16903031D01*
X7634467Y-16903031D02*
X7643991Y-16922079D01*
X7643991Y-16922079D02*
X7653515Y-16960174D01*
X7653515Y-16960174D02*
X7653515Y-17007793D01*
X7653515Y-17007793D02*
X7643991Y-17045889D01*
X7643991Y-17045889D02*
X7634467Y-17064936D01*
X7634467Y-17064936D02*
X7624944Y-17074460D01*
X7624944Y-17074460D02*
X7605896Y-17083984D01*
X7605896Y-17083984D02*
X7586848Y-17083984D01*
X7586848Y-17083984D02*
X7567801Y-17074460D01*
X7567801Y-17074460D02*
X7558277Y-17064936D01*
X7558277Y-17064936D02*
X7548753Y-17045889D01*
X7548753Y-17045889D02*
X7539229Y-17007793D01*
X7539229Y-17007793D02*
X7539229Y-16960174D01*
X7539229Y-16960174D02*
X7548753Y-16922079D01*
X7548753Y-16922079D02*
X7558277Y-16903031D01*
X7558277Y-16903031D02*
X7567801Y-16893508D01*
X7567801Y-16893508D02*
X7586848Y-16883984D01*
X7843991Y-17083984D02*
X7729706Y-17083984D01*
X7786848Y-17083984D02*
X7786848Y-16883984D01*
X7786848Y-16883984D02*
X7767801Y-16912555D01*
X7767801Y-16912555D02*
X7748753Y-16931603D01*
X7748753Y-16931603D02*
X7729706Y-16941127D01*
X8034467Y-17083984D02*
X7920182Y-17083984D01*
X7977325Y-17083984D02*
X7977325Y-16883984D01*
X7977325Y-16883984D02*
X7958277Y-16912555D01*
X7958277Y-16912555D02*
X7939229Y-16931603D01*
X7939229Y-16931603D02*
X7920182Y-16941127D01*
X8148753Y-16969698D02*
X8129706Y-16960174D01*
X8129706Y-16960174D02*
X8120182Y-16950650D01*
X8120182Y-16950650D02*
X8110658Y-16931603D01*
X8110658Y-16931603D02*
X8110658Y-16922079D01*
X8110658Y-16922079D02*
X8120182Y-16903031D01*
X8120182Y-16903031D02*
X8129706Y-16893508D01*
X8129706Y-16893508D02*
X8148753Y-16883984D01*
X8148753Y-16883984D02*
X8186848Y-16883984D01*
X8186848Y-16883984D02*
X8205896Y-16893508D01*
X8205896Y-16893508D02*
X8215420Y-16903031D01*
X8215420Y-16903031D02*
X8224944Y-16922079D01*
X8224944Y-16922079D02*
X8224944Y-16931603D01*
X8224944Y-16931603D02*
X8215420Y-16950650D01*
X8215420Y-16950650D02*
X8205896Y-16960174D01*
X8205896Y-16960174D02*
X8186848Y-16969698D01*
X8186848Y-16969698D02*
X8148753Y-16969698D01*
X8148753Y-16969698D02*
X8129706Y-16979222D01*
X8129706Y-16979222D02*
X8120182Y-16988746D01*
X8120182Y-16988746D02*
X8110658Y-17007793D01*
X8110658Y-17007793D02*
X8110658Y-17045889D01*
X8110658Y-17045889D02*
X8120182Y-17064936D01*
X8120182Y-17064936D02*
X8129706Y-17074460D01*
X8129706Y-17074460D02*
X8148753Y-17083984D01*
X8148753Y-17083984D02*
X8186848Y-17083984D01*
X8186848Y-17083984D02*
X8205896Y-17074460D01*
X8205896Y-17074460D02*
X8215420Y-17064936D01*
X8215420Y-17064936D02*
X8224944Y-17045889D01*
X8224944Y-17045889D02*
X8224944Y-17007793D01*
X8224944Y-17007793D02*
X8215420Y-16988746D01*
X8215420Y-16988746D02*
X8205896Y-16979222D01*
X8205896Y-16979222D02*
X8186848Y-16969698D01*
X8301134Y-16883984D02*
X8301134Y-16922079D01*
X8377325Y-16883984D02*
X8377325Y-16922079D01*
X8672563Y-17160174D02*
X8663039Y-17150650D01*
X8663039Y-17150650D02*
X8643991Y-17122079D01*
X8643991Y-17122079D02*
X8634468Y-17103031D01*
X8634468Y-17103031D02*
X8624944Y-17074460D01*
X8624944Y-17074460D02*
X8615420Y-17026841D01*
X8615420Y-17026841D02*
X8615420Y-16988746D01*
X8615420Y-16988746D02*
X8624944Y-16941127D01*
X8624944Y-16941127D02*
X8634468Y-16912555D01*
X8634468Y-16912555D02*
X8643991Y-16893508D01*
X8643991Y-16893508D02*
X8663039Y-16864936D01*
X8663039Y-16864936D02*
X8672563Y-16855412D01*
X8853515Y-17083984D02*
X8739230Y-17083984D01*
X8796372Y-17083984D02*
X8796372Y-16883984D01*
X8796372Y-16883984D02*
X8777325Y-16912555D01*
X8777325Y-16912555D02*
X8758277Y-16931603D01*
X8758277Y-16931603D02*
X8739230Y-16941127D01*
X9091611Y-17083984D02*
X9091611Y-16883984D01*
X9177325Y-17083984D02*
X9177325Y-16979222D01*
X9177325Y-16979222D02*
X9167801Y-16960174D01*
X9167801Y-16960174D02*
X9148753Y-16950650D01*
X9148753Y-16950650D02*
X9120182Y-16950650D01*
X9120182Y-16950650D02*
X9101134Y-16960174D01*
X9101134Y-16960174D02*
X9091611Y-16969698D01*
X9301134Y-17083984D02*
X9282087Y-17074460D01*
X9282087Y-17074460D02*
X9272563Y-17064936D01*
X9272563Y-17064936D02*
X9263039Y-17045889D01*
X9263039Y-17045889D02*
X9263039Y-16988746D01*
X9263039Y-16988746D02*
X9272563Y-16969698D01*
X9272563Y-16969698D02*
X9282087Y-16960174D01*
X9282087Y-16960174D02*
X9301134Y-16950650D01*
X9301134Y-16950650D02*
X9329706Y-16950650D01*
X9329706Y-16950650D02*
X9348753Y-16960174D01*
X9348753Y-16960174D02*
X9358277Y-16969698D01*
X9358277Y-16969698D02*
X9367801Y-16988746D01*
X9367801Y-16988746D02*
X9367801Y-17045889D01*
X9367801Y-17045889D02*
X9358277Y-17064936D01*
X9358277Y-17064936D02*
X9348753Y-17074460D01*
X9348753Y-17074460D02*
X9329706Y-17083984D01*
X9329706Y-17083984D02*
X9301134Y-17083984D01*
X9482087Y-17083984D02*
X9463039Y-17074460D01*
X9463039Y-17074460D02*
X9453515Y-17055412D01*
X9453515Y-17055412D02*
X9453515Y-16883984D01*
X9634468Y-17074460D02*
X9615420Y-17083984D01*
X9615420Y-17083984D02*
X9577325Y-17083984D01*
X9577325Y-17083984D02*
X9558277Y-17074460D01*
X9558277Y-17074460D02*
X9548753Y-17055412D01*
X9548753Y-17055412D02*
X9548753Y-16979222D01*
X9548753Y-16979222D02*
X9558277Y-16960174D01*
X9558277Y-16960174D02*
X9577325Y-16950650D01*
X9577325Y-16950650D02*
X9615420Y-16950650D01*
X9615420Y-16950650D02*
X9634468Y-16960174D01*
X9634468Y-16960174D02*
X9643992Y-16979222D01*
X9643992Y-16979222D02*
X9643992Y-16998270D01*
X9643992Y-16998270D02*
X9548753Y-17017317D01*
X9710658Y-17160174D02*
X9720182Y-17150650D01*
X9720182Y-17150650D02*
X9739230Y-17122079D01*
X9739230Y-17122079D02*
X9748753Y-17103031D01*
X9748753Y-17103031D02*
X9758277Y-17074460D01*
X9758277Y-17074460D02*
X9767801Y-17026841D01*
X9767801Y-17026841D02*
X9767801Y-16988746D01*
X9767801Y-16988746D02*
X9758277Y-16941127D01*
X9758277Y-16941127D02*
X9748753Y-16912555D01*
X9748753Y-16912555D02*
X9739230Y-16893508D01*
X9739230Y-16893508D02*
X9720182Y-16864936D01*
X9720182Y-16864936D02*
X9710658Y-16855412D01*
D12*
X5097500Y-17256500D02*
G75*
G02*
X5017500Y-17256500I-40000J0D01*
G01*
X5017500Y-17256500D02*
G75*
G02*
X5097500Y-17256500I40000J0D01*
G01*
D11*
X5396372Y-17147984D02*
X5415420Y-17147984D01*
X5415420Y-17147984D02*
X5434467Y-17157508D01*
X5434467Y-17157508D02*
X5443991Y-17167031D01*
X5443991Y-17167031D02*
X5453515Y-17186079D01*
X5453515Y-17186079D02*
X5463039Y-17224174D01*
X5463039Y-17224174D02*
X5463039Y-17271793D01*
X5463039Y-17271793D02*
X5453515Y-17309889D01*
X5453515Y-17309889D02*
X5443991Y-17328936D01*
X5443991Y-17328936D02*
X5434467Y-17338460D01*
X5434467Y-17338460D02*
X5415420Y-17347984D01*
X5415420Y-17347984D02*
X5396372Y-17347984D01*
X5396372Y-17347984D02*
X5377324Y-17338460D01*
X5377324Y-17338460D02*
X5367801Y-17328936D01*
X5367801Y-17328936D02*
X5358277Y-17309889D01*
X5358277Y-17309889D02*
X5348753Y-17271793D01*
X5348753Y-17271793D02*
X5348753Y-17224174D01*
X5348753Y-17224174D02*
X5358277Y-17186079D01*
X5358277Y-17186079D02*
X5367801Y-17167031D01*
X5367801Y-17167031D02*
X5377324Y-17157508D01*
X5377324Y-17157508D02*
X5396372Y-17147984D01*
X5548753Y-17328936D02*
X5558277Y-17338460D01*
X5558277Y-17338460D02*
X5548753Y-17347984D01*
X5548753Y-17347984D02*
X5539229Y-17338460D01*
X5539229Y-17338460D02*
X5548753Y-17328936D01*
X5548753Y-17328936D02*
X5548753Y-17347984D01*
X5672562Y-17233698D02*
X5653515Y-17224174D01*
X5653515Y-17224174D02*
X5643991Y-17214650D01*
X5643991Y-17214650D02*
X5634467Y-17195603D01*
X5634467Y-17195603D02*
X5634467Y-17186079D01*
X5634467Y-17186079D02*
X5643991Y-17167031D01*
X5643991Y-17167031D02*
X5653515Y-17157508D01*
X5653515Y-17157508D02*
X5672562Y-17147984D01*
X5672562Y-17147984D02*
X5710658Y-17147984D01*
X5710658Y-17147984D02*
X5729705Y-17157508D01*
X5729705Y-17157508D02*
X5739229Y-17167031D01*
X5739229Y-17167031D02*
X5748753Y-17186079D01*
X5748753Y-17186079D02*
X5748753Y-17195603D01*
X5748753Y-17195603D02*
X5739229Y-17214650D01*
X5739229Y-17214650D02*
X5729705Y-17224174D01*
X5729705Y-17224174D02*
X5710658Y-17233698D01*
X5710658Y-17233698D02*
X5672562Y-17233698D01*
X5672562Y-17233698D02*
X5653515Y-17243222D01*
X5653515Y-17243222D02*
X5643991Y-17252746D01*
X5643991Y-17252746D02*
X5634467Y-17271793D01*
X5634467Y-17271793D02*
X5634467Y-17309889D01*
X5634467Y-17309889D02*
X5643991Y-17328936D01*
X5643991Y-17328936D02*
X5653515Y-17338460D01*
X5653515Y-17338460D02*
X5672562Y-17347984D01*
X5672562Y-17347984D02*
X5710658Y-17347984D01*
X5710658Y-17347984D02*
X5729705Y-17338460D01*
X5729705Y-17338460D02*
X5739229Y-17328936D01*
X5739229Y-17328936D02*
X5748753Y-17309889D01*
X5748753Y-17309889D02*
X5748753Y-17271793D01*
X5748753Y-17271793D02*
X5739229Y-17252746D01*
X5739229Y-17252746D02*
X5729705Y-17243222D01*
X5729705Y-17243222D02*
X5710658Y-17233698D01*
X5872562Y-17147984D02*
X5891610Y-17147984D01*
X5891610Y-17147984D02*
X5910658Y-17157508D01*
X5910658Y-17157508D02*
X5920182Y-17167031D01*
X5920182Y-17167031D02*
X5929705Y-17186079D01*
X5929705Y-17186079D02*
X5939229Y-17224174D01*
X5939229Y-17224174D02*
X5939229Y-17271793D01*
X5939229Y-17271793D02*
X5929705Y-17309889D01*
X5929705Y-17309889D02*
X5920182Y-17328936D01*
X5920182Y-17328936D02*
X5910658Y-17338460D01*
X5910658Y-17338460D02*
X5891610Y-17347984D01*
X5891610Y-17347984D02*
X5872562Y-17347984D01*
X5872562Y-17347984D02*
X5853515Y-17338460D01*
X5853515Y-17338460D02*
X5843991Y-17328936D01*
X5843991Y-17328936D02*
X5834467Y-17309889D01*
X5834467Y-17309889D02*
X5824943Y-17271793D01*
X5824943Y-17271793D02*
X5824943Y-17224174D01*
X5824943Y-17224174D02*
X5834467Y-17186079D01*
X5834467Y-17186079D02*
X5843991Y-17167031D01*
X5843991Y-17167031D02*
X5853515Y-17157508D01*
X5853515Y-17157508D02*
X5872562Y-17147984D01*
X6063039Y-17147984D02*
X6082086Y-17147984D01*
X6082086Y-17147984D02*
X6101134Y-17157508D01*
X6101134Y-17157508D02*
X6110658Y-17167031D01*
X6110658Y-17167031D02*
X6120182Y-17186079D01*
X6120182Y-17186079D02*
X6129705Y-17224174D01*
X6129705Y-17224174D02*
X6129705Y-17271793D01*
X6129705Y-17271793D02*
X6120182Y-17309889D01*
X6120182Y-17309889D02*
X6110658Y-17328936D01*
X6110658Y-17328936D02*
X6101134Y-17338460D01*
X6101134Y-17338460D02*
X6082086Y-17347984D01*
X6082086Y-17347984D02*
X6063039Y-17347984D01*
X6063039Y-17347984D02*
X6043991Y-17338460D01*
X6043991Y-17338460D02*
X6034467Y-17328936D01*
X6034467Y-17328936D02*
X6024943Y-17309889D01*
X6024943Y-17309889D02*
X6015420Y-17271793D01*
X6015420Y-17271793D02*
X6015420Y-17224174D01*
X6015420Y-17224174D02*
X6024943Y-17186079D01*
X6024943Y-17186079D02*
X6034467Y-17167031D01*
X6034467Y-17167031D02*
X6043991Y-17157508D01*
X6043991Y-17157508D02*
X6063039Y-17147984D01*
X6215420Y-17347984D02*
X6215420Y-17214650D01*
X6215420Y-17233698D02*
X6224943Y-17224174D01*
X6224943Y-17224174D02*
X6243991Y-17214650D01*
X6243991Y-17214650D02*
X6272563Y-17214650D01*
X6272563Y-17214650D02*
X6291610Y-17224174D01*
X6291610Y-17224174D02*
X6301134Y-17243222D01*
X6301134Y-17243222D02*
X6301134Y-17347984D01*
X6301134Y-17243222D02*
X6310658Y-17224174D01*
X6310658Y-17224174D02*
X6329705Y-17214650D01*
X6329705Y-17214650D02*
X6358277Y-17214650D01*
X6358277Y-17214650D02*
X6377324Y-17224174D01*
X6377324Y-17224174D02*
X6386848Y-17243222D01*
X6386848Y-17243222D02*
X6386848Y-17347984D01*
X6482086Y-17347984D02*
X6482086Y-17214650D01*
X6482086Y-17233698D02*
X6491610Y-17224174D01*
X6491610Y-17224174D02*
X6510658Y-17214650D01*
X6510658Y-17214650D02*
X6539229Y-17214650D01*
X6539229Y-17214650D02*
X6558277Y-17224174D01*
X6558277Y-17224174D02*
X6567801Y-17243222D01*
X6567801Y-17243222D02*
X6567801Y-17347984D01*
X6567801Y-17243222D02*
X6577324Y-17224174D01*
X6577324Y-17224174D02*
X6596372Y-17214650D01*
X6596372Y-17214650D02*
X6624943Y-17214650D01*
X6624943Y-17214650D02*
X6643991Y-17224174D01*
X6643991Y-17224174D02*
X6653515Y-17243222D01*
X6653515Y-17243222D02*
X6653515Y-17347984D01*
X7043991Y-17138460D02*
X6872563Y-17395603D01*
X7301134Y-17147984D02*
X7320182Y-17147984D01*
X7320182Y-17147984D02*
X7339229Y-17157508D01*
X7339229Y-17157508D02*
X7348753Y-17167031D01*
X7348753Y-17167031D02*
X7358277Y-17186079D01*
X7358277Y-17186079D02*
X7367801Y-17224174D01*
X7367801Y-17224174D02*
X7367801Y-17271793D01*
X7367801Y-17271793D02*
X7358277Y-17309889D01*
X7358277Y-17309889D02*
X7348753Y-17328936D01*
X7348753Y-17328936D02*
X7339229Y-17338460D01*
X7339229Y-17338460D02*
X7320182Y-17347984D01*
X7320182Y-17347984D02*
X7301134Y-17347984D01*
X7301134Y-17347984D02*
X7282086Y-17338460D01*
X7282086Y-17338460D02*
X7272563Y-17328936D01*
X7272563Y-17328936D02*
X7263039Y-17309889D01*
X7263039Y-17309889D02*
X7253515Y-17271793D01*
X7253515Y-17271793D02*
X7253515Y-17224174D01*
X7253515Y-17224174D02*
X7263039Y-17186079D01*
X7263039Y-17186079D02*
X7272563Y-17167031D01*
X7272563Y-17167031D02*
X7282086Y-17157508D01*
X7282086Y-17157508D02*
X7301134Y-17147984D01*
X7453515Y-17328936D02*
X7463039Y-17338460D01*
X7463039Y-17338460D02*
X7453515Y-17347984D01*
X7453515Y-17347984D02*
X7443991Y-17338460D01*
X7443991Y-17338460D02*
X7453515Y-17328936D01*
X7453515Y-17328936D02*
X7453515Y-17347984D01*
X7586848Y-17147984D02*
X7605896Y-17147984D01*
X7605896Y-17147984D02*
X7624944Y-17157508D01*
X7624944Y-17157508D02*
X7634467Y-17167031D01*
X7634467Y-17167031D02*
X7643991Y-17186079D01*
X7643991Y-17186079D02*
X7653515Y-17224174D01*
X7653515Y-17224174D02*
X7653515Y-17271793D01*
X7653515Y-17271793D02*
X7643991Y-17309889D01*
X7643991Y-17309889D02*
X7634467Y-17328936D01*
X7634467Y-17328936D02*
X7624944Y-17338460D01*
X7624944Y-17338460D02*
X7605896Y-17347984D01*
X7605896Y-17347984D02*
X7586848Y-17347984D01*
X7586848Y-17347984D02*
X7567801Y-17338460D01*
X7567801Y-17338460D02*
X7558277Y-17328936D01*
X7558277Y-17328936D02*
X7548753Y-17309889D01*
X7548753Y-17309889D02*
X7539229Y-17271793D01*
X7539229Y-17271793D02*
X7539229Y-17224174D01*
X7539229Y-17224174D02*
X7548753Y-17186079D01*
X7548753Y-17186079D02*
X7558277Y-17167031D01*
X7558277Y-17167031D02*
X7567801Y-17157508D01*
X7567801Y-17157508D02*
X7586848Y-17147984D01*
X7720182Y-17147984D02*
X7843991Y-17147984D01*
X7843991Y-17147984D02*
X7777325Y-17224174D01*
X7777325Y-17224174D02*
X7805896Y-17224174D01*
X7805896Y-17224174D02*
X7824944Y-17233698D01*
X7824944Y-17233698D02*
X7834467Y-17243222D01*
X7834467Y-17243222D02*
X7843991Y-17262270D01*
X7843991Y-17262270D02*
X7843991Y-17309889D01*
X7843991Y-17309889D02*
X7834467Y-17328936D01*
X7834467Y-17328936D02*
X7824944Y-17338460D01*
X7824944Y-17338460D02*
X7805896Y-17347984D01*
X7805896Y-17347984D02*
X7748753Y-17347984D01*
X7748753Y-17347984D02*
X7729706Y-17338460D01*
X7729706Y-17338460D02*
X7720182Y-17328936D01*
X8034467Y-17347984D02*
X7920182Y-17347984D01*
X7977325Y-17347984D02*
X7977325Y-17147984D01*
X7977325Y-17147984D02*
X7958277Y-17176555D01*
X7958277Y-17176555D02*
X7939229Y-17195603D01*
X7939229Y-17195603D02*
X7920182Y-17205127D01*
X8215420Y-17147984D02*
X8120182Y-17147984D01*
X8120182Y-17147984D02*
X8110658Y-17243222D01*
X8110658Y-17243222D02*
X8120182Y-17233698D01*
X8120182Y-17233698D02*
X8139229Y-17224174D01*
X8139229Y-17224174D02*
X8186848Y-17224174D01*
X8186848Y-17224174D02*
X8205896Y-17233698D01*
X8205896Y-17233698D02*
X8215420Y-17243222D01*
X8215420Y-17243222D02*
X8224944Y-17262270D01*
X8224944Y-17262270D02*
X8224944Y-17309889D01*
X8224944Y-17309889D02*
X8215420Y-17328936D01*
X8215420Y-17328936D02*
X8205896Y-17338460D01*
X8205896Y-17338460D02*
X8186848Y-17347984D01*
X8186848Y-17347984D02*
X8139229Y-17347984D01*
X8139229Y-17347984D02*
X8120182Y-17338460D01*
X8120182Y-17338460D02*
X8110658Y-17328936D01*
X8301134Y-17147984D02*
X8301134Y-17186079D01*
X8377325Y-17147984D02*
X8377325Y-17186079D01*
X8672563Y-17424174D02*
X8663039Y-17414650D01*
X8663039Y-17414650D02*
X8643991Y-17386079D01*
X8643991Y-17386079D02*
X8634468Y-17367031D01*
X8634468Y-17367031D02*
X8624944Y-17338460D01*
X8624944Y-17338460D02*
X8615420Y-17290841D01*
X8615420Y-17290841D02*
X8615420Y-17252746D01*
X8615420Y-17252746D02*
X8624944Y-17205127D01*
X8624944Y-17205127D02*
X8634468Y-17176555D01*
X8634468Y-17176555D02*
X8643991Y-17157508D01*
X8643991Y-17157508D02*
X8663039Y-17128936D01*
X8663039Y-17128936D02*
X8672563Y-17119412D01*
X8853515Y-17347984D02*
X8739230Y-17347984D01*
X8796372Y-17347984D02*
X8796372Y-17147984D01*
X8796372Y-17147984D02*
X8777325Y-17176555D01*
X8777325Y-17176555D02*
X8758277Y-17195603D01*
X8758277Y-17195603D02*
X8739230Y-17205127D01*
X8948753Y-17347984D02*
X8986849Y-17347984D01*
X8986849Y-17347984D02*
X9005896Y-17338460D01*
X9005896Y-17338460D02*
X9015420Y-17328936D01*
X9015420Y-17328936D02*
X9034468Y-17300365D01*
X9034468Y-17300365D02*
X9043991Y-17262270D01*
X9043991Y-17262270D02*
X9043991Y-17186079D01*
X9043991Y-17186079D02*
X9034468Y-17167031D01*
X9034468Y-17167031D02*
X9024944Y-17157508D01*
X9024944Y-17157508D02*
X9005896Y-17147984D01*
X9005896Y-17147984D02*
X8967801Y-17147984D01*
X8967801Y-17147984D02*
X8948753Y-17157508D01*
X8948753Y-17157508D02*
X8939230Y-17167031D01*
X8939230Y-17167031D02*
X8929706Y-17186079D01*
X8929706Y-17186079D02*
X8929706Y-17233698D01*
X8929706Y-17233698D02*
X8939230Y-17252746D01*
X8939230Y-17252746D02*
X8948753Y-17262270D01*
X8948753Y-17262270D02*
X8967801Y-17271793D01*
X8967801Y-17271793D02*
X9005896Y-17271793D01*
X9005896Y-17271793D02*
X9024944Y-17262270D01*
X9024944Y-17262270D02*
X9034468Y-17252746D01*
X9034468Y-17252746D02*
X9043991Y-17233698D01*
X9224944Y-17147984D02*
X9129706Y-17147984D01*
X9129706Y-17147984D02*
X9120182Y-17243222D01*
X9120182Y-17243222D02*
X9129706Y-17233698D01*
X9129706Y-17233698D02*
X9148753Y-17224174D01*
X9148753Y-17224174D02*
X9196372Y-17224174D01*
X9196372Y-17224174D02*
X9215420Y-17233698D01*
X9215420Y-17233698D02*
X9224944Y-17243222D01*
X9224944Y-17243222D02*
X9234468Y-17262270D01*
X9234468Y-17262270D02*
X9234468Y-17309889D01*
X9234468Y-17309889D02*
X9224944Y-17328936D01*
X9224944Y-17328936D02*
X9215420Y-17338460D01*
X9215420Y-17338460D02*
X9196372Y-17347984D01*
X9196372Y-17347984D02*
X9148753Y-17347984D01*
X9148753Y-17347984D02*
X9129706Y-17338460D01*
X9129706Y-17338460D02*
X9120182Y-17328936D01*
X9472563Y-17347984D02*
X9472563Y-17147984D01*
X9558277Y-17347984D02*
X9558277Y-17243222D01*
X9558277Y-17243222D02*
X9548753Y-17224174D01*
X9548753Y-17224174D02*
X9529706Y-17214650D01*
X9529706Y-17214650D02*
X9501134Y-17214650D01*
X9501134Y-17214650D02*
X9482087Y-17224174D01*
X9482087Y-17224174D02*
X9472563Y-17233698D01*
X9682087Y-17347984D02*
X9663039Y-17338460D01*
X9663039Y-17338460D02*
X9653515Y-17328936D01*
X9653515Y-17328936D02*
X9643992Y-17309889D01*
X9643992Y-17309889D02*
X9643992Y-17252746D01*
X9643992Y-17252746D02*
X9653515Y-17233698D01*
X9653515Y-17233698D02*
X9663039Y-17224174D01*
X9663039Y-17224174D02*
X9682087Y-17214650D01*
X9682087Y-17214650D02*
X9710658Y-17214650D01*
X9710658Y-17214650D02*
X9729706Y-17224174D01*
X9729706Y-17224174D02*
X9739230Y-17233698D01*
X9739230Y-17233698D02*
X9748753Y-17252746D01*
X9748753Y-17252746D02*
X9748753Y-17309889D01*
X9748753Y-17309889D02*
X9739230Y-17328936D01*
X9739230Y-17328936D02*
X9729706Y-17338460D01*
X9729706Y-17338460D02*
X9710658Y-17347984D01*
X9710658Y-17347984D02*
X9682087Y-17347984D01*
X9863039Y-17347984D02*
X9843992Y-17338460D01*
X9843992Y-17338460D02*
X9834468Y-17319412D01*
X9834468Y-17319412D02*
X9834468Y-17147984D01*
X10015420Y-17338460D02*
X9996373Y-17347984D01*
X9996373Y-17347984D02*
X9958277Y-17347984D01*
X9958277Y-17347984D02*
X9939230Y-17338460D01*
X9939230Y-17338460D02*
X9929706Y-17319412D01*
X9929706Y-17319412D02*
X9929706Y-17243222D01*
X9929706Y-17243222D02*
X9939230Y-17224174D01*
X9939230Y-17224174D02*
X9958277Y-17214650D01*
X9958277Y-17214650D02*
X9996373Y-17214650D01*
X9996373Y-17214650D02*
X10015420Y-17224174D01*
X10015420Y-17224174D02*
X10024944Y-17243222D01*
X10024944Y-17243222D02*
X10024944Y-17262270D01*
X10024944Y-17262270D02*
X9929706Y-17281317D01*
X10101134Y-17338460D02*
X10120182Y-17347984D01*
X10120182Y-17347984D02*
X10158277Y-17347984D01*
X10158277Y-17347984D02*
X10177325Y-17338460D01*
X10177325Y-17338460D02*
X10186849Y-17319412D01*
X10186849Y-17319412D02*
X10186849Y-17309889D01*
X10186849Y-17309889D02*
X10177325Y-17290841D01*
X10177325Y-17290841D02*
X10158277Y-17281317D01*
X10158277Y-17281317D02*
X10129706Y-17281317D01*
X10129706Y-17281317D02*
X10110658Y-17271793D01*
X10110658Y-17271793D02*
X10101134Y-17252746D01*
X10101134Y-17252746D02*
X10101134Y-17243222D01*
X10101134Y-17243222D02*
X10110658Y-17224174D01*
X10110658Y-17224174D02*
X10129706Y-17214650D01*
X10129706Y-17214650D02*
X10158277Y-17214650D01*
X10158277Y-17214650D02*
X10177325Y-17224174D01*
X10253515Y-17424174D02*
X10263039Y-17414650D01*
X10263039Y-17414650D02*
X10282087Y-17386079D01*
X10282087Y-17386079D02*
X10291611Y-17367031D01*
X10291611Y-17367031D02*
X10301134Y-17338460D01*
X10301134Y-17338460D02*
X10310658Y-17290841D01*
X10310658Y-17290841D02*
X10310658Y-17252746D01*
X10310658Y-17252746D02*
X10301134Y-17205127D01*
X10301134Y-17205127D02*
X10291611Y-17176555D01*
X10291611Y-17176555D02*
X10282087Y-17157508D01*
X10282087Y-17157508D02*
X10263039Y-17128936D01*
X10263039Y-17128936D02*
X10253515Y-17119412D01*
D12*
X5052500Y-17475500D02*
X5052500Y-17565500D01*
X5007500Y-17520500D02*
X5097500Y-17520500D01*
D11*
X5396372Y-17411984D02*
X5415420Y-17411984D01*
X5415420Y-17411984D02*
X5434467Y-17421508D01*
X5434467Y-17421508D02*
X5443991Y-17431031D01*
X5443991Y-17431031D02*
X5453515Y-17450079D01*
X5453515Y-17450079D02*
X5463039Y-17488174D01*
X5463039Y-17488174D02*
X5463039Y-17535793D01*
X5463039Y-17535793D02*
X5453515Y-17573889D01*
X5453515Y-17573889D02*
X5443991Y-17592936D01*
X5443991Y-17592936D02*
X5434467Y-17602460D01*
X5434467Y-17602460D02*
X5415420Y-17611984D01*
X5415420Y-17611984D02*
X5396372Y-17611984D01*
X5396372Y-17611984D02*
X5377324Y-17602460D01*
X5377324Y-17602460D02*
X5367801Y-17592936D01*
X5367801Y-17592936D02*
X5358277Y-17573889D01*
X5358277Y-17573889D02*
X5348753Y-17535793D01*
X5348753Y-17535793D02*
X5348753Y-17488174D01*
X5348753Y-17488174D02*
X5358277Y-17450079D01*
X5358277Y-17450079D02*
X5367801Y-17431031D01*
X5367801Y-17431031D02*
X5377324Y-17421508D01*
X5377324Y-17421508D02*
X5396372Y-17411984D01*
X5548753Y-17592936D02*
X5558277Y-17602460D01*
X5558277Y-17602460D02*
X5548753Y-17611984D01*
X5548753Y-17611984D02*
X5539229Y-17602460D01*
X5539229Y-17602460D02*
X5548753Y-17592936D01*
X5548753Y-17592936D02*
X5548753Y-17611984D01*
X5653515Y-17611984D02*
X5691610Y-17611984D01*
X5691610Y-17611984D02*
X5710658Y-17602460D01*
X5710658Y-17602460D02*
X5720182Y-17592936D01*
X5720182Y-17592936D02*
X5739229Y-17564365D01*
X5739229Y-17564365D02*
X5748753Y-17526270D01*
X5748753Y-17526270D02*
X5748753Y-17450079D01*
X5748753Y-17450079D02*
X5739229Y-17431031D01*
X5739229Y-17431031D02*
X5729705Y-17421508D01*
X5729705Y-17421508D02*
X5710658Y-17411984D01*
X5710658Y-17411984D02*
X5672562Y-17411984D01*
X5672562Y-17411984D02*
X5653515Y-17421508D01*
X5653515Y-17421508D02*
X5643991Y-17431031D01*
X5643991Y-17431031D02*
X5634467Y-17450079D01*
X5634467Y-17450079D02*
X5634467Y-17497698D01*
X5634467Y-17497698D02*
X5643991Y-17516746D01*
X5643991Y-17516746D02*
X5653515Y-17526270D01*
X5653515Y-17526270D02*
X5672562Y-17535793D01*
X5672562Y-17535793D02*
X5710658Y-17535793D01*
X5710658Y-17535793D02*
X5729705Y-17526270D01*
X5729705Y-17526270D02*
X5739229Y-17516746D01*
X5739229Y-17516746D02*
X5748753Y-17497698D01*
X5872562Y-17411984D02*
X5891610Y-17411984D01*
X5891610Y-17411984D02*
X5910658Y-17421508D01*
X5910658Y-17421508D02*
X5920182Y-17431031D01*
X5920182Y-17431031D02*
X5929705Y-17450079D01*
X5929705Y-17450079D02*
X5939229Y-17488174D01*
X5939229Y-17488174D02*
X5939229Y-17535793D01*
X5939229Y-17535793D02*
X5929705Y-17573889D01*
X5929705Y-17573889D02*
X5920182Y-17592936D01*
X5920182Y-17592936D02*
X5910658Y-17602460D01*
X5910658Y-17602460D02*
X5891610Y-17611984D01*
X5891610Y-17611984D02*
X5872562Y-17611984D01*
X5872562Y-17611984D02*
X5853515Y-17602460D01*
X5853515Y-17602460D02*
X5843991Y-17592936D01*
X5843991Y-17592936D02*
X5834467Y-17573889D01*
X5834467Y-17573889D02*
X5824943Y-17535793D01*
X5824943Y-17535793D02*
X5824943Y-17488174D01*
X5824943Y-17488174D02*
X5834467Y-17450079D01*
X5834467Y-17450079D02*
X5843991Y-17431031D01*
X5843991Y-17431031D02*
X5853515Y-17421508D01*
X5853515Y-17421508D02*
X5872562Y-17411984D01*
X6063039Y-17411984D02*
X6082086Y-17411984D01*
X6082086Y-17411984D02*
X6101134Y-17421508D01*
X6101134Y-17421508D02*
X6110658Y-17431031D01*
X6110658Y-17431031D02*
X6120182Y-17450079D01*
X6120182Y-17450079D02*
X6129705Y-17488174D01*
X6129705Y-17488174D02*
X6129705Y-17535793D01*
X6129705Y-17535793D02*
X6120182Y-17573889D01*
X6120182Y-17573889D02*
X6110658Y-17592936D01*
X6110658Y-17592936D02*
X6101134Y-17602460D01*
X6101134Y-17602460D02*
X6082086Y-17611984D01*
X6082086Y-17611984D02*
X6063039Y-17611984D01*
X6063039Y-17611984D02*
X6043991Y-17602460D01*
X6043991Y-17602460D02*
X6034467Y-17592936D01*
X6034467Y-17592936D02*
X6024943Y-17573889D01*
X6024943Y-17573889D02*
X6015420Y-17535793D01*
X6015420Y-17535793D02*
X6015420Y-17488174D01*
X6015420Y-17488174D02*
X6024943Y-17450079D01*
X6024943Y-17450079D02*
X6034467Y-17431031D01*
X6034467Y-17431031D02*
X6043991Y-17421508D01*
X6043991Y-17421508D02*
X6063039Y-17411984D01*
X6215420Y-17611984D02*
X6215420Y-17478650D01*
X6215420Y-17497698D02*
X6224943Y-17488174D01*
X6224943Y-17488174D02*
X6243991Y-17478650D01*
X6243991Y-17478650D02*
X6272563Y-17478650D01*
X6272563Y-17478650D02*
X6291610Y-17488174D01*
X6291610Y-17488174D02*
X6301134Y-17507222D01*
X6301134Y-17507222D02*
X6301134Y-17611984D01*
X6301134Y-17507222D02*
X6310658Y-17488174D01*
X6310658Y-17488174D02*
X6329705Y-17478650D01*
X6329705Y-17478650D02*
X6358277Y-17478650D01*
X6358277Y-17478650D02*
X6377324Y-17488174D01*
X6377324Y-17488174D02*
X6386848Y-17507222D01*
X6386848Y-17507222D02*
X6386848Y-17611984D01*
X6482086Y-17611984D02*
X6482086Y-17478650D01*
X6482086Y-17497698D02*
X6491610Y-17488174D01*
X6491610Y-17488174D02*
X6510658Y-17478650D01*
X6510658Y-17478650D02*
X6539229Y-17478650D01*
X6539229Y-17478650D02*
X6558277Y-17488174D01*
X6558277Y-17488174D02*
X6567801Y-17507222D01*
X6567801Y-17507222D02*
X6567801Y-17611984D01*
X6567801Y-17507222D02*
X6577324Y-17488174D01*
X6577324Y-17488174D02*
X6596372Y-17478650D01*
X6596372Y-17478650D02*
X6624943Y-17478650D01*
X6624943Y-17478650D02*
X6643991Y-17488174D01*
X6643991Y-17488174D02*
X6653515Y-17507222D01*
X6653515Y-17507222D02*
X6653515Y-17611984D01*
X7043991Y-17402460D02*
X6872563Y-17659603D01*
X7301134Y-17411984D02*
X7320182Y-17411984D01*
X7320182Y-17411984D02*
X7339229Y-17421508D01*
X7339229Y-17421508D02*
X7348753Y-17431031D01*
X7348753Y-17431031D02*
X7358277Y-17450079D01*
X7358277Y-17450079D02*
X7367801Y-17488174D01*
X7367801Y-17488174D02*
X7367801Y-17535793D01*
X7367801Y-17535793D02*
X7358277Y-17573889D01*
X7358277Y-17573889D02*
X7348753Y-17592936D01*
X7348753Y-17592936D02*
X7339229Y-17602460D01*
X7339229Y-17602460D02*
X7320182Y-17611984D01*
X7320182Y-17611984D02*
X7301134Y-17611984D01*
X7301134Y-17611984D02*
X7282086Y-17602460D01*
X7282086Y-17602460D02*
X7272563Y-17592936D01*
X7272563Y-17592936D02*
X7263039Y-17573889D01*
X7263039Y-17573889D02*
X7253515Y-17535793D01*
X7253515Y-17535793D02*
X7253515Y-17488174D01*
X7253515Y-17488174D02*
X7263039Y-17450079D01*
X7263039Y-17450079D02*
X7272563Y-17431031D01*
X7272563Y-17431031D02*
X7282086Y-17421508D01*
X7282086Y-17421508D02*
X7301134Y-17411984D01*
X7453515Y-17592936D02*
X7463039Y-17602460D01*
X7463039Y-17602460D02*
X7453515Y-17611984D01*
X7453515Y-17611984D02*
X7443991Y-17602460D01*
X7443991Y-17602460D02*
X7453515Y-17592936D01*
X7453515Y-17592936D02*
X7453515Y-17611984D01*
X7586848Y-17411984D02*
X7605896Y-17411984D01*
X7605896Y-17411984D02*
X7624944Y-17421508D01*
X7624944Y-17421508D02*
X7634467Y-17431031D01*
X7634467Y-17431031D02*
X7643991Y-17450079D01*
X7643991Y-17450079D02*
X7653515Y-17488174D01*
X7653515Y-17488174D02*
X7653515Y-17535793D01*
X7653515Y-17535793D02*
X7643991Y-17573889D01*
X7643991Y-17573889D02*
X7634467Y-17592936D01*
X7634467Y-17592936D02*
X7624944Y-17602460D01*
X7624944Y-17602460D02*
X7605896Y-17611984D01*
X7605896Y-17611984D02*
X7586848Y-17611984D01*
X7586848Y-17611984D02*
X7567801Y-17602460D01*
X7567801Y-17602460D02*
X7558277Y-17592936D01*
X7558277Y-17592936D02*
X7548753Y-17573889D01*
X7548753Y-17573889D02*
X7539229Y-17535793D01*
X7539229Y-17535793D02*
X7539229Y-17488174D01*
X7539229Y-17488174D02*
X7548753Y-17450079D01*
X7548753Y-17450079D02*
X7558277Y-17431031D01*
X7558277Y-17431031D02*
X7567801Y-17421508D01*
X7567801Y-17421508D02*
X7586848Y-17411984D01*
X7720182Y-17411984D02*
X7843991Y-17411984D01*
X7843991Y-17411984D02*
X7777325Y-17488174D01*
X7777325Y-17488174D02*
X7805896Y-17488174D01*
X7805896Y-17488174D02*
X7824944Y-17497698D01*
X7824944Y-17497698D02*
X7834467Y-17507222D01*
X7834467Y-17507222D02*
X7843991Y-17526270D01*
X7843991Y-17526270D02*
X7843991Y-17573889D01*
X7843991Y-17573889D02*
X7834467Y-17592936D01*
X7834467Y-17592936D02*
X7824944Y-17602460D01*
X7824944Y-17602460D02*
X7805896Y-17611984D01*
X7805896Y-17611984D02*
X7748753Y-17611984D01*
X7748753Y-17611984D02*
X7729706Y-17602460D01*
X7729706Y-17602460D02*
X7720182Y-17592936D01*
X8024944Y-17411984D02*
X7929706Y-17411984D01*
X7929706Y-17411984D02*
X7920182Y-17507222D01*
X7920182Y-17507222D02*
X7929706Y-17497698D01*
X7929706Y-17497698D02*
X7948753Y-17488174D01*
X7948753Y-17488174D02*
X7996372Y-17488174D01*
X7996372Y-17488174D02*
X8015420Y-17497698D01*
X8015420Y-17497698D02*
X8024944Y-17507222D01*
X8024944Y-17507222D02*
X8034467Y-17526270D01*
X8034467Y-17526270D02*
X8034467Y-17573889D01*
X8034467Y-17573889D02*
X8024944Y-17592936D01*
X8024944Y-17592936D02*
X8015420Y-17602460D01*
X8015420Y-17602460D02*
X7996372Y-17611984D01*
X7996372Y-17611984D02*
X7948753Y-17611984D01*
X7948753Y-17611984D02*
X7929706Y-17602460D01*
X7929706Y-17602460D02*
X7920182Y-17592936D01*
X8205896Y-17478650D02*
X8205896Y-17611984D01*
X8158277Y-17402460D02*
X8110658Y-17545317D01*
X8110658Y-17545317D02*
X8234467Y-17545317D01*
X8301134Y-17411984D02*
X8301134Y-17450079D01*
X8377325Y-17411984D02*
X8377325Y-17450079D01*
X8672563Y-17688174D02*
X8663039Y-17678650D01*
X8663039Y-17678650D02*
X8643991Y-17650079D01*
X8643991Y-17650079D02*
X8634468Y-17631031D01*
X8634468Y-17631031D02*
X8624944Y-17602460D01*
X8624944Y-17602460D02*
X8615420Y-17554841D01*
X8615420Y-17554841D02*
X8615420Y-17516746D01*
X8615420Y-17516746D02*
X8624944Y-17469127D01*
X8624944Y-17469127D02*
X8634468Y-17440555D01*
X8634468Y-17440555D02*
X8643991Y-17421508D01*
X8643991Y-17421508D02*
X8663039Y-17392936D01*
X8663039Y-17392936D02*
X8672563Y-17383412D01*
X8834468Y-17478650D02*
X8834468Y-17611984D01*
X8786849Y-17402460D02*
X8739230Y-17545317D01*
X8739230Y-17545317D02*
X8863039Y-17545317D01*
X9024944Y-17411984D02*
X8986849Y-17411984D01*
X8986849Y-17411984D02*
X8967801Y-17421508D01*
X8967801Y-17421508D02*
X8958277Y-17431031D01*
X8958277Y-17431031D02*
X8939230Y-17459603D01*
X8939230Y-17459603D02*
X8929706Y-17497698D01*
X8929706Y-17497698D02*
X8929706Y-17573889D01*
X8929706Y-17573889D02*
X8939230Y-17592936D01*
X8939230Y-17592936D02*
X8948753Y-17602460D01*
X8948753Y-17602460D02*
X8967801Y-17611984D01*
X8967801Y-17611984D02*
X9005896Y-17611984D01*
X9005896Y-17611984D02*
X9024944Y-17602460D01*
X9024944Y-17602460D02*
X9034468Y-17592936D01*
X9034468Y-17592936D02*
X9043991Y-17573889D01*
X9043991Y-17573889D02*
X9043991Y-17526270D01*
X9043991Y-17526270D02*
X9034468Y-17507222D01*
X9034468Y-17507222D02*
X9024944Y-17497698D01*
X9024944Y-17497698D02*
X9005896Y-17488174D01*
X9005896Y-17488174D02*
X8967801Y-17488174D01*
X8967801Y-17488174D02*
X8948753Y-17497698D01*
X8948753Y-17497698D02*
X8939230Y-17507222D01*
X8939230Y-17507222D02*
X8929706Y-17526270D01*
X9282087Y-17611984D02*
X9282087Y-17411984D01*
X9367801Y-17611984D02*
X9367801Y-17507222D01*
X9367801Y-17507222D02*
X9358277Y-17488174D01*
X9358277Y-17488174D02*
X9339230Y-17478650D01*
X9339230Y-17478650D02*
X9310658Y-17478650D01*
X9310658Y-17478650D02*
X9291611Y-17488174D01*
X9291611Y-17488174D02*
X9282087Y-17497698D01*
X9491611Y-17611984D02*
X9472563Y-17602460D01*
X9472563Y-17602460D02*
X9463039Y-17592936D01*
X9463039Y-17592936D02*
X9453515Y-17573889D01*
X9453515Y-17573889D02*
X9453515Y-17516746D01*
X9453515Y-17516746D02*
X9463039Y-17497698D01*
X9463039Y-17497698D02*
X9472563Y-17488174D01*
X9472563Y-17488174D02*
X9491611Y-17478650D01*
X9491611Y-17478650D02*
X9520182Y-17478650D01*
X9520182Y-17478650D02*
X9539230Y-17488174D01*
X9539230Y-17488174D02*
X9548753Y-17497698D01*
X9548753Y-17497698D02*
X9558277Y-17516746D01*
X9558277Y-17516746D02*
X9558277Y-17573889D01*
X9558277Y-17573889D02*
X9548753Y-17592936D01*
X9548753Y-17592936D02*
X9539230Y-17602460D01*
X9539230Y-17602460D02*
X9520182Y-17611984D01*
X9520182Y-17611984D02*
X9491611Y-17611984D01*
X9672563Y-17611984D02*
X9653515Y-17602460D01*
X9653515Y-17602460D02*
X9643992Y-17583412D01*
X9643992Y-17583412D02*
X9643992Y-17411984D01*
X9824944Y-17602460D02*
X9805896Y-17611984D01*
X9805896Y-17611984D02*
X9767801Y-17611984D01*
X9767801Y-17611984D02*
X9748753Y-17602460D01*
X9748753Y-17602460D02*
X9739230Y-17583412D01*
X9739230Y-17583412D02*
X9739230Y-17507222D01*
X9739230Y-17507222D02*
X9748753Y-17488174D01*
X9748753Y-17488174D02*
X9767801Y-17478650D01*
X9767801Y-17478650D02*
X9805896Y-17478650D01*
X9805896Y-17478650D02*
X9824944Y-17488174D01*
X9824944Y-17488174D02*
X9834468Y-17507222D01*
X9834468Y-17507222D02*
X9834468Y-17526270D01*
X9834468Y-17526270D02*
X9739230Y-17545317D01*
X9910658Y-17602460D02*
X9929706Y-17611984D01*
X9929706Y-17611984D02*
X9967801Y-17611984D01*
X9967801Y-17611984D02*
X9986849Y-17602460D01*
X9986849Y-17602460D02*
X9996373Y-17583412D01*
X9996373Y-17583412D02*
X9996373Y-17573889D01*
X9996373Y-17573889D02*
X9986849Y-17554841D01*
X9986849Y-17554841D02*
X9967801Y-17545317D01*
X9967801Y-17545317D02*
X9939230Y-17545317D01*
X9939230Y-17545317D02*
X9920182Y-17535793D01*
X9920182Y-17535793D02*
X9910658Y-17516746D01*
X9910658Y-17516746D02*
X9910658Y-17507222D01*
X9910658Y-17507222D02*
X9920182Y-17488174D01*
X9920182Y-17488174D02*
X9939230Y-17478650D01*
X9939230Y-17478650D02*
X9967801Y-17478650D01*
X9967801Y-17478650D02*
X9986849Y-17488174D01*
X10063039Y-17688174D02*
X10072563Y-17678650D01*
X10072563Y-17678650D02*
X10091611Y-17650079D01*
X10091611Y-17650079D02*
X10101134Y-17631031D01*
X10101134Y-17631031D02*
X10110658Y-17602460D01*
X10110658Y-17602460D02*
X10120182Y-17554841D01*
X10120182Y-17554841D02*
X10120182Y-17516746D01*
X10120182Y-17516746D02*
X10110658Y-17469127D01*
X10110658Y-17469127D02*
X10101134Y-17440555D01*
X10101134Y-17440555D02*
X10091611Y-17421508D01*
X10091611Y-17421508D02*
X10072563Y-17392936D01*
X10072563Y-17392936D02*
X10063039Y-17383412D01*
D12*
X5082856Y-17819856D02*
X5082856Y-17749144D01*
X5012144Y-17749144D01*
X5012144Y-17819856D01*
X5082856Y-17819856D01*
D11*
X5463039Y-17875984D02*
X5348753Y-17875984D01*
X5405896Y-17875984D02*
X5405896Y-17675984D01*
X5405896Y-17675984D02*
X5386848Y-17704555D01*
X5386848Y-17704555D02*
X5367801Y-17723603D01*
X5367801Y-17723603D02*
X5348753Y-17733127D01*
X5548753Y-17856936D02*
X5558277Y-17866460D01*
X5558277Y-17866460D02*
X5548753Y-17875984D01*
X5548753Y-17875984D02*
X5539229Y-17866460D01*
X5539229Y-17866460D02*
X5548753Y-17856936D01*
X5548753Y-17856936D02*
X5548753Y-17875984D01*
X5682086Y-17675984D02*
X5701134Y-17675984D01*
X5701134Y-17675984D02*
X5720182Y-17685508D01*
X5720182Y-17685508D02*
X5729705Y-17695031D01*
X5729705Y-17695031D02*
X5739229Y-17714079D01*
X5739229Y-17714079D02*
X5748753Y-17752174D01*
X5748753Y-17752174D02*
X5748753Y-17799793D01*
X5748753Y-17799793D02*
X5739229Y-17837889D01*
X5739229Y-17837889D02*
X5729705Y-17856936D01*
X5729705Y-17856936D02*
X5720182Y-17866460D01*
X5720182Y-17866460D02*
X5701134Y-17875984D01*
X5701134Y-17875984D02*
X5682086Y-17875984D01*
X5682086Y-17875984D02*
X5663039Y-17866460D01*
X5663039Y-17866460D02*
X5653515Y-17856936D01*
X5653515Y-17856936D02*
X5643991Y-17837889D01*
X5643991Y-17837889D02*
X5634467Y-17799793D01*
X5634467Y-17799793D02*
X5634467Y-17752174D01*
X5634467Y-17752174D02*
X5643991Y-17714079D01*
X5643991Y-17714079D02*
X5653515Y-17695031D01*
X5653515Y-17695031D02*
X5663039Y-17685508D01*
X5663039Y-17685508D02*
X5682086Y-17675984D01*
X5872562Y-17675984D02*
X5891610Y-17675984D01*
X5891610Y-17675984D02*
X5910658Y-17685508D01*
X5910658Y-17685508D02*
X5920182Y-17695031D01*
X5920182Y-17695031D02*
X5929705Y-17714079D01*
X5929705Y-17714079D02*
X5939229Y-17752174D01*
X5939229Y-17752174D02*
X5939229Y-17799793D01*
X5939229Y-17799793D02*
X5929705Y-17837889D01*
X5929705Y-17837889D02*
X5920182Y-17856936D01*
X5920182Y-17856936D02*
X5910658Y-17866460D01*
X5910658Y-17866460D02*
X5891610Y-17875984D01*
X5891610Y-17875984D02*
X5872562Y-17875984D01*
X5872562Y-17875984D02*
X5853515Y-17866460D01*
X5853515Y-17866460D02*
X5843991Y-17856936D01*
X5843991Y-17856936D02*
X5834467Y-17837889D01*
X5834467Y-17837889D02*
X5824943Y-17799793D01*
X5824943Y-17799793D02*
X5824943Y-17752174D01*
X5824943Y-17752174D02*
X5834467Y-17714079D01*
X5834467Y-17714079D02*
X5843991Y-17695031D01*
X5843991Y-17695031D02*
X5853515Y-17685508D01*
X5853515Y-17685508D02*
X5872562Y-17675984D01*
X6063039Y-17675984D02*
X6082086Y-17675984D01*
X6082086Y-17675984D02*
X6101134Y-17685508D01*
X6101134Y-17685508D02*
X6110658Y-17695031D01*
X6110658Y-17695031D02*
X6120182Y-17714079D01*
X6120182Y-17714079D02*
X6129705Y-17752174D01*
X6129705Y-17752174D02*
X6129705Y-17799793D01*
X6129705Y-17799793D02*
X6120182Y-17837889D01*
X6120182Y-17837889D02*
X6110658Y-17856936D01*
X6110658Y-17856936D02*
X6101134Y-17866460D01*
X6101134Y-17866460D02*
X6082086Y-17875984D01*
X6082086Y-17875984D02*
X6063039Y-17875984D01*
X6063039Y-17875984D02*
X6043991Y-17866460D01*
X6043991Y-17866460D02*
X6034467Y-17856936D01*
X6034467Y-17856936D02*
X6024943Y-17837889D01*
X6024943Y-17837889D02*
X6015420Y-17799793D01*
X6015420Y-17799793D02*
X6015420Y-17752174D01*
X6015420Y-17752174D02*
X6024943Y-17714079D01*
X6024943Y-17714079D02*
X6034467Y-17695031D01*
X6034467Y-17695031D02*
X6043991Y-17685508D01*
X6043991Y-17685508D02*
X6063039Y-17675984D01*
X6215420Y-17875984D02*
X6215420Y-17742650D01*
X6215420Y-17761698D02*
X6224943Y-17752174D01*
X6224943Y-17752174D02*
X6243991Y-17742650D01*
X6243991Y-17742650D02*
X6272563Y-17742650D01*
X6272563Y-17742650D02*
X6291610Y-17752174D01*
X6291610Y-17752174D02*
X6301134Y-17771222D01*
X6301134Y-17771222D02*
X6301134Y-17875984D01*
X6301134Y-17771222D02*
X6310658Y-17752174D01*
X6310658Y-17752174D02*
X6329705Y-17742650D01*
X6329705Y-17742650D02*
X6358277Y-17742650D01*
X6358277Y-17742650D02*
X6377324Y-17752174D01*
X6377324Y-17752174D02*
X6386848Y-17771222D01*
X6386848Y-17771222D02*
X6386848Y-17875984D01*
X6482086Y-17875984D02*
X6482086Y-17742650D01*
X6482086Y-17761698D02*
X6491610Y-17752174D01*
X6491610Y-17752174D02*
X6510658Y-17742650D01*
X6510658Y-17742650D02*
X6539229Y-17742650D01*
X6539229Y-17742650D02*
X6558277Y-17752174D01*
X6558277Y-17752174D02*
X6567801Y-17771222D01*
X6567801Y-17771222D02*
X6567801Y-17875984D01*
X6567801Y-17771222D02*
X6577324Y-17752174D01*
X6577324Y-17752174D02*
X6596372Y-17742650D01*
X6596372Y-17742650D02*
X6624943Y-17742650D01*
X6624943Y-17742650D02*
X6643991Y-17752174D01*
X6643991Y-17752174D02*
X6653515Y-17771222D01*
X6653515Y-17771222D02*
X6653515Y-17875984D01*
X7043991Y-17666460D02*
X6872563Y-17923603D01*
X7301134Y-17675984D02*
X7320182Y-17675984D01*
X7320182Y-17675984D02*
X7339229Y-17685508D01*
X7339229Y-17685508D02*
X7348753Y-17695031D01*
X7348753Y-17695031D02*
X7358277Y-17714079D01*
X7358277Y-17714079D02*
X7367801Y-17752174D01*
X7367801Y-17752174D02*
X7367801Y-17799793D01*
X7367801Y-17799793D02*
X7358277Y-17837889D01*
X7358277Y-17837889D02*
X7348753Y-17856936D01*
X7348753Y-17856936D02*
X7339229Y-17866460D01*
X7339229Y-17866460D02*
X7320182Y-17875984D01*
X7320182Y-17875984D02*
X7301134Y-17875984D01*
X7301134Y-17875984D02*
X7282086Y-17866460D01*
X7282086Y-17866460D02*
X7272563Y-17856936D01*
X7272563Y-17856936D02*
X7263039Y-17837889D01*
X7263039Y-17837889D02*
X7253515Y-17799793D01*
X7253515Y-17799793D02*
X7253515Y-17752174D01*
X7253515Y-17752174D02*
X7263039Y-17714079D01*
X7263039Y-17714079D02*
X7272563Y-17695031D01*
X7272563Y-17695031D02*
X7282086Y-17685508D01*
X7282086Y-17685508D02*
X7301134Y-17675984D01*
X7453515Y-17856936D02*
X7463039Y-17866460D01*
X7463039Y-17866460D02*
X7453515Y-17875984D01*
X7453515Y-17875984D02*
X7443991Y-17866460D01*
X7443991Y-17866460D02*
X7453515Y-17856936D01*
X7453515Y-17856936D02*
X7453515Y-17875984D01*
X7586848Y-17675984D02*
X7605896Y-17675984D01*
X7605896Y-17675984D02*
X7624944Y-17685508D01*
X7624944Y-17685508D02*
X7634467Y-17695031D01*
X7634467Y-17695031D02*
X7643991Y-17714079D01*
X7643991Y-17714079D02*
X7653515Y-17752174D01*
X7653515Y-17752174D02*
X7653515Y-17799793D01*
X7653515Y-17799793D02*
X7643991Y-17837889D01*
X7643991Y-17837889D02*
X7634467Y-17856936D01*
X7634467Y-17856936D02*
X7624944Y-17866460D01*
X7624944Y-17866460D02*
X7605896Y-17875984D01*
X7605896Y-17875984D02*
X7586848Y-17875984D01*
X7586848Y-17875984D02*
X7567801Y-17866460D01*
X7567801Y-17866460D02*
X7558277Y-17856936D01*
X7558277Y-17856936D02*
X7548753Y-17837889D01*
X7548753Y-17837889D02*
X7539229Y-17799793D01*
X7539229Y-17799793D02*
X7539229Y-17752174D01*
X7539229Y-17752174D02*
X7548753Y-17714079D01*
X7548753Y-17714079D02*
X7558277Y-17695031D01*
X7558277Y-17695031D02*
X7567801Y-17685508D01*
X7567801Y-17685508D02*
X7586848Y-17675984D01*
X7720182Y-17675984D02*
X7843991Y-17675984D01*
X7843991Y-17675984D02*
X7777325Y-17752174D01*
X7777325Y-17752174D02*
X7805896Y-17752174D01*
X7805896Y-17752174D02*
X7824944Y-17761698D01*
X7824944Y-17761698D02*
X7834467Y-17771222D01*
X7834467Y-17771222D02*
X7843991Y-17790270D01*
X7843991Y-17790270D02*
X7843991Y-17837889D01*
X7843991Y-17837889D02*
X7834467Y-17856936D01*
X7834467Y-17856936D02*
X7824944Y-17866460D01*
X7824944Y-17866460D02*
X7805896Y-17875984D01*
X7805896Y-17875984D02*
X7748753Y-17875984D01*
X7748753Y-17875984D02*
X7729706Y-17866460D01*
X7729706Y-17866460D02*
X7720182Y-17856936D01*
X7939229Y-17875984D02*
X7977325Y-17875984D01*
X7977325Y-17875984D02*
X7996372Y-17866460D01*
X7996372Y-17866460D02*
X8005896Y-17856936D01*
X8005896Y-17856936D02*
X8024944Y-17828365D01*
X8024944Y-17828365D02*
X8034467Y-17790270D01*
X8034467Y-17790270D02*
X8034467Y-17714079D01*
X8034467Y-17714079D02*
X8024944Y-17695031D01*
X8024944Y-17695031D02*
X8015420Y-17685508D01*
X8015420Y-17685508D02*
X7996372Y-17675984D01*
X7996372Y-17675984D02*
X7958277Y-17675984D01*
X7958277Y-17675984D02*
X7939229Y-17685508D01*
X7939229Y-17685508D02*
X7929706Y-17695031D01*
X7929706Y-17695031D02*
X7920182Y-17714079D01*
X7920182Y-17714079D02*
X7920182Y-17761698D01*
X7920182Y-17761698D02*
X7929706Y-17780746D01*
X7929706Y-17780746D02*
X7939229Y-17790270D01*
X7939229Y-17790270D02*
X7958277Y-17799793D01*
X7958277Y-17799793D02*
X7996372Y-17799793D01*
X7996372Y-17799793D02*
X8015420Y-17790270D01*
X8015420Y-17790270D02*
X8024944Y-17780746D01*
X8024944Y-17780746D02*
X8034467Y-17761698D01*
X8205896Y-17742650D02*
X8205896Y-17875984D01*
X8158277Y-17666460D02*
X8110658Y-17809317D01*
X8110658Y-17809317D02*
X8234467Y-17809317D01*
X8301134Y-17675984D02*
X8301134Y-17714079D01*
X8377325Y-17675984D02*
X8377325Y-17714079D01*
X8672563Y-17952174D02*
X8663039Y-17942650D01*
X8663039Y-17942650D02*
X8643991Y-17914079D01*
X8643991Y-17914079D02*
X8634468Y-17895031D01*
X8634468Y-17895031D02*
X8624944Y-17866460D01*
X8624944Y-17866460D02*
X8615420Y-17818841D01*
X8615420Y-17818841D02*
X8615420Y-17780746D01*
X8615420Y-17780746D02*
X8624944Y-17733127D01*
X8624944Y-17733127D02*
X8634468Y-17704555D01*
X8634468Y-17704555D02*
X8643991Y-17685508D01*
X8643991Y-17685508D02*
X8663039Y-17656936D01*
X8663039Y-17656936D02*
X8672563Y-17647412D01*
X8834468Y-17742650D02*
X8834468Y-17875984D01*
X8786849Y-17666460D02*
X8739230Y-17809317D01*
X8739230Y-17809317D02*
X8863039Y-17809317D01*
X9024944Y-17675984D02*
X8986849Y-17675984D01*
X8986849Y-17675984D02*
X8967801Y-17685508D01*
X8967801Y-17685508D02*
X8958277Y-17695031D01*
X8958277Y-17695031D02*
X8939230Y-17723603D01*
X8939230Y-17723603D02*
X8929706Y-17761698D01*
X8929706Y-17761698D02*
X8929706Y-17837889D01*
X8929706Y-17837889D02*
X8939230Y-17856936D01*
X8939230Y-17856936D02*
X8948753Y-17866460D01*
X8948753Y-17866460D02*
X8967801Y-17875984D01*
X8967801Y-17875984D02*
X9005896Y-17875984D01*
X9005896Y-17875984D02*
X9024944Y-17866460D01*
X9024944Y-17866460D02*
X9034468Y-17856936D01*
X9034468Y-17856936D02*
X9043991Y-17837889D01*
X9043991Y-17837889D02*
X9043991Y-17790270D01*
X9043991Y-17790270D02*
X9034468Y-17771222D01*
X9034468Y-17771222D02*
X9024944Y-17761698D01*
X9024944Y-17761698D02*
X9005896Y-17752174D01*
X9005896Y-17752174D02*
X8967801Y-17752174D01*
X8967801Y-17752174D02*
X8948753Y-17761698D01*
X8948753Y-17761698D02*
X8939230Y-17771222D01*
X8939230Y-17771222D02*
X8929706Y-17790270D01*
X9282087Y-17875984D02*
X9282087Y-17675984D01*
X9367801Y-17875984D02*
X9367801Y-17771222D01*
X9367801Y-17771222D02*
X9358277Y-17752174D01*
X9358277Y-17752174D02*
X9339230Y-17742650D01*
X9339230Y-17742650D02*
X9310658Y-17742650D01*
X9310658Y-17742650D02*
X9291611Y-17752174D01*
X9291611Y-17752174D02*
X9282087Y-17761698D01*
X9491611Y-17875984D02*
X9472563Y-17866460D01*
X9472563Y-17866460D02*
X9463039Y-17856936D01*
X9463039Y-17856936D02*
X9453515Y-17837889D01*
X9453515Y-17837889D02*
X9453515Y-17780746D01*
X9453515Y-17780746D02*
X9463039Y-17761698D01*
X9463039Y-17761698D02*
X9472563Y-17752174D01*
X9472563Y-17752174D02*
X9491611Y-17742650D01*
X9491611Y-17742650D02*
X9520182Y-17742650D01*
X9520182Y-17742650D02*
X9539230Y-17752174D01*
X9539230Y-17752174D02*
X9548753Y-17761698D01*
X9548753Y-17761698D02*
X9558277Y-17780746D01*
X9558277Y-17780746D02*
X9558277Y-17837889D01*
X9558277Y-17837889D02*
X9548753Y-17856936D01*
X9548753Y-17856936D02*
X9539230Y-17866460D01*
X9539230Y-17866460D02*
X9520182Y-17875984D01*
X9520182Y-17875984D02*
X9491611Y-17875984D01*
X9672563Y-17875984D02*
X9653515Y-17866460D01*
X9653515Y-17866460D02*
X9643992Y-17847412D01*
X9643992Y-17847412D02*
X9643992Y-17675984D01*
X9824944Y-17866460D02*
X9805896Y-17875984D01*
X9805896Y-17875984D02*
X9767801Y-17875984D01*
X9767801Y-17875984D02*
X9748753Y-17866460D01*
X9748753Y-17866460D02*
X9739230Y-17847412D01*
X9739230Y-17847412D02*
X9739230Y-17771222D01*
X9739230Y-17771222D02*
X9748753Y-17752174D01*
X9748753Y-17752174D02*
X9767801Y-17742650D01*
X9767801Y-17742650D02*
X9805896Y-17742650D01*
X9805896Y-17742650D02*
X9824944Y-17752174D01*
X9824944Y-17752174D02*
X9834468Y-17771222D01*
X9834468Y-17771222D02*
X9834468Y-17790270D01*
X9834468Y-17790270D02*
X9739230Y-17809317D01*
X9910658Y-17866460D02*
X9929706Y-17875984D01*
X9929706Y-17875984D02*
X9967801Y-17875984D01*
X9967801Y-17875984D02*
X9986849Y-17866460D01*
X9986849Y-17866460D02*
X9996373Y-17847412D01*
X9996373Y-17847412D02*
X9996373Y-17837889D01*
X9996373Y-17837889D02*
X9986849Y-17818841D01*
X9986849Y-17818841D02*
X9967801Y-17809317D01*
X9967801Y-17809317D02*
X9939230Y-17809317D01*
X9939230Y-17809317D02*
X9920182Y-17799793D01*
X9920182Y-17799793D02*
X9910658Y-17780746D01*
X9910658Y-17780746D02*
X9910658Y-17771222D01*
X9910658Y-17771222D02*
X9920182Y-17752174D01*
X9920182Y-17752174D02*
X9939230Y-17742650D01*
X9939230Y-17742650D02*
X9967801Y-17742650D01*
X9967801Y-17742650D02*
X9986849Y-17752174D01*
X10063039Y-17952174D02*
X10072563Y-17942650D01*
X10072563Y-17942650D02*
X10091611Y-17914079D01*
X10091611Y-17914079D02*
X10101134Y-17895031D01*
X10101134Y-17895031D02*
X10110658Y-17866460D01*
X10110658Y-17866460D02*
X10120182Y-17818841D01*
X10120182Y-17818841D02*
X10120182Y-17780746D01*
X10120182Y-17780746D02*
X10110658Y-17733127D01*
X10110658Y-17733127D02*
X10101134Y-17704555D01*
X10101134Y-17704555D02*
X10091611Y-17685508D01*
X10091611Y-17685508D02*
X10072563Y-17656936D01*
X10072563Y-17656936D02*
X10063039Y-17647412D01*
D13*
X5042500Y-18103500D02*
X5097500Y-18048500D01*
X5042500Y-17993500D01*
X4987500Y-18048500D01*
X5042500Y-18103500D01*
D11*
X5463039Y-18139984D02*
X5348753Y-18139984D01*
X5405896Y-18139984D02*
X5405896Y-17939984D01*
X5405896Y-17939984D02*
X5386848Y-17968555D01*
X5386848Y-17968555D02*
X5367801Y-17987603D01*
X5367801Y-17987603D02*
X5348753Y-17997127D01*
X5548753Y-18120936D02*
X5558277Y-18130460D01*
X5558277Y-18130460D02*
X5548753Y-18139984D01*
X5548753Y-18139984D02*
X5539229Y-18130460D01*
X5539229Y-18130460D02*
X5548753Y-18120936D01*
X5548753Y-18120936D02*
X5548753Y-18139984D01*
X5748753Y-18139984D02*
X5634467Y-18139984D01*
X5691610Y-18139984D02*
X5691610Y-17939984D01*
X5691610Y-17939984D02*
X5672562Y-17968555D01*
X5672562Y-17968555D02*
X5653515Y-17987603D01*
X5653515Y-17987603D02*
X5634467Y-17997127D01*
X5872562Y-17939984D02*
X5891610Y-17939984D01*
X5891610Y-17939984D02*
X5910658Y-17949508D01*
X5910658Y-17949508D02*
X5920182Y-17959031D01*
X5920182Y-17959031D02*
X5929705Y-17978079D01*
X5929705Y-17978079D02*
X5939229Y-18016174D01*
X5939229Y-18016174D02*
X5939229Y-18063793D01*
X5939229Y-18063793D02*
X5929705Y-18101889D01*
X5929705Y-18101889D02*
X5920182Y-18120936D01*
X5920182Y-18120936D02*
X5910658Y-18130460D01*
X5910658Y-18130460D02*
X5891610Y-18139984D01*
X5891610Y-18139984D02*
X5872562Y-18139984D01*
X5872562Y-18139984D02*
X5853515Y-18130460D01*
X5853515Y-18130460D02*
X5843991Y-18120936D01*
X5843991Y-18120936D02*
X5834467Y-18101889D01*
X5834467Y-18101889D02*
X5824943Y-18063793D01*
X5824943Y-18063793D02*
X5824943Y-18016174D01*
X5824943Y-18016174D02*
X5834467Y-17978079D01*
X5834467Y-17978079D02*
X5843991Y-17959031D01*
X5843991Y-17959031D02*
X5853515Y-17949508D01*
X5853515Y-17949508D02*
X5872562Y-17939984D01*
X6063039Y-17939984D02*
X6082086Y-17939984D01*
X6082086Y-17939984D02*
X6101134Y-17949508D01*
X6101134Y-17949508D02*
X6110658Y-17959031D01*
X6110658Y-17959031D02*
X6120182Y-17978079D01*
X6120182Y-17978079D02*
X6129705Y-18016174D01*
X6129705Y-18016174D02*
X6129705Y-18063793D01*
X6129705Y-18063793D02*
X6120182Y-18101889D01*
X6120182Y-18101889D02*
X6110658Y-18120936D01*
X6110658Y-18120936D02*
X6101134Y-18130460D01*
X6101134Y-18130460D02*
X6082086Y-18139984D01*
X6082086Y-18139984D02*
X6063039Y-18139984D01*
X6063039Y-18139984D02*
X6043991Y-18130460D01*
X6043991Y-18130460D02*
X6034467Y-18120936D01*
X6034467Y-18120936D02*
X6024943Y-18101889D01*
X6024943Y-18101889D02*
X6015420Y-18063793D01*
X6015420Y-18063793D02*
X6015420Y-18016174D01*
X6015420Y-18016174D02*
X6024943Y-17978079D01*
X6024943Y-17978079D02*
X6034467Y-17959031D01*
X6034467Y-17959031D02*
X6043991Y-17949508D01*
X6043991Y-17949508D02*
X6063039Y-17939984D01*
X6215420Y-18139984D02*
X6215420Y-18006650D01*
X6215420Y-18025698D02*
X6224943Y-18016174D01*
X6224943Y-18016174D02*
X6243991Y-18006650D01*
X6243991Y-18006650D02*
X6272563Y-18006650D01*
X6272563Y-18006650D02*
X6291610Y-18016174D01*
X6291610Y-18016174D02*
X6301134Y-18035222D01*
X6301134Y-18035222D02*
X6301134Y-18139984D01*
X6301134Y-18035222D02*
X6310658Y-18016174D01*
X6310658Y-18016174D02*
X6329705Y-18006650D01*
X6329705Y-18006650D02*
X6358277Y-18006650D01*
X6358277Y-18006650D02*
X6377324Y-18016174D01*
X6377324Y-18016174D02*
X6386848Y-18035222D01*
X6386848Y-18035222D02*
X6386848Y-18139984D01*
X6482086Y-18139984D02*
X6482086Y-18006650D01*
X6482086Y-18025698D02*
X6491610Y-18016174D01*
X6491610Y-18016174D02*
X6510658Y-18006650D01*
X6510658Y-18006650D02*
X6539229Y-18006650D01*
X6539229Y-18006650D02*
X6558277Y-18016174D01*
X6558277Y-18016174D02*
X6567801Y-18035222D01*
X6567801Y-18035222D02*
X6567801Y-18139984D01*
X6567801Y-18035222D02*
X6577324Y-18016174D01*
X6577324Y-18016174D02*
X6596372Y-18006650D01*
X6596372Y-18006650D02*
X6624943Y-18006650D01*
X6624943Y-18006650D02*
X6643991Y-18016174D01*
X6643991Y-18016174D02*
X6653515Y-18035222D01*
X6653515Y-18035222D02*
X6653515Y-18139984D01*
X7043991Y-17930460D02*
X6872563Y-18187603D01*
X7301134Y-17939984D02*
X7320182Y-17939984D01*
X7320182Y-17939984D02*
X7339229Y-17949508D01*
X7339229Y-17949508D02*
X7348753Y-17959031D01*
X7348753Y-17959031D02*
X7358277Y-17978079D01*
X7358277Y-17978079D02*
X7367801Y-18016174D01*
X7367801Y-18016174D02*
X7367801Y-18063793D01*
X7367801Y-18063793D02*
X7358277Y-18101889D01*
X7358277Y-18101889D02*
X7348753Y-18120936D01*
X7348753Y-18120936D02*
X7339229Y-18130460D01*
X7339229Y-18130460D02*
X7320182Y-18139984D01*
X7320182Y-18139984D02*
X7301134Y-18139984D01*
X7301134Y-18139984D02*
X7282086Y-18130460D01*
X7282086Y-18130460D02*
X7272563Y-18120936D01*
X7272563Y-18120936D02*
X7263039Y-18101889D01*
X7263039Y-18101889D02*
X7253515Y-18063793D01*
X7253515Y-18063793D02*
X7253515Y-18016174D01*
X7253515Y-18016174D02*
X7263039Y-17978079D01*
X7263039Y-17978079D02*
X7272563Y-17959031D01*
X7272563Y-17959031D02*
X7282086Y-17949508D01*
X7282086Y-17949508D02*
X7301134Y-17939984D01*
X7453515Y-18120936D02*
X7463039Y-18130460D01*
X7463039Y-18130460D02*
X7453515Y-18139984D01*
X7453515Y-18139984D02*
X7443991Y-18130460D01*
X7443991Y-18130460D02*
X7453515Y-18120936D01*
X7453515Y-18120936D02*
X7453515Y-18139984D01*
X7586848Y-17939984D02*
X7605896Y-17939984D01*
X7605896Y-17939984D02*
X7624944Y-17949508D01*
X7624944Y-17949508D02*
X7634467Y-17959031D01*
X7634467Y-17959031D02*
X7643991Y-17978079D01*
X7643991Y-17978079D02*
X7653515Y-18016174D01*
X7653515Y-18016174D02*
X7653515Y-18063793D01*
X7653515Y-18063793D02*
X7643991Y-18101889D01*
X7643991Y-18101889D02*
X7634467Y-18120936D01*
X7634467Y-18120936D02*
X7624944Y-18130460D01*
X7624944Y-18130460D02*
X7605896Y-18139984D01*
X7605896Y-18139984D02*
X7586848Y-18139984D01*
X7586848Y-18139984D02*
X7567801Y-18130460D01*
X7567801Y-18130460D02*
X7558277Y-18120936D01*
X7558277Y-18120936D02*
X7548753Y-18101889D01*
X7548753Y-18101889D02*
X7539229Y-18063793D01*
X7539229Y-18063793D02*
X7539229Y-18016174D01*
X7539229Y-18016174D02*
X7548753Y-17978079D01*
X7548753Y-17978079D02*
X7558277Y-17959031D01*
X7558277Y-17959031D02*
X7567801Y-17949508D01*
X7567801Y-17949508D02*
X7586848Y-17939984D01*
X7824944Y-18006650D02*
X7824944Y-18139984D01*
X7777325Y-17930460D02*
X7729706Y-18073317D01*
X7729706Y-18073317D02*
X7853515Y-18073317D01*
X7910658Y-17939984D02*
X8034467Y-17939984D01*
X8034467Y-17939984D02*
X7967801Y-18016174D01*
X7967801Y-18016174D02*
X7996372Y-18016174D01*
X7996372Y-18016174D02*
X8015420Y-18025698D01*
X8015420Y-18025698D02*
X8024944Y-18035222D01*
X8024944Y-18035222D02*
X8034467Y-18054270D01*
X8034467Y-18054270D02*
X8034467Y-18101889D01*
X8034467Y-18101889D02*
X8024944Y-18120936D01*
X8024944Y-18120936D02*
X8015420Y-18130460D01*
X8015420Y-18130460D02*
X7996372Y-18139984D01*
X7996372Y-18139984D02*
X7939229Y-18139984D01*
X7939229Y-18139984D02*
X7920182Y-18130460D01*
X7920182Y-18130460D02*
X7910658Y-18120936D01*
X8101134Y-17939984D02*
X8224944Y-17939984D01*
X8224944Y-17939984D02*
X8158277Y-18016174D01*
X8158277Y-18016174D02*
X8186848Y-18016174D01*
X8186848Y-18016174D02*
X8205896Y-18025698D01*
X8205896Y-18025698D02*
X8215420Y-18035222D01*
X8215420Y-18035222D02*
X8224944Y-18054270D01*
X8224944Y-18054270D02*
X8224944Y-18101889D01*
X8224944Y-18101889D02*
X8215420Y-18120936D01*
X8215420Y-18120936D02*
X8205896Y-18130460D01*
X8205896Y-18130460D02*
X8186848Y-18139984D01*
X8186848Y-18139984D02*
X8129706Y-18139984D01*
X8129706Y-18139984D02*
X8110658Y-18130460D01*
X8110658Y-18130460D02*
X8101134Y-18120936D01*
X8301134Y-17939984D02*
X8301134Y-17978079D01*
X8377325Y-17939984D02*
X8377325Y-17978079D01*
X8672563Y-18216174D02*
X8663039Y-18206650D01*
X8663039Y-18206650D02*
X8643991Y-18178079D01*
X8643991Y-18178079D02*
X8634468Y-18159031D01*
X8634468Y-18159031D02*
X8624944Y-18130460D01*
X8624944Y-18130460D02*
X8615420Y-18082841D01*
X8615420Y-18082841D02*
X8615420Y-18044746D01*
X8615420Y-18044746D02*
X8624944Y-17997127D01*
X8624944Y-17997127D02*
X8634468Y-17968555D01*
X8634468Y-17968555D02*
X8643991Y-17949508D01*
X8643991Y-17949508D02*
X8663039Y-17920936D01*
X8663039Y-17920936D02*
X8672563Y-17911412D01*
X8786849Y-17939984D02*
X8805896Y-17939984D01*
X8805896Y-17939984D02*
X8824944Y-17949508D01*
X8824944Y-17949508D02*
X8834468Y-17959031D01*
X8834468Y-17959031D02*
X8843991Y-17978079D01*
X8843991Y-17978079D02*
X8853515Y-18016174D01*
X8853515Y-18016174D02*
X8853515Y-18063793D01*
X8853515Y-18063793D02*
X8843991Y-18101889D01*
X8843991Y-18101889D02*
X8834468Y-18120936D01*
X8834468Y-18120936D02*
X8824944Y-18130460D01*
X8824944Y-18130460D02*
X8805896Y-18139984D01*
X8805896Y-18139984D02*
X8786849Y-18139984D01*
X8786849Y-18139984D02*
X8767801Y-18130460D01*
X8767801Y-18130460D02*
X8758277Y-18120936D01*
X8758277Y-18120936D02*
X8748753Y-18101889D01*
X8748753Y-18101889D02*
X8739230Y-18063793D01*
X8739230Y-18063793D02*
X8739230Y-18016174D01*
X8739230Y-18016174D02*
X8748753Y-17978079D01*
X8748753Y-17978079D02*
X8758277Y-17959031D01*
X8758277Y-17959031D02*
X8767801Y-17949508D01*
X8767801Y-17949508D02*
X8786849Y-17939984D01*
X9091611Y-18139984D02*
X9091611Y-17939984D01*
X9177325Y-18139984D02*
X9177325Y-18035222D01*
X9177325Y-18035222D02*
X9167801Y-18016174D01*
X9167801Y-18016174D02*
X9148753Y-18006650D01*
X9148753Y-18006650D02*
X9120182Y-18006650D01*
X9120182Y-18006650D02*
X9101134Y-18016174D01*
X9101134Y-18016174D02*
X9091611Y-18025698D01*
X9301134Y-18139984D02*
X9282087Y-18130460D01*
X9282087Y-18130460D02*
X9272563Y-18120936D01*
X9272563Y-18120936D02*
X9263039Y-18101889D01*
X9263039Y-18101889D02*
X9263039Y-18044746D01*
X9263039Y-18044746D02*
X9272563Y-18025698D01*
X9272563Y-18025698D02*
X9282087Y-18016174D01*
X9282087Y-18016174D02*
X9301134Y-18006650D01*
X9301134Y-18006650D02*
X9329706Y-18006650D01*
X9329706Y-18006650D02*
X9348753Y-18016174D01*
X9348753Y-18016174D02*
X9358277Y-18025698D01*
X9358277Y-18025698D02*
X9367801Y-18044746D01*
X9367801Y-18044746D02*
X9367801Y-18101889D01*
X9367801Y-18101889D02*
X9358277Y-18120936D01*
X9358277Y-18120936D02*
X9348753Y-18130460D01*
X9348753Y-18130460D02*
X9329706Y-18139984D01*
X9329706Y-18139984D02*
X9301134Y-18139984D01*
X9482087Y-18139984D02*
X9463039Y-18130460D01*
X9463039Y-18130460D02*
X9453515Y-18111412D01*
X9453515Y-18111412D02*
X9453515Y-17939984D01*
X9634468Y-18130460D02*
X9615420Y-18139984D01*
X9615420Y-18139984D02*
X9577325Y-18139984D01*
X9577325Y-18139984D02*
X9558277Y-18130460D01*
X9558277Y-18130460D02*
X9548753Y-18111412D01*
X9548753Y-18111412D02*
X9548753Y-18035222D01*
X9548753Y-18035222D02*
X9558277Y-18016174D01*
X9558277Y-18016174D02*
X9577325Y-18006650D01*
X9577325Y-18006650D02*
X9615420Y-18006650D01*
X9615420Y-18006650D02*
X9634468Y-18016174D01*
X9634468Y-18016174D02*
X9643992Y-18035222D01*
X9643992Y-18035222D02*
X9643992Y-18054270D01*
X9643992Y-18054270D02*
X9548753Y-18073317D01*
X9720182Y-18130460D02*
X9739230Y-18139984D01*
X9739230Y-18139984D02*
X9777325Y-18139984D01*
X9777325Y-18139984D02*
X9796373Y-18130460D01*
X9796373Y-18130460D02*
X9805896Y-18111412D01*
X9805896Y-18111412D02*
X9805896Y-18101889D01*
X9805896Y-18101889D02*
X9796373Y-18082841D01*
X9796373Y-18082841D02*
X9777325Y-18073317D01*
X9777325Y-18073317D02*
X9748753Y-18073317D01*
X9748753Y-18073317D02*
X9729706Y-18063793D01*
X9729706Y-18063793D02*
X9720182Y-18044746D01*
X9720182Y-18044746D02*
X9720182Y-18035222D01*
X9720182Y-18035222D02*
X9729706Y-18016174D01*
X9729706Y-18016174D02*
X9748753Y-18006650D01*
X9748753Y-18006650D02*
X9777325Y-18006650D01*
X9777325Y-18006650D02*
X9796373Y-18016174D01*
X10043992Y-18063793D02*
X10196373Y-18063793D01*
X10120182Y-18139984D02*
X10120182Y-17987603D01*
X10529706Y-17939984D02*
X10491611Y-17939984D01*
X10491611Y-17939984D02*
X10472563Y-17949508D01*
X10472563Y-17949508D02*
X10463039Y-17959031D01*
X10463039Y-17959031D02*
X10443992Y-17987603D01*
X10443992Y-17987603D02*
X10434468Y-18025698D01*
X10434468Y-18025698D02*
X10434468Y-18101889D01*
X10434468Y-18101889D02*
X10443992Y-18120936D01*
X10443992Y-18120936D02*
X10453515Y-18130460D01*
X10453515Y-18130460D02*
X10472563Y-18139984D01*
X10472563Y-18139984D02*
X10510658Y-18139984D01*
X10510658Y-18139984D02*
X10529706Y-18130460D01*
X10529706Y-18130460D02*
X10539230Y-18120936D01*
X10539230Y-18120936D02*
X10548754Y-18101889D01*
X10548754Y-18101889D02*
X10548754Y-18054270D01*
X10548754Y-18054270D02*
X10539230Y-18035222D01*
X10539230Y-18035222D02*
X10529706Y-18025698D01*
X10529706Y-18025698D02*
X10510658Y-18016174D01*
X10510658Y-18016174D02*
X10472563Y-18016174D01*
X10472563Y-18016174D02*
X10453515Y-18025698D01*
X10453515Y-18025698D02*
X10443992Y-18035222D01*
X10443992Y-18035222D02*
X10434468Y-18054270D01*
X10777325Y-18130460D02*
X10796373Y-18139984D01*
X10796373Y-18139984D02*
X10834468Y-18139984D01*
X10834468Y-18139984D02*
X10853516Y-18130460D01*
X10853516Y-18130460D02*
X10863039Y-18111412D01*
X10863039Y-18111412D02*
X10863039Y-18101889D01*
X10863039Y-18101889D02*
X10853516Y-18082841D01*
X10853516Y-18082841D02*
X10834468Y-18073317D01*
X10834468Y-18073317D02*
X10805896Y-18073317D01*
X10805896Y-18073317D02*
X10786849Y-18063793D01*
X10786849Y-18063793D02*
X10777325Y-18044746D01*
X10777325Y-18044746D02*
X10777325Y-18035222D01*
X10777325Y-18035222D02*
X10786849Y-18016174D01*
X10786849Y-18016174D02*
X10805896Y-18006650D01*
X10805896Y-18006650D02*
X10834468Y-18006650D01*
X10834468Y-18006650D02*
X10853516Y-18016174D01*
X10977325Y-18139984D02*
X10958277Y-18130460D01*
X10958277Y-18130460D02*
X10948754Y-18111412D01*
X10948754Y-18111412D02*
X10948754Y-17939984D01*
X11082087Y-18139984D02*
X11063039Y-18130460D01*
X11063039Y-18130460D02*
X11053516Y-18120936D01*
X11053516Y-18120936D02*
X11043992Y-18101889D01*
X11043992Y-18101889D02*
X11043992Y-18044746D01*
X11043992Y-18044746D02*
X11053516Y-18025698D01*
X11053516Y-18025698D02*
X11063039Y-18016174D01*
X11063039Y-18016174D02*
X11082087Y-18006650D01*
X11082087Y-18006650D02*
X11110658Y-18006650D01*
X11110658Y-18006650D02*
X11129706Y-18016174D01*
X11129706Y-18016174D02*
X11139230Y-18025698D01*
X11139230Y-18025698D02*
X11148754Y-18044746D01*
X11148754Y-18044746D02*
X11148754Y-18101889D01*
X11148754Y-18101889D02*
X11139230Y-18120936D01*
X11139230Y-18120936D02*
X11129706Y-18130460D01*
X11129706Y-18130460D02*
X11110658Y-18139984D01*
X11110658Y-18139984D02*
X11082087Y-18139984D01*
X11205896Y-18006650D02*
X11282087Y-18006650D01*
X11234468Y-17939984D02*
X11234468Y-18111412D01*
X11234468Y-18111412D02*
X11243992Y-18130460D01*
X11243992Y-18130460D02*
X11263039Y-18139984D01*
X11263039Y-18139984D02*
X11282087Y-18139984D01*
X11339230Y-18130460D02*
X11358277Y-18139984D01*
X11358277Y-18139984D02*
X11396373Y-18139984D01*
X11396373Y-18139984D02*
X11415420Y-18130460D01*
X11415420Y-18130460D02*
X11424944Y-18111412D01*
X11424944Y-18111412D02*
X11424944Y-18101889D01*
X11424944Y-18101889D02*
X11415420Y-18082841D01*
X11415420Y-18082841D02*
X11396373Y-18073317D01*
X11396373Y-18073317D02*
X11367801Y-18073317D01*
X11367801Y-18073317D02*
X11348754Y-18063793D01*
X11348754Y-18063793D02*
X11339230Y-18044746D01*
X11339230Y-18044746D02*
X11339230Y-18035222D01*
X11339230Y-18035222D02*
X11348754Y-18016174D01*
X11348754Y-18016174D02*
X11367801Y-18006650D01*
X11367801Y-18006650D02*
X11396373Y-18006650D01*
X11396373Y-18006650D02*
X11415420Y-18016174D01*
X11491611Y-18216174D02*
X11501135Y-18206650D01*
X11501135Y-18206650D02*
X11520182Y-18178079D01*
X11520182Y-18178079D02*
X11529706Y-18159031D01*
X11529706Y-18159031D02*
X11539230Y-18130460D01*
X11539230Y-18130460D02*
X11548754Y-18082841D01*
X11548754Y-18082841D02*
X11548754Y-18044746D01*
X11548754Y-18044746D02*
X11539230Y-17997127D01*
X11539230Y-17997127D02*
X11529706Y-17968555D01*
X11529706Y-17968555D02*
X11520182Y-17949508D01*
X11520182Y-17949508D02*
X11501135Y-17920936D01*
X11501135Y-17920936D02*
X11491611Y-17911412D01*
M02*
