%TF.GenerationSoftware,KiCad,Pcbnew,9.0.7*%
%TF.CreationDate,2026-03-10T17:37:20-03:00*%
%TF.ProjectId,DMH_Output_PCB_Controls,444d485f-4f75-4747-9075-745f5043425f,1*%
%TF.SameCoordinates,Original*%
%TF.FileFunction,Legend,Bot*%
%TF.FilePolarity,Positive*%
%FSLAX46Y46*%
G04 Gerber Fmt 4.6, Leading zero omitted, Abs format (unit mm)*
G04 Created by KiCad (PCBNEW 9.0.7) date 2026-03-10 17:37:20*
%MOMM*%
%LPD*%
G01*
G04 APERTURE LIST*
G04 Aperture macros list*
%AMRoundRect*
0 Rectangle with rounded corners*
0 $1 Rounding radius*
0 $2 $3 $4 $5 $6 $7 $8 $9 X,Y pos of 4 corners*
0 Add a 4 corners polygon primitive as box body*
4,1,4,$2,$3,$4,$5,$6,$7,$8,$9,$2,$3,0*
0 Add four circle primitives for the rounded corners*
1,1,$1+$1,$2,$3*
1,1,$1+$1,$4,$5*
1,1,$1+$1,$6,$7*
1,1,$1+$1,$8,$9*
0 Add four rect primitives between the rounded corners*
20,1,$1+$1,$2,$3,$4,$5,0*
20,1,$1+$1,$4,$5,$6,$7,0*
20,1,$1+$1,$6,$7,$8,$9,0*
20,1,$1+$1,$8,$9,$2,$3,0*%
G04 Aperture macros list end*
%ADD10C,0.100000*%
%ADD11C,0.250000*%
%ADD12C,0.150000*%
%ADD13C,0.120000*%
%ADD14C,1.600000*%
%ADD15R,1.800000X1.800000*%
%ADD16C,1.800000*%
%ADD17R,1.500000X1.500000*%
%ADD18C,1.500000*%
%ADD19RoundRect,0.250000X-0.550000X-0.550000X0.550000X-0.550000X0.550000X0.550000X-0.550000X0.550000X0*%
%ADD20C,2.200000*%
%ADD21O,2.720000X3.240000*%
%ADD22RoundRect,0.250000X0.550000X-0.550000X0.550000X0.550000X-0.550000X0.550000X-0.550000X-0.550000X0*%
%ADD23RoundRect,0.250000X0.550000X0.550000X-0.550000X0.550000X-0.550000X-0.550000X0.550000X-0.550000X0*%
%ADD24R,1.700000X1.700000*%
%ADD25C,1.700000*%
G04 APERTURE END LIST*
D10*
X55250000Y-67750000D02*
X57250000Y-67750000D01*
X57250000Y-77750000D01*
X55250000Y-77750000D01*
X55250000Y-67750000D01*
G36*
X55250000Y-67750000D02*
G01*
X57250000Y-67750000D01*
X57250000Y-77750000D01*
X55250000Y-77750000D01*
X55250000Y-67750000D01*
G37*
D11*
X53355352Y-75428570D02*
X54355352Y-75428570D01*
X54355352Y-75428570D02*
X53641067Y-75095237D01*
X53641067Y-75095237D02*
X54355352Y-74761904D01*
X54355352Y-74761904D02*
X53355352Y-74761904D01*
X53355352Y-74285713D02*
X54355352Y-74285713D01*
X53736305Y-74190475D02*
X53355352Y-73904761D01*
X54022019Y-73904761D02*
X53641067Y-74285713D01*
X53355352Y-72952380D02*
X53355352Y-73523808D01*
X53355352Y-73238094D02*
X54355352Y-73238094D01*
X54355352Y-73238094D02*
X54212495Y-73333332D01*
X54212495Y-73333332D02*
X54117257Y-73428570D01*
X54117257Y-73428570D02*
X54069638Y-73523808D01*
X53450591Y-72523808D02*
X53402972Y-72476189D01*
X53402972Y-72476189D02*
X53355352Y-72523808D01*
X53355352Y-72523808D02*
X53402972Y-72571427D01*
X53402972Y-72571427D02*
X53450591Y-72523808D01*
X53450591Y-72523808D02*
X53355352Y-72523808D01*
X54355352Y-71857142D02*
X54355352Y-71761904D01*
X54355352Y-71761904D02*
X54307733Y-71666666D01*
X54307733Y-71666666D02*
X54260114Y-71619047D01*
X54260114Y-71619047D02*
X54164876Y-71571428D01*
X54164876Y-71571428D02*
X53974400Y-71523809D01*
X53974400Y-71523809D02*
X53736305Y-71523809D01*
X53736305Y-71523809D02*
X53545829Y-71571428D01*
X53545829Y-71571428D02*
X53450591Y-71619047D01*
X53450591Y-71619047D02*
X53402972Y-71666666D01*
X53402972Y-71666666D02*
X53355352Y-71761904D01*
X53355352Y-71761904D02*
X53355352Y-71857142D01*
X53355352Y-71857142D02*
X53402972Y-71952380D01*
X53402972Y-71952380D02*
X53450591Y-71999999D01*
X53450591Y-71999999D02*
X53545829Y-72047618D01*
X53545829Y-72047618D02*
X53736305Y-72095237D01*
X53736305Y-72095237D02*
X53974400Y-72095237D01*
X53974400Y-72095237D02*
X54164876Y-72047618D01*
X54164876Y-72047618D02*
X54260114Y-71999999D01*
X54260114Y-71999999D02*
X54307733Y-71952380D01*
X54307733Y-71952380D02*
X54355352Y-71857142D01*
X51745408Y-77761904D02*
X52745408Y-77761904D01*
X52745408Y-77761904D02*
X52031123Y-77428571D01*
X52031123Y-77428571D02*
X52745408Y-77095238D01*
X52745408Y-77095238D02*
X51745408Y-77095238D01*
X51745408Y-76190476D02*
X52269218Y-76190476D01*
X52269218Y-76190476D02*
X52364456Y-76238095D01*
X52364456Y-76238095D02*
X52412075Y-76333333D01*
X52412075Y-76333333D02*
X52412075Y-76523809D01*
X52412075Y-76523809D02*
X52364456Y-76619047D01*
X51793028Y-76190476D02*
X51745408Y-76285714D01*
X51745408Y-76285714D02*
X51745408Y-76523809D01*
X51745408Y-76523809D02*
X51793028Y-76619047D01*
X51793028Y-76619047D02*
X51888266Y-76666666D01*
X51888266Y-76666666D02*
X51983504Y-76666666D01*
X51983504Y-76666666D02*
X52078742Y-76619047D01*
X52078742Y-76619047D02*
X52126361Y-76523809D01*
X52126361Y-76523809D02*
X52126361Y-76285714D01*
X52126361Y-76285714D02*
X52173980Y-76190476D01*
X51745408Y-75714285D02*
X52412075Y-75714285D01*
X52221599Y-75714285D02*
X52316837Y-75666666D01*
X52316837Y-75666666D02*
X52364456Y-75619047D01*
X52364456Y-75619047D02*
X52412075Y-75523809D01*
X52412075Y-75523809D02*
X52412075Y-75428571D01*
X51793028Y-74666666D02*
X51745408Y-74761904D01*
X51745408Y-74761904D02*
X51745408Y-74952380D01*
X51745408Y-74952380D02*
X51793028Y-75047618D01*
X51793028Y-75047618D02*
X51840647Y-75095237D01*
X51840647Y-75095237D02*
X51935885Y-75142856D01*
X51935885Y-75142856D02*
X52221599Y-75142856D01*
X52221599Y-75142856D02*
X52316837Y-75095237D01*
X52316837Y-75095237D02*
X52364456Y-75047618D01*
X52364456Y-75047618D02*
X52412075Y-74952380D01*
X52412075Y-74952380D02*
X52412075Y-74761904D01*
X52412075Y-74761904D02*
X52364456Y-74666666D01*
X51745408Y-74238094D02*
X52745408Y-74238094D01*
X51745408Y-73809523D02*
X52269218Y-73809523D01*
X52269218Y-73809523D02*
X52364456Y-73857142D01*
X52364456Y-73857142D02*
X52412075Y-73952380D01*
X52412075Y-73952380D02*
X52412075Y-74095237D01*
X52412075Y-74095237D02*
X52364456Y-74190475D01*
X52364456Y-74190475D02*
X52316837Y-74238094D01*
X52650170Y-72619046D02*
X52697789Y-72571427D01*
X52697789Y-72571427D02*
X52745408Y-72476189D01*
X52745408Y-72476189D02*
X52745408Y-72238094D01*
X52745408Y-72238094D02*
X52697789Y-72142856D01*
X52697789Y-72142856D02*
X52650170Y-72095237D01*
X52650170Y-72095237D02*
X52554932Y-72047618D01*
X52554932Y-72047618D02*
X52459694Y-72047618D01*
X52459694Y-72047618D02*
X52316837Y-72095237D01*
X52316837Y-72095237D02*
X51745408Y-72666665D01*
X51745408Y-72666665D02*
X51745408Y-72047618D01*
X52745408Y-71428570D02*
X52745408Y-71333332D01*
X52745408Y-71333332D02*
X52697789Y-71238094D01*
X52697789Y-71238094D02*
X52650170Y-71190475D01*
X52650170Y-71190475D02*
X52554932Y-71142856D01*
X52554932Y-71142856D02*
X52364456Y-71095237D01*
X52364456Y-71095237D02*
X52126361Y-71095237D01*
X52126361Y-71095237D02*
X51935885Y-71142856D01*
X51935885Y-71142856D02*
X51840647Y-71190475D01*
X51840647Y-71190475D02*
X51793028Y-71238094D01*
X51793028Y-71238094D02*
X51745408Y-71333332D01*
X51745408Y-71333332D02*
X51745408Y-71428570D01*
X51745408Y-71428570D02*
X51793028Y-71523808D01*
X51793028Y-71523808D02*
X51840647Y-71571427D01*
X51840647Y-71571427D02*
X51935885Y-71619046D01*
X51935885Y-71619046D02*
X52126361Y-71666665D01*
X52126361Y-71666665D02*
X52364456Y-71666665D01*
X52364456Y-71666665D02*
X52554932Y-71619046D01*
X52554932Y-71619046D02*
X52650170Y-71571427D01*
X52650170Y-71571427D02*
X52697789Y-71523808D01*
X52697789Y-71523808D02*
X52745408Y-71428570D01*
X52650170Y-70714284D02*
X52697789Y-70666665D01*
X52697789Y-70666665D02*
X52745408Y-70571427D01*
X52745408Y-70571427D02*
X52745408Y-70333332D01*
X52745408Y-70333332D02*
X52697789Y-70238094D01*
X52697789Y-70238094D02*
X52650170Y-70190475D01*
X52650170Y-70190475D02*
X52554932Y-70142856D01*
X52554932Y-70142856D02*
X52459694Y-70142856D01*
X52459694Y-70142856D02*
X52316837Y-70190475D01*
X52316837Y-70190475D02*
X51745408Y-70761903D01*
X51745408Y-70761903D02*
X51745408Y-70142856D01*
X52745408Y-69285713D02*
X52745408Y-69476189D01*
X52745408Y-69476189D02*
X52697789Y-69571427D01*
X52697789Y-69571427D02*
X52650170Y-69619046D01*
X52650170Y-69619046D02*
X52507313Y-69714284D01*
X52507313Y-69714284D02*
X52316837Y-69761903D01*
X52316837Y-69761903D02*
X51935885Y-69761903D01*
X51935885Y-69761903D02*
X51840647Y-69714284D01*
X51840647Y-69714284D02*
X51793028Y-69666665D01*
X51793028Y-69666665D02*
X51745408Y-69571427D01*
X51745408Y-69571427D02*
X51745408Y-69380951D01*
X51745408Y-69380951D02*
X51793028Y-69285713D01*
X51793028Y-69285713D02*
X51840647Y-69238094D01*
X51840647Y-69238094D02*
X51935885Y-69190475D01*
X51935885Y-69190475D02*
X52173980Y-69190475D01*
X52173980Y-69190475D02*
X52269218Y-69238094D01*
X52269218Y-69238094D02*
X52316837Y-69285713D01*
X52316837Y-69285713D02*
X52364456Y-69380951D01*
X52364456Y-69380951D02*
X52364456Y-69571427D01*
X52364456Y-69571427D02*
X52316837Y-69666665D01*
X52316837Y-69666665D02*
X52269218Y-69714284D01*
X52269218Y-69714284D02*
X52173980Y-69761903D01*
D12*
X54704819Y-140190476D02*
X55419104Y-140190476D01*
X55419104Y-140190476D02*
X55561961Y-140142857D01*
X55561961Y-140142857D02*
X55657200Y-140047619D01*
X55657200Y-140047619D02*
X55704819Y-139904762D01*
X55704819Y-139904762D02*
X55704819Y-139809524D01*
X55704819Y-141190476D02*
X55704819Y-140619048D01*
X55704819Y-140904762D02*
X54704819Y-140904762D01*
X54704819Y-140904762D02*
X54847676Y-140809524D01*
X54847676Y-140809524D02*
X54942914Y-140714286D01*
X54942914Y-140714286D02*
X54990533Y-140619048D01*
X54800057Y-141571429D02*
X54752438Y-141619048D01*
X54752438Y-141619048D02*
X54704819Y-141714286D01*
X54704819Y-141714286D02*
X54704819Y-141952381D01*
X54704819Y-141952381D02*
X54752438Y-142047619D01*
X54752438Y-142047619D02*
X54800057Y-142095238D01*
X54800057Y-142095238D02*
X54895295Y-142142857D01*
X54895295Y-142142857D02*
X54990533Y-142142857D01*
X54990533Y-142142857D02*
X55133390Y-142095238D01*
X55133390Y-142095238D02*
X55704819Y-141523810D01*
X55704819Y-141523810D02*
X55704819Y-142142857D01*
X82204819Y-150890476D02*
X82919104Y-150890476D01*
X82919104Y-150890476D02*
X83061961Y-150842857D01*
X83061961Y-150842857D02*
X83157200Y-150747619D01*
X83157200Y-150747619D02*
X83204819Y-150604762D01*
X83204819Y-150604762D02*
X83204819Y-150509524D01*
X82300057Y-151319048D02*
X82252438Y-151366667D01*
X82252438Y-151366667D02*
X82204819Y-151461905D01*
X82204819Y-151461905D02*
X82204819Y-151700000D01*
X82204819Y-151700000D02*
X82252438Y-151795238D01*
X82252438Y-151795238D02*
X82300057Y-151842857D01*
X82300057Y-151842857D02*
X82395295Y-151890476D01*
X82395295Y-151890476D02*
X82490533Y-151890476D01*
X82490533Y-151890476D02*
X82633390Y-151842857D01*
X82633390Y-151842857D02*
X83204819Y-151271429D01*
X83204819Y-151271429D02*
X83204819Y-151890476D01*
X82300057Y-152271429D02*
X82252438Y-152319048D01*
X82252438Y-152319048D02*
X82204819Y-152414286D01*
X82204819Y-152414286D02*
X82204819Y-152652381D01*
X82204819Y-152652381D02*
X82252438Y-152747619D01*
X82252438Y-152747619D02*
X82300057Y-152795238D01*
X82300057Y-152795238D02*
X82395295Y-152842857D01*
X82395295Y-152842857D02*
X82490533Y-152842857D01*
X82490533Y-152842857D02*
X82633390Y-152795238D01*
X82633390Y-152795238D02*
X83204819Y-152223810D01*
X83204819Y-152223810D02*
X83204819Y-152842857D01*
X53584523Y-51109819D02*
X53584523Y-51824104D01*
X53584523Y-51824104D02*
X53632142Y-51966961D01*
X53632142Y-51966961D02*
X53727380Y-52062200D01*
X53727380Y-52062200D02*
X53870237Y-52109819D01*
X53870237Y-52109819D02*
X53965475Y-52109819D01*
X52584523Y-52109819D02*
X53155951Y-52109819D01*
X52870237Y-52109819D02*
X52870237Y-51109819D01*
X52870237Y-51109819D02*
X52965475Y-51252676D01*
X52965475Y-51252676D02*
X53060713Y-51347914D01*
X53060713Y-51347914D02*
X53155951Y-51395533D01*
X51965475Y-51109819D02*
X51870237Y-51109819D01*
X51870237Y-51109819D02*
X51774999Y-51157438D01*
X51774999Y-51157438D02*
X51727380Y-51205057D01*
X51727380Y-51205057D02*
X51679761Y-51300295D01*
X51679761Y-51300295D02*
X51632142Y-51490771D01*
X51632142Y-51490771D02*
X51632142Y-51728866D01*
X51632142Y-51728866D02*
X51679761Y-51919342D01*
X51679761Y-51919342D02*
X51727380Y-52014580D01*
X51727380Y-52014580D02*
X51774999Y-52062200D01*
X51774999Y-52062200D02*
X51870237Y-52109819D01*
X51870237Y-52109819D02*
X51965475Y-52109819D01*
X51965475Y-52109819D02*
X52060713Y-52062200D01*
X52060713Y-52062200D02*
X52108332Y-52014580D01*
X52108332Y-52014580D02*
X52155951Y-51919342D01*
X52155951Y-51919342D02*
X52203570Y-51728866D01*
X52203570Y-51728866D02*
X52203570Y-51490771D01*
X52203570Y-51490771D02*
X52155951Y-51300295D01*
X52155951Y-51300295D02*
X52108332Y-51205057D01*
X52108332Y-51205057D02*
X52060713Y-51157438D01*
X52060713Y-51157438D02*
X51965475Y-51109819D01*
X98084523Y-51109819D02*
X98084523Y-51824104D01*
X98084523Y-51824104D02*
X98132142Y-51966961D01*
X98132142Y-51966961D02*
X98227380Y-52062200D01*
X98227380Y-52062200D02*
X98370237Y-52109819D01*
X98370237Y-52109819D02*
X98465475Y-52109819D01*
X97084523Y-52109819D02*
X97655951Y-52109819D01*
X97370237Y-52109819D02*
X97370237Y-51109819D01*
X97370237Y-51109819D02*
X97465475Y-51252676D01*
X97465475Y-51252676D02*
X97560713Y-51347914D01*
X97560713Y-51347914D02*
X97655951Y-51395533D01*
X96132142Y-52109819D02*
X96703570Y-52109819D01*
X96417856Y-52109819D02*
X96417856Y-51109819D01*
X96417856Y-51109819D02*
X96513094Y-51252676D01*
X96513094Y-51252676D02*
X96608332Y-51347914D01*
X96608332Y-51347914D02*
X96703570Y-51395533D01*
X66684819Y-150915476D02*
X67399104Y-150915476D01*
X67399104Y-150915476D02*
X67541961Y-150867857D01*
X67541961Y-150867857D02*
X67637200Y-150772619D01*
X67637200Y-150772619D02*
X67684819Y-150629762D01*
X67684819Y-150629762D02*
X67684819Y-150534524D01*
X66780057Y-151344048D02*
X66732438Y-151391667D01*
X66732438Y-151391667D02*
X66684819Y-151486905D01*
X66684819Y-151486905D02*
X66684819Y-151725000D01*
X66684819Y-151725000D02*
X66732438Y-151820238D01*
X66732438Y-151820238D02*
X66780057Y-151867857D01*
X66780057Y-151867857D02*
X66875295Y-151915476D01*
X66875295Y-151915476D02*
X66970533Y-151915476D01*
X66970533Y-151915476D02*
X67113390Y-151867857D01*
X67113390Y-151867857D02*
X67684819Y-151296429D01*
X67684819Y-151296429D02*
X67684819Y-151915476D01*
X67684819Y-152867857D02*
X67684819Y-152296429D01*
X67684819Y-152582143D02*
X66684819Y-152582143D01*
X66684819Y-152582143D02*
X66827676Y-152486905D01*
X66827676Y-152486905D02*
X66922914Y-152391667D01*
X66922914Y-152391667D02*
X66970533Y-152296429D01*
X94454819Y-140190476D02*
X95169104Y-140190476D01*
X95169104Y-140190476D02*
X95311961Y-140142857D01*
X95311961Y-140142857D02*
X95407200Y-140047619D01*
X95407200Y-140047619D02*
X95454819Y-139904762D01*
X95454819Y-139904762D02*
X95454819Y-139809524D01*
X95454819Y-141190476D02*
X95454819Y-140619048D01*
X95454819Y-140904762D02*
X94454819Y-140904762D01*
X94454819Y-140904762D02*
X94597676Y-140809524D01*
X94597676Y-140809524D02*
X94692914Y-140714286D01*
X94692914Y-140714286D02*
X94740533Y-140619048D01*
X94454819Y-141523810D02*
X94454819Y-142142857D01*
X94454819Y-142142857D02*
X94835771Y-141809524D01*
X94835771Y-141809524D02*
X94835771Y-141952381D01*
X94835771Y-141952381D02*
X94883390Y-142047619D01*
X94883390Y-142047619D02*
X94931009Y-142095238D01*
X94931009Y-142095238D02*
X95026247Y-142142857D01*
X95026247Y-142142857D02*
X95264342Y-142142857D01*
X95264342Y-142142857D02*
X95359580Y-142095238D01*
X95359580Y-142095238D02*
X95407200Y-142047619D01*
X95407200Y-142047619D02*
X95454819Y-141952381D01*
X95454819Y-141952381D02*
X95454819Y-141666667D01*
X95454819Y-141666667D02*
X95407200Y-141571429D01*
X95407200Y-141571429D02*
X95359580Y-141523810D01*
D13*
%TO.C,J12*%
X51445000Y-137595000D02*
X51445000Y-138925000D01*
X51445000Y-140195000D02*
X51445000Y-152955000D01*
X52775000Y-137595000D02*
X51445000Y-137595000D01*
X54105000Y-140195000D02*
X51445000Y-140195000D01*
X54105000Y-140195000D02*
X54105000Y-152955000D01*
X54105000Y-152955000D02*
X51445000Y-152955000D01*
%TO.C,J22*%
X76170000Y-151700000D02*
X76170000Y-153030000D01*
X76170000Y-153030000D02*
X77500000Y-153030000D01*
X78770000Y-150370000D02*
X78770000Y-153030000D01*
X78770000Y-150370000D02*
X81370000Y-150370000D01*
X78770000Y-153030000D02*
X81370000Y-153030000D01*
X81370000Y-150370000D02*
X81370000Y-153030000D01*
%TO.C,J10*%
X51445000Y-53095000D02*
X51445000Y-54425000D01*
X51445000Y-55695000D02*
X51445000Y-68455000D01*
X52775000Y-53095000D02*
X51445000Y-53095000D01*
X54105000Y-55695000D02*
X51445000Y-55695000D01*
X54105000Y-55695000D02*
X54105000Y-68455000D01*
X54105000Y-68455000D02*
X51445000Y-68455000D01*
%TO.C,J11*%
X95945000Y-53095000D02*
X95945000Y-54425000D01*
X95945000Y-55695000D02*
X95945000Y-68455000D01*
X97275000Y-53095000D02*
X95945000Y-53095000D01*
X98605000Y-55695000D02*
X95945000Y-55695000D01*
X98605000Y-55695000D02*
X98605000Y-68455000D01*
X98605000Y-68455000D02*
X95945000Y-68455000D01*
%TO.C,J21*%
X68670000Y-151725000D02*
X68670000Y-153055000D01*
X68670000Y-153055000D02*
X70000000Y-153055000D01*
X71270000Y-150395000D02*
X71270000Y-153055000D01*
X71270000Y-150395000D02*
X73870000Y-150395000D01*
X71270000Y-153055000D02*
X73870000Y-153055000D01*
X73870000Y-150395000D02*
X73870000Y-153055000D01*
%TO.C,J13*%
X95945000Y-137595000D02*
X95945000Y-138925000D01*
X95945000Y-140195000D02*
X95945000Y-152955000D01*
X97275000Y-137595000D02*
X95945000Y-137595000D01*
X98605000Y-140195000D02*
X95945000Y-140195000D01*
X98605000Y-140195000D02*
X98605000Y-152955000D01*
X98605000Y-152955000D02*
X95945000Y-152955000D01*
%TD*%
%LPC*%
D14*
%TO.C,C66*%
X90000000Y-79250000D03*
X95000000Y-79250000D03*
%TD*%
%TO.C,R11*%
X71190000Y-99000000D03*
X78810000Y-99000000D03*
%TD*%
%TO.C,R4*%
X92560000Y-54500000D03*
X84940000Y-54500000D03*
%TD*%
D15*
%TO.C,D22*%
X65230000Y-110000000D03*
D16*
X67770000Y-110000000D03*
%TD*%
D14*
%TO.C,R105*%
X78810000Y-148000000D03*
X71190000Y-148000000D03*
%TD*%
D15*
%TO.C,D32*%
X94040000Y-162000000D03*
D16*
X91500000Y-162000000D03*
X88960000Y-162000000D03*
%TD*%
D14*
%TO.C,R22*%
X58940000Y-71500000D03*
X66560000Y-71500000D03*
%TD*%
D17*
%TO.C,U21*%
X83460000Y-71300000D03*
D18*
X86000000Y-71300000D03*
X88540000Y-71300000D03*
%TD*%
D15*
%TO.C,D20*%
X65230000Y-102000000D03*
D16*
X67770000Y-102000000D03*
%TD*%
D19*
%TO.C,U2*%
X53690000Y-82635000D03*
D14*
X53690000Y-85175000D03*
X53690000Y-87715000D03*
X53690000Y-90255000D03*
X53690000Y-92795000D03*
X53690000Y-95335000D03*
X53690000Y-97875000D03*
X61310000Y-97875000D03*
X61310000Y-95335000D03*
X61310000Y-92795000D03*
X61310000Y-90255000D03*
X61310000Y-87715000D03*
X61310000Y-85175000D03*
X61310000Y-82635000D03*
%TD*%
%TO.C,C77*%
X64500000Y-81900000D03*
X64500000Y-76900000D03*
%TD*%
D20*
%TO.C,H22*%
X75000000Y-127250000D03*
%TD*%
D15*
%TO.C,D17*%
X65230000Y-90000000D03*
D16*
X67770000Y-90000000D03*
%TD*%
D14*
%TO.C,C65*%
X55000000Y-104250000D03*
X60000000Y-104250000D03*
%TD*%
%TO.C,C58*%
X55000000Y-79250000D03*
X60000000Y-79250000D03*
%TD*%
%TO.C,R9*%
X71190000Y-93000000D03*
X78810000Y-93000000D03*
%TD*%
%TO.C,R10*%
X71190000Y-96000000D03*
X78810000Y-96000000D03*
%TD*%
%TO.C,R21*%
X63810000Y-44500000D03*
X56190000Y-44500000D03*
%TD*%
%TO.C,R13*%
X71190000Y-105000000D03*
X78810000Y-105000000D03*
%TD*%
D15*
%TO.C,D23*%
X65230000Y-114000000D03*
D16*
X67770000Y-114000000D03*
%TD*%
D14*
%TO.C,R90*%
X66310000Y-159000000D03*
X58690000Y-159000000D03*
%TD*%
%TO.C,R15*%
X71190000Y-111000000D03*
X78810000Y-111000000D03*
%TD*%
D15*
%TO.C,D7*%
X82230000Y-126000000D03*
D16*
X84770000Y-126000000D03*
%TD*%
D21*
%TO.C,RV3*%
X82750000Y-145000000D03*
X92250000Y-145000000D03*
D15*
X85000000Y-152500000D03*
D16*
X87500000Y-152500000D03*
X90000000Y-152500000D03*
X85000000Y-155000000D03*
X87500000Y-155000000D03*
X90000000Y-155000000D03*
%TD*%
D14*
%TO.C,R88*%
X66310000Y-162000000D03*
X58690000Y-162000000D03*
%TD*%
%TO.C,R19*%
X71190000Y-123000000D03*
X78810000Y-123000000D03*
%TD*%
D22*
%TO.C,U24*%
X56385000Y-138060000D03*
D14*
X58925000Y-138060000D03*
X61465000Y-138060000D03*
X64005000Y-138060000D03*
X66545000Y-138060000D03*
X69085000Y-138060000D03*
X71625000Y-138060000D03*
X71625000Y-130440000D03*
X69085000Y-130440000D03*
X66545000Y-130440000D03*
X64005000Y-130440000D03*
X61465000Y-130440000D03*
X58925000Y-130440000D03*
X56385000Y-130440000D03*
%TD*%
D19*
%TO.C,U4*%
X88690000Y-82635000D03*
D14*
X88690000Y-85175000D03*
X88690000Y-87715000D03*
X88690000Y-90255000D03*
X88690000Y-92795000D03*
X88690000Y-95335000D03*
X88690000Y-97875000D03*
X96310000Y-97875000D03*
X96310000Y-95335000D03*
X96310000Y-92795000D03*
X96310000Y-90255000D03*
X96310000Y-87715000D03*
X96310000Y-85175000D03*
X96310000Y-82635000D03*
%TD*%
D22*
%TO.C,U6*%
X67385000Y-84560000D03*
D14*
X69925000Y-84560000D03*
X72465000Y-84560000D03*
X75005000Y-84560000D03*
X77545000Y-84560000D03*
X80085000Y-84560000D03*
X82625000Y-84560000D03*
X82625000Y-76940000D03*
X80085000Y-76940000D03*
X77545000Y-76940000D03*
X75005000Y-76940000D03*
X72465000Y-76940000D03*
X69925000Y-76940000D03*
X67385000Y-76940000D03*
%TD*%
D15*
%TO.C,D25*%
X65230000Y-122000000D03*
D16*
X67770000Y-122000000D03*
%TD*%
D15*
%TO.C,D31*%
X77540000Y-162000000D03*
D16*
X75000000Y-162000000D03*
X72460000Y-162000000D03*
%TD*%
D15*
%TO.C,D19*%
X65230000Y-98000000D03*
D16*
X67770000Y-98000000D03*
%TD*%
D21*
%TO.C,RV1*%
X70250000Y-62000000D03*
X79750000Y-62000000D03*
D15*
X72500000Y-69500000D03*
D16*
X75000000Y-69500000D03*
X77500000Y-69500000D03*
X72500000Y-72000000D03*
X75000000Y-72000000D03*
X77500000Y-72000000D03*
%TD*%
D15*
%TO.C,D15*%
X82230000Y-94000000D03*
D16*
X84770000Y-94000000D03*
%TD*%
D15*
%TO.C,D14*%
X82230000Y-98000000D03*
D16*
X84770000Y-98000000D03*
%TD*%
D14*
%TO.C,C68*%
X90000000Y-101250000D03*
X95000000Y-101250000D03*
%TD*%
%TO.C,R102*%
X78810000Y-145000000D03*
X71190000Y-145000000D03*
%TD*%
%TO.C,C42*%
X92900000Y-69500000D03*
X92900000Y-74500000D03*
%TD*%
D15*
%TO.C,D16*%
X82230000Y-90000000D03*
D16*
X84770000Y-90000000D03*
%TD*%
D15*
%TO.C,D12*%
X82230000Y-106000000D03*
D16*
X84770000Y-106000000D03*
%TD*%
D14*
%TO.C,R24*%
X92560000Y-44500000D03*
X84940000Y-44500000D03*
%TD*%
%TO.C,R18*%
X71190000Y-120000000D03*
X78810000Y-120000000D03*
%TD*%
D17*
%TO.C,Q1*%
X60210000Y-60200000D03*
D18*
X62750000Y-60200000D03*
X65290000Y-60200000D03*
%TD*%
D23*
%TO.C,D27*%
X63810000Y-49500000D03*
D14*
X56190000Y-49500000D03*
%TD*%
%TO.C,C60*%
X55000000Y-101250000D03*
X60000000Y-101250000D03*
%TD*%
%TO.C,R109*%
X97250000Y-162060000D03*
X97250000Y-154440000D03*
%TD*%
%TO.C,R23*%
X74310000Y-44500000D03*
X66690000Y-44500000D03*
%TD*%
D20*
%TO.C,H21*%
X75000000Y-88750000D03*
%TD*%
D15*
%TO.C,D18*%
X65230000Y-94000000D03*
D16*
X67770000Y-94000000D03*
%TD*%
D19*
%TO.C,U3*%
X53690000Y-107635000D03*
D14*
X53690000Y-110175000D03*
X53690000Y-112715000D03*
X53690000Y-115255000D03*
X53690000Y-117795000D03*
X53690000Y-120335000D03*
X53690000Y-122875000D03*
X61310000Y-122875000D03*
X61310000Y-120335000D03*
X61310000Y-117795000D03*
X61310000Y-115255000D03*
X61310000Y-112715000D03*
X61310000Y-110175000D03*
X61310000Y-107635000D03*
%TD*%
D15*
%TO.C,D26*%
X65230000Y-126000000D03*
D16*
X67770000Y-126000000D03*
%TD*%
D14*
%TO.C,C43*%
X53600000Y-136000000D03*
X53600000Y-131000000D03*
%TD*%
D20*
%TO.C,H23*%
X82000000Y-161000000D03*
%TD*%
D14*
%TO.C,R16*%
X71190000Y-114000000D03*
X78810000Y-114000000D03*
%TD*%
D21*
%TO.C,RV2*%
X57750000Y-145000000D03*
X67250000Y-145000000D03*
D15*
X60000000Y-152500000D03*
D16*
X62500000Y-152500000D03*
X65000000Y-152500000D03*
X60000000Y-155000000D03*
X62500000Y-155000000D03*
X65000000Y-155000000D03*
%TD*%
D17*
%TO.C,Q2*%
X80000000Y-49540000D03*
D18*
X80000000Y-47000000D03*
X80000000Y-44460000D03*
%TD*%
D15*
%TO.C,D8*%
X82230000Y-122000000D03*
D16*
X84770000Y-122000000D03*
%TD*%
D14*
%TO.C,C74*%
X90000000Y-126250000D03*
X95000000Y-126250000D03*
%TD*%
%TO.C,R25*%
X92560000Y-49500000D03*
X84940000Y-49500000D03*
%TD*%
%TO.C,C78*%
X85500000Y-81900000D03*
X85500000Y-76900000D03*
%TD*%
D23*
%TO.C,D29*%
X74310000Y-49500000D03*
D14*
X66690000Y-49500000D03*
%TD*%
D19*
%TO.C,U5*%
X88690000Y-107635000D03*
D14*
X88690000Y-110175000D03*
X88690000Y-112715000D03*
X88690000Y-115255000D03*
X88690000Y-117795000D03*
X88690000Y-120335000D03*
X88690000Y-122875000D03*
X96310000Y-122875000D03*
X96310000Y-120335000D03*
X96310000Y-117795000D03*
X96310000Y-115255000D03*
X96310000Y-112715000D03*
X96310000Y-110175000D03*
X96310000Y-107635000D03*
%TD*%
%TO.C,R14*%
X71190000Y-108000000D03*
X78810000Y-108000000D03*
%TD*%
D15*
%TO.C,D11*%
X82230000Y-110000000D03*
D16*
X84770000Y-110000000D03*
%TD*%
D23*
%TO.C,D28*%
X63810000Y-53750000D03*
D14*
X56190000Y-53750000D03*
%TD*%
D15*
%TO.C,D13*%
X82230000Y-102000000D03*
D16*
X84770000Y-102000000D03*
%TD*%
D14*
%TO.C,C73*%
X90000000Y-104250000D03*
X95000000Y-104250000D03*
%TD*%
%TO.C,C67*%
X55000000Y-126250000D03*
X60000000Y-126250000D03*
%TD*%
%TO.C,C41*%
X96490000Y-136000000D03*
X96490000Y-131000000D03*
%TD*%
%TO.C,R110*%
X85440000Y-159000000D03*
X93060000Y-159000000D03*
%TD*%
D15*
%TO.C,D10*%
X82230000Y-114000000D03*
D16*
X84770000Y-114000000D03*
%TD*%
D14*
%TO.C,R108*%
X71190000Y-155250000D03*
X78810000Y-155250000D03*
%TD*%
%TO.C,R85*%
X71190000Y-158250000D03*
X78810000Y-158250000D03*
%TD*%
%TO.C,C44*%
X75000000Y-136750000D03*
X75000000Y-131750000D03*
%TD*%
%TO.C,R20*%
X58940000Y-66500000D03*
X66560000Y-66500000D03*
%TD*%
%TO.C,R91*%
X52750000Y-154440000D03*
X52750000Y-162060000D03*
%TD*%
%TO.C,R17*%
X71190000Y-117000000D03*
X78810000Y-117000000D03*
%TD*%
%TO.C,R99*%
X71190000Y-142000000D03*
X78810000Y-142000000D03*
%TD*%
D15*
%TO.C,D24*%
X65230000Y-118000000D03*
D16*
X67770000Y-118000000D03*
%TD*%
D15*
%TO.C,D21*%
X65230000Y-106000000D03*
D16*
X67770000Y-106000000D03*
%TD*%
D15*
%TO.C,D9*%
X82230000Y-118000000D03*
D16*
X84770000Y-118000000D03*
%TD*%
D22*
%TO.C,U25*%
X78385000Y-138060000D03*
D14*
X80925000Y-138060000D03*
X83465000Y-138060000D03*
X86005000Y-138060000D03*
X88545000Y-138060000D03*
X91085000Y-138060000D03*
X93625000Y-138060000D03*
X93625000Y-130440000D03*
X91085000Y-130440000D03*
X88545000Y-130440000D03*
X86005000Y-130440000D03*
X83465000Y-130440000D03*
X80925000Y-130440000D03*
X78385000Y-130440000D03*
%TD*%
%TO.C,R12*%
X71190000Y-102000000D03*
X78810000Y-102000000D03*
%TD*%
D23*
%TO.C,D30*%
X74310000Y-53750000D03*
D14*
X66690000Y-53750000D03*
%TD*%
D24*
%TO.C,J12*%
X52775000Y-138925000D03*
D25*
X52775000Y-141465000D03*
X52775000Y-144005000D03*
X52775000Y-146545000D03*
X52775000Y-149085000D03*
X52775000Y-151625000D03*
%TD*%
D24*
%TO.C,J22*%
X77500000Y-151700000D03*
D25*
X80040000Y-151700000D03*
%TD*%
D24*
%TO.C,J10*%
X52775000Y-54425000D03*
D25*
X52775000Y-56965000D03*
X52775000Y-59505000D03*
X52775000Y-62045000D03*
X52775000Y-64585000D03*
X52775000Y-67125000D03*
%TD*%
D24*
%TO.C,J11*%
X97275000Y-54425000D03*
D25*
X97275000Y-56965000D03*
X97275000Y-59505000D03*
X97275000Y-62045000D03*
X97275000Y-64585000D03*
X97275000Y-67125000D03*
%TD*%
D24*
%TO.C,J21*%
X70000000Y-151725000D03*
D25*
X72540000Y-151725000D03*
%TD*%
D24*
%TO.C,J13*%
X97275000Y-138925000D03*
D25*
X97275000Y-141465000D03*
X97275000Y-144005000D03*
X97275000Y-146545000D03*
X97275000Y-149085000D03*
X97275000Y-151625000D03*
%TD*%
%LPD*%
M02*
