%TF.GenerationSoftware,KiCad,Pcbnew,10.0.1*%
%TF.CreationDate,2026-07-09T14:53:32+02:00*%
%TF.ProjectId,DMH_Output_PCB_Main,444d485f-4f75-4747-9075-745f5043425f,1*%
%TF.SameCoordinates,Original*%
%TF.FileFunction,Soldermask,Top*%
%TF.FilePolarity,Negative*%
%FSLAX46Y46*%
G04 Gerber Fmt 4.6, Leading zero omitted, Abs format (unit mm)*
G04 Created by KiCad (PCBNEW 10.0.1) date 2026-07-09 14:53:32*
%MOMM*%
%LPD*%
G01*
G04 APERTURE LIST*
G04 Aperture macros list*
%AMRoundRect*
0 Rectangle with rounded corners*
0 $1 Rounding radius*
0 $2 $3 $4 $5 $6 $7 $8 $9 X,Y pos of 4 corners*
0 Add a 4 corners polygon primitive as box body*
4,1,4,$2,$3,$4,$5,$6,$7,$8,$9,$2,$3,0*
0 Add four circle primitives for the rounded corners*
1,1,$1+$1,$2,$3*
1,1,$1+$1,$4,$5*
1,1,$1+$1,$6,$7*
1,1,$1+$1,$8,$9*
0 Add four rect primitives between the rounded corners*
20,1,$1+$1,$2,$3,$4,$5,0*
20,1,$1+$1,$4,$5,$6,$7,0*
20,1,$1+$1,$6,$7,$8,$9,0*
20,1,$1+$1,$8,$9,$2,$3,0*%
%AMHorizOval*
0 Thick line with rounded ends*
0 $1 width*
0 $2 $3 position (X,Y) of the first rounded end (center of the circle)*
0 $4 $5 position (X,Y) of the second rounded end (center of the circle)*
0 Add line between two ends*
20,1,$1,$2,$3,$4,$5,0*
0 Add two circle primitives to create the rounded ends*
1,1,$1,$2,$3*
1,1,$1,$4,$5*%
G04 Aperture macros list end*
%ADD10O,3.220000X1.712000*%
%ADD11O,1.712000X3.220000*%
%ADD12HorizOval,1.712000X-0.533159X-0.533159X0.533159X0.533159X0*%
%ADD13R,1.700000X1.700000*%
%ADD14C,1.700000*%
%ADD15RoundRect,0.250000X0.550000X-0.550000X0.550000X0.550000X-0.550000X0.550000X-0.550000X-0.550000X0*%
%ADD16C,1.600000*%
%ADD17RoundRect,0.250000X0.550000X0.550000X-0.550000X0.550000X-0.550000X-0.550000X0.550000X-0.550000X0*%
%ADD18RoundRect,0.250000X-0.550000X0.550000X-0.550000X-0.550000X0.550000X-0.550000X0.550000X0.550000X0*%
%ADD19RoundRect,0.250000X-0.550000X-0.550000X0.550000X-0.550000X0.550000X0.550000X-0.550000X0.550000X0*%
%ADD20RoundRect,0.250000X0.600000X-0.600000X0.600000X0.600000X-0.600000X0.600000X-0.600000X-0.600000X0*%
%ADD21RoundRect,0.249999X-0.850001X0.850001X-0.850001X-0.850001X0.850001X-0.850001X0.850001X0.850001X0*%
%ADD22C,2.200000*%
%ADD23RoundRect,0.249999X0.850001X-0.850001X0.850001X0.850001X-0.850001X0.850001X-0.850001X-0.850001X0*%
G04 APERTURE END LIST*
D10*
%TO.C,J7*%
X59000000Y-183750000D03*
D11*
X65000000Y-187750000D03*
D12*
X63096000Y-194846000D03*
D11*
X52000000Y-190750000D03*
D10*
X56000000Y-196750000D03*
%TD*%
%TO.C,J9*%
X92000000Y-165250000D03*
D11*
X98000000Y-169250000D03*
D12*
X96096000Y-176346000D03*
D11*
X85000000Y-172250000D03*
D10*
X89000000Y-178250000D03*
%TD*%
%TO.C,J5*%
X59000000Y-202250000D03*
D11*
X65000000Y-206250000D03*
D12*
X63096000Y-213346000D03*
D11*
X52000000Y-209250000D03*
D10*
X56000000Y-215250000D03*
%TD*%
%TO.C,J4*%
X92000000Y-202250000D03*
D11*
X98000000Y-206250000D03*
D12*
X96096000Y-213346000D03*
D11*
X85000000Y-209250000D03*
D10*
X89000000Y-215250000D03*
%TD*%
%TO.C,J1*%
X75500000Y-183750000D03*
D11*
X81500000Y-187750000D03*
D12*
X79596000Y-194846000D03*
D11*
X68500000Y-190750000D03*
D10*
X72500000Y-196750000D03*
%TD*%
%TO.C,J3*%
X75500000Y-202250000D03*
D11*
X81500000Y-206250000D03*
D12*
X79596000Y-213346000D03*
D11*
X68500000Y-209250000D03*
D10*
X72500000Y-215250000D03*
%TD*%
%TO.C,J6*%
X59000000Y-165250000D03*
D11*
X65000000Y-169250000D03*
D12*
X63096000Y-176346000D03*
D11*
X52000000Y-172250000D03*
D10*
X56000000Y-178250000D03*
%TD*%
%TO.C,J2*%
X92000000Y-183750000D03*
D11*
X98000000Y-187750000D03*
D12*
X96096000Y-194846000D03*
D11*
X85000000Y-190750000D03*
D10*
X89000000Y-196750000D03*
%TD*%
D13*
%TO.C,J25*%
X77500000Y-151700000D03*
D14*
X80040000Y-151700000D03*
%TD*%
D13*
%TO.C,J24*%
X70000000Y-151725000D03*
D14*
X72540000Y-151725000D03*
%TD*%
D10*
%TO.C,J8*%
X75500000Y-165250000D03*
D11*
X81500000Y-169250000D03*
D12*
X79596000Y-176346000D03*
D11*
X68500000Y-172250000D03*
D10*
X72500000Y-178250000D03*
%TD*%
D15*
%TO.C,C2*%
X92250000Y-54705113D03*
D16*
X92250000Y-52705113D03*
%TD*%
%TO.C,R87*%
X60390000Y-133942858D03*
X68010000Y-133942858D03*
%TD*%
D17*
%TO.C,U20*%
X63810000Y-108590000D03*
D16*
X63810000Y-111130000D03*
X63810000Y-113670000D03*
X63810000Y-116210000D03*
X56190000Y-116210000D03*
X56190000Y-113670000D03*
X56190000Y-111130000D03*
X56190000Y-108590000D03*
%TD*%
%TO.C,C80*%
X60500000Y-87400000D03*
X65500000Y-87400000D03*
%TD*%
%TO.C,C13*%
X89000000Y-96850000D03*
X89000000Y-94350000D03*
%TD*%
D17*
%TO.C,C6*%
X79155113Y-143500000D03*
D16*
X77155113Y-143500000D03*
%TD*%
%TO.C,C70*%
X84410000Y-73100000D03*
X89410000Y-73100000D03*
%TD*%
%TO.C,C12*%
X89000000Y-63650000D03*
X89000000Y-66150000D03*
%TD*%
%TO.C,R1*%
X82090000Y-130800000D03*
X89710000Y-130800000D03*
%TD*%
%TO.C,R84*%
X68000000Y-124385714D03*
X60380000Y-124385714D03*
%TD*%
%TO.C,R44*%
X75990000Y-91090000D03*
X83610000Y-91090000D03*
%TD*%
D13*
%TO.C,J29*%
X52775000Y-94100000D03*
D14*
X52775000Y-96640000D03*
X52775000Y-99180000D03*
X52775000Y-101720000D03*
%TD*%
D16*
%TO.C,R81*%
X89659888Y-143600000D03*
X82039888Y-143600000D03*
%TD*%
%TO.C,R2*%
X89659888Y-124400000D03*
X82039888Y-124400000D03*
%TD*%
D18*
%TO.C,D3*%
X97300000Y-111390000D03*
D16*
X97300000Y-119010000D03*
%TD*%
%TO.C,R6*%
X89659888Y-140400000D03*
X82039888Y-140400000D03*
%TD*%
%TO.C,C57*%
X86000000Y-95500000D03*
X86000000Y-100500000D03*
%TD*%
D19*
%TO.C,C24*%
X70844888Y-143500000D03*
D16*
X72844888Y-143500000D03*
%TD*%
%TO.C,C52*%
X64000000Y-60200000D03*
X64000000Y-65200000D03*
%TD*%
D18*
%TO.C,D33*%
X67300000Y-109090000D03*
D16*
X67300000Y-116710000D03*
%TD*%
D13*
%TO.C,J35*%
X65430000Y-199400000D03*
D14*
X67970000Y-199400000D03*
%TD*%
D16*
%TO.C,R33*%
X66290000Y-69600000D03*
X73910000Y-69600000D03*
%TD*%
D13*
%TO.C,J27*%
X52775000Y-138925000D03*
D14*
X52775000Y-141465000D03*
X52775000Y-144005000D03*
X52775000Y-146545000D03*
X52775000Y-149085000D03*
X52775000Y-151625000D03*
%TD*%
D16*
%TO.C,R59*%
X56100000Y-76390000D03*
X56100000Y-84010000D03*
%TD*%
%TO.C,R46*%
X75990000Y-104890000D03*
X83610000Y-104890000D03*
%TD*%
%TO.C,R57*%
X73000000Y-84010000D03*
X73000000Y-76390000D03*
%TD*%
%TO.C,C14*%
X89000000Y-99050000D03*
X89000000Y-101550000D03*
%TD*%
%TO.C,R5*%
X89659888Y-137200000D03*
X82039888Y-137200000D03*
%TD*%
%TO.C,R30*%
X66190000Y-55800000D03*
X73810000Y-55800000D03*
%TD*%
D17*
%TO.C,U15*%
X66810000Y-76390000D03*
D16*
X66810000Y-78930000D03*
X66810000Y-81470000D03*
X66810000Y-84010000D03*
X59190000Y-84010000D03*
X59190000Y-81470000D03*
X59190000Y-78930000D03*
X59190000Y-76390000D03*
%TD*%
%TO.C,R53*%
X80000000Y-76390000D03*
X80000000Y-84010000D03*
%TD*%
%TO.C,R31*%
X76090000Y-55800000D03*
X83710000Y-55800000D03*
%TD*%
%TO.C,R86*%
X60390000Y-127600000D03*
X68010000Y-127600000D03*
%TD*%
D13*
%TO.C,J0*%
X52800000Y-45900000D03*
%TD*%
D15*
%TO.C,D44*%
X52800000Y-130510000D03*
D16*
X52800000Y-122890000D03*
%TD*%
D17*
%TO.C,C5*%
X79155113Y-133900000D03*
D16*
X77155113Y-133900000D03*
%TD*%
%TO.C,R80*%
X89659888Y-134000000D03*
X82039888Y-134000000D03*
%TD*%
%TO.C,R52*%
X76930000Y-76390000D03*
X76930000Y-84010000D03*
%TD*%
D18*
%TO.C,U8*%
X67385000Y-58890000D03*
D16*
X69925000Y-58890000D03*
X72465000Y-58890000D03*
X75005000Y-58890000D03*
X77545000Y-58890000D03*
X80085000Y-58890000D03*
X82625000Y-58890000D03*
X82625000Y-66510000D03*
X80085000Y-66510000D03*
X77545000Y-66510000D03*
X75005000Y-66510000D03*
X72465000Y-66510000D03*
X69925000Y-66510000D03*
X67385000Y-66510000D03*
%TD*%
%TO.C,R45*%
X66090000Y-91090000D03*
X73710000Y-91090000D03*
%TD*%
D20*
%TO.C,J100*%
X80080000Y-48752500D03*
D14*
X80080000Y-46212500D03*
X77540000Y-48752500D03*
X77540000Y-46212500D03*
X75000000Y-48752500D03*
X75000000Y-46212500D03*
X72460000Y-48752500D03*
X72460000Y-46212500D03*
X69920000Y-48752500D03*
X69920000Y-46212500D03*
%TD*%
D16*
%TO.C,C47*%
X87205000Y-105300000D03*
X92205000Y-105300000D03*
%TD*%
%TO.C,R89*%
X68000000Y-130742858D03*
X60380000Y-130742858D03*
%TD*%
%TO.C,R56*%
X69900000Y-84010000D03*
X69900000Y-76390000D03*
%TD*%
D13*
%TO.C,J31*%
X97275000Y-94100000D03*
D14*
X97275000Y-96640000D03*
X97275000Y-99180000D03*
X97275000Y-101720000D03*
X97275000Y-104260000D03*
X97275000Y-106800000D03*
%TD*%
D16*
%TO.C,R97*%
X68010000Y-146700000D03*
X60390000Y-146700000D03*
%TD*%
D15*
%TO.C,D34*%
X70500000Y-116710000D03*
D16*
X70500000Y-109090000D03*
%TD*%
D15*
%TO.C,D6*%
X79200000Y-116810000D03*
D16*
X79200000Y-109190000D03*
%TD*%
D18*
%TO.C,C1*%
X57700000Y-44794888D03*
D16*
X57700000Y-46794888D03*
%TD*%
%TO.C,R48*%
X96870000Y-83890000D03*
X96870000Y-76270000D03*
%TD*%
D18*
%TO.C,U11*%
X67385000Y-94190000D03*
D16*
X69925000Y-94190000D03*
X72465000Y-94190000D03*
X75005000Y-94190000D03*
X77545000Y-94190000D03*
X80085000Y-94190000D03*
X82625000Y-94190000D03*
X82625000Y-101810000D03*
X80085000Y-101810000D03*
X77545000Y-101810000D03*
X75005000Y-101810000D03*
X72465000Y-101810000D03*
X69925000Y-101810000D03*
X67385000Y-101810000D03*
%TD*%
D13*
%TO.C,J23*%
X52775000Y-54425000D03*
D14*
X52775000Y-56965000D03*
X52775000Y-59505000D03*
X52775000Y-62045000D03*
X52775000Y-64585000D03*
X52775000Y-67125000D03*
%TD*%
D16*
%TO.C,C59*%
X64000000Y-95500000D03*
X64000000Y-100500000D03*
%TD*%
%TO.C,C72*%
X84400000Y-87400000D03*
X89400000Y-87400000D03*
%TD*%
%TO.C,C56*%
X57500000Y-119500000D03*
X62500000Y-119500000D03*
%TD*%
D17*
%TO.C,U1*%
X93510000Y-108590000D03*
D16*
X93510000Y-111130000D03*
X93510000Y-113670000D03*
X93510000Y-116210000D03*
X85890000Y-116210000D03*
X85890000Y-113670000D03*
X85890000Y-111130000D03*
X85890000Y-108590000D03*
%TD*%
%TO.C,C50*%
X86000000Y-60100000D03*
X86000000Y-65100000D03*
%TD*%
D21*
%TO.C,D1*%
X62500000Y-44120000D03*
D22*
X62500000Y-54280000D03*
%TD*%
D16*
%TO.C,R32*%
X76190000Y-69600000D03*
X83810000Y-69600000D03*
%TD*%
D13*
%TO.C,J26*%
X97275000Y-54425000D03*
D14*
X97275000Y-56965000D03*
X97275000Y-59505000D03*
X97275000Y-62045000D03*
X97275000Y-64585000D03*
X97275000Y-67125000D03*
%TD*%
D16*
%TO.C,C79*%
X60500000Y-73100000D03*
X65500000Y-73100000D03*
%TD*%
%TO.C,R94*%
X60390000Y-140300000D03*
X68010000Y-140300000D03*
%TD*%
%TO.C,R92*%
X68000000Y-137128572D03*
X60380000Y-137128572D03*
%TD*%
D23*
%TO.C,D2*%
X87500000Y-54280000D03*
D22*
X87500000Y-44120000D03*
%TD*%
D16*
%TO.C,C54*%
X57500000Y-105300000D03*
X62500000Y-105300000D03*
%TD*%
D20*
%TO.C,J200*%
X66830000Y-159752500D03*
D14*
X64290000Y-159752500D03*
X61750000Y-159752500D03*
X59210000Y-159752500D03*
X56670000Y-159752500D03*
X66830000Y-157212500D03*
X64290000Y-157212500D03*
X61750000Y-157212500D03*
X59210000Y-157212500D03*
X56670000Y-157212500D03*
%TD*%
D13*
%TO.C,J28*%
X97275000Y-138925000D03*
D14*
X97275000Y-141465000D03*
X97275000Y-144005000D03*
X97275000Y-146545000D03*
X97275000Y-149085000D03*
X97275000Y-151625000D03*
%TD*%
D16*
%TO.C,R58*%
X53000000Y-76390000D03*
X53000000Y-84010000D03*
%TD*%
D18*
%TO.C,D5*%
X82400000Y-109190000D03*
D16*
X82400000Y-116810000D03*
%TD*%
%TO.C,C11*%
X89000000Y-61450000D03*
X89000000Y-58950000D03*
%TD*%
D19*
%TO.C,C23*%
X70844888Y-133900000D03*
D16*
X72844888Y-133900000D03*
%TD*%
D15*
%TO.C,D4*%
X97300000Y-130510000D03*
D16*
X97300000Y-122890000D03*
%TD*%
D17*
%TO.C,U13*%
X90710000Y-76390000D03*
D16*
X90710000Y-78930000D03*
X90710000Y-81470000D03*
X90710000Y-84010000D03*
X83090000Y-84010000D03*
X83090000Y-81470000D03*
X83090000Y-78930000D03*
X83090000Y-76390000D03*
%TD*%
%TO.C,R8*%
X89610000Y-146800000D03*
X81990000Y-146800000D03*
%TD*%
%TO.C,R49*%
X93800000Y-83910000D03*
X93800000Y-76290000D03*
%TD*%
%TO.C,R95*%
X60390000Y-143500000D03*
X68010000Y-143500000D03*
%TD*%
%TO.C,R3*%
X89659888Y-127600000D03*
X82039888Y-127600000D03*
%TD*%
D18*
%TO.C,D43*%
X52800000Y-111390000D03*
D16*
X52800000Y-119010000D03*
%TD*%
%TO.C,R47*%
X66090000Y-104890000D03*
X73710000Y-104890000D03*
%TD*%
%TO.C,C48*%
X87205000Y-119550000D03*
X92205000Y-119550000D03*
%TD*%
D13*
%TO.C,J36*%
X82030000Y-199400000D03*
D14*
X84570000Y-199400000D03*
%TD*%
M02*
