M48
; DRILL file KiCad 10.0.1 date 2026-07-05T12:36:40
; FORMAT={-:-/ absolute / metric / decimal}
; #@! TF.CreationDate,2026-07-05T12:36:40+02:00
; #@! TF.GenerationSoftware,Kicad,Pcbnew,10.0.1
; #@! TF.FileFunction,Plated,1,2,PTH
FMAT,2
METRIC
; #@! TA.AperFunction,Plated,PTH,ComponentDrill
T1C0.800
; #@! TA.AperFunction,Plated,PTH,ComponentDrill
T2C1.000
; #@! TA.AperFunction,Plated,PTH,ComponentDrill
T3C1.100
%
G90
G05
T1
X52.8Y-111.39
X52.8Y-119.01
X52.8Y-122.89
X52.8Y-130.51
X53.0Y-76.39
X53.0Y-84.01
X56.1Y-76.39
X56.1Y-84.01
X56.19Y-108.59
X56.19Y-111.13
X56.19Y-113.67
X56.19Y-116.21
X57.5Y-105.3
X57.5Y-119.5
X57.7Y-44.795
X57.7Y-46.795
X59.19Y-76.39
X59.19Y-78.93
X59.19Y-81.47
X59.19Y-84.01
X60.38Y-124.386
X60.38Y-130.743
X60.38Y-137.129
X60.39Y-127.6
X60.39Y-133.943
X60.39Y-140.3
X60.39Y-143.5
X60.39Y-146.7
X60.5Y-73.1
X60.5Y-87.4
X62.5Y-105.3
X62.5Y-119.5
X63.81Y-108.59
X63.81Y-111.13
X63.81Y-113.67
X63.81Y-116.21
X64.0Y-60.2
X64.0Y-65.2
X64.0Y-95.5
X64.0Y-100.5
X65.5Y-73.1
X65.5Y-87.4
X66.09Y-91.09
X66.09Y-104.89
X66.19Y-55.8
X66.29Y-69.6
X66.81Y-76.39
X66.81Y-78.93
X66.81Y-81.47
X66.81Y-84.01
X67.3Y-109.09
X67.3Y-116.71
X67.385Y-58.89
X67.385Y-66.51
X67.385Y-94.19
X67.385Y-101.81
X68.0Y-124.386
X68.0Y-130.743
X68.0Y-137.129
X68.01Y-127.6
X68.01Y-133.943
X68.01Y-140.3
X68.01Y-143.5
X68.01Y-146.7
X69.9Y-76.39
X69.9Y-84.01
X69.925Y-58.89
X69.925Y-66.51
X69.925Y-94.19
X69.925Y-101.81
X70.5Y-109.09
X70.5Y-116.71
X70.845Y-133.9
X70.845Y-143.5
X72.465Y-58.89
X72.465Y-66.51
X72.465Y-94.19
X72.465Y-101.81
X72.845Y-133.9
X72.845Y-143.5
X73.0Y-76.39
X73.0Y-84.01
X73.71Y-91.09
X73.71Y-104.89
X73.81Y-55.8
X73.91Y-69.6
X75.005Y-58.89
X75.005Y-66.51
X75.005Y-94.19
X75.005Y-101.81
X75.99Y-91.09
X75.99Y-104.89
X76.09Y-55.8
X76.19Y-69.6
X76.93Y-76.39
X76.93Y-84.01
X77.155Y-133.9
X77.155Y-143.5
X77.545Y-58.89
X77.545Y-66.51
X77.545Y-94.19
X77.545Y-101.81
X79.155Y-133.9
X79.155Y-143.5
X79.2Y-109.19
X79.2Y-116.81
X80.0Y-76.39
X80.0Y-84.01
X80.085Y-58.89
X80.085Y-66.51
X80.085Y-94.19
X80.085Y-101.81
X81.99Y-146.8
X82.04Y-124.4
X82.04Y-127.6
X82.04Y-134.0
X82.04Y-137.2
X82.04Y-140.4
X82.04Y-143.6
X82.09Y-130.8
X82.4Y-109.19
X82.4Y-116.81
X82.625Y-58.89
X82.625Y-66.51
X82.625Y-94.19
X82.625Y-101.81
X83.09Y-76.39
X83.09Y-78.93
X83.09Y-81.47
X83.09Y-84.01
X83.61Y-91.09
X83.61Y-104.89
X83.71Y-55.8
X83.81Y-69.6
X84.4Y-87.4
X84.41Y-73.1
X85.89Y-108.59
X85.89Y-111.13
X85.89Y-113.67
X85.89Y-116.21
X86.0Y-60.1
X86.0Y-65.1
X86.0Y-95.5
X86.0Y-100.5
X87.205Y-105.3
X87.205Y-119.55
X89.0Y-58.95
X89.0Y-61.45
X89.0Y-63.65
X89.0Y-66.15
X89.0Y-94.35
X89.0Y-96.85
X89.0Y-99.05
X89.0Y-101.55
X89.4Y-87.4
X89.41Y-73.1
X89.61Y-146.8
X89.66Y-124.4
X89.66Y-127.6
X89.66Y-134.0
X89.66Y-137.2
X89.66Y-140.4
X89.66Y-143.6
X89.71Y-130.8
X90.71Y-76.39
X90.71Y-78.93
X90.71Y-81.47
X90.71Y-84.01
X92.205Y-105.3
X92.205Y-119.55
X92.25Y-52.705
X92.25Y-54.705
X93.51Y-108.59
X93.51Y-111.13
X93.51Y-113.67
X93.51Y-116.21
X93.8Y-76.29
X93.8Y-83.91
X96.87Y-76.27
X96.87Y-83.89
X97.3Y-111.39
X97.3Y-119.01
X97.3Y-122.89
X97.3Y-130.51
T2
X52.775Y-54.425
X52.775Y-56.965
X52.775Y-59.505
X52.775Y-62.045
X52.775Y-64.585
X52.775Y-67.125
X52.775Y-94.1
X52.775Y-96.64
X52.775Y-99.18
X52.775Y-101.72
X52.775Y-138.925
X52.775Y-141.465
X52.775Y-144.005
X52.775Y-146.545
X52.775Y-149.085
X52.775Y-151.625
X52.8Y-45.9
X56.67Y-157.213
X56.67Y-159.752
X59.21Y-157.213
X59.21Y-159.752
X61.75Y-157.213
X61.75Y-159.752
X64.29Y-157.213
X64.29Y-159.752
X65.43Y-199.4
X66.83Y-157.213
X66.83Y-159.752
X67.97Y-199.4
X69.92Y-46.212
X69.92Y-48.752
X70.0Y-151.725
X72.46Y-46.212
X72.46Y-48.752
X72.54Y-151.725
X75.0Y-46.212
X75.0Y-48.752
X77.5Y-151.7
X77.54Y-46.212
X77.54Y-48.752
X80.04Y-151.7
X80.08Y-46.212
X80.08Y-48.752
X82.03Y-199.4
X84.57Y-199.4
X97.275Y-54.425
X97.275Y-56.965
X97.275Y-59.505
X97.275Y-62.045
X97.275Y-64.585
X97.275Y-67.125
X97.275Y-94.1
X97.275Y-96.64
X97.275Y-99.18
X97.275Y-101.72
X97.275Y-104.26
X97.275Y-106.8
X97.275Y-138.925
X97.275Y-141.465
X97.275Y-144.005
X97.275Y-146.545
X97.275Y-149.085
X97.275Y-151.625
T3
X62.5Y-44.12
X62.5Y-54.28
X87.5Y-44.12
X87.5Y-54.28
T2
G00X52.0Y-171.5
M15
G01X52.0Y-173.0
M16
G05
G00X52.0Y-190.0
M15
G01X52.0Y-191.5
M16
G05
G00X52.0Y-208.5
M15
G01X52.0Y-210.0
M16
G05
G00X55.25Y-178.25
M15
G01X56.75Y-178.25
M16
G05
G00X55.25Y-196.75
M15
G01X56.75Y-196.75
M16
G05
G00X55.25Y-215.25
M15
G01X56.75Y-215.25
M16
G05
G00X58.25Y-165.25
M15
G01X59.75Y-165.25
M16
G05
G00X58.25Y-183.75
M15
G01X59.75Y-183.75
M16
G05
G00X58.25Y-202.25
M15
G01X59.75Y-202.25
M16
G05
G00X63.626Y-175.816
M15
G01X62.566Y-176.876
M16
G05
G00X63.626Y-194.316
M15
G01X62.566Y-195.376
M16
G05
G00X63.626Y-212.816
M15
G01X62.566Y-213.876
M16
G05
G00X65.0Y-168.5
M15
G01X65.0Y-170.0
M16
G05
G00X65.0Y-187.0
M15
G01X65.0Y-188.5
M16
G05
G00X65.0Y-205.5
M15
G01X65.0Y-207.0
M16
G05
G00X68.5Y-171.5
M15
G01X68.5Y-173.0
M16
G05
G00X68.5Y-190.0
M15
G01X68.5Y-191.5
M16
G05
G00X68.5Y-208.5
M15
G01X68.5Y-210.0
M16
G05
G00X71.75Y-178.25
M15
G01X73.25Y-178.25
M16
G05
G00X71.75Y-196.75
M15
G01X73.25Y-196.75
M16
G05
G00X71.75Y-215.25
M15
G01X73.25Y-215.25
M16
G05
G00X74.75Y-165.25
M15
G01X76.25Y-165.25
M16
G05
G00X74.75Y-183.75
M15
G01X76.25Y-183.75
M16
G05
G00X74.75Y-202.25
M15
G01X76.25Y-202.25
M16
G05
G00X80.126Y-175.816
M15
G01X79.066Y-176.876
M16
G05
G00X80.126Y-194.316
M15
G01X79.066Y-195.376
M16
G05
G00X80.126Y-212.816
M15
G01X79.066Y-213.876
M16
G05
G00X81.5Y-168.5
M15
G01X81.5Y-170.0
M16
G05
G00X81.5Y-187.0
M15
G01X81.5Y-188.5
M16
G05
G00X81.5Y-205.5
M15
G01X81.5Y-207.0
M16
G05
G00X85.0Y-171.5
M15
G01X85.0Y-173.0
M16
G05
G00X85.0Y-190.0
M15
G01X85.0Y-191.5
M16
G05
G00X85.0Y-208.5
M15
G01X85.0Y-210.0
M16
G05
G00X88.25Y-178.25
M15
G01X89.75Y-178.25
M16
G05
G00X88.25Y-196.75
M15
G01X89.75Y-196.75
M16
G05
G00X88.25Y-215.25
M15
G01X89.75Y-215.25
M16
G05
G00X91.25Y-165.25
M15
G01X92.75Y-165.25
M16
G05
G00X91.25Y-183.75
M15
G01X92.75Y-183.75
M16
G05
G00X91.25Y-202.25
M15
G01X92.75Y-202.25
M16
G05
G00X96.626Y-175.816
M15
G01X95.566Y-176.876
M16
G05
G00X96.626Y-194.316
M15
G01X95.566Y-195.376
M16
G05
G00X96.626Y-212.816
M15
G01X95.566Y-213.876
M16
G05
G00X98.0Y-168.5
M15
G01X98.0Y-170.0
M16
G05
G00X98.0Y-187.0
M15
G01X98.0Y-188.5
M16
G05
G00X98.0Y-205.5
M15
G01X98.0Y-207.0
M16
G05
M30
