%TF.GenerationSoftware,KiCad,Pcbnew,9.0.7*%
%TF.CreationDate,2026-03-10T18:05:25-03:00*%
%TF.ProjectId,DMH_Output_PANEL,444d485f-4f75-4747-9075-745f50414e45,rev?*%
%TF.SameCoordinates,Original*%
%TF.FileFunction,Soldermask,Bot*%
%TF.FilePolarity,Negative*%
%FSLAX46Y46*%
G04 Gerber Fmt 4.6, Leading zero omitted, Abs format (unit mm)*
G04 Created by KiCad (PCBNEW 9.0.7) date 2026-03-10 18:05:25*
%MOMM*%
%LPD*%
G01*
G04 APERTURE LIST*
%ADD10C,12.000000*%
%ADD11O,2.500000X1.500000*%
%ADD12C,0.500000*%
%ADD13C,4.000000*%
%ADD14R,5.000000X10.000000*%
G04 APERTURE END LIST*
D10*
%TO.C,H15*%
X75000000Y-62000000D03*
D11*
X75000000Y-68000000D03*
%TD*%
D12*
%TO.C,H12*%
X85800000Y-171750000D03*
X87460000Y-167720000D03*
X87470000Y-175790000D03*
X91500000Y-166050000D03*
D10*
X91500000Y-171750000D03*
D12*
X91500000Y-177450000D03*
X95530000Y-175790000D03*
X95540000Y-167720000D03*
X97200000Y-171750000D03*
%TD*%
D13*
%TO.C,H3*%
X53500000Y-226500000D03*
%TD*%
D12*
%TO.C,H7*%
X69300000Y-208750000D03*
X70960000Y-204720000D03*
X70970000Y-212790000D03*
X75000000Y-203050000D03*
D10*
X75000000Y-208750000D03*
D12*
X75000000Y-214450000D03*
X79030000Y-212790000D03*
X79040000Y-204720000D03*
X80700000Y-208750000D03*
%TD*%
%TO.C,H10*%
X52800000Y-190250000D03*
X54460000Y-186220000D03*
X54470000Y-194290000D03*
X58500000Y-184550000D03*
D10*
X58500000Y-190250000D03*
D12*
X58500000Y-195950000D03*
X62530000Y-194290000D03*
X62540000Y-186220000D03*
X64200000Y-190250000D03*
%TD*%
%TO.C,H13*%
X52800000Y-208750000D03*
X54460000Y-204720000D03*
X54470000Y-212790000D03*
X58500000Y-203050000D03*
D10*
X58500000Y-208750000D03*
D12*
X58500000Y-214450000D03*
X62530000Y-212790000D03*
X62540000Y-204720000D03*
X64200000Y-208750000D03*
%TD*%
%TO.C,H9*%
X52800000Y-171750000D03*
X54460000Y-167720000D03*
X54470000Y-175790000D03*
X58500000Y-166050000D03*
D10*
X58500000Y-171750000D03*
D12*
X58500000Y-177450000D03*
X62530000Y-175790000D03*
X62540000Y-167720000D03*
X64200000Y-171750000D03*
%TD*%
D10*
%TO.C,H14*%
X62500000Y-145000000D03*
D11*
X62500000Y-151000000D03*
%TD*%
D12*
%TO.C,H6*%
X85800000Y-190250000D03*
X87460000Y-186220000D03*
X87470000Y-194290000D03*
X91500000Y-184550000D03*
D10*
X91500000Y-190250000D03*
D12*
X91500000Y-195950000D03*
X95530000Y-194290000D03*
X95540000Y-186220000D03*
X97200000Y-190250000D03*
%TD*%
%TO.C,H5*%
X69300000Y-190250000D03*
X70960000Y-186220000D03*
X70970000Y-194290000D03*
X75000000Y-184550000D03*
D10*
X75000000Y-190250000D03*
D12*
X75000000Y-195950000D03*
X79030000Y-194290000D03*
X79040000Y-186220000D03*
X80700000Y-190250000D03*
%TD*%
D13*
%TO.C,H2*%
X96500000Y-33500000D03*
%TD*%
%TO.C,H4*%
X96500000Y-226500000D03*
%TD*%
D12*
%TO.C,H11*%
X69300000Y-171750000D03*
X70960000Y-167720000D03*
X70970000Y-175790000D03*
X75000000Y-166050000D03*
D10*
X75000000Y-171750000D03*
D12*
X75000000Y-177450000D03*
X79030000Y-175790000D03*
X79040000Y-167720000D03*
X80700000Y-171750000D03*
%TD*%
D13*
%TO.C,H1*%
X53500000Y-33500000D03*
%TD*%
D10*
%TO.C,H18*%
X87500000Y-145000000D03*
D11*
X87500000Y-151000000D03*
%TD*%
D12*
%TO.C,H8*%
X85800000Y-208750000D03*
X87460000Y-204720000D03*
X87470000Y-212790000D03*
X91500000Y-203050000D03*
D10*
X91500000Y-208750000D03*
D12*
X91500000Y-214450000D03*
X95530000Y-212790000D03*
X95540000Y-204720000D03*
X97200000Y-208750000D03*
%TD*%
D14*
%TO.C,J0*%
X54000000Y-128000000D03*
%TD*%
G36*
X85943039Y-93019685D02*
G01*
X85988794Y-93072489D01*
X86000000Y-93124000D01*
X86000000Y-94876000D01*
X85980315Y-94943039D01*
X85927511Y-94988794D01*
X85876000Y-95000000D01*
X81124000Y-95000000D01*
X81056961Y-94980315D01*
X81011206Y-94927511D01*
X81000000Y-94876000D01*
X81000000Y-93124000D01*
X81019685Y-93056961D01*
X81072489Y-93011206D01*
X81124000Y-93000000D01*
X85876000Y-93000000D01*
X85943039Y-93019685D01*
G37*
G36*
X85943039Y-97019685D02*
G01*
X85988794Y-97072489D01*
X86000000Y-97124000D01*
X86000000Y-98876000D01*
X85980315Y-98943039D01*
X85927511Y-98988794D01*
X85876000Y-99000000D01*
X81124000Y-99000000D01*
X81056961Y-98980315D01*
X81011206Y-98927511D01*
X81000000Y-98876000D01*
X81000000Y-97124000D01*
X81019685Y-97056961D01*
X81072489Y-97011206D01*
X81124000Y-97000000D01*
X85876000Y-97000000D01*
X85943039Y-97019685D01*
G37*
G36*
X77443039Y-161019685D02*
G01*
X77488794Y-161072489D01*
X77500000Y-161124000D01*
X77500000Y-162876000D01*
X77480315Y-162943039D01*
X77427511Y-162988794D01*
X77376000Y-163000000D01*
X72624000Y-163000000D01*
X72556961Y-162980315D01*
X72511206Y-162927511D01*
X72500000Y-162876000D01*
X72500000Y-161124000D01*
X72519685Y-161056961D01*
X72572489Y-161011206D01*
X72624000Y-161000000D01*
X77376000Y-161000000D01*
X77443039Y-161019685D01*
G37*
G36*
X93943039Y-161019685D02*
G01*
X93988794Y-161072489D01*
X94000000Y-161124000D01*
X94000000Y-162876000D01*
X93980315Y-162943039D01*
X93927511Y-162988794D01*
X93876000Y-163000000D01*
X89124000Y-163000000D01*
X89056961Y-162980315D01*
X89011206Y-162927511D01*
X89000000Y-162876000D01*
X89000000Y-161124000D01*
X89019685Y-161056961D01*
X89072489Y-161011206D01*
X89124000Y-161000000D01*
X93876000Y-161000000D01*
X93943039Y-161019685D01*
G37*
G36*
X68943039Y-117019685D02*
G01*
X68988794Y-117072489D01*
X69000000Y-117124000D01*
X69000000Y-118876000D01*
X68980315Y-118943039D01*
X68927511Y-118988794D01*
X68876000Y-119000000D01*
X64124000Y-119000000D01*
X64056961Y-118980315D01*
X64011206Y-118927511D01*
X64000000Y-118876000D01*
X64000000Y-117124000D01*
X64019685Y-117056961D01*
X64072489Y-117011206D01*
X64124000Y-117000000D01*
X68876000Y-117000000D01*
X68943039Y-117019685D01*
G37*
G36*
X85943039Y-121019685D02*
G01*
X85988794Y-121072489D01*
X86000000Y-121124000D01*
X86000000Y-122876000D01*
X85980315Y-122943039D01*
X85927511Y-122988794D01*
X85876000Y-123000000D01*
X81124000Y-123000000D01*
X81056961Y-122980315D01*
X81011206Y-122927511D01*
X81000000Y-122876000D01*
X81000000Y-121124000D01*
X81019685Y-121056961D01*
X81072489Y-121011206D01*
X81124000Y-121000000D01*
X85876000Y-121000000D01*
X85943039Y-121019685D01*
G37*
G36*
X68943039Y-109019685D02*
G01*
X68988794Y-109072489D01*
X69000000Y-109124000D01*
X69000000Y-110876000D01*
X68980315Y-110943039D01*
X68927511Y-110988794D01*
X68876000Y-111000000D01*
X64124000Y-111000000D01*
X64056961Y-110980315D01*
X64011206Y-110927511D01*
X64000000Y-110876000D01*
X64000000Y-109124000D01*
X64019685Y-109056961D01*
X64072489Y-109011206D01*
X64124000Y-109000000D01*
X68876000Y-109000000D01*
X68943039Y-109019685D01*
G37*
G36*
X68943039Y-105019685D02*
G01*
X68988794Y-105072489D01*
X69000000Y-105124000D01*
X69000000Y-106876000D01*
X68980315Y-106943039D01*
X68927511Y-106988794D01*
X68876000Y-107000000D01*
X64124000Y-107000000D01*
X64056961Y-106980315D01*
X64011206Y-106927511D01*
X64000000Y-106876000D01*
X64000000Y-105124000D01*
X64019685Y-105056961D01*
X64072489Y-105011206D01*
X64124000Y-105000000D01*
X68876000Y-105000000D01*
X68943039Y-105019685D01*
G37*
G36*
X85943039Y-117019685D02*
G01*
X85988794Y-117072489D01*
X86000000Y-117124000D01*
X86000000Y-118876000D01*
X85980315Y-118943039D01*
X85927511Y-118988794D01*
X85876000Y-119000000D01*
X81124000Y-119000000D01*
X81056961Y-118980315D01*
X81011206Y-118927511D01*
X81000000Y-118876000D01*
X81000000Y-117124000D01*
X81019685Y-117056961D01*
X81072489Y-117011206D01*
X81124000Y-117000000D01*
X85876000Y-117000000D01*
X85943039Y-117019685D01*
G37*
G36*
X85943039Y-101019685D02*
G01*
X85988794Y-101072489D01*
X86000000Y-101124000D01*
X86000000Y-102876000D01*
X85980315Y-102943039D01*
X85927511Y-102988794D01*
X85876000Y-103000000D01*
X81124000Y-103000000D01*
X81056961Y-102980315D01*
X81011206Y-102927511D01*
X81000000Y-102876000D01*
X81000000Y-101124000D01*
X81019685Y-101056961D01*
X81072489Y-101011206D01*
X81124000Y-101000000D01*
X85876000Y-101000000D01*
X85943039Y-101019685D01*
G37*
G36*
X68943039Y-93019685D02*
G01*
X68988794Y-93072489D01*
X69000000Y-93124000D01*
X69000000Y-94876000D01*
X68980315Y-94943039D01*
X68927511Y-94988794D01*
X68876000Y-95000000D01*
X64124000Y-95000000D01*
X64056961Y-94980315D01*
X64011206Y-94927511D01*
X64000000Y-94876000D01*
X64000000Y-93124000D01*
X64019685Y-93056961D01*
X64072489Y-93011206D01*
X64124000Y-93000000D01*
X68876000Y-93000000D01*
X68943039Y-93019685D01*
G37*
G36*
X68943039Y-97019685D02*
G01*
X68988794Y-97072489D01*
X69000000Y-97124000D01*
X69000000Y-98876000D01*
X68980315Y-98943039D01*
X68927511Y-98988794D01*
X68876000Y-99000000D01*
X64124000Y-99000000D01*
X64056961Y-98980315D01*
X64011206Y-98927511D01*
X64000000Y-98876000D01*
X64000000Y-97124000D01*
X64019685Y-97056961D01*
X64072489Y-97011206D01*
X64124000Y-97000000D01*
X68876000Y-97000000D01*
X68943039Y-97019685D01*
G37*
G36*
X68943039Y-101019685D02*
G01*
X68988794Y-101072489D01*
X69000000Y-101124000D01*
X69000000Y-102876000D01*
X68980315Y-102943039D01*
X68927511Y-102988794D01*
X68876000Y-103000000D01*
X64124000Y-103000000D01*
X64056961Y-102980315D01*
X64011206Y-102927511D01*
X64000000Y-102876000D01*
X64000000Y-101124000D01*
X64019685Y-101056961D01*
X64072489Y-101011206D01*
X64124000Y-101000000D01*
X68876000Y-101000000D01*
X68943039Y-101019685D01*
G37*
G36*
X68943039Y-121019685D02*
G01*
X68988794Y-121072489D01*
X69000000Y-121124000D01*
X69000000Y-122876000D01*
X68980315Y-122943039D01*
X68927511Y-122988794D01*
X68876000Y-123000000D01*
X64124000Y-123000000D01*
X64056961Y-122980315D01*
X64011206Y-122927511D01*
X64000000Y-122876000D01*
X64000000Y-121124000D01*
X64019685Y-121056961D01*
X64072489Y-121011206D01*
X64124000Y-121000000D01*
X68876000Y-121000000D01*
X68943039Y-121019685D01*
G37*
G36*
X68943039Y-113019685D02*
G01*
X68988794Y-113072489D01*
X69000000Y-113124000D01*
X69000000Y-114876000D01*
X68980315Y-114943039D01*
X68927511Y-114988794D01*
X68876000Y-115000000D01*
X64124000Y-115000000D01*
X64056961Y-114980315D01*
X64011206Y-114927511D01*
X64000000Y-114876000D01*
X64000000Y-113124000D01*
X64019685Y-113056961D01*
X64072489Y-113011206D01*
X64124000Y-113000000D01*
X68876000Y-113000000D01*
X68943039Y-113019685D01*
G37*
G36*
X85943039Y-125019685D02*
G01*
X85988794Y-125072489D01*
X86000000Y-125124000D01*
X86000000Y-126876000D01*
X85980315Y-126943039D01*
X85927511Y-126988794D01*
X85876000Y-127000000D01*
X81124000Y-127000000D01*
X81056961Y-126980315D01*
X81011206Y-126927511D01*
X81000000Y-126876000D01*
X81000000Y-125124000D01*
X81019685Y-125056961D01*
X81072489Y-125011206D01*
X81124000Y-125000000D01*
X85876000Y-125000000D01*
X85943039Y-125019685D01*
G37*
G36*
X85943039Y-105019685D02*
G01*
X85988794Y-105072489D01*
X86000000Y-105124000D01*
X86000000Y-106876000D01*
X85980315Y-106943039D01*
X85927511Y-106988794D01*
X85876000Y-107000000D01*
X81124000Y-107000000D01*
X81056961Y-106980315D01*
X81011206Y-106927511D01*
X81000000Y-106876000D01*
X81000000Y-105124000D01*
X81019685Y-105056961D01*
X81072489Y-105011206D01*
X81124000Y-105000000D01*
X85876000Y-105000000D01*
X85943039Y-105019685D01*
G37*
G36*
X68943039Y-125019685D02*
G01*
X68988794Y-125072489D01*
X69000000Y-125124000D01*
X69000000Y-126876000D01*
X68980315Y-126943039D01*
X68927511Y-126988794D01*
X68876000Y-127000000D01*
X64124000Y-127000000D01*
X64056961Y-126980315D01*
X64011206Y-126927511D01*
X64000000Y-126876000D01*
X64000000Y-125124000D01*
X64019685Y-125056961D01*
X64072489Y-125011206D01*
X64124000Y-125000000D01*
X68876000Y-125000000D01*
X68943039Y-125019685D01*
G37*
G36*
X85943039Y-113019685D02*
G01*
X85988794Y-113072489D01*
X86000000Y-113124000D01*
X86000000Y-114876000D01*
X85980315Y-114943039D01*
X85927511Y-114988794D01*
X85876000Y-115000000D01*
X81124000Y-115000000D01*
X81056961Y-114980315D01*
X81011206Y-114927511D01*
X81000000Y-114876000D01*
X81000000Y-113124000D01*
X81019685Y-113056961D01*
X81072489Y-113011206D01*
X81124000Y-113000000D01*
X85876000Y-113000000D01*
X85943039Y-113019685D01*
G37*
G36*
X68943039Y-89019685D02*
G01*
X68988794Y-89072489D01*
X69000000Y-89124000D01*
X69000000Y-90876000D01*
X68980315Y-90943039D01*
X68927511Y-90988794D01*
X68876000Y-91000000D01*
X64124000Y-91000000D01*
X64056961Y-90980315D01*
X64011206Y-90927511D01*
X64000000Y-90876000D01*
X64000000Y-89124000D01*
X64019685Y-89056961D01*
X64072489Y-89011206D01*
X64124000Y-89000000D01*
X68876000Y-89000000D01*
X68943039Y-89019685D01*
G37*
G36*
X85943039Y-89019685D02*
G01*
X85988794Y-89072489D01*
X86000000Y-89124000D01*
X86000000Y-90876000D01*
X85980315Y-90943039D01*
X85927511Y-90988794D01*
X85876000Y-91000000D01*
X81124000Y-91000000D01*
X81056961Y-90980315D01*
X81011206Y-90927511D01*
X81000000Y-90876000D01*
X81000000Y-89124000D01*
X81019685Y-89056961D01*
X81072489Y-89011206D01*
X81124000Y-89000000D01*
X85876000Y-89000000D01*
X85943039Y-89019685D01*
G37*
G36*
X85943039Y-109019685D02*
G01*
X85988794Y-109072489D01*
X86000000Y-109124000D01*
X86000000Y-110876000D01*
X85980315Y-110943039D01*
X85927511Y-110988794D01*
X85876000Y-111000000D01*
X81124000Y-111000000D01*
X81056961Y-110980315D01*
X81011206Y-110927511D01*
X81000000Y-110876000D01*
X81000000Y-109124000D01*
X81019685Y-109056961D01*
X81072489Y-109011206D01*
X81124000Y-109000000D01*
X85876000Y-109000000D01*
X85943039Y-109019685D01*
G37*
M02*
