%TF.GenerationSoftware,KiCad,Pcbnew,9.0.7*%
%TF.CreationDate,2026-03-10T18:05:25-03:00*%
%TF.ProjectId,DMH_Output_PANEL,444d485f-4f75-4747-9075-745f50414e45,rev?*%
%TF.SameCoordinates,Original*%
%TF.FileFunction,Profile,NP*%
%FSLAX46Y46*%
G04 Gerber Fmt 4.6, Leading zero omitted, Abs format (unit mm)*
G04 Created by KiCad (PCBNEW 9.0.7) date 2026-03-10 18:05:25*
%MOMM*%
%LPD*%
G01*
G04 APERTURE LIST*
%TA.AperFunction,Profile*%
%ADD10C,0.050000*%
%TD*%
G04 APERTURE END LIST*
D10*
X50000000Y-30000000D02*
X100000000Y-30000000D01*
X100000000Y-230000000D01*
X50000000Y-230000000D01*
X50000000Y-30000000D01*
%TO.C,H15*%
X78500000Y-62000000D02*
G75*
G02*
X71500000Y-62000000I-3500000J0D01*
G01*
X71500000Y-62000000D02*
G75*
G02*
X78500000Y-62000000I3500000J0D01*
G01*
%TO.C,H12*%
X96400000Y-171750000D02*
G75*
G02*
X86600000Y-171750000I-4900000J0D01*
G01*
X86600000Y-171750000D02*
G75*
G02*
X96400000Y-171750000I4900000J0D01*
G01*
%TO.C,H7*%
X79900000Y-208750000D02*
G75*
G02*
X70100000Y-208750000I-4900000J0D01*
G01*
X70100000Y-208750000D02*
G75*
G02*
X79900000Y-208750000I4900000J0D01*
G01*
%TO.C,H10*%
X63400000Y-190250000D02*
G75*
G02*
X53600000Y-190250000I-4900000J0D01*
G01*
X53600000Y-190250000D02*
G75*
G02*
X63400000Y-190250000I4900000J0D01*
G01*
%TO.C,H13*%
X63400000Y-208750000D02*
G75*
G02*
X53600000Y-208750000I-4900000J0D01*
G01*
X53600000Y-208750000D02*
G75*
G02*
X63400000Y-208750000I4900000J0D01*
G01*
%TO.C,H9*%
X63400000Y-171750000D02*
G75*
G02*
X53600000Y-171750000I-4900000J0D01*
G01*
X53600000Y-171750000D02*
G75*
G02*
X63400000Y-171750000I4900000J0D01*
G01*
%TO.C,H14*%
X66000000Y-145000000D02*
G75*
G02*
X59000000Y-145000000I-3500000J0D01*
G01*
X59000000Y-145000000D02*
G75*
G02*
X66000000Y-145000000I3500000J0D01*
G01*
%TO.C,H6*%
X96400000Y-190250000D02*
G75*
G02*
X86600000Y-190250000I-4900000J0D01*
G01*
X86600000Y-190250000D02*
G75*
G02*
X96400000Y-190250000I4900000J0D01*
G01*
%TO.C,H5*%
X79900000Y-190250000D02*
G75*
G02*
X70100000Y-190250000I-4900000J0D01*
G01*
X70100000Y-190250000D02*
G75*
G02*
X79900000Y-190250000I4900000J0D01*
G01*
%TO.C,H11*%
X79900000Y-171750000D02*
G75*
G02*
X70100000Y-171750000I-4900000J0D01*
G01*
X70100000Y-171750000D02*
G75*
G02*
X79900000Y-171750000I4900000J0D01*
G01*
%TO.C,H18*%
X91000000Y-145000000D02*
G75*
G02*
X84000000Y-145000000I-3500000J0D01*
G01*
X84000000Y-145000000D02*
G75*
G02*
X91000000Y-145000000I3500000J0D01*
G01*
%TO.C,H8*%
X96400000Y-208750000D02*
G75*
G02*
X86600000Y-208750000I-4900000J0D01*
G01*
X86600000Y-208750000D02*
G75*
G02*
X96400000Y-208750000I4900000J0D01*
G01*
%TD*%
M02*
