%TF.GenerationSoftware,KiCad,Pcbnew,9.0.7*%
%TF.CreationDate,2026-03-10T18:05:25-03:00*%
%TF.ProjectId,DMH_Output_PANEL,444d485f-4f75-4747-9075-745f50414e45,rev?*%
%TF.SameCoordinates,Original*%
%TF.FileFunction,Legend,Top*%
%TF.FilePolarity,Positive*%
%FSLAX46Y46*%
G04 Gerber Fmt 4.6, Leading zero omitted, Abs format (unit mm)*
G04 Created by KiCad (PCBNEW 9.0.7) date 2026-03-10 18:05:25*
%MOMM*%
%LPD*%
G01*
G04 APERTURE LIST*
%ADD10C,0.250000*%
%ADD11C,0.300000*%
%ADD12C,0.800000*%
%ADD13C,0.875000*%
%ADD14C,0.150000*%
%ADD15C,0.500000*%
%ADD16C,0.000000*%
%ADD17C,12.000000*%
%ADD18O,2.500000X1.500000*%
%ADD19C,0.500000*%
%ADD20C,4.000000*%
G04 APERTURE END LIST*
D10*
X50500000Y-201250000D02*
X50500000Y-164250000D01*
X67000000Y-182750000D02*
X99500000Y-182750000D01*
X67000000Y-201250000D02*
X67000000Y-182750000D01*
X50500000Y-164250000D02*
X99500000Y-164250000D01*
X50500000Y-201250000D02*
X67000000Y-201250000D01*
X99500000Y-182750000D02*
X99500000Y-164250000D01*
D11*
G36*
X58017695Y-126036317D02*
G01*
X58588948Y-126036317D01*
X58588948Y-125794883D01*
X58017695Y-125794883D01*
X58017695Y-126036317D01*
G37*
G36*
X58644819Y-125203937D02*
G01*
X58644819Y-125579918D01*
X59486907Y-125579918D01*
X59499681Y-125582603D01*
X59507544Y-125589672D01*
X59509988Y-125598786D01*
X59506929Y-125611200D01*
X59497240Y-125620842D01*
X59488922Y-125625989D01*
X59243275Y-125781144D01*
X59199969Y-125812681D01*
X59171497Y-125846980D01*
X59161825Y-125870397D01*
X59157450Y-125897476D01*
X59157179Y-125906990D01*
X59160494Y-125942866D01*
X59171974Y-125975256D01*
X59186162Y-125994778D01*
X59206314Y-126010791D01*
X59230435Y-126021668D01*
X59260722Y-126028495D01*
X59295757Y-126030730D01*
X59581337Y-126030730D01*
X59618092Y-126033570D01*
X59647908Y-126041730D01*
X59669736Y-126053552D01*
X59686399Y-126069037D01*
X59705835Y-126109710D01*
X59709473Y-126143936D01*
X59706407Y-126175734D01*
X59696668Y-126203903D01*
X59683207Y-126223472D01*
X59664317Y-126239345D01*
X59641446Y-126250303D01*
X59613124Y-126257089D01*
X59581337Y-126259249D01*
X58640606Y-126259249D01*
X58640606Y-126622500D01*
X59694727Y-126622500D01*
X59753705Y-126619630D01*
X59808904Y-126611266D01*
X59860506Y-126597690D01*
X59908132Y-126579306D01*
X59992099Y-126528863D01*
X60059917Y-126461875D01*
X60109971Y-126380450D01*
X60140087Y-126287475D01*
X60148378Y-126202646D01*
X60145491Y-126142997D01*
X60137003Y-126088376D01*
X60123701Y-126040208D01*
X60105634Y-125996584D01*
X60083392Y-125957945D01*
X60056978Y-125923564D01*
X59991667Y-125866666D01*
X59908508Y-125824907D01*
X59805299Y-125799235D01*
X59778808Y-125795890D01*
X59768616Y-125791059D01*
X59764341Y-125782610D01*
X59764062Y-125779037D01*
X59772488Y-125762276D01*
X60003481Y-125594573D01*
X60045687Y-125558553D01*
X60077740Y-125520762D01*
X60094626Y-125490686D01*
X60105551Y-125457966D01*
X60110551Y-125411849D01*
X60107622Y-125373894D01*
X60098849Y-125338457D01*
X60085118Y-125307596D01*
X60066142Y-125279908D01*
X60042944Y-125256671D01*
X60014917Y-125237169D01*
X59982418Y-125221924D01*
X59945208Y-125211105D01*
X59873238Y-125203937D01*
X58644819Y-125203937D01*
G37*
G36*
X61249932Y-125204385D02*
G01*
X61325227Y-125209419D01*
X61395987Y-125219838D01*
X61462789Y-125235512D01*
X61525274Y-125256127D01*
X61585028Y-125282133D01*
X61640537Y-125312785D01*
X61694331Y-125349594D01*
X61743803Y-125390874D01*
X61795942Y-125444460D01*
X61871841Y-125548649D01*
X61927437Y-125663836D01*
X61961298Y-125786382D01*
X61972689Y-125913310D01*
X61972665Y-125919225D01*
X61969136Y-125986019D01*
X61959791Y-126050866D01*
X61944587Y-126114594D01*
X61923923Y-126175744D01*
X61897734Y-126234728D01*
X61866538Y-126290484D01*
X61830477Y-126342919D01*
X61789964Y-126391507D01*
X61721749Y-126456841D01*
X61619847Y-126526912D01*
X61563615Y-126555048D01*
X61503385Y-126578601D01*
X61439008Y-126597366D01*
X61370480Y-126611087D01*
X61296840Y-126619608D01*
X61218803Y-126622500D01*
X61002464Y-126622500D01*
X60895277Y-126616951D01*
X60824284Y-126606490D01*
X60757468Y-126590867D01*
X60694283Y-126570127D01*
X60635199Y-126544601D01*
X60578916Y-126513770D01*
X60526774Y-126478415D01*
X60476885Y-126437134D01*
X60431303Y-126391507D01*
X60422988Y-126382258D01*
X60348492Y-126280255D01*
X60293608Y-126165945D01*
X60259964Y-126042679D01*
X60248755Y-125915325D01*
X60628681Y-125915325D01*
X60636068Y-125984646D01*
X60648466Y-126027687D01*
X60666323Y-126068178D01*
X60689302Y-126105761D01*
X60716884Y-126139723D01*
X60736339Y-126159353D01*
X60804497Y-126206823D01*
X60845393Y-126224407D01*
X60891220Y-126237466D01*
X60943914Y-126245845D01*
X61002464Y-126248716D01*
X61218803Y-126248716D01*
X61253394Y-126247748D01*
X61306788Y-126241936D01*
X61354867Y-126231157D01*
X61398360Y-126215537D01*
X61437002Y-126195498D01*
X61473092Y-126169721D01*
X61504384Y-126139723D01*
X61548159Y-126080498D01*
X61581363Y-126000513D01*
X61592586Y-125915325D01*
X61592523Y-125908832D01*
X61588581Y-125863760D01*
X61578782Y-125820292D01*
X61563256Y-125778409D01*
X61542490Y-125739275D01*
X61487531Y-125672151D01*
X61483333Y-125668310D01*
X61415448Y-125621087D01*
X61375912Y-125603927D01*
X61331207Y-125591110D01*
X61278575Y-125582783D01*
X61218803Y-125579918D01*
X61002464Y-125579918D01*
X60898681Y-125589285D01*
X60852098Y-125601564D01*
X60811018Y-125618419D01*
X60769801Y-125642822D01*
X60733645Y-125672151D01*
X60726823Y-125678721D01*
X60697803Y-125711677D01*
X60673326Y-125748362D01*
X60639951Y-125829285D01*
X60628681Y-125915325D01*
X60248755Y-125915325D01*
X60248578Y-125913310D01*
X60251689Y-125846685D01*
X60260817Y-125781796D01*
X60275684Y-125718838D01*
X60296465Y-125656936D01*
X60322629Y-125597655D01*
X60354269Y-125540678D01*
X60390811Y-125487022D01*
X60477464Y-125390874D01*
X60502507Y-125368998D01*
X60604156Y-125299016D01*
X60659836Y-125271063D01*
X60719586Y-125247608D01*
X60783299Y-125228971D01*
X60851328Y-125215310D01*
X60924555Y-125206824D01*
X61002464Y-125203937D01*
X61218803Y-125203937D01*
X61249932Y-125204385D01*
G37*
G36*
X58417765Y-118036317D02*
G01*
X58989018Y-118036317D01*
X58989018Y-117794883D01*
X58417765Y-117794883D01*
X58417765Y-118036317D01*
G37*
G36*
X59114223Y-117203937D02*
G01*
X59114223Y-117579918D01*
X59347322Y-117579918D01*
X59369936Y-117582874D01*
X59386324Y-117591841D01*
X59400556Y-117620312D01*
X59402002Y-117638628D01*
X59402002Y-118622500D01*
X59779999Y-118622500D01*
X59779999Y-117581933D01*
X59776956Y-117502497D01*
X59767381Y-117433072D01*
X59754427Y-117384137D01*
X59736425Y-117341406D01*
X59716155Y-117308861D01*
X59691475Y-117280901D01*
X59631370Y-117239963D01*
X59550033Y-117214117D01*
X59429297Y-117203937D01*
X59114223Y-117203937D01*
G37*
G36*
X61196088Y-117209148D02*
G01*
X61300309Y-117233657D01*
X61388116Y-117276749D01*
X61426609Y-117305293D01*
X61461336Y-117338393D01*
X61474058Y-117352593D01*
X61525254Y-117429739D01*
X61557216Y-117519173D01*
X61565542Y-117568598D01*
X61568406Y-117621501D01*
X61561455Y-117697305D01*
X61534039Y-117782497D01*
X61488158Y-117853287D01*
X61425615Y-117908181D01*
X61458286Y-117928582D01*
X61487167Y-117953502D01*
X61514908Y-117986013D01*
X61537933Y-118022826D01*
X61557405Y-118066364D01*
X61571432Y-118113203D01*
X61580222Y-118164328D01*
X61583152Y-118217117D01*
X61573282Y-118305562D01*
X61559269Y-118353449D01*
X61539735Y-118398748D01*
X61514487Y-118442050D01*
X61484417Y-118481816D01*
X61432496Y-118532229D01*
X61353948Y-118580293D01*
X61307680Y-118598060D01*
X61256377Y-118611218D01*
X61198034Y-118619624D01*
X61133715Y-118622500D01*
X60417656Y-118622500D01*
X60328411Y-118616787D01*
X60274168Y-118606605D01*
X60225096Y-118591674D01*
X60179834Y-118571746D01*
X60139373Y-118547463D01*
X60100761Y-118516779D01*
X60066954Y-118481816D01*
X60012765Y-118400970D01*
X59979452Y-118311386D01*
X59968218Y-118217117D01*
X59968746Y-118194556D01*
X59974785Y-118156209D01*
X60367189Y-118156209D01*
X60370912Y-118186030D01*
X60380860Y-118212190D01*
X60396590Y-118236077D01*
X60400280Y-118240276D01*
X60418060Y-118255531D01*
X60440796Y-118267321D01*
X60470789Y-118275302D01*
X60507965Y-118278117D01*
X61043406Y-118278117D01*
X61048765Y-118278066D01*
X61083424Y-118274810D01*
X61111612Y-118266910D01*
X61136106Y-118253544D01*
X61154689Y-118236077D01*
X61172807Y-118207383D01*
X61184090Y-118156209D01*
X61180013Y-118127168D01*
X61169068Y-118101156D01*
X61152582Y-118078357D01*
X61151367Y-118077047D01*
X61112126Y-118049560D01*
X61082118Y-118041281D01*
X61043406Y-118038423D01*
X60507965Y-118038423D01*
X60449311Y-118045939D01*
X60420903Y-118059209D01*
X60398696Y-118078357D01*
X60377810Y-118109744D01*
X60367189Y-118156209D01*
X59974785Y-118156209D01*
X59984164Y-118096650D01*
X60017784Y-118014877D01*
X60065691Y-117951990D01*
X60125755Y-117908181D01*
X60079354Y-117870571D01*
X60051077Y-117838288D01*
X60027533Y-117802282D01*
X60008398Y-117761826D01*
X59994508Y-117718267D01*
X59985972Y-117671601D01*
X60375615Y-117671601D01*
X60377640Y-117691015D01*
X60386555Y-117717367D01*
X60400803Y-117740478D01*
X60404692Y-117745224D01*
X60443146Y-117773241D01*
X60471242Y-117781416D01*
X60505858Y-117784258D01*
X61045512Y-117784258D01*
X61049752Y-117784221D01*
X61081793Y-117781100D01*
X61108123Y-117773269D01*
X61131978Y-117759284D01*
X61150567Y-117740478D01*
X61165480Y-117715945D01*
X61175755Y-117671601D01*
X61173775Y-117652366D01*
X61164863Y-117625911D01*
X61150567Y-117602725D01*
X61147549Y-117599267D01*
X61108189Y-117571747D01*
X61080090Y-117563773D01*
X61045512Y-117560959D01*
X60505858Y-117560959D01*
X60445808Y-117570692D01*
X60420390Y-117584368D01*
X60400803Y-117602725D01*
X60385890Y-117627231D01*
X60375615Y-117671601D01*
X59985972Y-117671601D01*
X59985873Y-117671060D01*
X59982965Y-117621501D01*
X59983086Y-117610436D01*
X59987203Y-117557449D01*
X59996863Y-117508052D01*
X60012252Y-117460723D01*
X60032663Y-117417261D01*
X60059091Y-117375667D01*
X60090034Y-117338393D01*
X60132714Y-117298775D01*
X60172305Y-117271036D01*
X60215641Y-117247994D01*
X60264239Y-117229204D01*
X60316694Y-117215555D01*
X60375627Y-117206855D01*
X60438630Y-117203937D01*
X61112740Y-117203937D01*
X61196088Y-117209148D01*
G37*
G36*
X88027953Y-122036317D02*
G01*
X88599206Y-122036317D01*
X88599206Y-121794883D01*
X88027953Y-121794883D01*
X88027953Y-122036317D01*
G37*
G36*
X88687408Y-121579918D02*
G01*
X89670181Y-121579918D01*
X89705366Y-121582925D01*
X89732834Y-121592245D01*
X89748701Y-121604131D01*
X89759675Y-121620310D01*
X89766809Y-121657496D01*
X89763860Y-121680289D01*
X89754939Y-121699781D01*
X89721655Y-121729030D01*
X89695460Y-121741302D01*
X88865919Y-122072587D01*
X88816831Y-122095510D01*
X88775646Y-122120914D01*
X88741911Y-122148262D01*
X88714817Y-122177275D01*
X88677359Y-122240726D01*
X88659770Y-122311902D01*
X88658008Y-122345345D01*
X88660974Y-122386946D01*
X88670013Y-122427896D01*
X88684453Y-122465435D01*
X88704770Y-122500767D01*
X88729274Y-122531140D01*
X88759236Y-122558244D01*
X88792806Y-122580327D01*
X88831541Y-122598341D01*
X88874269Y-122611433D01*
X88922115Y-122619654D01*
X88975096Y-122622500D01*
X90188952Y-122622500D01*
X90188952Y-122259249D01*
X89290078Y-122259249D01*
X89278297Y-122256488D01*
X89269936Y-122248885D01*
X89266997Y-122238275D01*
X89277696Y-122220526D01*
X89283849Y-122217301D01*
X89924346Y-121984568D01*
X89974697Y-121962992D01*
X90020313Y-121937252D01*
X90061339Y-121907532D01*
X90097413Y-121874347D01*
X90128689Y-121837762D01*
X90154768Y-121798419D01*
X90191231Y-121712202D01*
X90205541Y-121618787D01*
X90205714Y-121607121D01*
X90202805Y-121555046D01*
X90194172Y-121505351D01*
X90180225Y-121459087D01*
X90161000Y-121415718D01*
X90137024Y-121376107D01*
X90108175Y-121339872D01*
X90074914Y-121307579D01*
X90037114Y-121279147D01*
X89994975Y-121254888D01*
X89948553Y-121235017D01*
X89897688Y-121219739D01*
X89842737Y-121209446D01*
X89758383Y-121203937D01*
X88687408Y-121203937D01*
X88687408Y-121579918D01*
G37*
G36*
X91723362Y-121176315D02*
G01*
X91797495Y-121202230D01*
X91857101Y-121244603D01*
X91899594Y-121300744D01*
X91915734Y-121337110D01*
X91928003Y-121380224D01*
X91936145Y-121433223D01*
X91938983Y-121495288D01*
X91938983Y-122622500D01*
X91556865Y-122622500D01*
X91556865Y-122426769D01*
X90567773Y-122426769D01*
X90485757Y-122420475D01*
X90445124Y-122410784D01*
X90410901Y-122397055D01*
X90380443Y-122378177D01*
X90355648Y-122355420D01*
X90347538Y-122345687D01*
X90328702Y-122315983D01*
X90315138Y-122282633D01*
X90306128Y-122242163D01*
X90303166Y-122198341D01*
X90303234Y-122192523D01*
X90314288Y-122128859D01*
X90327537Y-122098559D01*
X90345861Y-122070205D01*
X90884861Y-122070205D01*
X90888567Y-122083559D01*
X90896308Y-122090685D01*
X90907942Y-122093378D01*
X91556865Y-122093378D01*
X91556865Y-121653191D01*
X91554161Y-121635521D01*
X91547138Y-121622496D01*
X91525358Y-121611059D01*
X91509306Y-121613429D01*
X91491744Y-121623699D01*
X90899516Y-122047033D01*
X90898385Y-122047733D01*
X90888017Y-122057450D01*
X90884861Y-122070205D01*
X90345861Y-122070205D01*
X90347222Y-122068099D01*
X90355405Y-122057670D01*
X90388270Y-122023867D01*
X90441744Y-121981728D01*
X91451810Y-121240390D01*
X91482512Y-121219291D01*
X91560292Y-121181834D01*
X91603761Y-121171865D01*
X91649189Y-121168766D01*
X91723362Y-121176315D01*
G37*
G36*
X58475650Y-114036317D02*
G01*
X59046903Y-114036317D01*
X59046903Y-113794883D01*
X58475650Y-113794883D01*
X58475650Y-114036317D01*
G37*
G36*
X59172108Y-113203937D02*
G01*
X59172108Y-113579918D01*
X59405207Y-113579918D01*
X59427821Y-113582874D01*
X59444209Y-113591841D01*
X59458441Y-113620312D01*
X59459887Y-113638628D01*
X59459887Y-114622500D01*
X59837884Y-114622500D01*
X59837884Y-113581933D01*
X59834841Y-113502497D01*
X59825266Y-113433072D01*
X59812312Y-113384137D01*
X59794310Y-113341406D01*
X59774040Y-113308861D01*
X59749360Y-113280901D01*
X59689255Y-113239963D01*
X59607918Y-113214117D01*
X59487182Y-113203937D01*
X59172108Y-113203937D01*
G37*
G36*
X60026103Y-113579918D02*
G01*
X61008876Y-113579918D01*
X61044061Y-113582925D01*
X61071529Y-113592245D01*
X61087396Y-113604131D01*
X61098370Y-113620310D01*
X61105504Y-113657496D01*
X61102555Y-113680289D01*
X61093634Y-113699781D01*
X61060349Y-113729030D01*
X61034155Y-113741302D01*
X60204614Y-114072587D01*
X60155526Y-114095510D01*
X60114341Y-114120914D01*
X60080606Y-114148262D01*
X60053512Y-114177275D01*
X60016054Y-114240726D01*
X59998465Y-114311902D01*
X59996703Y-114345345D01*
X59999669Y-114386946D01*
X60008708Y-114427896D01*
X60023148Y-114465435D01*
X60043465Y-114500767D01*
X60067969Y-114531140D01*
X60097931Y-114558244D01*
X60131501Y-114580327D01*
X60170236Y-114598341D01*
X60212964Y-114611433D01*
X60260810Y-114619654D01*
X60313791Y-114622500D01*
X61527647Y-114622500D01*
X61527647Y-114259249D01*
X60628773Y-114259249D01*
X60616992Y-114256488D01*
X60608631Y-114248885D01*
X60605692Y-114238275D01*
X60616391Y-114220526D01*
X60622544Y-114217301D01*
X61263041Y-113984568D01*
X61313392Y-113962992D01*
X61359008Y-113937252D01*
X61400034Y-113907532D01*
X61436108Y-113874347D01*
X61467384Y-113837762D01*
X61493462Y-113798419D01*
X61529926Y-113712202D01*
X61544236Y-113618787D01*
X61544408Y-113607121D01*
X61541500Y-113555046D01*
X61532867Y-113505351D01*
X61518920Y-113459087D01*
X61499695Y-113415718D01*
X61475719Y-113376107D01*
X61446870Y-113339872D01*
X61413609Y-113307579D01*
X61375809Y-113279147D01*
X61333670Y-113254888D01*
X61287248Y-113235017D01*
X61236383Y-113219739D01*
X61181432Y-113209446D01*
X61097078Y-113203937D01*
X60026103Y-113203937D01*
X60026103Y-113579918D01*
G37*
G36*
X59719456Y-89766673D02*
G01*
X59301526Y-89766673D01*
X59301526Y-89344621D01*
X59022265Y-89344621D01*
X59022265Y-89766673D01*
X58602228Y-89766673D01*
X58602228Y-90046025D01*
X59022265Y-90046025D01*
X59022265Y-90461849D01*
X59301526Y-90461849D01*
X59301526Y-90046025D01*
X59719456Y-90046025D01*
X59719456Y-89766673D01*
G37*
G36*
X60807031Y-89260804D02*
G01*
X60772662Y-89312930D01*
X60541669Y-89639727D01*
X60535349Y-89654474D01*
X60541669Y-89662808D01*
X60562769Y-89659540D01*
X60604690Y-89652107D01*
X60664260Y-89646427D01*
X60755809Y-89643941D01*
X60944853Y-89643941D01*
X61054244Y-89652360D01*
X61110674Y-89664440D01*
X61162636Y-89681436D01*
X61211633Y-89703750D01*
X61256267Y-89730632D01*
X61299131Y-89763851D01*
X61337504Y-89801477D01*
X61365622Y-89835468D01*
X61420581Y-89927481D01*
X61454300Y-90028228D01*
X61465640Y-90133220D01*
X61455694Y-90232368D01*
X61441931Y-90285099D01*
X61422695Y-90335431D01*
X61398272Y-90382982D01*
X61369011Y-90427227D01*
X61341246Y-90461672D01*
X61266385Y-90529211D01*
X61176455Y-90579376D01*
X61125378Y-90597699D01*
X61069993Y-90611202D01*
X61009686Y-90619622D01*
X60944853Y-90622500D01*
X60413533Y-90622500D01*
X60291632Y-90613639D01*
X60234028Y-90601727D01*
X60182114Y-90585209D01*
X60133326Y-90563321D01*
X60089637Y-90537074D01*
X60045386Y-90502348D01*
X60006136Y-90462948D01*
X59977085Y-90427657D01*
X59922620Y-90336260D01*
X59889317Y-90236983D01*
X59878092Y-90133220D01*
X59880551Y-90103819D01*
X60283382Y-90103819D01*
X60293681Y-90160208D01*
X60325331Y-90210981D01*
X60335054Y-90220501D01*
X60356869Y-90236266D01*
X60383578Y-90248311D01*
X60417960Y-90256417D01*
X60459787Y-90259249D01*
X60907026Y-90259249D01*
X60922576Y-90258895D01*
X60959925Y-90254507D01*
X60990828Y-90245515D01*
X61019047Y-90230489D01*
X61041482Y-90210981D01*
X61071984Y-90163129D01*
X61083430Y-90103819D01*
X61076762Y-90056435D01*
X61051923Y-90009297D01*
X61032424Y-89988474D01*
X61009483Y-89971953D01*
X60982067Y-89959517D01*
X60947679Y-89951246D01*
X60907026Y-89948389D01*
X60459787Y-89948389D01*
X60425127Y-89950422D01*
X60391378Y-89957383D01*
X60362825Y-89968923D01*
X60336366Y-89986761D01*
X60314890Y-90009297D01*
X60295148Y-90042113D01*
X60286318Y-90071830D01*
X60283382Y-90103819D01*
X59880551Y-90103819D01*
X59885486Y-90044830D01*
X59897608Y-89993413D01*
X59916442Y-89940566D01*
X59946579Y-89877847D01*
X59987268Y-89809812D01*
X60350519Y-89252206D01*
X60373691Y-89203937D01*
X60833570Y-89203937D01*
X60807031Y-89260804D01*
G37*
G36*
X89719456Y-89766673D02*
G01*
X89301526Y-89766673D01*
X89301526Y-89344621D01*
X89022265Y-89344621D01*
X89022265Y-89766673D01*
X88602228Y-89766673D01*
X88602228Y-90046025D01*
X89022265Y-90046025D01*
X89022265Y-90461849D01*
X89301526Y-90461849D01*
X89301526Y-90046025D01*
X89719456Y-90046025D01*
X89719456Y-89766673D01*
G37*
G36*
X90807031Y-89260804D02*
G01*
X90772662Y-89312930D01*
X90541669Y-89639727D01*
X90535349Y-89654474D01*
X90541669Y-89662808D01*
X90562769Y-89659540D01*
X90604690Y-89652107D01*
X90664260Y-89646427D01*
X90755809Y-89643941D01*
X90944853Y-89643941D01*
X91054244Y-89652360D01*
X91110674Y-89664440D01*
X91162636Y-89681436D01*
X91211633Y-89703750D01*
X91256267Y-89730632D01*
X91299131Y-89763851D01*
X91337504Y-89801477D01*
X91365622Y-89835468D01*
X91420581Y-89927481D01*
X91454300Y-90028228D01*
X91465640Y-90133220D01*
X91455694Y-90232368D01*
X91441931Y-90285099D01*
X91422695Y-90335431D01*
X91398272Y-90382982D01*
X91369011Y-90427227D01*
X91341246Y-90461672D01*
X91266385Y-90529211D01*
X91176455Y-90579376D01*
X91125378Y-90597699D01*
X91069993Y-90611202D01*
X91009686Y-90619622D01*
X90944853Y-90622500D01*
X90413533Y-90622500D01*
X90291632Y-90613639D01*
X90234028Y-90601727D01*
X90182114Y-90585209D01*
X90133326Y-90563321D01*
X90089637Y-90537074D01*
X90045386Y-90502348D01*
X90006136Y-90462948D01*
X89977085Y-90427657D01*
X89922620Y-90336260D01*
X89889317Y-90236983D01*
X89878092Y-90133220D01*
X89880551Y-90103819D01*
X90283382Y-90103819D01*
X90293681Y-90160208D01*
X90325331Y-90210981D01*
X90335054Y-90220501D01*
X90356869Y-90236266D01*
X90383578Y-90248311D01*
X90417960Y-90256417D01*
X90459787Y-90259249D01*
X90907026Y-90259249D01*
X90922576Y-90258895D01*
X90959925Y-90254507D01*
X90990828Y-90245515D01*
X91019047Y-90230489D01*
X91041482Y-90210981D01*
X91071984Y-90163129D01*
X91083430Y-90103819D01*
X91076762Y-90056435D01*
X91051923Y-90009297D01*
X91032424Y-89988474D01*
X91009483Y-89971953D01*
X90982067Y-89959517D01*
X90947679Y-89951246D01*
X90907026Y-89948389D01*
X90459787Y-89948389D01*
X90425127Y-89950422D01*
X90391378Y-89957383D01*
X90362825Y-89968923D01*
X90336366Y-89986761D01*
X90314890Y-90009297D01*
X90295148Y-90042113D01*
X90286318Y-90071830D01*
X90283382Y-90103819D01*
X89880551Y-90103819D01*
X89885486Y-90044830D01*
X89897608Y-89993413D01*
X89916442Y-89940566D01*
X89946579Y-89877847D01*
X89987268Y-89809812D01*
X90350519Y-89252206D01*
X90373691Y-89203937D01*
X90833570Y-89203937D01*
X90807031Y-89260804D01*
G37*
G36*
X88877185Y-110036317D02*
G01*
X89448438Y-110036317D01*
X89448438Y-109794883D01*
X88877185Y-109794883D01*
X88877185Y-110036317D01*
G37*
G36*
X90737112Y-109212794D02*
G01*
X90794718Y-109224709D01*
X90846634Y-109241232D01*
X90895441Y-109263133D01*
X90939145Y-109289394D01*
X90983429Y-109324151D01*
X91022706Y-109363580D01*
X91051757Y-109398871D01*
X91106222Y-109490268D01*
X91139525Y-109589545D01*
X91150750Y-109693308D01*
X91143355Y-109781698D01*
X91131234Y-109833116D01*
X91112400Y-109885962D01*
X91082263Y-109948681D01*
X91041573Y-110016716D01*
X90678232Y-110574323D01*
X90655151Y-110622500D01*
X90195272Y-110622500D01*
X90221810Y-110565713D01*
X90256180Y-110513598D01*
X90487173Y-110186801D01*
X90493492Y-110172055D01*
X90487173Y-110163720D01*
X90466076Y-110166987D01*
X90424137Y-110174421D01*
X90364539Y-110180101D01*
X90272941Y-110182588D01*
X90083989Y-110182588D01*
X89974731Y-110174190D01*
X89918282Y-110162120D01*
X89866298Y-110145131D01*
X89817268Y-110122820D01*
X89772598Y-110095936D01*
X89729678Y-110062700D01*
X89691246Y-110025051D01*
X89663212Y-109991132D01*
X89608256Y-109899074D01*
X89574539Y-109798300D01*
X89566377Y-109722709D01*
X89945411Y-109722709D01*
X89952079Y-109770093D01*
X89976919Y-109817231D01*
X89996309Y-109837949D01*
X90019241Y-109854475D01*
X90046650Y-109866911D01*
X90081088Y-109875190D01*
X90121816Y-109878047D01*
X90569055Y-109878047D01*
X90603827Y-109876008D01*
X90637559Y-109869053D01*
X90666097Y-109857526D01*
X90692508Y-109839729D01*
X90713952Y-109817231D01*
X90733694Y-109784415D01*
X90742523Y-109754698D01*
X90745459Y-109722709D01*
X90735161Y-109666320D01*
X90703511Y-109615547D01*
X90693788Y-109606027D01*
X90671972Y-109590262D01*
X90645264Y-109578217D01*
X90610881Y-109570112D01*
X90569055Y-109567279D01*
X90121816Y-109567279D01*
X90106266Y-109567634D01*
X90068917Y-109572021D01*
X90038014Y-109581013D01*
X90009795Y-109596039D01*
X89987360Y-109615547D01*
X89956858Y-109663399D01*
X89945411Y-109722709D01*
X89566377Y-109722709D01*
X89563202Y-109693308D01*
X89573148Y-109594160D01*
X89586911Y-109541429D01*
X89606147Y-109491097D01*
X89630570Y-109443546D01*
X89659830Y-109399301D01*
X89687658Y-109364784D01*
X89762544Y-109297231D01*
X89852480Y-109247059D01*
X89903546Y-109228736D01*
X89958917Y-109215234D01*
X90019193Y-109206815D01*
X90083989Y-109203937D01*
X90615308Y-109203937D01*
X90737112Y-109212794D01*
G37*
G36*
X88417765Y-118036317D02*
G01*
X88989018Y-118036317D01*
X88989018Y-117794883D01*
X88417765Y-117794883D01*
X88417765Y-118036317D01*
G37*
G36*
X89114223Y-117203937D02*
G01*
X89114223Y-117579918D01*
X89347322Y-117579918D01*
X89369936Y-117582874D01*
X89386324Y-117591841D01*
X89400556Y-117620312D01*
X89402002Y-117638628D01*
X89402002Y-118622500D01*
X89779999Y-118622500D01*
X89779999Y-117581933D01*
X89776956Y-117502497D01*
X89767381Y-117433072D01*
X89754427Y-117384137D01*
X89736425Y-117341406D01*
X89716155Y-117308861D01*
X89691475Y-117280901D01*
X89631370Y-117239963D01*
X89550033Y-117214117D01*
X89429297Y-117203937D01*
X89114223Y-117203937D01*
G37*
G36*
X91196088Y-117209148D02*
G01*
X91300309Y-117233657D01*
X91388116Y-117276749D01*
X91426609Y-117305293D01*
X91461336Y-117338393D01*
X91474058Y-117352593D01*
X91525254Y-117429739D01*
X91557216Y-117519173D01*
X91565542Y-117568598D01*
X91568406Y-117621501D01*
X91561455Y-117697305D01*
X91534039Y-117782497D01*
X91488158Y-117853287D01*
X91425615Y-117908181D01*
X91458286Y-117928582D01*
X91487167Y-117953502D01*
X91514908Y-117986013D01*
X91537933Y-118022826D01*
X91557405Y-118066364D01*
X91571432Y-118113203D01*
X91580222Y-118164328D01*
X91583152Y-118217117D01*
X91573282Y-118305562D01*
X91559269Y-118353449D01*
X91539735Y-118398748D01*
X91514487Y-118442050D01*
X91484417Y-118481816D01*
X91432496Y-118532229D01*
X91353948Y-118580293D01*
X91307680Y-118598060D01*
X91256377Y-118611218D01*
X91198034Y-118619624D01*
X91133715Y-118622500D01*
X90417656Y-118622500D01*
X90328411Y-118616787D01*
X90274168Y-118606605D01*
X90225096Y-118591674D01*
X90179834Y-118571746D01*
X90139373Y-118547463D01*
X90100761Y-118516779D01*
X90066954Y-118481816D01*
X90012765Y-118400970D01*
X89979452Y-118311386D01*
X89968218Y-118217117D01*
X89968746Y-118194556D01*
X89974785Y-118156209D01*
X90367189Y-118156209D01*
X90370912Y-118186030D01*
X90380860Y-118212190D01*
X90396590Y-118236077D01*
X90400280Y-118240276D01*
X90418060Y-118255531D01*
X90440796Y-118267321D01*
X90470789Y-118275302D01*
X90507965Y-118278117D01*
X91043406Y-118278117D01*
X91048765Y-118278066D01*
X91083424Y-118274810D01*
X91111612Y-118266910D01*
X91136106Y-118253544D01*
X91154689Y-118236077D01*
X91172807Y-118207383D01*
X91184090Y-118156209D01*
X91180013Y-118127168D01*
X91169068Y-118101156D01*
X91152582Y-118078357D01*
X91151367Y-118077047D01*
X91112126Y-118049560D01*
X91082118Y-118041281D01*
X91043406Y-118038423D01*
X90507965Y-118038423D01*
X90449311Y-118045939D01*
X90420903Y-118059209D01*
X90398696Y-118078357D01*
X90377810Y-118109744D01*
X90367189Y-118156209D01*
X89974785Y-118156209D01*
X89984164Y-118096650D01*
X90017784Y-118014877D01*
X90065691Y-117951990D01*
X90125755Y-117908181D01*
X90079354Y-117870571D01*
X90051077Y-117838288D01*
X90027533Y-117802282D01*
X90008398Y-117761826D01*
X89994508Y-117718267D01*
X89985972Y-117671601D01*
X90375615Y-117671601D01*
X90377640Y-117691015D01*
X90386555Y-117717367D01*
X90400803Y-117740478D01*
X90404692Y-117745224D01*
X90443146Y-117773241D01*
X90471242Y-117781416D01*
X90505858Y-117784258D01*
X91045512Y-117784258D01*
X91049752Y-117784221D01*
X91081793Y-117781100D01*
X91108123Y-117773269D01*
X91131978Y-117759284D01*
X91150567Y-117740478D01*
X91165480Y-117715945D01*
X91175755Y-117671601D01*
X91173775Y-117652366D01*
X91164863Y-117625911D01*
X91150567Y-117602725D01*
X91147549Y-117599267D01*
X91108189Y-117571747D01*
X91080090Y-117563773D01*
X91045512Y-117560959D01*
X90505858Y-117560959D01*
X90445808Y-117570692D01*
X90420390Y-117584368D01*
X90400803Y-117602725D01*
X90385890Y-117627231D01*
X90375615Y-117671601D01*
X89985972Y-117671601D01*
X89985873Y-117671060D01*
X89982965Y-117621501D01*
X89983086Y-117610436D01*
X89987203Y-117557449D01*
X89996863Y-117508052D01*
X90012252Y-117460723D01*
X90032663Y-117417261D01*
X90059091Y-117375667D01*
X90090034Y-117338393D01*
X90132714Y-117298775D01*
X90172305Y-117271036D01*
X90215641Y-117247994D01*
X90264239Y-117229204D01*
X90316694Y-117215555D01*
X90375627Y-117206855D01*
X90438630Y-117203937D01*
X91112740Y-117203937D01*
X91196088Y-117209148D01*
G37*
D12*
G36*
X60852501Y-34097953D02*
G01*
X61103483Y-34114731D01*
X61339351Y-34149462D01*
X61562024Y-34201707D01*
X61770307Y-34270424D01*
X61969485Y-34357113D01*
X62154517Y-34459284D01*
X62333831Y-34581980D01*
X62498735Y-34719583D01*
X62672532Y-34898202D01*
X62925529Y-35245497D01*
X63110851Y-35629453D01*
X63223720Y-36037940D01*
X63261689Y-36461034D01*
X63261611Y-36480752D01*
X63249845Y-36703398D01*
X63218697Y-36919555D01*
X63168016Y-37131983D01*
X63099135Y-37335815D01*
X63011841Y-37532427D01*
X62907852Y-37718282D01*
X62787650Y-37893065D01*
X62652608Y-38055024D01*
X62425258Y-38272861D01*
X62085684Y-38506376D01*
X61898235Y-38600157D01*
X61697449Y-38678666D01*
X61482822Y-38741219D01*
X61254358Y-38786959D01*
X61008870Y-38815360D01*
X60748735Y-38825000D01*
X59754667Y-38825000D01*
X59397375Y-38806505D01*
X59160733Y-38771634D01*
X58938012Y-38719559D01*
X58727397Y-38650425D01*
X58530449Y-38565339D01*
X58342838Y-38462569D01*
X58169033Y-38344718D01*
X58002736Y-38207116D01*
X57850794Y-38055024D01*
X57823077Y-38024194D01*
X57574757Y-37684186D01*
X57391812Y-37303150D01*
X57279664Y-36892263D01*
X57242304Y-36467751D01*
X58508723Y-36467751D01*
X58533343Y-36698821D01*
X58574672Y-36842290D01*
X58634194Y-36977263D01*
X58710793Y-37102539D01*
X58802730Y-37215744D01*
X58867581Y-37281179D01*
X59094776Y-37439410D01*
X59231094Y-37498026D01*
X59383851Y-37541553D01*
X59559499Y-37569483D01*
X59754667Y-37579056D01*
X60748735Y-37579056D01*
X60864038Y-37575827D01*
X61042020Y-37556456D01*
X61202284Y-37520525D01*
X61347259Y-37468458D01*
X61476068Y-37401662D01*
X61596367Y-37315738D01*
X61700671Y-37215744D01*
X61846590Y-37018327D01*
X61957270Y-36751712D01*
X61994679Y-36467751D01*
X61994480Y-36446706D01*
X61981413Y-36296395D01*
X61948813Y-36151425D01*
X61897101Y-36011689D01*
X61827917Y-35881126D01*
X61644801Y-35657170D01*
X61630807Y-35644367D01*
X61404470Y-35486975D01*
X61272598Y-35429763D01*
X61123493Y-35387034D01*
X60947998Y-35359277D01*
X60748735Y-35349729D01*
X59754667Y-35349729D01*
X59408722Y-35380953D01*
X59253444Y-35421881D01*
X59116512Y-35478065D01*
X58979120Y-35559409D01*
X58858601Y-35657170D01*
X58835862Y-35679071D01*
X58739130Y-35788925D01*
X58657540Y-35911208D01*
X58546287Y-36180951D01*
X58508723Y-36467751D01*
X57242304Y-36467751D01*
X57241713Y-36461034D01*
X57252081Y-36238953D01*
X57282507Y-36022654D01*
X57332064Y-35812796D01*
X57401334Y-35606453D01*
X57488548Y-35408853D01*
X57594017Y-35218928D01*
X57715822Y-35040073D01*
X58004667Y-34719583D01*
X58088143Y-34646661D01*
X58426971Y-34413388D01*
X58612571Y-34320211D01*
X58811738Y-34242029D01*
X59024116Y-34179905D01*
X59250879Y-34134369D01*
X59494967Y-34106082D01*
X59754667Y-34096458D01*
X60748735Y-34096458D01*
X60852501Y-34097953D01*
G37*
G36*
X67619897Y-38825000D02*
G01*
X67906638Y-38815141D01*
X68163322Y-38785209D01*
X68365570Y-38741705D01*
X68545762Y-38681791D01*
X68691179Y-38612656D01*
X68819306Y-38529336D01*
X68925382Y-38436854D01*
X69016709Y-38331100D01*
X69156636Y-38079090D01*
X69245459Y-37754488D01*
X69278916Y-37313442D01*
X69278916Y-34096458D01*
X68004885Y-34096458D01*
X68004885Y-37173613D01*
X67995092Y-37294709D01*
X67965625Y-37395763D01*
X67924032Y-37467478D01*
X67867450Y-37524665D01*
X67713556Y-37595379D01*
X67535938Y-37614166D01*
X65568868Y-37614166D01*
X65439750Y-37604396D01*
X65333184Y-37575087D01*
X65258987Y-37534204D01*
X65200561Y-37478841D01*
X65130822Y-37331246D01*
X65113965Y-37173613D01*
X65113965Y-34096458D01*
X63839933Y-34096458D01*
X63839933Y-37313442D01*
X63849849Y-37565154D01*
X63880180Y-37792303D01*
X63924275Y-37971701D01*
X63985336Y-38132942D01*
X64056505Y-38264753D01*
X64142798Y-38381939D01*
X64240362Y-38480991D01*
X64352703Y-38567021D01*
X64627182Y-38702341D01*
X64989483Y-38790597D01*
X65498953Y-38825000D01*
X67619897Y-38825000D01*
G37*
G36*
X69739619Y-34096458D02*
G01*
X69739619Y-35349729D01*
X71818737Y-35349729D01*
X71818737Y-38825000D01*
X73092463Y-38825000D01*
X73092463Y-35349729D01*
X75164558Y-35349729D01*
X75164558Y-34096458D01*
X69739619Y-34096458D01*
G37*
G36*
X79510878Y-34123633D02*
G01*
X79715041Y-34162255D01*
X79900970Y-34216567D01*
X80074668Y-34287891D01*
X80231992Y-34373926D01*
X80386402Y-34483202D01*
X80525078Y-34607536D01*
X80712159Y-34827830D01*
X80898204Y-35152865D01*
X81011899Y-35504281D01*
X81049895Y-35865081D01*
X81047266Y-35959717D01*
X81026655Y-36146054D01*
X80986419Y-36327691D01*
X80926031Y-36507220D01*
X80847267Y-36679052D01*
X80750417Y-36842983D01*
X80637125Y-36996231D01*
X80540616Y-37102534D01*
X80269236Y-37325318D01*
X80115723Y-37414739D01*
X79947337Y-37490244D01*
X79763604Y-37550767D01*
X79563619Y-37595412D01*
X79342892Y-37623499D01*
X79103890Y-37633094D01*
X76927076Y-37633094D01*
X76927076Y-38825000D01*
X75660066Y-38825000D01*
X75660066Y-35447121D01*
X76927076Y-35447121D01*
X76927076Y-36471109D01*
X79131978Y-36471109D01*
X79306040Y-36458371D01*
X79420933Y-36430853D01*
X79517330Y-36388998D01*
X79606160Y-36326306D01*
X79677861Y-36248237D01*
X79753163Y-36116081D01*
X79780429Y-36019926D01*
X79789907Y-35913930D01*
X79766800Y-35744411D01*
X79727766Y-35646495D01*
X79670839Y-35558557D01*
X79590813Y-35480622D01*
X79507332Y-35427049D01*
X79406709Y-35386261D01*
X79281161Y-35359180D01*
X79131978Y-35349729D01*
X77018056Y-35349729D01*
X76963079Y-35363113D01*
X76936461Y-35394582D01*
X76927076Y-35447121D01*
X75660066Y-35447121D01*
X75660066Y-34390465D01*
X75692885Y-34230847D01*
X75731783Y-34176059D01*
X75785478Y-34135537D01*
X75866901Y-34106228D01*
X75968117Y-34096458D01*
X79103890Y-34096458D01*
X79510878Y-34123633D01*
G37*
G36*
X85312849Y-38825000D02*
G01*
X85599590Y-38815141D01*
X85856273Y-38785209D01*
X86058522Y-38741705D01*
X86238714Y-38681791D01*
X86384131Y-38612656D01*
X86512257Y-38529336D01*
X86618334Y-38436854D01*
X86709661Y-38331100D01*
X86849588Y-38079090D01*
X86938410Y-37754488D01*
X86971868Y-37313442D01*
X86971868Y-34096458D01*
X85697836Y-34096458D01*
X85697836Y-37173613D01*
X85688044Y-37294709D01*
X85658577Y-37395763D01*
X85616984Y-37467478D01*
X85560402Y-37524665D01*
X85406507Y-37595379D01*
X85228890Y-37614166D01*
X83261819Y-37614166D01*
X83132701Y-37604396D01*
X83026136Y-37575087D01*
X82951939Y-37534204D01*
X82893512Y-37478841D01*
X82823774Y-37331246D01*
X82806917Y-37173613D01*
X82806917Y-34096458D01*
X81532885Y-34096458D01*
X81532885Y-37313442D01*
X81542801Y-37565154D01*
X81573132Y-37792303D01*
X81617227Y-37971701D01*
X81678288Y-38132942D01*
X81749456Y-38264753D01*
X81835749Y-38381939D01*
X81933314Y-38480991D01*
X82045654Y-38567021D01*
X82320134Y-38702341D01*
X82682435Y-38790597D01*
X83191905Y-38825000D01*
X85312849Y-38825000D01*
G37*
G36*
X87432571Y-34096458D02*
G01*
X87432571Y-35349729D01*
X89511689Y-35349729D01*
X89511689Y-38825000D01*
X90785415Y-38825000D01*
X90785415Y-35349729D01*
X92857510Y-35349729D01*
X92857510Y-34096458D01*
X87432571Y-34096458D01*
G37*
D11*
G36*
X88017695Y-126036317D02*
G01*
X88588948Y-126036317D01*
X88588948Y-125794883D01*
X88017695Y-125794883D01*
X88017695Y-126036317D01*
G37*
G36*
X88644819Y-125203937D02*
G01*
X88644819Y-125579918D01*
X89486907Y-125579918D01*
X89499681Y-125582603D01*
X89507544Y-125589672D01*
X89509988Y-125598786D01*
X89506929Y-125611200D01*
X89497240Y-125620842D01*
X89488922Y-125625989D01*
X89243275Y-125781144D01*
X89199969Y-125812681D01*
X89171497Y-125846980D01*
X89161825Y-125870397D01*
X89157450Y-125897476D01*
X89157179Y-125906990D01*
X89160494Y-125942866D01*
X89171974Y-125975256D01*
X89186162Y-125994778D01*
X89206314Y-126010791D01*
X89230435Y-126021668D01*
X89260722Y-126028495D01*
X89295757Y-126030730D01*
X89581337Y-126030730D01*
X89618092Y-126033570D01*
X89647908Y-126041730D01*
X89669736Y-126053552D01*
X89686399Y-126069037D01*
X89705835Y-126109710D01*
X89709473Y-126143936D01*
X89706407Y-126175734D01*
X89696668Y-126203903D01*
X89683207Y-126223472D01*
X89664317Y-126239345D01*
X89641446Y-126250303D01*
X89613124Y-126257089D01*
X89581337Y-126259249D01*
X88640606Y-126259249D01*
X88640606Y-126622500D01*
X89694727Y-126622500D01*
X89753705Y-126619630D01*
X89808904Y-126611266D01*
X89860506Y-126597690D01*
X89908132Y-126579306D01*
X89992099Y-126528863D01*
X90059917Y-126461875D01*
X90109971Y-126380450D01*
X90140087Y-126287475D01*
X90148378Y-126202646D01*
X90145491Y-126142997D01*
X90137003Y-126088376D01*
X90123701Y-126040208D01*
X90105634Y-125996584D01*
X90083392Y-125957945D01*
X90056978Y-125923564D01*
X89991667Y-125866666D01*
X89908508Y-125824907D01*
X89805299Y-125799235D01*
X89778808Y-125795890D01*
X89768616Y-125791059D01*
X89764341Y-125782610D01*
X89764062Y-125779037D01*
X89772488Y-125762276D01*
X90003481Y-125594573D01*
X90045687Y-125558553D01*
X90077740Y-125520762D01*
X90094626Y-125490686D01*
X90105551Y-125457966D01*
X90110551Y-125411849D01*
X90107622Y-125373894D01*
X90098849Y-125338457D01*
X90085118Y-125307596D01*
X90066142Y-125279908D01*
X90042944Y-125256671D01*
X90014917Y-125237169D01*
X89982418Y-125221924D01*
X89945208Y-125211105D01*
X89873238Y-125203937D01*
X88644819Y-125203937D01*
G37*
G36*
X91249932Y-125204385D02*
G01*
X91325227Y-125209419D01*
X91395987Y-125219838D01*
X91462789Y-125235512D01*
X91525274Y-125256127D01*
X91585028Y-125282133D01*
X91640537Y-125312785D01*
X91694331Y-125349594D01*
X91743803Y-125390874D01*
X91795942Y-125444460D01*
X91871841Y-125548649D01*
X91927437Y-125663836D01*
X91961298Y-125786382D01*
X91972689Y-125913310D01*
X91972665Y-125919225D01*
X91969136Y-125986019D01*
X91959791Y-126050866D01*
X91944587Y-126114594D01*
X91923923Y-126175744D01*
X91897734Y-126234728D01*
X91866538Y-126290484D01*
X91830477Y-126342919D01*
X91789964Y-126391507D01*
X91721749Y-126456841D01*
X91619847Y-126526912D01*
X91563615Y-126555048D01*
X91503385Y-126578601D01*
X91439008Y-126597366D01*
X91370480Y-126611087D01*
X91296840Y-126619608D01*
X91218803Y-126622500D01*
X91002464Y-126622500D01*
X90895277Y-126616951D01*
X90824284Y-126606490D01*
X90757468Y-126590867D01*
X90694283Y-126570127D01*
X90635199Y-126544601D01*
X90578916Y-126513770D01*
X90526774Y-126478415D01*
X90476885Y-126437134D01*
X90431303Y-126391507D01*
X90422988Y-126382258D01*
X90348492Y-126280255D01*
X90293608Y-126165945D01*
X90259964Y-126042679D01*
X90248755Y-125915325D01*
X90628681Y-125915325D01*
X90636068Y-125984646D01*
X90648466Y-126027687D01*
X90666323Y-126068178D01*
X90689302Y-126105761D01*
X90716884Y-126139723D01*
X90736339Y-126159353D01*
X90804497Y-126206823D01*
X90845393Y-126224407D01*
X90891220Y-126237466D01*
X90943914Y-126245845D01*
X91002464Y-126248716D01*
X91218803Y-126248716D01*
X91253394Y-126247748D01*
X91306788Y-126241936D01*
X91354867Y-126231157D01*
X91398360Y-126215537D01*
X91437002Y-126195498D01*
X91473092Y-126169721D01*
X91504384Y-126139723D01*
X91548159Y-126080498D01*
X91581363Y-126000513D01*
X91592586Y-125915325D01*
X91592523Y-125908832D01*
X91588581Y-125863760D01*
X91578782Y-125820292D01*
X91563256Y-125778409D01*
X91542490Y-125739275D01*
X91487531Y-125672151D01*
X91483333Y-125668310D01*
X91415448Y-125621087D01*
X91375912Y-125603927D01*
X91331207Y-125591110D01*
X91278575Y-125582783D01*
X91218803Y-125579918D01*
X91002464Y-125579918D01*
X90898681Y-125589285D01*
X90852098Y-125601564D01*
X90811018Y-125618419D01*
X90769801Y-125642822D01*
X90733645Y-125672151D01*
X90726823Y-125678721D01*
X90697803Y-125711677D01*
X90673326Y-125748362D01*
X90639951Y-125829285D01*
X90628681Y-125915325D01*
X90248755Y-125915325D01*
X90248578Y-125913310D01*
X90251689Y-125846685D01*
X90260817Y-125781796D01*
X90275684Y-125718838D01*
X90296465Y-125656936D01*
X90322629Y-125597655D01*
X90354269Y-125540678D01*
X90390811Y-125487022D01*
X90477464Y-125390874D01*
X90502507Y-125368998D01*
X90604156Y-125299016D01*
X90659836Y-125271063D01*
X90719586Y-125247608D01*
X90783299Y-125228971D01*
X90851328Y-125215310D01*
X90924555Y-125206824D01*
X91002464Y-125203937D01*
X91218803Y-125203937D01*
X91249932Y-125204385D01*
G37*
G36*
X60137651Y-97204385D02*
G01*
X60212945Y-97209419D01*
X60283706Y-97219838D01*
X60350508Y-97235512D01*
X60412992Y-97256127D01*
X60472746Y-97282133D01*
X60528255Y-97312785D01*
X60582049Y-97349594D01*
X60631521Y-97390874D01*
X60683660Y-97444460D01*
X60759559Y-97548649D01*
X60815155Y-97663836D01*
X60849016Y-97786382D01*
X60860407Y-97913310D01*
X60860384Y-97919225D01*
X60856854Y-97986019D01*
X60847509Y-98050866D01*
X60832305Y-98114594D01*
X60811641Y-98175744D01*
X60785452Y-98234728D01*
X60754256Y-98290484D01*
X60718195Y-98342919D01*
X60677683Y-98391507D01*
X60609467Y-98456841D01*
X60507565Y-98526912D01*
X60451333Y-98555048D01*
X60391103Y-98578601D01*
X60326726Y-98597366D01*
X60258198Y-98611087D01*
X60184558Y-98619608D01*
X60106521Y-98622500D01*
X59890183Y-98622500D01*
X59782995Y-98616951D01*
X59712002Y-98606490D01*
X59645186Y-98590867D01*
X59582002Y-98570127D01*
X59522917Y-98544601D01*
X59466634Y-98513770D01*
X59414493Y-98478415D01*
X59364603Y-98437134D01*
X59319021Y-98391507D01*
X59310706Y-98382258D01*
X59236210Y-98280255D01*
X59181326Y-98165945D01*
X59147682Y-98042679D01*
X59136474Y-97915325D01*
X59516399Y-97915325D01*
X59523786Y-97984646D01*
X59536184Y-98027687D01*
X59554041Y-98068178D01*
X59577021Y-98105761D01*
X59604602Y-98139723D01*
X59624057Y-98159353D01*
X59692216Y-98206823D01*
X59733111Y-98224407D01*
X59778938Y-98237466D01*
X59831632Y-98245845D01*
X59890183Y-98248716D01*
X60106521Y-98248716D01*
X60141112Y-98247748D01*
X60194506Y-98241936D01*
X60242585Y-98231157D01*
X60286078Y-98215537D01*
X60324721Y-98195498D01*
X60360810Y-98169721D01*
X60392102Y-98139723D01*
X60435877Y-98080498D01*
X60469081Y-98000513D01*
X60480304Y-97915325D01*
X60480241Y-97908832D01*
X60476299Y-97863760D01*
X60466500Y-97820292D01*
X60450975Y-97778409D01*
X60430208Y-97739275D01*
X60375249Y-97672151D01*
X60371051Y-97668310D01*
X60303166Y-97621087D01*
X60263630Y-97603927D01*
X60218925Y-97591110D01*
X60166293Y-97582783D01*
X60106521Y-97579918D01*
X59890183Y-97579918D01*
X59786399Y-97589285D01*
X59739816Y-97601564D01*
X59698736Y-97618419D01*
X59657519Y-97642822D01*
X59621363Y-97672151D01*
X59614541Y-97678721D01*
X59585522Y-97711677D01*
X59561045Y-97748362D01*
X59527669Y-97829285D01*
X59516399Y-97915325D01*
X59136474Y-97915325D01*
X59136297Y-97913310D01*
X59139407Y-97846685D01*
X59148535Y-97781796D01*
X59163402Y-97718838D01*
X59184183Y-97656936D01*
X59210347Y-97597655D01*
X59241988Y-97540678D01*
X59278529Y-97487022D01*
X59365183Y-97390874D01*
X59390225Y-97368998D01*
X59491874Y-97299016D01*
X59547554Y-97271063D01*
X59607304Y-97247608D01*
X59671018Y-97228971D01*
X59739046Y-97215310D01*
X59812273Y-97206824D01*
X59890183Y-97203937D01*
X60106521Y-97203937D01*
X60137651Y-97204385D01*
G37*
G36*
X58877185Y-110036317D02*
G01*
X59448438Y-110036317D01*
X59448438Y-109794883D01*
X58877185Y-109794883D01*
X58877185Y-110036317D01*
G37*
G36*
X60737112Y-109212794D02*
G01*
X60794718Y-109224709D01*
X60846634Y-109241232D01*
X60895441Y-109263133D01*
X60939145Y-109289394D01*
X60983429Y-109324151D01*
X61022706Y-109363580D01*
X61051757Y-109398871D01*
X61106222Y-109490268D01*
X61139525Y-109589545D01*
X61150750Y-109693308D01*
X61143355Y-109781698D01*
X61131234Y-109833116D01*
X61112400Y-109885962D01*
X61082263Y-109948681D01*
X61041573Y-110016716D01*
X60678232Y-110574323D01*
X60655151Y-110622500D01*
X60195272Y-110622500D01*
X60221810Y-110565713D01*
X60256180Y-110513598D01*
X60487173Y-110186801D01*
X60493492Y-110172055D01*
X60487173Y-110163720D01*
X60466076Y-110166987D01*
X60424137Y-110174421D01*
X60364539Y-110180101D01*
X60272941Y-110182588D01*
X60083989Y-110182588D01*
X59974731Y-110174190D01*
X59918282Y-110162120D01*
X59866298Y-110145131D01*
X59817268Y-110122820D01*
X59772598Y-110095936D01*
X59729678Y-110062700D01*
X59691246Y-110025051D01*
X59663212Y-109991132D01*
X59608256Y-109899074D01*
X59574539Y-109798300D01*
X59566377Y-109722709D01*
X59945411Y-109722709D01*
X59952079Y-109770093D01*
X59976919Y-109817231D01*
X59996309Y-109837949D01*
X60019241Y-109854475D01*
X60046650Y-109866911D01*
X60081088Y-109875190D01*
X60121816Y-109878047D01*
X60569055Y-109878047D01*
X60603827Y-109876008D01*
X60637559Y-109869053D01*
X60666097Y-109857526D01*
X60692508Y-109839729D01*
X60713952Y-109817231D01*
X60733694Y-109784415D01*
X60742523Y-109754698D01*
X60745459Y-109722709D01*
X60735161Y-109666320D01*
X60703511Y-109615547D01*
X60693788Y-109606027D01*
X60671972Y-109590262D01*
X60645264Y-109578217D01*
X60610881Y-109570112D01*
X60569055Y-109567279D01*
X60121816Y-109567279D01*
X60106266Y-109567634D01*
X60068917Y-109572021D01*
X60038014Y-109581013D01*
X60009795Y-109596039D01*
X59987360Y-109615547D01*
X59956858Y-109663399D01*
X59945411Y-109722709D01*
X59566377Y-109722709D01*
X59563202Y-109693308D01*
X59573148Y-109594160D01*
X59586911Y-109541429D01*
X59606147Y-109491097D01*
X59630570Y-109443546D01*
X59659830Y-109399301D01*
X59687658Y-109364784D01*
X59762544Y-109297231D01*
X59852480Y-109247059D01*
X59903546Y-109228736D01*
X59958917Y-109215234D01*
X60019193Y-109206815D01*
X60083989Y-109203937D01*
X60615308Y-109203937D01*
X60737112Y-109212794D01*
G37*
G36*
X89748766Y-93766673D02*
G01*
X89330836Y-93766673D01*
X89330836Y-93344621D01*
X89051575Y-93344621D01*
X89051575Y-93766673D01*
X88631538Y-93766673D01*
X88631538Y-94046025D01*
X89051575Y-94046025D01*
X89051575Y-94461849D01*
X89330836Y-94461849D01*
X89330836Y-94046025D01*
X89748766Y-94046025D01*
X89748766Y-93766673D01*
G37*
G36*
X89941016Y-93203937D02*
G01*
X89941016Y-93579918D01*
X90783104Y-93579918D01*
X90795877Y-93582603D01*
X90803741Y-93589672D01*
X90806185Y-93598786D01*
X90803126Y-93611200D01*
X90793437Y-93620842D01*
X90785119Y-93625989D01*
X90539472Y-93781144D01*
X90496166Y-93812681D01*
X90467694Y-93846980D01*
X90458022Y-93870397D01*
X90453647Y-93897476D01*
X90453376Y-93906990D01*
X90456691Y-93942866D01*
X90468171Y-93975256D01*
X90482359Y-93994778D01*
X90502511Y-94010791D01*
X90526632Y-94021668D01*
X90556919Y-94028495D01*
X90591953Y-94030730D01*
X90877534Y-94030730D01*
X90914289Y-94033570D01*
X90944105Y-94041730D01*
X90965933Y-94053552D01*
X90982596Y-94069037D01*
X91002031Y-94109710D01*
X91005670Y-94143936D01*
X91002604Y-94175734D01*
X90992865Y-94203903D01*
X90979404Y-94223472D01*
X90960514Y-94239345D01*
X90937643Y-94250303D01*
X90909321Y-94257089D01*
X90877534Y-94259249D01*
X89936803Y-94259249D01*
X89936803Y-94622500D01*
X90990924Y-94622500D01*
X91049902Y-94619630D01*
X91105101Y-94611266D01*
X91156703Y-94597690D01*
X91204329Y-94579306D01*
X91288296Y-94528863D01*
X91356114Y-94461875D01*
X91406168Y-94380450D01*
X91436284Y-94287475D01*
X91444575Y-94202646D01*
X91441687Y-94142997D01*
X91433200Y-94088376D01*
X91419898Y-94040208D01*
X91401831Y-93996584D01*
X91379589Y-93957945D01*
X91353175Y-93923564D01*
X91287864Y-93866666D01*
X91204705Y-93824907D01*
X91101496Y-93799235D01*
X91075005Y-93795890D01*
X91064813Y-93791059D01*
X91060538Y-93782610D01*
X91060259Y-93779037D01*
X91068685Y-93762276D01*
X91299678Y-93594573D01*
X91341884Y-93558553D01*
X91373937Y-93520762D01*
X91390823Y-93490686D01*
X91401748Y-93457966D01*
X91406748Y-93411849D01*
X91403819Y-93373894D01*
X91395046Y-93338457D01*
X91381315Y-93307596D01*
X91362339Y-93279908D01*
X91339141Y-93256671D01*
X91311114Y-93237169D01*
X91278615Y-93221924D01*
X91241405Y-93211105D01*
X91169435Y-93203937D01*
X89941016Y-93203937D01*
G37*
G36*
X58954855Y-102036317D02*
G01*
X59526108Y-102036317D01*
X59526108Y-101794883D01*
X58954855Y-101794883D01*
X58954855Y-102036317D01*
G37*
G36*
X59581979Y-101203937D02*
G01*
X59581979Y-101579918D01*
X60424067Y-101579918D01*
X60436841Y-101582603D01*
X60444704Y-101589672D01*
X60447148Y-101598786D01*
X60444089Y-101611200D01*
X60434400Y-101620842D01*
X60426082Y-101625989D01*
X60180435Y-101781144D01*
X60137129Y-101812681D01*
X60108657Y-101846980D01*
X60098985Y-101870397D01*
X60094610Y-101897476D01*
X60094339Y-101906990D01*
X60097654Y-101942866D01*
X60109134Y-101975256D01*
X60123322Y-101994778D01*
X60143474Y-102010791D01*
X60167595Y-102021668D01*
X60197882Y-102028495D01*
X60232917Y-102030730D01*
X60518497Y-102030730D01*
X60555252Y-102033570D01*
X60585068Y-102041730D01*
X60606896Y-102053552D01*
X60623559Y-102069037D01*
X60642995Y-102109710D01*
X60646633Y-102143936D01*
X60643567Y-102175734D01*
X60633828Y-102203903D01*
X60620367Y-102223472D01*
X60601477Y-102239345D01*
X60578606Y-102250303D01*
X60550284Y-102257089D01*
X60518497Y-102259249D01*
X59577766Y-102259249D01*
X59577766Y-102622500D01*
X60631887Y-102622500D01*
X60690865Y-102619630D01*
X60746064Y-102611266D01*
X60797666Y-102597690D01*
X60845292Y-102579306D01*
X60929259Y-102528863D01*
X60997077Y-102461875D01*
X61047131Y-102380450D01*
X61077247Y-102287475D01*
X61085538Y-102202646D01*
X61082651Y-102142997D01*
X61074163Y-102088376D01*
X61060861Y-102040208D01*
X61042794Y-101996584D01*
X61020552Y-101957945D01*
X60994138Y-101923564D01*
X60928827Y-101866666D01*
X60845668Y-101824907D01*
X60742459Y-101799235D01*
X60715968Y-101795890D01*
X60705776Y-101791059D01*
X60701501Y-101782610D01*
X60701222Y-101779037D01*
X60709648Y-101762276D01*
X60940641Y-101594573D01*
X60982847Y-101558553D01*
X61014900Y-101520762D01*
X61031786Y-101490686D01*
X61042711Y-101457966D01*
X61047711Y-101411849D01*
X61044782Y-101373894D01*
X61036009Y-101338457D01*
X61022278Y-101307596D01*
X61003302Y-101279908D01*
X60980104Y-101256671D01*
X60952077Y-101237169D01*
X60919578Y-101221924D01*
X60882368Y-101211105D01*
X60810398Y-101203937D01*
X59581979Y-101203937D01*
G37*
G36*
X59748766Y-93766673D02*
G01*
X59330836Y-93766673D01*
X59330836Y-93344621D01*
X59051575Y-93344621D01*
X59051575Y-93766673D01*
X58631538Y-93766673D01*
X58631538Y-94046025D01*
X59051575Y-94046025D01*
X59051575Y-94461849D01*
X59330836Y-94461849D01*
X59330836Y-94046025D01*
X59748766Y-94046025D01*
X59748766Y-93766673D01*
G37*
G36*
X59941016Y-93203937D02*
G01*
X59941016Y-93579918D01*
X60783104Y-93579918D01*
X60795877Y-93582603D01*
X60803741Y-93589672D01*
X60806185Y-93598786D01*
X60803126Y-93611200D01*
X60793437Y-93620842D01*
X60785119Y-93625989D01*
X60539472Y-93781144D01*
X60496166Y-93812681D01*
X60467694Y-93846980D01*
X60458022Y-93870397D01*
X60453647Y-93897476D01*
X60453376Y-93906990D01*
X60456691Y-93942866D01*
X60468171Y-93975256D01*
X60482359Y-93994778D01*
X60502511Y-94010791D01*
X60526632Y-94021668D01*
X60556919Y-94028495D01*
X60591953Y-94030730D01*
X60877534Y-94030730D01*
X60914289Y-94033570D01*
X60944105Y-94041730D01*
X60965933Y-94053552D01*
X60982596Y-94069037D01*
X61002031Y-94109710D01*
X61005670Y-94143936D01*
X61002604Y-94175734D01*
X60992865Y-94203903D01*
X60979404Y-94223472D01*
X60960514Y-94239345D01*
X60937643Y-94250303D01*
X60909321Y-94257089D01*
X60877534Y-94259249D01*
X59936803Y-94259249D01*
X59936803Y-94622500D01*
X60990924Y-94622500D01*
X61049902Y-94619630D01*
X61105101Y-94611266D01*
X61156703Y-94597690D01*
X61204329Y-94579306D01*
X61288296Y-94528863D01*
X61356114Y-94461875D01*
X61406168Y-94380450D01*
X61436284Y-94287475D01*
X61444575Y-94202646D01*
X61441687Y-94142997D01*
X61433200Y-94088376D01*
X61419898Y-94040208D01*
X61401831Y-93996584D01*
X61379589Y-93957945D01*
X61353175Y-93923564D01*
X61287864Y-93866666D01*
X61204705Y-93824907D01*
X61101496Y-93799235D01*
X61075005Y-93795890D01*
X61064813Y-93791059D01*
X61060538Y-93782610D01*
X61060259Y-93779037D01*
X61068685Y-93762276D01*
X61299678Y-93594573D01*
X61341884Y-93558553D01*
X61373937Y-93520762D01*
X61390823Y-93490686D01*
X61401748Y-93457966D01*
X61406748Y-93411849D01*
X61403819Y-93373894D01*
X61395046Y-93338457D01*
X61381315Y-93307596D01*
X61362339Y-93279908D01*
X61339141Y-93256671D01*
X61311114Y-93237169D01*
X61278615Y-93221924D01*
X61241405Y-93211105D01*
X61169435Y-93203937D01*
X59941016Y-93203937D01*
G37*
G36*
X90137651Y-97204385D02*
G01*
X90212945Y-97209419D01*
X90283706Y-97219838D01*
X90350508Y-97235512D01*
X90412992Y-97256127D01*
X90472746Y-97282133D01*
X90528255Y-97312785D01*
X90582049Y-97349594D01*
X90631521Y-97390874D01*
X90683660Y-97444460D01*
X90759559Y-97548649D01*
X90815155Y-97663836D01*
X90849016Y-97786382D01*
X90860407Y-97913310D01*
X90860384Y-97919225D01*
X90856854Y-97986019D01*
X90847509Y-98050866D01*
X90832305Y-98114594D01*
X90811641Y-98175744D01*
X90785452Y-98234728D01*
X90754256Y-98290484D01*
X90718195Y-98342919D01*
X90677683Y-98391507D01*
X90609467Y-98456841D01*
X90507565Y-98526912D01*
X90451333Y-98555048D01*
X90391103Y-98578601D01*
X90326726Y-98597366D01*
X90258198Y-98611087D01*
X90184558Y-98619608D01*
X90106521Y-98622500D01*
X89890183Y-98622500D01*
X89782995Y-98616951D01*
X89712002Y-98606490D01*
X89645186Y-98590867D01*
X89582002Y-98570127D01*
X89522917Y-98544601D01*
X89466634Y-98513770D01*
X89414493Y-98478415D01*
X89364603Y-98437134D01*
X89319021Y-98391507D01*
X89310706Y-98382258D01*
X89236210Y-98280255D01*
X89181326Y-98165945D01*
X89147682Y-98042679D01*
X89136474Y-97915325D01*
X89516399Y-97915325D01*
X89523786Y-97984646D01*
X89536184Y-98027687D01*
X89554041Y-98068178D01*
X89577021Y-98105761D01*
X89604602Y-98139723D01*
X89624057Y-98159353D01*
X89692216Y-98206823D01*
X89733111Y-98224407D01*
X89778938Y-98237466D01*
X89831632Y-98245845D01*
X89890183Y-98248716D01*
X90106521Y-98248716D01*
X90141112Y-98247748D01*
X90194506Y-98241936D01*
X90242585Y-98231157D01*
X90286078Y-98215537D01*
X90324721Y-98195498D01*
X90360810Y-98169721D01*
X90392102Y-98139723D01*
X90435877Y-98080498D01*
X90469081Y-98000513D01*
X90480304Y-97915325D01*
X90480241Y-97908832D01*
X90476299Y-97863760D01*
X90466500Y-97820292D01*
X90450975Y-97778409D01*
X90430208Y-97739275D01*
X90375249Y-97672151D01*
X90371051Y-97668310D01*
X90303166Y-97621087D01*
X90263630Y-97603927D01*
X90218925Y-97591110D01*
X90166293Y-97582783D01*
X90106521Y-97579918D01*
X89890183Y-97579918D01*
X89786399Y-97589285D01*
X89739816Y-97601564D01*
X89698736Y-97618419D01*
X89657519Y-97642822D01*
X89621363Y-97672151D01*
X89614541Y-97678721D01*
X89585522Y-97711677D01*
X89561045Y-97748362D01*
X89527669Y-97829285D01*
X89516399Y-97915325D01*
X89136474Y-97915325D01*
X89136297Y-97913310D01*
X89139407Y-97846685D01*
X89148535Y-97781796D01*
X89163402Y-97718838D01*
X89184183Y-97656936D01*
X89210347Y-97597655D01*
X89241988Y-97540678D01*
X89278529Y-97487022D01*
X89365183Y-97390874D01*
X89390225Y-97368998D01*
X89491874Y-97299016D01*
X89547554Y-97271063D01*
X89607304Y-97247608D01*
X89671018Y-97228971D01*
X89739046Y-97215310D01*
X89812273Y-97206824D01*
X89890183Y-97203937D01*
X90106521Y-97203937D01*
X90137651Y-97204385D01*
G37*
G36*
X88954855Y-102036317D02*
G01*
X89526108Y-102036317D01*
X89526108Y-101794883D01*
X88954855Y-101794883D01*
X88954855Y-102036317D01*
G37*
G36*
X89581979Y-101203937D02*
G01*
X89581979Y-101579918D01*
X90424067Y-101579918D01*
X90436841Y-101582603D01*
X90444704Y-101589672D01*
X90447148Y-101598786D01*
X90444089Y-101611200D01*
X90434400Y-101620842D01*
X90426082Y-101625989D01*
X90180435Y-101781144D01*
X90137129Y-101812681D01*
X90108657Y-101846980D01*
X90098985Y-101870397D01*
X90094610Y-101897476D01*
X90094339Y-101906990D01*
X90097654Y-101942866D01*
X90109134Y-101975256D01*
X90123322Y-101994778D01*
X90143474Y-102010791D01*
X90167595Y-102021668D01*
X90197882Y-102028495D01*
X90232917Y-102030730D01*
X90518497Y-102030730D01*
X90555252Y-102033570D01*
X90585068Y-102041730D01*
X90606896Y-102053552D01*
X90623559Y-102069037D01*
X90642995Y-102109710D01*
X90646633Y-102143936D01*
X90643567Y-102175734D01*
X90633828Y-102203903D01*
X90620367Y-102223472D01*
X90601477Y-102239345D01*
X90578606Y-102250303D01*
X90550284Y-102257089D01*
X90518497Y-102259249D01*
X89577766Y-102259249D01*
X89577766Y-102622500D01*
X90631887Y-102622500D01*
X90690865Y-102619630D01*
X90746064Y-102611266D01*
X90797666Y-102597690D01*
X90845292Y-102579306D01*
X90929259Y-102528863D01*
X90997077Y-102461875D01*
X91047131Y-102380450D01*
X91077247Y-102287475D01*
X91085538Y-102202646D01*
X91082651Y-102142997D01*
X91074163Y-102088376D01*
X91060861Y-102040208D01*
X91042794Y-101996584D01*
X91020552Y-101957945D01*
X90994138Y-101923564D01*
X90928827Y-101866666D01*
X90845668Y-101824907D01*
X90742459Y-101799235D01*
X90715968Y-101795890D01*
X90705776Y-101791059D01*
X90701501Y-101782610D01*
X90701222Y-101779037D01*
X90709648Y-101762276D01*
X90940641Y-101594573D01*
X90982847Y-101558553D01*
X91014900Y-101520762D01*
X91031786Y-101490686D01*
X91042711Y-101457966D01*
X91047711Y-101411849D01*
X91044782Y-101373894D01*
X91036009Y-101338457D01*
X91022278Y-101307596D01*
X91003302Y-101279908D01*
X90980104Y-101256671D01*
X90952077Y-101237169D01*
X90919578Y-101221924D01*
X90882368Y-101211105D01*
X90810398Y-101203937D01*
X89581979Y-101203937D01*
G37*
G36*
X58027953Y-122036317D02*
G01*
X58599206Y-122036317D01*
X58599206Y-121794883D01*
X58027953Y-121794883D01*
X58027953Y-122036317D01*
G37*
G36*
X58687408Y-121579918D02*
G01*
X59670181Y-121579918D01*
X59705366Y-121582925D01*
X59732834Y-121592245D01*
X59748701Y-121604131D01*
X59759675Y-121620310D01*
X59766809Y-121657496D01*
X59763860Y-121680289D01*
X59754939Y-121699781D01*
X59721655Y-121729030D01*
X59695460Y-121741302D01*
X58865919Y-122072587D01*
X58816831Y-122095510D01*
X58775646Y-122120914D01*
X58741911Y-122148262D01*
X58714817Y-122177275D01*
X58677359Y-122240726D01*
X58659770Y-122311902D01*
X58658008Y-122345345D01*
X58660974Y-122386946D01*
X58670013Y-122427896D01*
X58684453Y-122465435D01*
X58704770Y-122500767D01*
X58729274Y-122531140D01*
X58759236Y-122558244D01*
X58792806Y-122580327D01*
X58831541Y-122598341D01*
X58874269Y-122611433D01*
X58922115Y-122619654D01*
X58975096Y-122622500D01*
X60188952Y-122622500D01*
X60188952Y-122259249D01*
X59290078Y-122259249D01*
X59278297Y-122256488D01*
X59269936Y-122248885D01*
X59266997Y-122238275D01*
X59277696Y-122220526D01*
X59283849Y-122217301D01*
X59924346Y-121984568D01*
X59974697Y-121962992D01*
X60020313Y-121937252D01*
X60061339Y-121907532D01*
X60097413Y-121874347D01*
X60128689Y-121837762D01*
X60154768Y-121798419D01*
X60191231Y-121712202D01*
X60205541Y-121618787D01*
X60205714Y-121607121D01*
X60202805Y-121555046D01*
X60194172Y-121505351D01*
X60180225Y-121459087D01*
X60161000Y-121415718D01*
X60137024Y-121376107D01*
X60108175Y-121339872D01*
X60074914Y-121307579D01*
X60037114Y-121279147D01*
X59994975Y-121254888D01*
X59948553Y-121235017D01*
X59897688Y-121219739D01*
X59842737Y-121209446D01*
X59758383Y-121203937D01*
X58687408Y-121203937D01*
X58687408Y-121579918D01*
G37*
G36*
X61723362Y-121176315D02*
G01*
X61797495Y-121202230D01*
X61857101Y-121244603D01*
X61899594Y-121300744D01*
X61915734Y-121337110D01*
X61928003Y-121380224D01*
X61936145Y-121433223D01*
X61938983Y-121495288D01*
X61938983Y-122622500D01*
X61556865Y-122622500D01*
X61556865Y-122426769D01*
X60567773Y-122426769D01*
X60485757Y-122420475D01*
X60445124Y-122410784D01*
X60410901Y-122397055D01*
X60380443Y-122378177D01*
X60355648Y-122355420D01*
X60347538Y-122345687D01*
X60328702Y-122315983D01*
X60315138Y-122282633D01*
X60306128Y-122242163D01*
X60303166Y-122198341D01*
X60303234Y-122192523D01*
X60314288Y-122128859D01*
X60327537Y-122098559D01*
X60345861Y-122070205D01*
X60884861Y-122070205D01*
X60888567Y-122083559D01*
X60896308Y-122090685D01*
X60907942Y-122093378D01*
X61556865Y-122093378D01*
X61556865Y-121653191D01*
X61554161Y-121635521D01*
X61547138Y-121622496D01*
X61525358Y-121611059D01*
X61509306Y-121613429D01*
X61491744Y-121623699D01*
X60899516Y-122047033D01*
X60898385Y-122047733D01*
X60888017Y-122057450D01*
X60884861Y-122070205D01*
X60345861Y-122070205D01*
X60347222Y-122068099D01*
X60355405Y-122057670D01*
X60388270Y-122023867D01*
X60441744Y-121981728D01*
X61451810Y-121240390D01*
X61482512Y-121219291D01*
X61560292Y-121181834D01*
X61603761Y-121171865D01*
X61649189Y-121168766D01*
X61723362Y-121176315D01*
G37*
G36*
X58877185Y-106036317D02*
G01*
X59448438Y-106036317D01*
X59448438Y-105794883D01*
X58877185Y-105794883D01*
X58877185Y-106036317D01*
G37*
G36*
X60496355Y-105260804D02*
G01*
X60461985Y-105312930D01*
X60230992Y-105639727D01*
X60224673Y-105654474D01*
X60230992Y-105662808D01*
X60252093Y-105659540D01*
X60294013Y-105652107D01*
X60353583Y-105646427D01*
X60445132Y-105643941D01*
X60634176Y-105643941D01*
X60743568Y-105652360D01*
X60799997Y-105664440D01*
X60851960Y-105681436D01*
X60900956Y-105703750D01*
X60945590Y-105730632D01*
X60988455Y-105763851D01*
X61026827Y-105801477D01*
X61054946Y-105835468D01*
X61109904Y-105927481D01*
X61143623Y-106028228D01*
X61154963Y-106133220D01*
X61145017Y-106232368D01*
X61131254Y-106285099D01*
X61112018Y-106335431D01*
X61087595Y-106382982D01*
X61058334Y-106427227D01*
X61030569Y-106461672D01*
X60955708Y-106529211D01*
X60865779Y-106579376D01*
X60814701Y-106597699D01*
X60759317Y-106611202D01*
X60699009Y-106619622D01*
X60634176Y-106622500D01*
X60102856Y-106622500D01*
X59980955Y-106613639D01*
X59923351Y-106601727D01*
X59871437Y-106585209D01*
X59822649Y-106563321D01*
X59778960Y-106537074D01*
X59734709Y-106502348D01*
X59695459Y-106462948D01*
X59666408Y-106427657D01*
X59611943Y-106336260D01*
X59578640Y-106236983D01*
X59567415Y-106133220D01*
X59569874Y-106103819D01*
X59972706Y-106103819D01*
X59983004Y-106160208D01*
X60014654Y-106210981D01*
X60024377Y-106220501D01*
X60046192Y-106236266D01*
X60072901Y-106248311D01*
X60107284Y-106256417D01*
X60149110Y-106259249D01*
X60596349Y-106259249D01*
X60611899Y-106258895D01*
X60649248Y-106254507D01*
X60680151Y-106245515D01*
X60708370Y-106230489D01*
X60730805Y-106210981D01*
X60761307Y-106163129D01*
X60772753Y-106103819D01*
X60766086Y-106056435D01*
X60741246Y-106009297D01*
X60721748Y-105988474D01*
X60698806Y-105971953D01*
X60671390Y-105959517D01*
X60637003Y-105951246D01*
X60596349Y-105948389D01*
X60149110Y-105948389D01*
X60114450Y-105950422D01*
X60080701Y-105957383D01*
X60052148Y-105968923D01*
X60025689Y-105986761D01*
X60004213Y-106009297D01*
X59984471Y-106042113D01*
X59975642Y-106071830D01*
X59972706Y-106103819D01*
X59569874Y-106103819D01*
X59574809Y-106044830D01*
X59586931Y-105993413D01*
X59605765Y-105940566D01*
X59635902Y-105877847D01*
X59676592Y-105809812D01*
X60039842Y-105252206D01*
X60063014Y-105203937D01*
X60522893Y-105203937D01*
X60496355Y-105260804D01*
G37*
G36*
X88877185Y-106036317D02*
G01*
X89448438Y-106036317D01*
X89448438Y-105794883D01*
X88877185Y-105794883D01*
X88877185Y-106036317D01*
G37*
G36*
X90496355Y-105260804D02*
G01*
X90461985Y-105312930D01*
X90230992Y-105639727D01*
X90224673Y-105654474D01*
X90230992Y-105662808D01*
X90252093Y-105659540D01*
X90294013Y-105652107D01*
X90353583Y-105646427D01*
X90445132Y-105643941D01*
X90634176Y-105643941D01*
X90743568Y-105652360D01*
X90799997Y-105664440D01*
X90851960Y-105681436D01*
X90900956Y-105703750D01*
X90945590Y-105730632D01*
X90988455Y-105763851D01*
X91026827Y-105801477D01*
X91054946Y-105835468D01*
X91109904Y-105927481D01*
X91143623Y-106028228D01*
X91154963Y-106133220D01*
X91145017Y-106232368D01*
X91131254Y-106285099D01*
X91112018Y-106335431D01*
X91087595Y-106382982D01*
X91058334Y-106427227D01*
X91030569Y-106461672D01*
X90955708Y-106529211D01*
X90865779Y-106579376D01*
X90814701Y-106597699D01*
X90759317Y-106611202D01*
X90699009Y-106619622D01*
X90634176Y-106622500D01*
X90102856Y-106622500D01*
X89980955Y-106613639D01*
X89923351Y-106601727D01*
X89871437Y-106585209D01*
X89822649Y-106563321D01*
X89778960Y-106537074D01*
X89734709Y-106502348D01*
X89695459Y-106462948D01*
X89666408Y-106427657D01*
X89611943Y-106336260D01*
X89578640Y-106236983D01*
X89567415Y-106133220D01*
X89569874Y-106103819D01*
X89972706Y-106103819D01*
X89983004Y-106160208D01*
X90014654Y-106210981D01*
X90024377Y-106220501D01*
X90046192Y-106236266D01*
X90072901Y-106248311D01*
X90107284Y-106256417D01*
X90149110Y-106259249D01*
X90596349Y-106259249D01*
X90611899Y-106258895D01*
X90649248Y-106254507D01*
X90680151Y-106245515D01*
X90708370Y-106230489D01*
X90730805Y-106210981D01*
X90761307Y-106163129D01*
X90772753Y-106103819D01*
X90766086Y-106056435D01*
X90741246Y-106009297D01*
X90721748Y-105988474D01*
X90698806Y-105971953D01*
X90671390Y-105959517D01*
X90637003Y-105951246D01*
X90596349Y-105948389D01*
X90149110Y-105948389D01*
X90114450Y-105950422D01*
X90080701Y-105957383D01*
X90052148Y-105968923D01*
X90025689Y-105986761D01*
X90004213Y-106009297D01*
X89984471Y-106042113D01*
X89975642Y-106071830D01*
X89972706Y-106103819D01*
X89569874Y-106103819D01*
X89574809Y-106044830D01*
X89586931Y-105993413D01*
X89605765Y-105940566D01*
X89635902Y-105877847D01*
X89676592Y-105809812D01*
X90039842Y-105252206D01*
X90063014Y-105203937D01*
X90522893Y-105203937D01*
X90496355Y-105260804D01*
G37*
D13*
G36*
X67369181Y-226354917D02*
G01*
X67369181Y-227202501D01*
X70034604Y-227202501D01*
X70195968Y-227195791D01*
X70342250Y-227176177D01*
X70470339Y-227145572D01*
X70585559Y-227104271D01*
X70687484Y-227053593D01*
X70778073Y-226993823D01*
X70906978Y-226874238D01*
X71025899Y-226694130D01*
X71102973Y-226478773D01*
X71132137Y-226233977D01*
X71132231Y-226218782D01*
X71125442Y-226093472D01*
X71105271Y-225972756D01*
X71072468Y-225858905D01*
X71027164Y-225751468D01*
X70970860Y-225653244D01*
X70903075Y-225563014D01*
X70784307Y-225447707D01*
X70691462Y-225382558D01*
X70586384Y-225327613D01*
X70476211Y-225286523D01*
X70352179Y-225255656D01*
X70055952Y-225227368D01*
X70024987Y-225227156D01*
X68442232Y-225227156D01*
X68396548Y-225219735D01*
X68375719Y-225195143D01*
X68373630Y-225153425D01*
X68402909Y-224828796D01*
X68414434Y-224793563D01*
X68439151Y-224774084D01*
X68466595Y-224769811D01*
X71009774Y-224769811D01*
X71009774Y-223892521D01*
X67849393Y-223892521D01*
X67763456Y-223899344D01*
X67689580Y-223919751D01*
X67633972Y-223949417D01*
X67588429Y-223989798D01*
X67529793Y-224097543D01*
X67511300Y-224211167D01*
X67437783Y-225524216D01*
X67440755Y-225604357D01*
X67457182Y-225672092D01*
X67483547Y-225723756D01*
X67520006Y-225765233D01*
X67620274Y-225818228D01*
X67736553Y-225833031D01*
X69931808Y-225833031D01*
X70024599Y-225839870D01*
X70097929Y-225860386D01*
X70166892Y-225906121D01*
X70222590Y-226000179D01*
X70235493Y-226091623D01*
X70228783Y-226158938D01*
X70209166Y-226217203D01*
X70166892Y-226276912D01*
X70121467Y-226312006D01*
X70063513Y-226337383D01*
X69931808Y-226354917D01*
X67369181Y-226354917D01*
G37*
G36*
X71400654Y-226354917D02*
G01*
X71400654Y-227202501D01*
X74066076Y-227202501D01*
X74227440Y-227195791D01*
X74373722Y-227176177D01*
X74501812Y-227145572D01*
X74617031Y-227104271D01*
X74718956Y-227053593D01*
X74809545Y-226993823D01*
X74938450Y-226874238D01*
X75057371Y-226694130D01*
X75134446Y-226478773D01*
X75163609Y-226233977D01*
X75163703Y-226218782D01*
X75156914Y-226093472D01*
X75136743Y-225972756D01*
X75103941Y-225858905D01*
X75058637Y-225751468D01*
X75002333Y-225653244D01*
X74934548Y-225563014D01*
X74815780Y-225447707D01*
X74722934Y-225382558D01*
X74617856Y-225327613D01*
X74507684Y-225286523D01*
X74383651Y-225255656D01*
X74087425Y-225227368D01*
X74056459Y-225227156D01*
X72473704Y-225227156D01*
X72428020Y-225219735D01*
X72407192Y-225195143D01*
X72405103Y-225153425D01*
X72434381Y-224828796D01*
X72445907Y-224793563D01*
X72470624Y-224774084D01*
X72498068Y-224769811D01*
X75041246Y-224769811D01*
X75041246Y-223892521D01*
X71880866Y-223892521D01*
X71794928Y-223899344D01*
X71721052Y-223919751D01*
X71665445Y-223949417D01*
X71619901Y-223989798D01*
X71561265Y-224097543D01*
X71542773Y-224211167D01*
X71469256Y-225524216D01*
X71472227Y-225604357D01*
X71488655Y-225672092D01*
X71515019Y-225723756D01*
X71551478Y-225765233D01*
X71651747Y-225818228D01*
X71768026Y-225833031D01*
X73963280Y-225833031D01*
X74056071Y-225839870D01*
X74129402Y-225860386D01*
X74198364Y-225906121D01*
X74254063Y-226000179D01*
X74266966Y-226091623D01*
X74260255Y-226158938D01*
X74240638Y-226217203D01*
X74198364Y-226276912D01*
X74152940Y-226312006D01*
X74094986Y-226337383D01*
X73963280Y-226354917D01*
X71400654Y-226354917D01*
G37*
G36*
X75441957Y-223892521D02*
G01*
X75441957Y-224769811D01*
X77406830Y-224769811D01*
X77436634Y-224776075D01*
X77454983Y-224792569D01*
X77460685Y-224813836D01*
X77453548Y-224842801D01*
X77430940Y-224865300D01*
X77411531Y-224877309D01*
X76838355Y-225239338D01*
X76737307Y-225312924D01*
X76670872Y-225392956D01*
X76648305Y-225447595D01*
X76638096Y-225510779D01*
X76637465Y-225532979D01*
X76645199Y-225616690D01*
X76671987Y-225692267D01*
X76705092Y-225737817D01*
X76752114Y-225775181D01*
X76808395Y-225800559D01*
X76879065Y-225816491D01*
X76960812Y-225821704D01*
X77627167Y-225821704D01*
X77712927Y-225828332D01*
X77782499Y-225847371D01*
X77833430Y-225874956D01*
X77872311Y-225911087D01*
X77917660Y-226005991D01*
X77926151Y-226085853D01*
X77918997Y-226160047D01*
X77896271Y-226225776D01*
X77864862Y-226271436D01*
X77820787Y-226308474D01*
X77767421Y-226334041D01*
X77701335Y-226349876D01*
X77627167Y-226354917D01*
X75432126Y-226354917D01*
X75432126Y-227202501D01*
X77891743Y-227202501D01*
X78029358Y-227195805D01*
X78158156Y-227176288D01*
X78278562Y-227144612D01*
X78389689Y-227101716D01*
X78585611Y-226984015D01*
X78743852Y-226827710D01*
X78860645Y-226637718D01*
X78930916Y-226420777D01*
X78950261Y-226222842D01*
X78943524Y-226083661D01*
X78923721Y-225956213D01*
X78892682Y-225843821D01*
X78850527Y-225742031D01*
X78798628Y-225651874D01*
X78736996Y-225571651D01*
X78584603Y-225438889D01*
X78390565Y-225341452D01*
X78149745Y-225281551D01*
X78087931Y-225273745D01*
X78064151Y-225262473D01*
X78054177Y-225242758D01*
X78053524Y-225234422D01*
X78073185Y-225195313D01*
X78612168Y-224804005D01*
X78710650Y-224719960D01*
X78785440Y-224631780D01*
X78824840Y-224561602D01*
X78850332Y-224485255D01*
X78861998Y-224377649D01*
X78855166Y-224289087D01*
X78834694Y-224206401D01*
X78802654Y-224134393D01*
X78758377Y-224069788D01*
X78704250Y-224015568D01*
X78638852Y-223970064D01*
X78563022Y-223934492D01*
X78476198Y-223909246D01*
X78308269Y-223892521D01*
X75441957Y-223892521D01*
G37*
G36*
X79169317Y-224769811D02*
G01*
X81462452Y-224769811D01*
X81544552Y-224776826D01*
X81608643Y-224798574D01*
X81645667Y-224826307D01*
X81671273Y-224864059D01*
X81687918Y-224950826D01*
X81681037Y-225004009D01*
X81660221Y-225049492D01*
X81582558Y-225117738D01*
X81521436Y-225146373D01*
X79585842Y-225919371D01*
X79471302Y-225972858D01*
X79375205Y-226032134D01*
X79296490Y-226095946D01*
X79233270Y-226163643D01*
X79145867Y-226311695D01*
X79104827Y-226477773D01*
X79100715Y-226555807D01*
X79107636Y-226652877D01*
X79128728Y-226748425D01*
X79162421Y-226836016D01*
X79209827Y-226918457D01*
X79267003Y-226989329D01*
X79336915Y-227052571D01*
X79415245Y-227104097D01*
X79505625Y-227146131D01*
X79605324Y-227176678D01*
X79716966Y-227195861D01*
X79840588Y-227202501D01*
X82672919Y-227202501D01*
X82672919Y-226354917D01*
X80575545Y-226354917D01*
X80548057Y-226348475D01*
X80528547Y-226330734D01*
X80521689Y-226305977D01*
X80546654Y-226264562D01*
X80561012Y-226257036D01*
X82055504Y-225713993D01*
X82172990Y-225663650D01*
X82279428Y-225603589D01*
X82375154Y-225534243D01*
X82459327Y-225456810D01*
X82532304Y-225371445D01*
X82593155Y-225279646D01*
X82678237Y-225078474D01*
X82711627Y-224860506D01*
X82712029Y-224833284D01*
X82705243Y-224711776D01*
X82685098Y-224595820D01*
X82652556Y-224487872D01*
X82607697Y-224386677D01*
X82551753Y-224294252D01*
X82484439Y-224209702D01*
X82406831Y-224134354D01*
X82318630Y-224068012D01*
X82220306Y-224011406D01*
X82111988Y-223965042D01*
X81993303Y-223929392D01*
X81865084Y-223905376D01*
X81668257Y-223892521D01*
X79169317Y-223892521D01*
X79169317Y-224769811D01*
G37*
D11*
G36*
X88475650Y-114036317D02*
G01*
X89046903Y-114036317D01*
X89046903Y-113794883D01*
X88475650Y-113794883D01*
X88475650Y-114036317D01*
G37*
G36*
X89172108Y-113203937D02*
G01*
X89172108Y-113579918D01*
X89405207Y-113579918D01*
X89427821Y-113582874D01*
X89444209Y-113591841D01*
X89458441Y-113620312D01*
X89459887Y-113638628D01*
X89459887Y-114622500D01*
X89837884Y-114622500D01*
X89837884Y-113581933D01*
X89834841Y-113502497D01*
X89825266Y-113433072D01*
X89812312Y-113384137D01*
X89794310Y-113341406D01*
X89774040Y-113308861D01*
X89749360Y-113280901D01*
X89689255Y-113239963D01*
X89607918Y-113214117D01*
X89487182Y-113203937D01*
X89172108Y-113203937D01*
G37*
G36*
X90026103Y-113579918D02*
G01*
X91008876Y-113579918D01*
X91044061Y-113582925D01*
X91071529Y-113592245D01*
X91087396Y-113604131D01*
X91098370Y-113620310D01*
X91105504Y-113657496D01*
X91102555Y-113680289D01*
X91093634Y-113699781D01*
X91060349Y-113729030D01*
X91034155Y-113741302D01*
X90204614Y-114072587D01*
X90155526Y-114095510D01*
X90114341Y-114120914D01*
X90080606Y-114148262D01*
X90053512Y-114177275D01*
X90016054Y-114240726D01*
X89998465Y-114311902D01*
X89996703Y-114345345D01*
X89999669Y-114386946D01*
X90008708Y-114427896D01*
X90023148Y-114465435D01*
X90043465Y-114500767D01*
X90067969Y-114531140D01*
X90097931Y-114558244D01*
X90131501Y-114580327D01*
X90170236Y-114598341D01*
X90212964Y-114611433D01*
X90260810Y-114619654D01*
X90313791Y-114622500D01*
X91527647Y-114622500D01*
X91527647Y-114259249D01*
X90628773Y-114259249D01*
X90616992Y-114256488D01*
X90608631Y-114248885D01*
X90605692Y-114238275D01*
X90616391Y-114220526D01*
X90622544Y-114217301D01*
X91263041Y-113984568D01*
X91313392Y-113962992D01*
X91359008Y-113937252D01*
X91400034Y-113907532D01*
X91436108Y-113874347D01*
X91467384Y-113837762D01*
X91493462Y-113798419D01*
X91529926Y-113712202D01*
X91544236Y-113618787D01*
X91544408Y-113607121D01*
X91541500Y-113555046D01*
X91532867Y-113505351D01*
X91518920Y-113459087D01*
X91499695Y-113415718D01*
X91475719Y-113376107D01*
X91446870Y-113339872D01*
X91413609Y-113307579D01*
X91375809Y-113279147D01*
X91333670Y-113254888D01*
X91287248Y-113235017D01*
X91236383Y-113219739D01*
X91181432Y-113209446D01*
X91097078Y-113203937D01*
X90026103Y-113203937D01*
X90026103Y-113579918D01*
G37*
D14*
G36*
X68285520Y-81022254D02*
G01*
X68321966Y-81093246D01*
X68363332Y-81155918D01*
X68406454Y-81206923D01*
X68454093Y-81250835D01*
X68504504Y-81286575D01*
X68559344Y-81315819D01*
X68683407Y-81355194D01*
X68834334Y-81369078D01*
X68917967Y-81365156D01*
X68995002Y-81353334D01*
X69060601Y-81335292D01*
X69120975Y-81310352D01*
X69174245Y-81279831D01*
X69223055Y-81242821D01*
X69308314Y-81148673D01*
X69380217Y-81022254D01*
X70057869Y-79522602D01*
X70088643Y-79438583D01*
X69497820Y-79438583D01*
X69475471Y-79505750D01*
X68915423Y-80812327D01*
X68898114Y-80842458D01*
X68877939Y-80860856D01*
X68837021Y-80871067D01*
X68809808Y-80866974D01*
X68785373Y-80853950D01*
X68755932Y-80812327D01*
X68190266Y-79505750D01*
X68170726Y-79438583D01*
X67571476Y-79438583D01*
X67602251Y-79522602D01*
X68285520Y-81022254D01*
G37*
G36*
X71450282Y-79439181D02*
G01*
X71550675Y-79445892D01*
X71645022Y-79459784D01*
X71734091Y-79480683D01*
X71817404Y-79508169D01*
X71897076Y-79542845D01*
X71971089Y-79583713D01*
X72042814Y-79632792D01*
X72108776Y-79687833D01*
X72178294Y-79759281D01*
X72279493Y-79898198D01*
X72353622Y-80051781D01*
X72398770Y-80215176D01*
X72413957Y-80384413D01*
X72413926Y-80392301D01*
X72409220Y-80481359D01*
X72396760Y-80567822D01*
X72376488Y-80652793D01*
X72348936Y-80734326D01*
X72314018Y-80812971D01*
X72272423Y-80887313D01*
X72224342Y-80957226D01*
X72170325Y-81022009D01*
X72079385Y-81109144D01*
X71943555Y-81202550D01*
X71868576Y-81240063D01*
X71788261Y-81271466D01*
X71702411Y-81296487D01*
X71611025Y-81314783D01*
X71512830Y-81326144D01*
X71408776Y-81330000D01*
X71011148Y-81330000D01*
X70868232Y-81322602D01*
X70773575Y-81308653D01*
X70684486Y-81287823D01*
X70600240Y-81260170D01*
X70521461Y-81226135D01*
X70446417Y-81185027D01*
X70376895Y-81137887D01*
X70310376Y-81082846D01*
X70249599Y-81022009D01*
X70238512Y-81009677D01*
X70139185Y-80873674D01*
X70066007Y-80721260D01*
X70021147Y-80556905D01*
X70006203Y-80387100D01*
X70512771Y-80387100D01*
X70522619Y-80479528D01*
X70539150Y-80536916D01*
X70562959Y-80590905D01*
X70593599Y-80641015D01*
X70630374Y-80686297D01*
X70656314Y-80712471D01*
X70747192Y-80775764D01*
X70801719Y-80799210D01*
X70862822Y-80816621D01*
X70933081Y-80827793D01*
X71011148Y-80831622D01*
X71408776Y-80831622D01*
X71454897Y-80830330D01*
X71526090Y-80822582D01*
X71590195Y-80808210D01*
X71648185Y-80787383D01*
X71699709Y-80760665D01*
X71747828Y-80726295D01*
X71789550Y-80686297D01*
X71847918Y-80607330D01*
X71892190Y-80500684D01*
X71907153Y-80387100D01*
X71907074Y-80378682D01*
X71901847Y-80318558D01*
X71888807Y-80260570D01*
X71868122Y-80204675D01*
X71840448Y-80152450D01*
X71767202Y-80062868D01*
X71761604Y-80057747D01*
X71671070Y-79994790D01*
X71618321Y-79971905D01*
X71558679Y-79954813D01*
X71488481Y-79943710D01*
X71408776Y-79939891D01*
X71011148Y-79939891D01*
X70872770Y-79952381D01*
X70810659Y-79968752D01*
X70755886Y-79991226D01*
X70700930Y-80023763D01*
X70652722Y-80062868D01*
X70643626Y-80071628D01*
X70604934Y-80115570D01*
X70572298Y-80164483D01*
X70527797Y-80272380D01*
X70512771Y-80387100D01*
X70006203Y-80387100D01*
X70005967Y-80384413D01*
X70010114Y-80295581D01*
X70022285Y-80209061D01*
X70042108Y-80125118D01*
X70069815Y-80042581D01*
X70104701Y-79963541D01*
X70146888Y-79887571D01*
X70195610Y-79816029D01*
X70311148Y-79687833D01*
X70344539Y-79658664D01*
X70480070Y-79565355D01*
X70554310Y-79528084D01*
X70633977Y-79496811D01*
X70718928Y-79471962D01*
X70809633Y-79453747D01*
X70907269Y-79442432D01*
X71011148Y-79438583D01*
X71408776Y-79438583D01*
X71450282Y-79439181D01*
G37*
G36*
X74628263Y-81330000D02*
G01*
X74628263Y-80845666D01*
X73315091Y-80845666D01*
X73254085Y-80841469D01*
X73208873Y-80827719D01*
X73185816Y-80811698D01*
X73168761Y-80789693D01*
X73150152Y-80725847D01*
X73147052Y-80666636D01*
X73147052Y-79438583D01*
X72637439Y-79438583D01*
X72637439Y-80714141D01*
X72641477Y-80823390D01*
X72654110Y-80921939D01*
X72671858Y-80996207D01*
X72696629Y-81062998D01*
X72724917Y-81116102D01*
X72759438Y-81163309D01*
X72797943Y-81202387D01*
X72842530Y-81236243D01*
X72950811Y-81288236D01*
X73093628Y-81320433D01*
X73253420Y-81330000D01*
X74628263Y-81330000D01*
G37*
G36*
X76279222Y-81330000D02*
G01*
X76393919Y-81326056D01*
X76496592Y-81314083D01*
X76577492Y-81296682D01*
X76649568Y-81272716D01*
X76707735Y-81245062D01*
X76758986Y-81211734D01*
X76801416Y-81174741D01*
X76837947Y-81132440D01*
X76893918Y-81031636D01*
X76929447Y-80901795D01*
X76942830Y-80725376D01*
X76942830Y-79438583D01*
X76433217Y-79438583D01*
X76433217Y-80669445D01*
X76429301Y-80717883D01*
X76417514Y-80758305D01*
X76400877Y-80786991D01*
X76378244Y-80809866D01*
X76316686Y-80838151D01*
X76245639Y-80845666D01*
X75458811Y-80845666D01*
X75407163Y-80841758D01*
X75364537Y-80830034D01*
X75334858Y-80813681D01*
X75311488Y-80791536D01*
X75283593Y-80732498D01*
X75276850Y-80669445D01*
X75276850Y-79438583D01*
X74767237Y-79438583D01*
X74767237Y-80725376D01*
X74771203Y-80826061D01*
X74783336Y-80916921D01*
X74800973Y-80988680D01*
X74825398Y-81053176D01*
X74853865Y-81105901D01*
X74888383Y-81152775D01*
X74927409Y-81192396D01*
X74972345Y-81226808D01*
X75082137Y-81280936D01*
X75227057Y-81316238D01*
X75430845Y-81330000D01*
X76279222Y-81330000D01*
G37*
G36*
X78661445Y-81369078D02*
G01*
X78723834Y-81365114D01*
X78783619Y-81352991D01*
X78835097Y-81334365D01*
X78882171Y-81308297D01*
X78920283Y-81277891D01*
X78953080Y-81240906D01*
X78980670Y-81195300D01*
X79554641Y-80002173D01*
X79575739Y-79982760D01*
X79591033Y-79979703D01*
X79609269Y-79983611D01*
X79624582Y-79995334D01*
X79635852Y-80030261D01*
X79635852Y-81330000D01*
X80123116Y-81330000D01*
X80123116Y-79940502D01*
X80119257Y-79854594D01*
X80107875Y-79777843D01*
X80090532Y-79713314D01*
X80067016Y-79655756D01*
X80038222Y-79605579D01*
X80003967Y-79561028D01*
X79946651Y-79506605D01*
X79893156Y-79468955D01*
X79833270Y-79437312D01*
X79772629Y-79414607D01*
X79706990Y-79399174D01*
X79616312Y-79391688D01*
X79550037Y-79395530D01*
X79488971Y-79406792D01*
X79433472Y-79424810D01*
X79382457Y-79449298D01*
X79290197Y-79518543D01*
X79207475Y-79618615D01*
X79137474Y-79744497D01*
X78709072Y-80675917D01*
X78695605Y-80699209D01*
X78678277Y-80710258D01*
X78661445Y-80712431D01*
X78638609Y-80707841D01*
X78621516Y-80691337D01*
X78613940Y-80675917D01*
X78185538Y-79744497D01*
X78141679Y-79660398D01*
X78091910Y-79585451D01*
X78046314Y-79532020D01*
X77995620Y-79486175D01*
X77946066Y-79452464D01*
X77891739Y-79425698D01*
X77835862Y-79407257D01*
X77775119Y-79395791D01*
X77706700Y-79391688D01*
X77580915Y-79406308D01*
X77465663Y-79448815D01*
X77376361Y-79506605D01*
X77330906Y-79548100D01*
X77291690Y-79595560D01*
X77261330Y-79645201D01*
X77236773Y-79701057D01*
X77206227Y-79831958D01*
X77199896Y-79940502D01*
X77199896Y-81330000D01*
X77687160Y-81330000D01*
X77687160Y-80030261D01*
X77690754Y-80008796D01*
X77700276Y-79993224D01*
X77731857Y-79979703D01*
X77763369Y-79993969D01*
X77768371Y-80002173D01*
X78342342Y-81195300D01*
X78395554Y-81270861D01*
X78470585Y-81325953D01*
X78567460Y-81359816D01*
X78661445Y-81369078D01*
G37*
G36*
X80662038Y-79438583D02*
G01*
X80599281Y-79442496D01*
X80544852Y-79454258D01*
X80503680Y-79471213D01*
X80469017Y-79494346D01*
X80442483Y-79521599D01*
X80421645Y-79554297D01*
X80396839Y-79637702D01*
X80393249Y-79693450D01*
X80393249Y-81066828D01*
X80397152Y-81126739D01*
X80408839Y-81178855D01*
X80425869Y-81218903D01*
X80449085Y-81252761D01*
X80510021Y-81300051D01*
X80595625Y-81325709D01*
X80659229Y-81330000D01*
X82384072Y-81330000D01*
X82384072Y-80845666D01*
X80944871Y-80845666D01*
X80922893Y-80841758D01*
X80908434Y-80830034D01*
X80900053Y-80795840D01*
X80900053Y-80568572D01*
X82375646Y-80568572D01*
X82375646Y-80204528D01*
X80900053Y-80204528D01*
X80900053Y-79987763D01*
X80904037Y-79963440D01*
X80916291Y-79947456D01*
X80944871Y-79939891D01*
X82384072Y-79939891D01*
X82384072Y-79438583D01*
X80662038Y-79438583D01*
G37*
G36*
X85368039Y-179988583D02*
G01*
X85305282Y-179992496D01*
X85250853Y-180004258D01*
X85209681Y-180021213D01*
X85175018Y-180044346D01*
X85148484Y-180071599D01*
X85127646Y-180104297D01*
X85102840Y-180187702D01*
X85099250Y-180243450D01*
X85099250Y-181616828D01*
X85103153Y-181676739D01*
X85114840Y-181728855D01*
X85131871Y-181768903D01*
X85155086Y-181802761D01*
X85216022Y-181850051D01*
X85301626Y-181875709D01*
X85365230Y-181880000D01*
X87090073Y-181880000D01*
X87090073Y-181395666D01*
X85650872Y-181395666D01*
X85628894Y-181391758D01*
X85614435Y-181380034D01*
X85606054Y-181345840D01*
X85606054Y-181118572D01*
X87081647Y-181118572D01*
X87081647Y-180754528D01*
X85606054Y-180754528D01*
X85606054Y-180537763D01*
X85610038Y-180513440D01*
X85622292Y-180497456D01*
X85650872Y-180489891D01*
X87090073Y-180489891D01*
X87090073Y-179988583D01*
X85368039Y-179988583D01*
G37*
G36*
X88828350Y-181880000D02*
G01*
X88943046Y-181876056D01*
X89045720Y-181864083D01*
X89126619Y-181846682D01*
X89198696Y-181822716D01*
X89256862Y-181795062D01*
X89308113Y-181761734D01*
X89350544Y-181724741D01*
X89387075Y-181682440D01*
X89443045Y-181581636D01*
X89478574Y-181451795D01*
X89491957Y-181275376D01*
X89491957Y-179988583D01*
X88982345Y-179988583D01*
X88982345Y-181219445D01*
X88978428Y-181267883D01*
X88966641Y-181308305D01*
X88950004Y-181336991D01*
X88927371Y-181359866D01*
X88865813Y-181388151D01*
X88794766Y-181395666D01*
X88007938Y-181395666D01*
X87956291Y-181391758D01*
X87913665Y-181380034D01*
X87883986Y-181363681D01*
X87860615Y-181341536D01*
X87832720Y-181282498D01*
X87825977Y-181219445D01*
X87825977Y-179988583D01*
X87316364Y-179988583D01*
X87316364Y-181275376D01*
X87320331Y-181376061D01*
X87332463Y-181466921D01*
X87350101Y-181538680D01*
X87374525Y-181603176D01*
X87402993Y-181655901D01*
X87437510Y-181702775D01*
X87476536Y-181742396D01*
X87521472Y-181776808D01*
X87631264Y-181830936D01*
X87776184Y-181866238D01*
X87979972Y-181880000D01*
X88828350Y-181880000D01*
G37*
G36*
X91340814Y-179994413D02*
G01*
X91418104Y-180006744D01*
X91487842Y-180025427D01*
X91552204Y-180050792D01*
X91609751Y-180081948D01*
X91665489Y-180122030D01*
X91714567Y-180167857D01*
X91733343Y-180188754D01*
X91806309Y-180297270D01*
X91850910Y-180416328D01*
X91865876Y-180540205D01*
X91857426Y-180647550D01*
X91825154Y-180759572D01*
X91769118Y-180853543D01*
X91731560Y-180894589D01*
X91686602Y-180932093D01*
X91751873Y-180979345D01*
X91812827Y-181053041D01*
X91835774Y-181100793D01*
X91852528Y-181156108D01*
X91864604Y-181232926D01*
X91868562Y-181323859D01*
X91868562Y-181701214D01*
X91876989Y-181880000D01*
X91364567Y-181880000D01*
X91356263Y-181754337D01*
X91356263Y-181376981D01*
X91350396Y-181319137D01*
X91323832Y-181263277D01*
X91299597Y-181241612D01*
X91267985Y-181225720D01*
X91215433Y-181213207D01*
X91149023Y-181209187D01*
X90267062Y-181209187D01*
X90267062Y-181880000D01*
X89760258Y-181880000D01*
X89760258Y-180503813D01*
X90267062Y-180503813D01*
X90267062Y-180777976D01*
X91163067Y-180777976D01*
X91238615Y-180765336D01*
X91276178Y-180744640D01*
X91305827Y-180716427D01*
X91327885Y-180681225D01*
X91342219Y-180618485D01*
X91333363Y-180565718D01*
X91300209Y-180512240D01*
X91247292Y-180476269D01*
X91208926Y-180465566D01*
X91163067Y-180461803D01*
X90309072Y-180461803D01*
X90282750Y-180468923D01*
X90270977Y-180483303D01*
X90267062Y-180503813D01*
X89760258Y-180503813D01*
X89760258Y-180106186D01*
X89760304Y-180101750D01*
X89773644Y-180042023D01*
X89789375Y-180020302D01*
X89811144Y-180004214D01*
X89844528Y-179992491D01*
X89886288Y-179988583D01*
X91230234Y-179988583D01*
X91340814Y-179994413D01*
G37*
G36*
X93487756Y-179989181D02*
G01*
X93588148Y-179995892D01*
X93682496Y-180009784D01*
X93771565Y-180030683D01*
X93854878Y-180058169D01*
X93934549Y-180092845D01*
X94008562Y-180133713D01*
X94080287Y-180182792D01*
X94146249Y-180237833D01*
X94215768Y-180309281D01*
X94316967Y-180448198D01*
X94391095Y-180601781D01*
X94436243Y-180765176D01*
X94451431Y-180934413D01*
X94451400Y-180942301D01*
X94446693Y-181031359D01*
X94434234Y-181117822D01*
X94413962Y-181202793D01*
X94386409Y-181284326D01*
X94351491Y-181362971D01*
X94309896Y-181437313D01*
X94261815Y-181507226D01*
X94207798Y-181572009D01*
X94116858Y-181659144D01*
X93981029Y-181752550D01*
X93906049Y-181790063D01*
X93825735Y-181821466D01*
X93739884Y-181846487D01*
X93648498Y-181864783D01*
X93550303Y-181876144D01*
X93446249Y-181880000D01*
X93048622Y-181880000D01*
X92905705Y-181872602D01*
X92811048Y-181858653D01*
X92721960Y-181837823D01*
X92637714Y-181810170D01*
X92558935Y-181776135D01*
X92483891Y-181735027D01*
X92414368Y-181687887D01*
X92347850Y-181632846D01*
X92287073Y-181572009D01*
X92275986Y-181559677D01*
X92176658Y-181423674D01*
X92103480Y-181271260D01*
X92058621Y-181106905D01*
X92043676Y-180937100D01*
X92550244Y-180937100D01*
X92560093Y-181029528D01*
X92576624Y-181086916D01*
X92600433Y-181140905D01*
X92631072Y-181191015D01*
X92667847Y-181236297D01*
X92693788Y-181262471D01*
X92784666Y-181325764D01*
X92839193Y-181349210D01*
X92900296Y-181366621D01*
X92970555Y-181377793D01*
X93048622Y-181381622D01*
X93446249Y-181381622D01*
X93492370Y-181380330D01*
X93563563Y-181372582D01*
X93627669Y-181358210D01*
X93685659Y-181337383D01*
X93737182Y-181310665D01*
X93785302Y-181276295D01*
X93827024Y-181236297D01*
X93885391Y-181157330D01*
X93929663Y-181050684D01*
X93944627Y-180937100D01*
X93944547Y-180928682D01*
X93939320Y-180868558D01*
X93926280Y-180810570D01*
X93905596Y-180754675D01*
X93877922Y-180702450D01*
X93804676Y-180612868D01*
X93799078Y-180607747D01*
X93708543Y-180544790D01*
X93655794Y-180521905D01*
X93596153Y-180504813D01*
X93525954Y-180493710D01*
X93446249Y-180489891D01*
X93048622Y-180489891D01*
X92910244Y-180502381D01*
X92848133Y-180518752D01*
X92793360Y-180541226D01*
X92738403Y-180573763D01*
X92690195Y-180612868D01*
X92681100Y-180621628D01*
X92642407Y-180665570D01*
X92609771Y-180714483D01*
X92565270Y-180822380D01*
X92550244Y-180937100D01*
X92043676Y-180937100D01*
X92043440Y-180934413D01*
X92047588Y-180845581D01*
X92059758Y-180759061D01*
X92079581Y-180675118D01*
X92107289Y-180592581D01*
X92142174Y-180513541D01*
X92184362Y-180437571D01*
X92233084Y-180366029D01*
X92348622Y-180237833D01*
X92382012Y-180208664D01*
X92517543Y-180115355D01*
X92591783Y-180078084D01*
X92671450Y-180046811D01*
X92756402Y-180021962D01*
X92847107Y-180003747D01*
X92944742Y-179992432D01*
X93048622Y-179988583D01*
X93446249Y-179988583D01*
X93487756Y-179989181D01*
G37*
G36*
X97401945Y-179994413D02*
G01*
X97479234Y-180006744D01*
X97548973Y-180025427D01*
X97613334Y-180050792D01*
X97670882Y-180081948D01*
X97726620Y-180122030D01*
X97775698Y-180167857D01*
X97794474Y-180188754D01*
X97867439Y-180297270D01*
X97912041Y-180416328D01*
X97927006Y-180540205D01*
X97918556Y-180647550D01*
X97886285Y-180759572D01*
X97830249Y-180853543D01*
X97792691Y-180894589D01*
X97747732Y-180932093D01*
X97813004Y-180979345D01*
X97873957Y-181053041D01*
X97896905Y-181100793D01*
X97913659Y-181156108D01*
X97925735Y-181232926D01*
X97929693Y-181323859D01*
X97929693Y-181701214D01*
X97938119Y-181880000D01*
X97425698Y-181880000D01*
X97417394Y-181754337D01*
X97417394Y-181376981D01*
X97411526Y-181319137D01*
X97384962Y-181263277D01*
X97360728Y-181241612D01*
X97329115Y-181225720D01*
X97276563Y-181213207D01*
X97210154Y-181209187D01*
X96328193Y-181209187D01*
X96328193Y-181880000D01*
X95821389Y-181880000D01*
X95821389Y-180503813D01*
X96328193Y-180503813D01*
X96328193Y-180777976D01*
X97224198Y-180777976D01*
X97299745Y-180765336D01*
X97337309Y-180744640D01*
X97366957Y-180716427D01*
X97389015Y-180681225D01*
X97403350Y-180618485D01*
X97394493Y-180565718D01*
X97361340Y-180512240D01*
X97308422Y-180476269D01*
X97270056Y-180465566D01*
X97224198Y-180461803D01*
X96370202Y-180461803D01*
X96343880Y-180468923D01*
X96332108Y-180483303D01*
X96328193Y-180503813D01*
X95821389Y-180503813D01*
X95821389Y-180106186D01*
X95821434Y-180101750D01*
X95834775Y-180042023D01*
X95850506Y-180020302D01*
X95872274Y-180004214D01*
X95905658Y-179992491D01*
X95947418Y-179988583D01*
X97291364Y-179988583D01*
X97401945Y-179994413D01*
G37*
G36*
X71228509Y-216989181D02*
G01*
X71328902Y-216995892D01*
X71423249Y-217009784D01*
X71512318Y-217030683D01*
X71595631Y-217058169D01*
X71675303Y-217092845D01*
X71749316Y-217133713D01*
X71821041Y-217182792D01*
X71887003Y-217237833D01*
X71956521Y-217309281D01*
X72057720Y-217448198D01*
X72131849Y-217601781D01*
X72176997Y-217765176D01*
X72192184Y-217934413D01*
X72192153Y-217942301D01*
X72187447Y-218031359D01*
X72174987Y-218117822D01*
X72154715Y-218202793D01*
X72127163Y-218284326D01*
X72092245Y-218362971D01*
X72050650Y-218437313D01*
X72002569Y-218507226D01*
X71948552Y-218572009D01*
X71857612Y-218659144D01*
X71721782Y-218752550D01*
X71646803Y-218790063D01*
X71566488Y-218821466D01*
X71480638Y-218846487D01*
X71389252Y-218864783D01*
X71291057Y-218876144D01*
X71187003Y-218880000D01*
X70789375Y-218880000D01*
X70646459Y-218872602D01*
X70551802Y-218858653D01*
X70462713Y-218837823D01*
X70378467Y-218810170D01*
X70299688Y-218776135D01*
X70224644Y-218735027D01*
X70155122Y-218687887D01*
X70088603Y-218632846D01*
X70027826Y-218572009D01*
X70016739Y-218559677D01*
X69917412Y-218423674D01*
X69844234Y-218271260D01*
X69799374Y-218106905D01*
X69784430Y-217937100D01*
X70290998Y-217937100D01*
X70300846Y-218029528D01*
X70317377Y-218086916D01*
X70341186Y-218140905D01*
X70371826Y-218191015D01*
X70408601Y-218236297D01*
X70434541Y-218262471D01*
X70525419Y-218325764D01*
X70579946Y-218349210D01*
X70641049Y-218366621D01*
X70711308Y-218377793D01*
X70789375Y-218381622D01*
X71187003Y-218381622D01*
X71233124Y-218380330D01*
X71304317Y-218372582D01*
X71368422Y-218358210D01*
X71426412Y-218337383D01*
X71477936Y-218310665D01*
X71526055Y-218276295D01*
X71567777Y-218236297D01*
X71626145Y-218157330D01*
X71670417Y-218050684D01*
X71685380Y-217937100D01*
X71685301Y-217928682D01*
X71680074Y-217868558D01*
X71667034Y-217810570D01*
X71646349Y-217754675D01*
X71618675Y-217702450D01*
X71545429Y-217612868D01*
X71539831Y-217607747D01*
X71449297Y-217544790D01*
X71396548Y-217521905D01*
X71336906Y-217504813D01*
X71266708Y-217493710D01*
X71187003Y-217489891D01*
X70789375Y-217489891D01*
X70650997Y-217502381D01*
X70588886Y-217518752D01*
X70534113Y-217541226D01*
X70479157Y-217573763D01*
X70430949Y-217612868D01*
X70421853Y-217621628D01*
X70383161Y-217665570D01*
X70350525Y-217714483D01*
X70306024Y-217822380D01*
X70290998Y-217937100D01*
X69784430Y-217937100D01*
X69784194Y-217934413D01*
X69788341Y-217845581D01*
X69800512Y-217759061D01*
X69820334Y-217675118D01*
X69848042Y-217592581D01*
X69882928Y-217513541D01*
X69925115Y-217437571D01*
X69973837Y-217366029D01*
X70089375Y-217237833D01*
X70122766Y-217208664D01*
X70258297Y-217115355D01*
X70332537Y-217078084D01*
X70412204Y-217046811D01*
X70497155Y-217021962D01*
X70587860Y-217003747D01*
X70685496Y-216992432D01*
X70789375Y-216988583D01*
X71187003Y-216988583D01*
X71228509Y-216989181D01*
G37*
G36*
X73935467Y-218880000D02*
G01*
X74050164Y-218876056D01*
X74152837Y-218864083D01*
X74233737Y-218846682D01*
X74305814Y-218822716D01*
X74363980Y-218795062D01*
X74415231Y-218761734D01*
X74457662Y-218724741D01*
X74494192Y-218682440D01*
X74550163Y-218581636D01*
X74585692Y-218451795D01*
X74599075Y-218275376D01*
X74599075Y-216988583D01*
X74089463Y-216988583D01*
X74089463Y-218219445D01*
X74085546Y-218267883D01*
X74073759Y-218308305D01*
X74057122Y-218336991D01*
X74034489Y-218359866D01*
X73972931Y-218388151D01*
X73901884Y-218395666D01*
X73115056Y-218395666D01*
X73063409Y-218391758D01*
X73020782Y-218380034D01*
X72991103Y-218363681D01*
X72967733Y-218341536D01*
X72939838Y-218282498D01*
X72933095Y-218219445D01*
X72933095Y-216988583D01*
X72423482Y-216988583D01*
X72423482Y-218275376D01*
X72427448Y-218376061D01*
X72439581Y-218466921D01*
X72457219Y-218538680D01*
X72481643Y-218603176D01*
X72510111Y-218655901D01*
X72544628Y-218702775D01*
X72583654Y-218742396D01*
X72628590Y-218776808D01*
X72738382Y-218830936D01*
X72883302Y-218866238D01*
X73087090Y-218880000D01*
X73935467Y-218880000D01*
G37*
G36*
X74783356Y-216988583D02*
G01*
X74783356Y-217489891D01*
X75615003Y-217489891D01*
X75615003Y-218880000D01*
X76124494Y-218880000D01*
X76124494Y-217489891D01*
X76953332Y-217489891D01*
X76953332Y-216988583D01*
X74783356Y-216988583D01*
G37*
G36*
X80258548Y-218880000D02*
G01*
X80258548Y-218395666D01*
X78945377Y-218395666D01*
X78884371Y-218391469D01*
X78839159Y-218377719D01*
X78816102Y-218361698D01*
X78799047Y-218339693D01*
X78780438Y-218275847D01*
X78777338Y-218216636D01*
X78777338Y-216988583D01*
X78267725Y-216988583D01*
X78267725Y-218264141D01*
X78271763Y-218373390D01*
X78284396Y-218471939D01*
X78302143Y-218546207D01*
X78326915Y-218612998D01*
X78355203Y-218666102D01*
X78389724Y-218713309D01*
X78428228Y-218752387D01*
X78472816Y-218786243D01*
X78581097Y-218838236D01*
X78723913Y-218870433D01*
X78883705Y-218880000D01*
X80258548Y-218880000D01*
G37*
G36*
X53498395Y-198488583D02*
G01*
X53435638Y-198492496D01*
X53381209Y-198504258D01*
X53340037Y-198521213D01*
X53305374Y-198544346D01*
X53278840Y-198571599D01*
X53258002Y-198604297D01*
X53233196Y-198687702D01*
X53229606Y-198743450D01*
X53229606Y-200116828D01*
X53233509Y-200176739D01*
X53245196Y-200228855D01*
X53262227Y-200268903D01*
X53285442Y-200302761D01*
X53346378Y-200350051D01*
X53431982Y-200375709D01*
X53495586Y-200380000D01*
X55220429Y-200380000D01*
X55220429Y-199895666D01*
X53781228Y-199895666D01*
X53759250Y-199891758D01*
X53744791Y-199880034D01*
X53736410Y-199845840D01*
X53736410Y-199618572D01*
X55212003Y-199618572D01*
X55212003Y-199254528D01*
X53736410Y-199254528D01*
X53736410Y-199037763D01*
X53740394Y-199013440D01*
X53752648Y-198997456D01*
X53781228Y-198989891D01*
X55220429Y-198989891D01*
X55220429Y-198488583D01*
X53498395Y-198488583D01*
G37*
G36*
X57331176Y-198488583D02*
G01*
X57277931Y-198550254D01*
X56748779Y-199059378D01*
X56247593Y-198550254D01*
X56199965Y-198488583D01*
X55494348Y-198488583D01*
X55547593Y-198550254D01*
X56393161Y-199370055D01*
X55415946Y-200321259D01*
X55414400Y-200322813D01*
X55365510Y-200380000D01*
X56031926Y-200380000D01*
X56082362Y-200324068D01*
X56717882Y-199697341D01*
X57319941Y-200324068D01*
X57364759Y-200380000D01*
X58089916Y-200380000D01*
X58089025Y-200378760D01*
X58042289Y-200321259D01*
X57084735Y-199370055D01*
X57933112Y-198550254D01*
X57989166Y-198488583D01*
X57331176Y-198488583D01*
G37*
G36*
X58195429Y-198488583D02*
G01*
X58195429Y-198989891D01*
X59027076Y-198989891D01*
X59027076Y-200380000D01*
X59536567Y-200380000D01*
X59536567Y-198989891D01*
X60365405Y-198989891D01*
X60365405Y-198488583D01*
X58195429Y-198488583D01*
G37*
G36*
X63271589Y-198494413D02*
G01*
X63348878Y-198506744D01*
X63418617Y-198525427D01*
X63482979Y-198550792D01*
X63540526Y-198581948D01*
X63596264Y-198622030D01*
X63645342Y-198667857D01*
X63664118Y-198688754D01*
X63737083Y-198797270D01*
X63781685Y-198916328D01*
X63796651Y-199040205D01*
X63788200Y-199147550D01*
X63755929Y-199259572D01*
X63699893Y-199353543D01*
X63662335Y-199394589D01*
X63617376Y-199432093D01*
X63682648Y-199479345D01*
X63743601Y-199553041D01*
X63766549Y-199600793D01*
X63783303Y-199656108D01*
X63795379Y-199732926D01*
X63799337Y-199823859D01*
X63799337Y-200201214D01*
X63807764Y-200380000D01*
X63295342Y-200380000D01*
X63287038Y-200254337D01*
X63287038Y-199876981D01*
X63281170Y-199819137D01*
X63254606Y-199763277D01*
X63230372Y-199741612D01*
X63198759Y-199725720D01*
X63146207Y-199713207D01*
X63079798Y-199709187D01*
X62197837Y-199709187D01*
X62197837Y-200380000D01*
X61691033Y-200380000D01*
X61691033Y-199003813D01*
X62197837Y-199003813D01*
X62197837Y-199277976D01*
X63093842Y-199277976D01*
X63169390Y-199265336D01*
X63206953Y-199244640D01*
X63236602Y-199216427D01*
X63258659Y-199181225D01*
X63272994Y-199118485D01*
X63264137Y-199065718D01*
X63230984Y-199012240D01*
X63178067Y-198976269D01*
X63139700Y-198965566D01*
X63093842Y-198961803D01*
X62239847Y-198961803D01*
X62213524Y-198968923D01*
X62201752Y-198983303D01*
X62197837Y-199003813D01*
X61691033Y-199003813D01*
X61691033Y-198606186D01*
X61691079Y-198601750D01*
X61704419Y-198542023D01*
X61720150Y-198520302D01*
X61741918Y-198504214D01*
X61775302Y-198492491D01*
X61817062Y-198488583D01*
X63161009Y-198488583D01*
X63271589Y-198494413D01*
G37*
G36*
X53418390Y-216989181D02*
G01*
X53518783Y-216995892D01*
X53613130Y-217009784D01*
X53702199Y-217030683D01*
X53785512Y-217058169D01*
X53865184Y-217092845D01*
X53939197Y-217133713D01*
X54010922Y-217182792D01*
X54076884Y-217237833D01*
X54146402Y-217309281D01*
X54247601Y-217448198D01*
X54321730Y-217601781D01*
X54366878Y-217765176D01*
X54382065Y-217934413D01*
X54382034Y-217942301D01*
X54377328Y-218031359D01*
X54364868Y-218117822D01*
X54344596Y-218202793D01*
X54317044Y-218284326D01*
X54282126Y-218362971D01*
X54240531Y-218437313D01*
X54192450Y-218507226D01*
X54138433Y-218572009D01*
X54047493Y-218659144D01*
X53911663Y-218752550D01*
X53836684Y-218790063D01*
X53756369Y-218821466D01*
X53670519Y-218846487D01*
X53579133Y-218864783D01*
X53480938Y-218876144D01*
X53376884Y-218880000D01*
X52979256Y-218880000D01*
X52836340Y-218872602D01*
X52741683Y-218858653D01*
X52652594Y-218837823D01*
X52568348Y-218810170D01*
X52489569Y-218776135D01*
X52414525Y-218735027D01*
X52345003Y-218687887D01*
X52278484Y-218632846D01*
X52217707Y-218572009D01*
X52206620Y-218559677D01*
X52107293Y-218423674D01*
X52034115Y-218271260D01*
X51989255Y-218106905D01*
X51974311Y-217937100D01*
X52480879Y-217937100D01*
X52490727Y-218029528D01*
X52507258Y-218086916D01*
X52531067Y-218140905D01*
X52561707Y-218191015D01*
X52598482Y-218236297D01*
X52624422Y-218262471D01*
X52715300Y-218325764D01*
X52769827Y-218349210D01*
X52830930Y-218366621D01*
X52901189Y-218377793D01*
X52979256Y-218381622D01*
X53376884Y-218381622D01*
X53423005Y-218380330D01*
X53494198Y-218372582D01*
X53558303Y-218358210D01*
X53616293Y-218337383D01*
X53667817Y-218310665D01*
X53715936Y-218276295D01*
X53757658Y-218236297D01*
X53816026Y-218157330D01*
X53860298Y-218050684D01*
X53875261Y-217937100D01*
X53875182Y-217928682D01*
X53869955Y-217868558D01*
X53856915Y-217810570D01*
X53836230Y-217754675D01*
X53808556Y-217702450D01*
X53735310Y-217612868D01*
X53729712Y-217607747D01*
X53639178Y-217544790D01*
X53586429Y-217521905D01*
X53526787Y-217504813D01*
X53456589Y-217493710D01*
X53376884Y-217489891D01*
X52979256Y-217489891D01*
X52840878Y-217502381D01*
X52778767Y-217518752D01*
X52723994Y-217541226D01*
X52669038Y-217573763D01*
X52620830Y-217612868D01*
X52611734Y-217621628D01*
X52573042Y-217665570D01*
X52540406Y-217714483D01*
X52495905Y-217822380D01*
X52480879Y-217937100D01*
X51974311Y-217937100D01*
X51974075Y-217934413D01*
X51978222Y-217845581D01*
X51990393Y-217759061D01*
X52010215Y-217675118D01*
X52037923Y-217592581D01*
X52072809Y-217513541D01*
X52114996Y-217437571D01*
X52163718Y-217366029D01*
X52279256Y-217237833D01*
X52312647Y-217208664D01*
X52448178Y-217115355D01*
X52522418Y-217078084D01*
X52602085Y-217046811D01*
X52687036Y-217021962D01*
X52777741Y-217003747D01*
X52875377Y-216992432D01*
X52979256Y-216988583D01*
X53376884Y-216988583D01*
X53418390Y-216989181D01*
G37*
G36*
X56125348Y-218880000D02*
G01*
X56240045Y-218876056D01*
X56342718Y-218864083D01*
X56423618Y-218846682D01*
X56495695Y-218822716D01*
X56553861Y-218795062D01*
X56605112Y-218761734D01*
X56647543Y-218724741D01*
X56684073Y-218682440D01*
X56740044Y-218581636D01*
X56775573Y-218451795D01*
X56788956Y-218275376D01*
X56788956Y-216988583D01*
X56279344Y-216988583D01*
X56279344Y-218219445D01*
X56275427Y-218267883D01*
X56263640Y-218308305D01*
X56247003Y-218336991D01*
X56224370Y-218359866D01*
X56162812Y-218388151D01*
X56091765Y-218395666D01*
X55304937Y-218395666D01*
X55253290Y-218391758D01*
X55210663Y-218380034D01*
X55180984Y-218363681D01*
X55157614Y-218341536D01*
X55129719Y-218282498D01*
X55122976Y-218219445D01*
X55122976Y-216988583D01*
X54613363Y-216988583D01*
X54613363Y-218275376D01*
X54617329Y-218376061D01*
X54629462Y-218466921D01*
X54647100Y-218538680D01*
X54671524Y-218603176D01*
X54699992Y-218655901D01*
X54734509Y-218702775D01*
X54773535Y-218742396D01*
X54818471Y-218776808D01*
X54928263Y-218830936D01*
X55073183Y-218866238D01*
X55276971Y-218880000D01*
X56125348Y-218880000D01*
G37*
G36*
X56973237Y-216988583D02*
G01*
X56973237Y-217489891D01*
X57804884Y-217489891D01*
X57804884Y-218880000D01*
X58314375Y-218880000D01*
X58314375Y-217489891D01*
X59143213Y-217489891D01*
X59143213Y-216988583D01*
X56973237Y-216988583D01*
G37*
G36*
X62109665Y-216988583D02*
G01*
X62109665Y-217676371D01*
X60981263Y-217676371D01*
X60981263Y-216988583D01*
X60471650Y-216988583D01*
X60471650Y-218880000D01*
X60981263Y-218880000D01*
X60981263Y-218152400D01*
X62109665Y-218152400D01*
X62109665Y-218880000D01*
X62619155Y-218880000D01*
X62619155Y-216988583D01*
X62109665Y-216988583D01*
G37*
G36*
X64443778Y-216999453D02*
G01*
X64525444Y-217014902D01*
X64599816Y-217036626D01*
X64669295Y-217065156D01*
X64732224Y-217099570D01*
X64793988Y-217143281D01*
X64849459Y-217193014D01*
X64924291Y-217281132D01*
X64998709Y-217411146D01*
X65044187Y-217551712D01*
X65059385Y-217696032D01*
X65058334Y-217733887D01*
X65050089Y-217808421D01*
X65033995Y-217881076D01*
X65009840Y-217952888D01*
X64978334Y-218021620D01*
X64939594Y-218087193D01*
X64894277Y-218148492D01*
X64855674Y-218191013D01*
X64747122Y-218280127D01*
X64685717Y-218315895D01*
X64618362Y-218346097D01*
X64544869Y-218370306D01*
X64464875Y-218388165D01*
X64376584Y-218399399D01*
X64280983Y-218403237D01*
X63410258Y-218403237D01*
X63410258Y-218880000D01*
X62903454Y-218880000D01*
X62903454Y-217528848D01*
X63410258Y-217528848D01*
X63410258Y-217938443D01*
X64292219Y-217938443D01*
X64361843Y-217933348D01*
X64407800Y-217922341D01*
X64446359Y-217905599D01*
X64481891Y-217880522D01*
X64510572Y-217849295D01*
X64540693Y-217796432D01*
X64551599Y-217757970D01*
X64555390Y-217715572D01*
X64546147Y-217647764D01*
X64530534Y-217608598D01*
X64507763Y-217573422D01*
X64475753Y-217542248D01*
X64442360Y-217520819D01*
X64402111Y-217504504D01*
X64351892Y-217493672D01*
X64292219Y-217489891D01*
X63446650Y-217489891D01*
X63424659Y-217495245D01*
X63414012Y-217507832D01*
X63410258Y-217528848D01*
X62903454Y-217528848D01*
X62903454Y-217106186D01*
X62916581Y-217042338D01*
X62932141Y-217020423D01*
X62953619Y-217004214D01*
X62986188Y-216992491D01*
X63026674Y-216988583D01*
X64280983Y-216988583D01*
X64443778Y-216999453D01*
G37*
G36*
X53589253Y-179988583D02*
G01*
X53526496Y-179992496D01*
X53472067Y-180004258D01*
X53430895Y-180021213D01*
X53396232Y-180044346D01*
X53369698Y-180071599D01*
X53348860Y-180104297D01*
X53324054Y-180187702D01*
X53320464Y-180243450D01*
X53320464Y-181616828D01*
X53324367Y-181676739D01*
X53336054Y-181728855D01*
X53353085Y-181768903D01*
X53376300Y-181802761D01*
X53437236Y-181850051D01*
X53522840Y-181875709D01*
X53586444Y-181880000D01*
X55311287Y-181880000D01*
X55311287Y-181395666D01*
X53872086Y-181395666D01*
X53850108Y-181391758D01*
X53835649Y-181380034D01*
X53827268Y-181345840D01*
X53827268Y-181118572D01*
X55302861Y-181118572D01*
X55302861Y-180754528D01*
X53827268Y-180754528D01*
X53827268Y-180537763D01*
X53831252Y-180513440D01*
X53843506Y-180497456D01*
X53872086Y-180489891D01*
X55311287Y-180489891D01*
X55311287Y-179988583D01*
X53589253Y-179988583D01*
G37*
G36*
X57422034Y-179988583D02*
G01*
X57368789Y-180050254D01*
X56839637Y-180559378D01*
X56338451Y-180050254D01*
X56290823Y-179988583D01*
X55585206Y-179988583D01*
X55638451Y-180050254D01*
X56484019Y-180870055D01*
X55506804Y-181821259D01*
X55505258Y-181822813D01*
X55456368Y-181880000D01*
X56122784Y-181880000D01*
X56173220Y-181824068D01*
X56808740Y-181197341D01*
X57410799Y-181824068D01*
X57455617Y-181880000D01*
X58180774Y-181880000D01*
X58179883Y-181878760D01*
X58133147Y-181821259D01*
X57175593Y-180870055D01*
X58023970Y-180050254D01*
X58080024Y-179988583D01*
X57422034Y-179988583D01*
G37*
G36*
X58286287Y-179988583D02*
G01*
X58286287Y-180489891D01*
X59117934Y-180489891D01*
X59117934Y-181880000D01*
X59627425Y-181880000D01*
X59627425Y-180489891D01*
X60456263Y-180489891D01*
X60456263Y-179988583D01*
X58286287Y-179988583D01*
G37*
G36*
X63761479Y-181880000D02*
G01*
X63761479Y-181395666D01*
X62448308Y-181395666D01*
X62387302Y-181391469D01*
X62342090Y-181377719D01*
X62319033Y-181361698D01*
X62301978Y-181339693D01*
X62283368Y-181275847D01*
X62280268Y-181216636D01*
X62280268Y-179988583D01*
X61770656Y-179988583D01*
X61770656Y-181264141D01*
X61774694Y-181373390D01*
X61787326Y-181471939D01*
X61805074Y-181546207D01*
X61829845Y-181612998D01*
X61858133Y-181666102D01*
X61892655Y-181713309D01*
X61931159Y-181752387D01*
X61975747Y-181786243D01*
X62084027Y-181838236D01*
X62226844Y-181870433D01*
X62386636Y-181880000D01*
X63761479Y-181880000D01*
G37*
G36*
X57737020Y-157238583D02*
G01*
X57737020Y-157926371D01*
X56608618Y-157926371D01*
X56608618Y-157238583D01*
X56099005Y-157238583D01*
X56099005Y-159130000D01*
X56608618Y-159130000D01*
X56608618Y-158402400D01*
X57737020Y-158402400D01*
X57737020Y-159130000D01*
X58246511Y-159130000D01*
X58246511Y-157238583D01*
X57737020Y-157238583D01*
G37*
G36*
X60071134Y-157249453D02*
G01*
X60152799Y-157264902D01*
X60227171Y-157286626D01*
X60296650Y-157315156D01*
X60359580Y-157349570D01*
X60421344Y-157393281D01*
X60476814Y-157443014D01*
X60551647Y-157531132D01*
X60626065Y-157661146D01*
X60671543Y-157801712D01*
X60686741Y-157946032D01*
X60685689Y-157983887D01*
X60677445Y-158058421D01*
X60661351Y-158131076D01*
X60637195Y-158202888D01*
X60605690Y-158271620D01*
X60566950Y-158337193D01*
X60521633Y-158398492D01*
X60483029Y-158441013D01*
X60374477Y-158530127D01*
X60313072Y-158565895D01*
X60245718Y-158596097D01*
X60172224Y-158620306D01*
X60092230Y-158638165D01*
X60003940Y-158649399D01*
X59908339Y-158653237D01*
X59037613Y-158653237D01*
X59037613Y-159130000D01*
X58530809Y-159130000D01*
X58530809Y-157778848D01*
X59037613Y-157778848D01*
X59037613Y-158188443D01*
X59919574Y-158188443D01*
X59989199Y-158183348D01*
X60035156Y-158172341D01*
X60073715Y-158155599D01*
X60109247Y-158130522D01*
X60137927Y-158099295D01*
X60168048Y-158046432D01*
X60178955Y-158007970D01*
X60182746Y-157965572D01*
X60173503Y-157897764D01*
X60157889Y-157858598D01*
X60135118Y-157823422D01*
X60103108Y-157792248D01*
X60069716Y-157770819D01*
X60029467Y-157754504D01*
X59979247Y-157743672D01*
X59919574Y-157739891D01*
X59074005Y-157739891D01*
X59052014Y-157745245D01*
X59041367Y-157757832D01*
X59037613Y-157778848D01*
X58530809Y-157778848D01*
X58530809Y-157356186D01*
X58543937Y-157292338D01*
X58559496Y-157270423D01*
X58580974Y-157254214D01*
X58613543Y-157242491D01*
X58654030Y-157238583D01*
X59908339Y-157238583D01*
X60071134Y-157249453D01*
G37*
G36*
X62645813Y-158822254D02*
G01*
X62682259Y-158893246D01*
X62723624Y-158955918D01*
X62766746Y-159006923D01*
X62814386Y-159050835D01*
X62864797Y-159086575D01*
X62919637Y-159115819D01*
X63043699Y-159155194D01*
X63194627Y-159169078D01*
X63278259Y-159165156D01*
X63355294Y-159153334D01*
X63420894Y-159135292D01*
X63481268Y-159110352D01*
X63534538Y-159079831D01*
X63583348Y-159042821D01*
X63668607Y-158948673D01*
X63740509Y-158822254D01*
X64418161Y-157322602D01*
X64448936Y-157238583D01*
X63858112Y-157238583D01*
X63835764Y-157305750D01*
X63275715Y-158612327D01*
X63258407Y-158642458D01*
X63238232Y-158660856D01*
X63197313Y-158671067D01*
X63170101Y-158666974D01*
X63145665Y-158653950D01*
X63116225Y-158612327D01*
X62550558Y-157305750D01*
X62531019Y-157238583D01*
X61931769Y-157238583D01*
X61962543Y-157322602D01*
X62645813Y-158822254D01*
G37*
G36*
X65810575Y-157239181D02*
G01*
X65910967Y-157245892D01*
X66005315Y-157259784D01*
X66094384Y-157280683D01*
X66177697Y-157308169D01*
X66257368Y-157342845D01*
X66331381Y-157383713D01*
X66403107Y-157432792D01*
X66469068Y-157487833D01*
X66538587Y-157559281D01*
X66639786Y-157698198D01*
X66713915Y-157851781D01*
X66759062Y-158015176D01*
X66774250Y-158184413D01*
X66774219Y-158192301D01*
X66769512Y-158281359D01*
X66757053Y-158367822D01*
X66736781Y-158452793D01*
X66709228Y-158534326D01*
X66674311Y-158612971D01*
X66632715Y-158687313D01*
X66584634Y-158757226D01*
X66530617Y-158822009D01*
X66439677Y-158909144D01*
X66303848Y-159002550D01*
X66228868Y-159040063D01*
X66148554Y-159071466D01*
X66062703Y-159096487D01*
X65971317Y-159114783D01*
X65873122Y-159126144D01*
X65769068Y-159130000D01*
X65371441Y-159130000D01*
X65228524Y-159122602D01*
X65133867Y-159108653D01*
X65044779Y-159087823D01*
X64960533Y-159060170D01*
X64881754Y-159026135D01*
X64806710Y-158985027D01*
X64737187Y-158937887D01*
X64670669Y-158882846D01*
X64609892Y-158822009D01*
X64598805Y-158809677D01*
X64499477Y-158673674D01*
X64426299Y-158521260D01*
X64381440Y-158356905D01*
X64366495Y-158187100D01*
X64873063Y-158187100D01*
X64882912Y-158279528D01*
X64899443Y-158336916D01*
X64923252Y-158390905D01*
X64953891Y-158441015D01*
X64990666Y-158486297D01*
X65016607Y-158512471D01*
X65107485Y-158575764D01*
X65162012Y-158599210D01*
X65223115Y-158616621D01*
X65293374Y-158627793D01*
X65371441Y-158631622D01*
X65769068Y-158631622D01*
X65815190Y-158630330D01*
X65886382Y-158622582D01*
X65950488Y-158608210D01*
X66008478Y-158587383D01*
X66060001Y-158560665D01*
X66108121Y-158526295D01*
X66149843Y-158486297D01*
X66208210Y-158407330D01*
X66252482Y-158300684D01*
X66267446Y-158187100D01*
X66267366Y-158178682D01*
X66262140Y-158118558D01*
X66249100Y-158060570D01*
X66228415Y-158004675D01*
X66200741Y-157952450D01*
X66127495Y-157862868D01*
X66121897Y-157857747D01*
X66031362Y-157794790D01*
X65978613Y-157771905D01*
X65918972Y-157754813D01*
X65848773Y-157743710D01*
X65769068Y-157739891D01*
X65371441Y-157739891D01*
X65233063Y-157752381D01*
X65170952Y-157768752D01*
X65116179Y-157791226D01*
X65061222Y-157823763D01*
X65013015Y-157862868D01*
X65003919Y-157871628D01*
X64965226Y-157915570D01*
X64932590Y-157964483D01*
X64888089Y-158072380D01*
X64873063Y-158187100D01*
X64366495Y-158187100D01*
X64366259Y-158184413D01*
X64370407Y-158095581D01*
X64382577Y-158009061D01*
X64402400Y-157925118D01*
X64430108Y-157842581D01*
X64464994Y-157763541D01*
X64507181Y-157687571D01*
X64555903Y-157616029D01*
X64671441Y-157487833D01*
X64704831Y-157458664D01*
X64840363Y-157365355D01*
X64914603Y-157328084D01*
X64994269Y-157296811D01*
X65079221Y-157271962D01*
X65169926Y-157253747D01*
X65267561Y-157242432D01*
X65371441Y-157238583D01*
X65769068Y-157238583D01*
X65810575Y-157239181D01*
G37*
G36*
X68988555Y-159130000D02*
G01*
X68988555Y-158645666D01*
X67675384Y-158645666D01*
X67614378Y-158641469D01*
X67569166Y-158627719D01*
X67546109Y-158611698D01*
X67529054Y-158589693D01*
X67510445Y-158525847D01*
X67507345Y-158466636D01*
X67507345Y-157238583D01*
X66997732Y-157238583D01*
X66997732Y-158514141D01*
X67001770Y-158623390D01*
X67014403Y-158721939D01*
X67032150Y-158796207D01*
X67056921Y-158862998D01*
X67085210Y-158916102D01*
X67119731Y-158963309D01*
X67158235Y-159002387D01*
X67202823Y-159036243D01*
X67311104Y-159088236D01*
X67453920Y-159120433D01*
X67613712Y-159130000D01*
X68988555Y-159130000D01*
G37*
G36*
X88189166Y-198488583D02*
G01*
X88189166Y-200380000D01*
X88698779Y-200380000D01*
X88698779Y-198488583D01*
X88189166Y-198488583D01*
G37*
G36*
X91330740Y-198488583D02*
G01*
X90835171Y-198488583D01*
X90835171Y-199711385D01*
X90831508Y-199735490D01*
X90821492Y-199751795D01*
X90795970Y-199761699D01*
X90771103Y-199757852D01*
X90748343Y-199739351D01*
X89824372Y-198629633D01*
X89770264Y-198571363D01*
X89715365Y-198525230D01*
X89665995Y-198494352D01*
X89613817Y-198471201D01*
X89498217Y-198445690D01*
X89415632Y-198441688D01*
X89338585Y-198445687D01*
X89266851Y-198458050D01*
X89208740Y-198476278D01*
X89155865Y-198501778D01*
X89112890Y-198531497D01*
X89075043Y-198567778D01*
X89044211Y-198608554D01*
X89018692Y-198655736D01*
X88985022Y-198769745D01*
X88975995Y-198884989D01*
X88975995Y-200380000D01*
X89474372Y-200380000D01*
X89474372Y-199095282D01*
X89478004Y-199073526D01*
X89487795Y-199057092D01*
X89520654Y-199042056D01*
X89522000Y-199042037D01*
X89540704Y-199045945D01*
X89557804Y-199057669D01*
X89566818Y-199067316D01*
X90605583Y-200270457D01*
X90646581Y-200311968D01*
X90691620Y-200346285D01*
X90792465Y-200393754D01*
X90915801Y-200416847D01*
X90975122Y-200419078D01*
X91032150Y-200415120D01*
X91087204Y-200403042D01*
X91135961Y-200384134D01*
X91181207Y-200357614D01*
X91219561Y-200325722D01*
X91253388Y-200286759D01*
X91280887Y-200242636D01*
X91302972Y-200191666D01*
X91318856Y-200134473D01*
X91328268Y-200070265D01*
X91330740Y-200012414D01*
X91330740Y-198488583D01*
G37*
G36*
X94317646Y-198494413D02*
G01*
X94394936Y-198506744D01*
X94464674Y-198525427D01*
X94529036Y-198550792D01*
X94586583Y-198581948D01*
X94642321Y-198622030D01*
X94691400Y-198667857D01*
X94710175Y-198688754D01*
X94783141Y-198797270D01*
X94827742Y-198916328D01*
X94842708Y-199040205D01*
X94834258Y-199147550D01*
X94801986Y-199259572D01*
X94745950Y-199353543D01*
X94708393Y-199394589D01*
X94663434Y-199432093D01*
X94728705Y-199479345D01*
X94789659Y-199553041D01*
X94812606Y-199600793D01*
X94829360Y-199656108D01*
X94841436Y-199732926D01*
X94845395Y-199823859D01*
X94845395Y-200201214D01*
X94853821Y-200380000D01*
X94341400Y-200380000D01*
X94333095Y-200254337D01*
X94333095Y-199876981D01*
X94327228Y-199819137D01*
X94300664Y-199763277D01*
X94276429Y-199741612D01*
X94244817Y-199725720D01*
X94192265Y-199713207D01*
X94125855Y-199709187D01*
X93243894Y-199709187D01*
X93243894Y-200380000D01*
X92737090Y-200380000D01*
X92737090Y-199003813D01*
X93243894Y-199003813D01*
X93243894Y-199277976D01*
X94139899Y-199277976D01*
X94215447Y-199265336D01*
X94253010Y-199244640D01*
X94282659Y-199216427D01*
X94304717Y-199181225D01*
X94319051Y-199118485D01*
X94310195Y-199065718D01*
X94277042Y-199012240D01*
X94224124Y-198976269D01*
X94185758Y-198965566D01*
X94139899Y-198961803D01*
X93285904Y-198961803D01*
X93259582Y-198968923D01*
X93247809Y-198983303D01*
X93243894Y-199003813D01*
X92737090Y-199003813D01*
X92737090Y-198606186D01*
X92737136Y-198601750D01*
X92750476Y-198542023D01*
X92766208Y-198520302D01*
X92787976Y-198504214D01*
X92821360Y-198492491D01*
X92863120Y-198488583D01*
X94207066Y-198488583D01*
X94317646Y-198494413D01*
G37*
G36*
X71780024Y-198488583D02*
G01*
X71780024Y-200380000D01*
X72289637Y-200380000D01*
X72289637Y-198488583D01*
X71780024Y-198488583D01*
G37*
G36*
X74921598Y-198488583D02*
G01*
X74426029Y-198488583D01*
X74426029Y-199711385D01*
X74422366Y-199735490D01*
X74412350Y-199751795D01*
X74386828Y-199761699D01*
X74361961Y-199757852D01*
X74339201Y-199739351D01*
X73415230Y-198629633D01*
X73361122Y-198571363D01*
X73306223Y-198525230D01*
X73256853Y-198494352D01*
X73204675Y-198471201D01*
X73089075Y-198445690D01*
X73006490Y-198441688D01*
X72929443Y-198445687D01*
X72857709Y-198458050D01*
X72799598Y-198476278D01*
X72746723Y-198501778D01*
X72703748Y-198531497D01*
X72665901Y-198567778D01*
X72635069Y-198608554D01*
X72609550Y-198655736D01*
X72575880Y-198769745D01*
X72566853Y-198884989D01*
X72566853Y-200380000D01*
X73065230Y-200380000D01*
X73065230Y-199095282D01*
X73068862Y-199073526D01*
X73078653Y-199057092D01*
X73111512Y-199042056D01*
X73112858Y-199042037D01*
X73131562Y-199045945D01*
X73148662Y-199057669D01*
X73157676Y-199067316D01*
X74196441Y-200270457D01*
X74237439Y-200311968D01*
X74282478Y-200346285D01*
X74383323Y-200393754D01*
X74506659Y-200416847D01*
X74565980Y-200419078D01*
X74623008Y-200415120D01*
X74678062Y-200403042D01*
X74726819Y-200384134D01*
X74772065Y-200357614D01*
X74810419Y-200325722D01*
X74844246Y-200286759D01*
X74871745Y-200242636D01*
X74893830Y-200191666D01*
X74909714Y-200134473D01*
X74919126Y-200070265D01*
X74921598Y-200012414D01*
X74921598Y-198488583D01*
G37*
G36*
X78307537Y-200380000D02*
G01*
X78307537Y-199895666D01*
X76994365Y-199895666D01*
X76933359Y-199891469D01*
X76888147Y-199877719D01*
X76865090Y-199861698D01*
X76848035Y-199839693D01*
X76829426Y-199775847D01*
X76826326Y-199716636D01*
X76826326Y-198488583D01*
X76316713Y-198488583D01*
X76316713Y-199764141D01*
X76320751Y-199873390D01*
X76333384Y-199971939D01*
X76351131Y-200046207D01*
X76375903Y-200112998D01*
X76404191Y-200166102D01*
X76438712Y-200213309D01*
X76477217Y-200252387D01*
X76521804Y-200286243D01*
X76630085Y-200338236D01*
X76772902Y-200370433D01*
X76932694Y-200380000D01*
X78307537Y-200380000D01*
G37*
G36*
X68958897Y-179988583D02*
G01*
X68896140Y-179992496D01*
X68841711Y-180004258D01*
X68800539Y-180021213D01*
X68765876Y-180044346D01*
X68739342Y-180071599D01*
X68718504Y-180104297D01*
X68693698Y-180187702D01*
X68690108Y-180243450D01*
X68690108Y-181616828D01*
X68694011Y-181676739D01*
X68705698Y-181728855D01*
X68722729Y-181768903D01*
X68745944Y-181802761D01*
X68806880Y-181850051D01*
X68892484Y-181875709D01*
X68956088Y-181880000D01*
X70680931Y-181880000D01*
X70680931Y-181395666D01*
X69241730Y-181395666D01*
X69219752Y-181391758D01*
X69205293Y-181380034D01*
X69196912Y-181345840D01*
X69196912Y-181118572D01*
X70672505Y-181118572D01*
X70672505Y-180754528D01*
X69196912Y-180754528D01*
X69196912Y-180537763D01*
X69200896Y-180513440D01*
X69213150Y-180497456D01*
X69241730Y-180489891D01*
X70680931Y-180489891D01*
X70680931Y-179988583D01*
X68958897Y-179988583D01*
G37*
G36*
X72419208Y-181880000D02*
G01*
X72533904Y-181876056D01*
X72636578Y-181864083D01*
X72717477Y-181846682D01*
X72789554Y-181822716D01*
X72847720Y-181795062D01*
X72898971Y-181761734D01*
X72941402Y-181724741D01*
X72977933Y-181682440D01*
X73033903Y-181581636D01*
X73069432Y-181451795D01*
X73082815Y-181275376D01*
X73082815Y-179988583D01*
X72573203Y-179988583D01*
X72573203Y-181219445D01*
X72569286Y-181267883D01*
X72557499Y-181308305D01*
X72540862Y-181336991D01*
X72518229Y-181359866D01*
X72456671Y-181388151D01*
X72385624Y-181395666D01*
X71598796Y-181395666D01*
X71547149Y-181391758D01*
X71504523Y-181380034D01*
X71474844Y-181363681D01*
X71451473Y-181341536D01*
X71423578Y-181282498D01*
X71416835Y-181219445D01*
X71416835Y-179988583D01*
X70907222Y-179988583D01*
X70907222Y-181275376D01*
X70911189Y-181376061D01*
X70923321Y-181466921D01*
X70940959Y-181538680D01*
X70965383Y-181603176D01*
X70993851Y-181655901D01*
X71028368Y-181702775D01*
X71067394Y-181742396D01*
X71112330Y-181776808D01*
X71222122Y-181830936D01*
X71367042Y-181866238D01*
X71570830Y-181880000D01*
X72419208Y-181880000D01*
G37*
G36*
X74931672Y-179994413D02*
G01*
X75008962Y-180006744D01*
X75078700Y-180025427D01*
X75143062Y-180050792D01*
X75200609Y-180081948D01*
X75256347Y-180122030D01*
X75305425Y-180167857D01*
X75324201Y-180188754D01*
X75397167Y-180297270D01*
X75441768Y-180416328D01*
X75456734Y-180540205D01*
X75448284Y-180647550D01*
X75416012Y-180759572D01*
X75359976Y-180853543D01*
X75322418Y-180894589D01*
X75277460Y-180932093D01*
X75342731Y-180979345D01*
X75403685Y-181053041D01*
X75426632Y-181100793D01*
X75443386Y-181156108D01*
X75455462Y-181232926D01*
X75459420Y-181323859D01*
X75459420Y-181701214D01*
X75467847Y-181880000D01*
X74955425Y-181880000D01*
X74947121Y-181754337D01*
X74947121Y-181376981D01*
X74941254Y-181319137D01*
X74914690Y-181263277D01*
X74890455Y-181241612D01*
X74858843Y-181225720D01*
X74806291Y-181213207D01*
X74739881Y-181209187D01*
X73857920Y-181209187D01*
X73857920Y-181880000D01*
X73351116Y-181880000D01*
X73351116Y-180503813D01*
X73857920Y-180503813D01*
X73857920Y-180777976D01*
X74753925Y-180777976D01*
X74829473Y-180765336D01*
X74867036Y-180744640D01*
X74896685Y-180716427D01*
X74918743Y-180681225D01*
X74933077Y-180618485D01*
X74924221Y-180565718D01*
X74891067Y-180512240D01*
X74838150Y-180476269D01*
X74799784Y-180465566D01*
X74753925Y-180461803D01*
X73899930Y-180461803D01*
X73873608Y-180468923D01*
X73861835Y-180483303D01*
X73857920Y-180503813D01*
X73351116Y-180503813D01*
X73351116Y-180106186D01*
X73351162Y-180101750D01*
X73364502Y-180042023D01*
X73380233Y-180020302D01*
X73402002Y-180004214D01*
X73435386Y-179992491D01*
X73477146Y-179988583D01*
X74821092Y-179988583D01*
X74931672Y-179994413D01*
G37*
G36*
X77078614Y-179989181D02*
G01*
X77179006Y-179995892D01*
X77273354Y-180009784D01*
X77362423Y-180030683D01*
X77445736Y-180058169D01*
X77525407Y-180092845D01*
X77599420Y-180133713D01*
X77671145Y-180182792D01*
X77737107Y-180237833D01*
X77806626Y-180309281D01*
X77907825Y-180448198D01*
X77981953Y-180601781D01*
X78027101Y-180765176D01*
X78042289Y-180934413D01*
X78042258Y-180942301D01*
X78037551Y-181031359D01*
X78025092Y-181117822D01*
X78004820Y-181202793D01*
X77977267Y-181284326D01*
X77942349Y-181362971D01*
X77900754Y-181437313D01*
X77852673Y-181507226D01*
X77798656Y-181572009D01*
X77707716Y-181659144D01*
X77571887Y-181752550D01*
X77496907Y-181790063D01*
X77416593Y-181821466D01*
X77330742Y-181846487D01*
X77239356Y-181864783D01*
X77141161Y-181876144D01*
X77037107Y-181880000D01*
X76639480Y-181880000D01*
X76496563Y-181872602D01*
X76401906Y-181858653D01*
X76312818Y-181837823D01*
X76228572Y-181810170D01*
X76149793Y-181776135D01*
X76074749Y-181735027D01*
X76005226Y-181687887D01*
X75938708Y-181632846D01*
X75877931Y-181572009D01*
X75866844Y-181559677D01*
X75767516Y-181423674D01*
X75694338Y-181271260D01*
X75649479Y-181106905D01*
X75634534Y-180937100D01*
X76141102Y-180937100D01*
X76150951Y-181029528D01*
X76167482Y-181086916D01*
X76191291Y-181140905D01*
X76221930Y-181191015D01*
X76258705Y-181236297D01*
X76284646Y-181262471D01*
X76375524Y-181325764D01*
X76430051Y-181349210D01*
X76491154Y-181366621D01*
X76561413Y-181377793D01*
X76639480Y-181381622D01*
X77037107Y-181381622D01*
X77083228Y-181380330D01*
X77154421Y-181372582D01*
X77218527Y-181358210D01*
X77276517Y-181337383D01*
X77328040Y-181310665D01*
X77376160Y-181276295D01*
X77417882Y-181236297D01*
X77476249Y-181157330D01*
X77520521Y-181050684D01*
X77535485Y-180937100D01*
X77535405Y-180928682D01*
X77530178Y-180868558D01*
X77517138Y-180810570D01*
X77496454Y-180754675D01*
X77468780Y-180702450D01*
X77395534Y-180612868D01*
X77389936Y-180607747D01*
X77299401Y-180544790D01*
X77246652Y-180521905D01*
X77187011Y-180504813D01*
X77116812Y-180493710D01*
X77037107Y-180489891D01*
X76639480Y-180489891D01*
X76501102Y-180502381D01*
X76438991Y-180518752D01*
X76384218Y-180541226D01*
X76329261Y-180573763D01*
X76281053Y-180612868D01*
X76271958Y-180621628D01*
X76233265Y-180665570D01*
X76200629Y-180714483D01*
X76156128Y-180822380D01*
X76141102Y-180937100D01*
X75634534Y-180937100D01*
X75634298Y-180934413D01*
X75638446Y-180845581D01*
X75650616Y-180759061D01*
X75670439Y-180675118D01*
X75698147Y-180592581D01*
X75733032Y-180513541D01*
X75775220Y-180437571D01*
X75823942Y-180366029D01*
X75939480Y-180237833D01*
X75972870Y-180208664D01*
X76108401Y-180115355D01*
X76182641Y-180078084D01*
X76262308Y-180046811D01*
X76347260Y-180021962D01*
X76437965Y-180003747D01*
X76535600Y-179992432D01*
X76639480Y-179988583D01*
X77037107Y-179988583D01*
X77078614Y-179989181D01*
G37*
G36*
X81391835Y-181880000D02*
G01*
X81391835Y-181395666D01*
X80078663Y-181395666D01*
X80017658Y-181391469D01*
X79972445Y-181377719D01*
X79949388Y-181361698D01*
X79932334Y-181339693D01*
X79913724Y-181275847D01*
X79910624Y-181216636D01*
X79910624Y-179988583D01*
X79401012Y-179988583D01*
X79401012Y-181264141D01*
X79405049Y-181373390D01*
X79417682Y-181471939D01*
X79435430Y-181546207D01*
X79460201Y-181612998D01*
X79488489Y-181666102D01*
X79523010Y-181713309D01*
X79561515Y-181752387D01*
X79606103Y-181786243D01*
X79714383Y-181838236D01*
X79857200Y-181870433D01*
X80016992Y-181880000D01*
X81391835Y-181880000D01*
G37*
G36*
X81964968Y-157238583D02*
G01*
X81902211Y-157242496D01*
X81847782Y-157254258D01*
X81806610Y-157271213D01*
X81771947Y-157294346D01*
X81745413Y-157321599D01*
X81724575Y-157354297D01*
X81699769Y-157437702D01*
X81696179Y-157493450D01*
X81696179Y-158866828D01*
X81700082Y-158926739D01*
X81711769Y-158978855D01*
X81728800Y-159018903D01*
X81752015Y-159052761D01*
X81812951Y-159100051D01*
X81898555Y-159125709D01*
X81962159Y-159130000D01*
X83687002Y-159130000D01*
X83687002Y-158645666D01*
X82247801Y-158645666D01*
X82225823Y-158641758D01*
X82211364Y-158630034D01*
X82202983Y-158595840D01*
X82202983Y-158368572D01*
X83678576Y-158368572D01*
X83678576Y-158004528D01*
X82202983Y-158004528D01*
X82202983Y-157787763D01*
X82206967Y-157763440D01*
X82219221Y-157747456D01*
X82247801Y-157739891D01*
X83687002Y-157739891D01*
X83687002Y-157238583D01*
X81964968Y-157238583D01*
G37*
G36*
X85797749Y-157238583D02*
G01*
X85744504Y-157300254D01*
X85215352Y-157809378D01*
X84714166Y-157300254D01*
X84666538Y-157238583D01*
X83960921Y-157238583D01*
X84014166Y-157300254D01*
X84859734Y-158120055D01*
X83882519Y-159071259D01*
X83880973Y-159072813D01*
X83832083Y-159130000D01*
X84498499Y-159130000D01*
X84548935Y-159074068D01*
X85184455Y-158447341D01*
X85786514Y-159074068D01*
X85831332Y-159130000D01*
X86556489Y-159130000D01*
X86555598Y-159128760D01*
X86508862Y-159071259D01*
X85551308Y-158120055D01*
X86399685Y-157300254D01*
X86455739Y-157238583D01*
X85797749Y-157238583D01*
G37*
G36*
X86662002Y-157238583D02*
G01*
X86662002Y-157739891D01*
X87493649Y-157739891D01*
X87493649Y-159130000D01*
X88003140Y-159130000D01*
X88003140Y-157739891D01*
X88831978Y-157739891D01*
X88831978Y-157238583D01*
X86662002Y-157238583D01*
G37*
G36*
X90160415Y-157238583D02*
G01*
X90160415Y-159130000D01*
X90670027Y-159130000D01*
X90670027Y-157238583D01*
X90160415Y-157238583D01*
G37*
G36*
X93301988Y-157238583D02*
G01*
X92806420Y-157238583D01*
X92806420Y-158461385D01*
X92802756Y-158485490D01*
X92792741Y-158501795D01*
X92767219Y-158511699D01*
X92742352Y-158507852D01*
X92719591Y-158489351D01*
X91795621Y-157379633D01*
X91741512Y-157321363D01*
X91686613Y-157275230D01*
X91637244Y-157244352D01*
X91585065Y-157221201D01*
X91469465Y-157195690D01*
X91386880Y-157191688D01*
X91309833Y-157195687D01*
X91238099Y-157208050D01*
X91179988Y-157226278D01*
X91127113Y-157251778D01*
X91084138Y-157281497D01*
X91046292Y-157317778D01*
X91015459Y-157358554D01*
X90989940Y-157405736D01*
X90956270Y-157519745D01*
X90947243Y-157634989D01*
X90947243Y-159130000D01*
X91445621Y-159130000D01*
X91445621Y-157845282D01*
X91449252Y-157823526D01*
X91459043Y-157807092D01*
X91491902Y-157792056D01*
X91493248Y-157792037D01*
X91511953Y-157795945D01*
X91529052Y-157807669D01*
X91538067Y-157817316D01*
X92576831Y-159020457D01*
X92617829Y-159061968D01*
X92662869Y-159096285D01*
X92763713Y-159143754D01*
X92887049Y-159166847D01*
X92946371Y-159169078D01*
X93003398Y-159165120D01*
X93058452Y-159153042D01*
X93107209Y-159134134D01*
X93152455Y-159107614D01*
X93190809Y-159075722D01*
X93224637Y-159036759D01*
X93252136Y-158992636D01*
X93274220Y-158941666D01*
X93290104Y-158884473D01*
X93299516Y-158820265D01*
X93301988Y-158762414D01*
X93301988Y-157238583D01*
G37*
G36*
X87637651Y-216989181D02*
G01*
X87738044Y-216995892D01*
X87832391Y-217009784D01*
X87921460Y-217030683D01*
X88004773Y-217058169D01*
X88084445Y-217092845D01*
X88158458Y-217133713D01*
X88230183Y-217182792D01*
X88296145Y-217237833D01*
X88365663Y-217309281D01*
X88466862Y-217448198D01*
X88540991Y-217601781D01*
X88586139Y-217765176D01*
X88601326Y-217934413D01*
X88601295Y-217942301D01*
X88596589Y-218031359D01*
X88584129Y-218117822D01*
X88563857Y-218202793D01*
X88536305Y-218284326D01*
X88501387Y-218362971D01*
X88459792Y-218437313D01*
X88411711Y-218507226D01*
X88357694Y-218572009D01*
X88266754Y-218659144D01*
X88130924Y-218752550D01*
X88055945Y-218790063D01*
X87975630Y-218821466D01*
X87889780Y-218846487D01*
X87798394Y-218864783D01*
X87700199Y-218876144D01*
X87596145Y-218880000D01*
X87198517Y-218880000D01*
X87055601Y-218872602D01*
X86960944Y-218858653D01*
X86871855Y-218837823D01*
X86787609Y-218810170D01*
X86708830Y-218776135D01*
X86633786Y-218735027D01*
X86564264Y-218687887D01*
X86497745Y-218632846D01*
X86436968Y-218572009D01*
X86425881Y-218559677D01*
X86326554Y-218423674D01*
X86253376Y-218271260D01*
X86208516Y-218106905D01*
X86193572Y-217937100D01*
X86700140Y-217937100D01*
X86709988Y-218029528D01*
X86726519Y-218086916D01*
X86750328Y-218140905D01*
X86780968Y-218191015D01*
X86817743Y-218236297D01*
X86843683Y-218262471D01*
X86934561Y-218325764D01*
X86989088Y-218349210D01*
X87050191Y-218366621D01*
X87120450Y-218377793D01*
X87198517Y-218381622D01*
X87596145Y-218381622D01*
X87642266Y-218380330D01*
X87713459Y-218372582D01*
X87777564Y-218358210D01*
X87835554Y-218337383D01*
X87887078Y-218310665D01*
X87935197Y-218276295D01*
X87976919Y-218236297D01*
X88035287Y-218157330D01*
X88079559Y-218050684D01*
X88094522Y-217937100D01*
X88094443Y-217928682D01*
X88089216Y-217868558D01*
X88076176Y-217810570D01*
X88055491Y-217754675D01*
X88027817Y-217702450D01*
X87954571Y-217612868D01*
X87948973Y-217607747D01*
X87858439Y-217544790D01*
X87805690Y-217521905D01*
X87746048Y-217504813D01*
X87675850Y-217493710D01*
X87596145Y-217489891D01*
X87198517Y-217489891D01*
X87060139Y-217502381D01*
X86998028Y-217518752D01*
X86943255Y-217541226D01*
X86888299Y-217573763D01*
X86840091Y-217612868D01*
X86830995Y-217621628D01*
X86792303Y-217665570D01*
X86759667Y-217714483D01*
X86715166Y-217822380D01*
X86700140Y-217937100D01*
X86193572Y-217937100D01*
X86193336Y-217934413D01*
X86197483Y-217845581D01*
X86209654Y-217759061D01*
X86229476Y-217675118D01*
X86257184Y-217592581D01*
X86292070Y-217513541D01*
X86334257Y-217437571D01*
X86382979Y-217366029D01*
X86498517Y-217237833D01*
X86531908Y-217208664D01*
X86667439Y-217115355D01*
X86741679Y-217078084D01*
X86821346Y-217046811D01*
X86906297Y-217021962D01*
X86997002Y-217003747D01*
X87094638Y-216992432D01*
X87198517Y-216988583D01*
X87596145Y-216988583D01*
X87637651Y-216989181D01*
G37*
G36*
X90344609Y-218880000D02*
G01*
X90459306Y-218876056D01*
X90561979Y-218864083D01*
X90642879Y-218846682D01*
X90714956Y-218822716D01*
X90773122Y-218795062D01*
X90824373Y-218761734D01*
X90866804Y-218724741D01*
X90903334Y-218682440D01*
X90959305Y-218581636D01*
X90994834Y-218451795D01*
X91008217Y-218275376D01*
X91008217Y-216988583D01*
X90498605Y-216988583D01*
X90498605Y-218219445D01*
X90494688Y-218267883D01*
X90482901Y-218308305D01*
X90466264Y-218336991D01*
X90443631Y-218359866D01*
X90382073Y-218388151D01*
X90311026Y-218395666D01*
X89524198Y-218395666D01*
X89472551Y-218391758D01*
X89429924Y-218380034D01*
X89400245Y-218363681D01*
X89376875Y-218341536D01*
X89348980Y-218282498D01*
X89342237Y-218219445D01*
X89342237Y-216988583D01*
X88832624Y-216988583D01*
X88832624Y-218275376D01*
X88836590Y-218376061D01*
X88848723Y-218466921D01*
X88866361Y-218538680D01*
X88890785Y-218603176D01*
X88919253Y-218655901D01*
X88953770Y-218702775D01*
X88992796Y-218742396D01*
X89037732Y-218776808D01*
X89147524Y-218830936D01*
X89292444Y-218866238D01*
X89496232Y-218880000D01*
X90344609Y-218880000D01*
G37*
G36*
X91192498Y-216988583D02*
G01*
X91192498Y-217489891D01*
X92024145Y-217489891D01*
X92024145Y-218880000D01*
X92533636Y-218880000D01*
X92533636Y-217489891D01*
X93362474Y-217489891D01*
X93362474Y-216988583D01*
X91192498Y-216988583D01*
G37*
G36*
X96268658Y-216994413D02*
G01*
X96345948Y-217006744D01*
X96415686Y-217025427D01*
X96480048Y-217050792D01*
X96537595Y-217081948D01*
X96593333Y-217122030D01*
X96642411Y-217167857D01*
X96661187Y-217188754D01*
X96734152Y-217297270D01*
X96778754Y-217416328D01*
X96793720Y-217540205D01*
X96785269Y-217647550D01*
X96752998Y-217759572D01*
X96696962Y-217853543D01*
X96659404Y-217894589D01*
X96614445Y-217932093D01*
X96679717Y-217979345D01*
X96740670Y-218053041D01*
X96763618Y-218100793D01*
X96780372Y-218156108D01*
X96792448Y-218232926D01*
X96796406Y-218323859D01*
X96796406Y-218701214D01*
X96804833Y-218880000D01*
X96292411Y-218880000D01*
X96284107Y-218754337D01*
X96284107Y-218376981D01*
X96278240Y-218319137D01*
X96251676Y-218263277D01*
X96227441Y-218241612D01*
X96195829Y-218225720D01*
X96143277Y-218213207D01*
X96076867Y-218209187D01*
X95194906Y-218209187D01*
X95194906Y-218880000D01*
X94688102Y-218880000D01*
X94688102Y-217503813D01*
X95194906Y-217503813D01*
X95194906Y-217777976D01*
X96090911Y-217777976D01*
X96166459Y-217765336D01*
X96204022Y-217744640D01*
X96233671Y-217716427D01*
X96255729Y-217681225D01*
X96270063Y-217618485D01*
X96261207Y-217565718D01*
X96228053Y-217512240D01*
X96175136Y-217476269D01*
X96136770Y-217465566D01*
X96090911Y-217461803D01*
X95236916Y-217461803D01*
X95210593Y-217468923D01*
X95198821Y-217483303D01*
X95194906Y-217503813D01*
X94688102Y-217503813D01*
X94688102Y-217106186D01*
X94688148Y-217101750D01*
X94701488Y-217042023D01*
X94717219Y-217020302D01*
X94738988Y-217004214D01*
X94772372Y-216992491D01*
X94814131Y-216988583D01*
X96158078Y-216988583D01*
X96268658Y-216994413D01*
G37*
D15*
%TO.C,H15*%
X59408660Y-53004996D02*
X67204331Y-57502498D01*
X59408661Y-70995006D02*
X67204332Y-66497502D01*
D10*
X60577752Y-60500415D02*
X59577703Y-60446703D01*
X60579238Y-63513781D02*
X59584382Y-63618213D01*
X60810173Y-59016912D02*
X59831249Y-58811116D01*
X60815004Y-65005963D02*
X59836414Y-65213337D01*
X61204495Y-57535245D02*
X60252774Y-57227232D01*
X61204744Y-66465516D02*
X60253041Y-66773582D01*
X61749397Y-67888244D02*
X60835266Y-68294461D01*
X61753066Y-56103499D02*
X60839190Y-55696713D01*
X63266381Y-53481070D02*
X62456906Y-52893369D01*
X63272245Y-70526998D02*
X62463173Y-71115257D01*
X64217811Y-52304930D02*
X63473973Y-51636090D01*
X64234319Y-71713397D02*
X63491620Y-72383502D01*
X65286603Y-51234319D02*
X64616498Y-50491620D01*
X65304930Y-72782189D02*
X64636090Y-73526027D01*
D15*
X66000000Y-62000000D02*
X57000000Y-62000000D01*
X66004994Y-46408661D02*
X70502498Y-54204332D01*
X66004996Y-77591340D02*
X70502498Y-69795669D01*
D10*
X66473002Y-50272245D02*
X65884743Y-49463173D01*
X66481070Y-73733619D02*
X65893369Y-74543094D01*
X69111756Y-48749397D02*
X68705539Y-47835266D01*
X70534484Y-48204744D02*
X70226418Y-47253041D01*
X71994037Y-47815004D02*
X71786663Y-46836414D01*
X73486219Y-47579238D02*
X73381787Y-46584382D01*
D15*
X75000000Y-53000000D02*
X75000000Y-44000000D01*
D10*
X76499585Y-47577752D02*
X76553297Y-46577703D01*
X77983088Y-47810173D02*
X78188884Y-46831249D01*
X79464755Y-48204495D02*
X79772768Y-47252774D01*
X80896501Y-48753066D02*
X81303287Y-47839190D01*
X83518930Y-50266381D02*
X84106631Y-49456906D01*
X83526998Y-73727755D02*
X84115257Y-74536827D01*
D15*
X83995004Y-46408660D02*
X79497502Y-54204331D01*
X83995006Y-77591339D02*
X79497502Y-69795668D01*
X84000000Y-62000000D02*
X93000000Y-62000000D01*
D10*
X84695070Y-51217811D02*
X85363910Y-50473973D01*
X84713397Y-72765681D02*
X85383502Y-73508380D01*
X85765681Y-52286603D02*
X86508380Y-51616498D01*
X85782189Y-71695070D02*
X86526027Y-72363910D01*
X86727755Y-53473002D02*
X87536827Y-52884743D01*
X86733619Y-70518930D02*
X87543094Y-71106631D01*
X88246934Y-67896501D02*
X89160810Y-68303287D01*
X88250603Y-56111756D02*
X89164734Y-55705539D01*
X88795256Y-57534484D02*
X89746959Y-57226418D01*
X88795505Y-66464755D02*
X89747226Y-66772768D01*
X89184996Y-58994037D02*
X90163586Y-58786663D01*
X89189827Y-64983088D02*
X90168751Y-65188884D01*
X89420762Y-60486219D02*
X90415618Y-60381787D01*
X89422248Y-63499585D02*
X90422297Y-63553297D01*
D15*
X90591339Y-53004994D02*
X82795668Y-57502498D01*
X90591340Y-70995004D02*
X82795669Y-66497502D01*
D16*
%TO.C,H12*%
G36*
X85000000Y-171750000D02*
G01*
X85000000Y-171750000D01*
G75*
G03*
X91500000Y-178250000I6500000J0D01*
G01*
X86000000Y-178250000D01*
X85000000Y-177250000D01*
X85000000Y-171750000D01*
G37*
G36*
X91500000Y-165250000D02*
G01*
X91500000Y-165250000D01*
G75*
G03*
X85000000Y-171750000I0J-6500000D01*
G01*
X85000000Y-166250000D01*
X86000000Y-165250000D01*
X91500000Y-165250000D01*
G37*
G36*
X98000000Y-177250000D02*
G01*
X97000000Y-178250000D01*
X91500000Y-178250000D01*
G75*
G03*
X98000000Y-171750000I0J6500000D01*
G01*
X98000000Y-177250000D01*
G37*
G36*
X98000000Y-166250000D02*
G01*
X98000000Y-171750000D01*
G75*
G03*
X91500000Y-165250000I-6500000J0D01*
G01*
X97000000Y-165250000D01*
X98000000Y-166250000D01*
G37*
%TO.C,H7*%
G36*
X68500000Y-208750000D02*
G01*
X68500000Y-208750000D01*
G75*
G03*
X75000000Y-215250000I6500000J0D01*
G01*
X69500000Y-215250000D01*
X68500000Y-214250000D01*
X68500000Y-208750000D01*
G37*
G36*
X75000000Y-202250000D02*
G01*
X75000000Y-202250000D01*
G75*
G03*
X68500000Y-208750000I0J-6500000D01*
G01*
X68500000Y-203250000D01*
X69500000Y-202250000D01*
X75000000Y-202250000D01*
G37*
G36*
X81500000Y-214250000D02*
G01*
X80500000Y-215250000D01*
X75000000Y-215250000D01*
G75*
G03*
X81500000Y-208750000I0J6500000D01*
G01*
X81500000Y-214250000D01*
G37*
G36*
X81500000Y-203250000D02*
G01*
X81500000Y-208750000D01*
G75*
G03*
X75000000Y-202250000I-6500000J0D01*
G01*
X80500000Y-202250000D01*
X81500000Y-203250000D01*
G37*
%TO.C,H13*%
G36*
X52000000Y-208750000D02*
G01*
X52000000Y-208750000D01*
G75*
G03*
X58500000Y-215250000I6500000J0D01*
G01*
X53000000Y-215250000D01*
X52000000Y-214250000D01*
X52000000Y-208750000D01*
G37*
G36*
X58500000Y-202250000D02*
G01*
X58500000Y-202250000D01*
G75*
G03*
X52000000Y-208750000I0J-6500000D01*
G01*
X52000000Y-203250000D01*
X53000000Y-202250000D01*
X58500000Y-202250000D01*
G37*
G36*
X65000000Y-214250000D02*
G01*
X64000000Y-215250000D01*
X58500000Y-215250000D01*
G75*
G03*
X65000000Y-208750000I0J6500000D01*
G01*
X65000000Y-214250000D01*
G37*
G36*
X65000000Y-203250000D02*
G01*
X65000000Y-208750000D01*
G75*
G03*
X58500000Y-202250000I-6500000J0D01*
G01*
X64000000Y-202250000D01*
X65000000Y-203250000D01*
G37*
D15*
%TO.C,H14*%
X55000002Y-145000000D02*
X50500000Y-145000000D01*
X56006990Y-141246229D02*
X52105715Y-139003433D01*
X56006990Y-148753772D02*
X52105773Y-150996669D01*
X58746228Y-138506990D02*
X56503331Y-134605773D01*
X58746229Y-151493010D02*
X56503433Y-155394285D01*
X62500000Y-137500000D02*
X62500000Y-133000000D01*
X66253771Y-138506990D02*
X68496567Y-134605715D01*
X66253772Y-151493010D02*
X68496669Y-155394227D01*
X68993010Y-141246228D02*
X72894227Y-139003331D01*
X68993010Y-148753771D02*
X72894285Y-150996567D01*
X70000000Y-145000000D02*
X74500000Y-145000000D01*
D16*
%TO.C,H11*%
G36*
X68500000Y-171750000D02*
G01*
X68500000Y-171750000D01*
G75*
G03*
X75000000Y-178250000I6500000J0D01*
G01*
X69500000Y-178250000D01*
X68500000Y-177250000D01*
X68500000Y-171750000D01*
G37*
G36*
X75000000Y-165250000D02*
G01*
X75000000Y-165250000D01*
G75*
G03*
X68500000Y-171750000I0J-6500000D01*
G01*
X68500000Y-166250000D01*
X69500000Y-165250000D01*
X75000000Y-165250000D01*
G37*
G36*
X81500000Y-177250000D02*
G01*
X80500000Y-178250000D01*
X75000000Y-178250000D01*
G75*
G03*
X81500000Y-171750000I0J6500000D01*
G01*
X81500000Y-177250000D01*
G37*
G36*
X81500000Y-166250000D02*
G01*
X81500000Y-171750000D01*
G75*
G03*
X75000000Y-165250000I-6500000J0D01*
G01*
X80500000Y-165250000D01*
X81500000Y-166250000D01*
G37*
D15*
%TO.C,H18*%
X80000002Y-145000000D02*
X75500000Y-145000000D01*
X81006990Y-141246229D02*
X77105715Y-139003433D01*
X81006990Y-148753772D02*
X77105773Y-150996669D01*
X83746228Y-138506990D02*
X81503331Y-134605773D01*
X83746229Y-151493010D02*
X81503433Y-155394285D01*
X87500000Y-137500000D02*
X87500000Y-133000000D01*
X91253771Y-138506990D02*
X93496567Y-134605715D01*
X91253772Y-151493010D02*
X93496669Y-155394227D01*
X93993010Y-141246228D02*
X97894227Y-139003331D01*
X93993010Y-148753771D02*
X97894285Y-150996567D01*
X95000000Y-145000000D02*
X99500000Y-145000000D01*
D16*
%TO.C,H8*%
G36*
X85000000Y-208750000D02*
G01*
X85000000Y-208750000D01*
G75*
G03*
X91500000Y-215250000I6500000J0D01*
G01*
X86000000Y-215250000D01*
X85000000Y-214250000D01*
X85000000Y-208750000D01*
G37*
G36*
X91500000Y-202250000D02*
G01*
X91500000Y-202250000D01*
G75*
G03*
X85000000Y-208750000I0J-6500000D01*
G01*
X85000000Y-203250000D01*
X86000000Y-202250000D01*
X91500000Y-202250000D01*
G37*
G36*
X98000000Y-214250000D02*
G01*
X97000000Y-215250000D01*
X91500000Y-215250000D01*
G75*
G03*
X98000000Y-208750000I0J6500000D01*
G01*
X98000000Y-214250000D01*
G37*
G36*
X98000000Y-203250000D02*
G01*
X98000000Y-208750000D01*
G75*
G03*
X91500000Y-202250000I-6500000J0D01*
G01*
X97000000Y-202250000D01*
X98000000Y-203250000D01*
G37*
%TD*%
%LPC*%
D17*
%TO.C,H15*%
X75000000Y-62000000D03*
D18*
X75000000Y-68000000D03*
%TD*%
D19*
%TO.C,H12*%
X85800000Y-171750000D03*
X87460000Y-167720000D03*
X87470000Y-175790000D03*
X91500000Y-166050000D03*
D17*
X91500000Y-171750000D03*
D19*
X91500000Y-177450000D03*
X95530000Y-175790000D03*
X95540000Y-167720000D03*
X97200000Y-171750000D03*
%TD*%
D20*
%TO.C,H3*%
X53500000Y-226500000D03*
%TD*%
D19*
%TO.C,H7*%
X69300000Y-208750000D03*
X70960000Y-204720000D03*
X70970000Y-212790000D03*
X75000000Y-203050000D03*
D17*
X75000000Y-208750000D03*
D19*
X75000000Y-214450000D03*
X79030000Y-212790000D03*
X79040000Y-204720000D03*
X80700000Y-208750000D03*
%TD*%
%TO.C,H10*%
X52800000Y-190250000D03*
X54460000Y-186220000D03*
X54470000Y-194290000D03*
X58500000Y-184550000D03*
D17*
X58500000Y-190250000D03*
D19*
X58500000Y-195950000D03*
X62530000Y-194290000D03*
X62540000Y-186220000D03*
X64200000Y-190250000D03*
%TD*%
%TO.C,H13*%
X52800000Y-208750000D03*
X54460000Y-204720000D03*
X54470000Y-212790000D03*
X58500000Y-203050000D03*
D17*
X58500000Y-208750000D03*
D19*
X58500000Y-214450000D03*
X62530000Y-212790000D03*
X62540000Y-204720000D03*
X64200000Y-208750000D03*
%TD*%
%TO.C,H9*%
X52800000Y-171750000D03*
X54460000Y-167720000D03*
X54470000Y-175790000D03*
X58500000Y-166050000D03*
D17*
X58500000Y-171750000D03*
D19*
X58500000Y-177450000D03*
X62530000Y-175790000D03*
X62540000Y-167720000D03*
X64200000Y-171750000D03*
%TD*%
D17*
%TO.C,H14*%
X62500000Y-145000000D03*
D18*
X62500000Y-151000000D03*
%TD*%
D19*
%TO.C,H6*%
X85800000Y-190250000D03*
X87460000Y-186220000D03*
X87470000Y-194290000D03*
X91500000Y-184550000D03*
D17*
X91500000Y-190250000D03*
D19*
X91500000Y-195950000D03*
X95530000Y-194290000D03*
X95540000Y-186220000D03*
X97200000Y-190250000D03*
%TD*%
%TO.C,H5*%
X69300000Y-190250000D03*
X70960000Y-186220000D03*
X70970000Y-194290000D03*
X75000000Y-184550000D03*
D17*
X75000000Y-190250000D03*
D19*
X75000000Y-195950000D03*
X79030000Y-194290000D03*
X79040000Y-186220000D03*
X80700000Y-190250000D03*
%TD*%
D20*
%TO.C,H2*%
X96500000Y-33500000D03*
%TD*%
%TO.C,H4*%
X96500000Y-226500000D03*
%TD*%
D19*
%TO.C,H11*%
X69300000Y-171750000D03*
X70960000Y-167720000D03*
X70970000Y-175790000D03*
X75000000Y-166050000D03*
D17*
X75000000Y-171750000D03*
D19*
X75000000Y-177450000D03*
X79030000Y-175790000D03*
X79040000Y-167720000D03*
X80700000Y-171750000D03*
%TD*%
D20*
%TO.C,H1*%
X53500000Y-33500000D03*
%TD*%
D17*
%TO.C,H18*%
X87500000Y-145000000D03*
D18*
X87500000Y-151000000D03*
%TD*%
D19*
%TO.C,H8*%
X85800000Y-208750000D03*
X87460000Y-204720000D03*
X87470000Y-212790000D03*
X91500000Y-203050000D03*
D17*
X91500000Y-208750000D03*
D19*
X91500000Y-214450000D03*
X95530000Y-212790000D03*
X95540000Y-204720000D03*
X97200000Y-208750000D03*
%TD*%
G36*
X85943039Y-93019685D02*
G01*
X85988794Y-93072489D01*
X86000000Y-93124000D01*
X86000000Y-94876000D01*
X85980315Y-94943039D01*
X85927511Y-94988794D01*
X85876000Y-95000000D01*
X81124000Y-95000000D01*
X81056961Y-94980315D01*
X81011206Y-94927511D01*
X81000000Y-94876000D01*
X81000000Y-93124000D01*
X81019685Y-93056961D01*
X81072489Y-93011206D01*
X81124000Y-93000000D01*
X85876000Y-93000000D01*
X85943039Y-93019685D01*
G37*
G36*
X85943039Y-97019685D02*
G01*
X85988794Y-97072489D01*
X86000000Y-97124000D01*
X86000000Y-98876000D01*
X85980315Y-98943039D01*
X85927511Y-98988794D01*
X85876000Y-99000000D01*
X81124000Y-99000000D01*
X81056961Y-98980315D01*
X81011206Y-98927511D01*
X81000000Y-98876000D01*
X81000000Y-97124000D01*
X81019685Y-97056961D01*
X81072489Y-97011206D01*
X81124000Y-97000000D01*
X85876000Y-97000000D01*
X85943039Y-97019685D01*
G37*
G36*
X77443039Y-161019685D02*
G01*
X77488794Y-161072489D01*
X77500000Y-161124000D01*
X77500000Y-162876000D01*
X77480315Y-162943039D01*
X77427511Y-162988794D01*
X77376000Y-163000000D01*
X72624000Y-163000000D01*
X72556961Y-162980315D01*
X72511206Y-162927511D01*
X72500000Y-162876000D01*
X72500000Y-161124000D01*
X72519685Y-161056961D01*
X72572489Y-161011206D01*
X72624000Y-161000000D01*
X77376000Y-161000000D01*
X77443039Y-161019685D01*
G37*
G36*
X93943039Y-161019685D02*
G01*
X93988794Y-161072489D01*
X94000000Y-161124000D01*
X94000000Y-162876000D01*
X93980315Y-162943039D01*
X93927511Y-162988794D01*
X93876000Y-163000000D01*
X89124000Y-163000000D01*
X89056961Y-162980315D01*
X89011206Y-162927511D01*
X89000000Y-162876000D01*
X89000000Y-161124000D01*
X89019685Y-161056961D01*
X89072489Y-161011206D01*
X89124000Y-161000000D01*
X93876000Y-161000000D01*
X93943039Y-161019685D01*
G37*
G36*
X68943039Y-117019685D02*
G01*
X68988794Y-117072489D01*
X69000000Y-117124000D01*
X69000000Y-118876000D01*
X68980315Y-118943039D01*
X68927511Y-118988794D01*
X68876000Y-119000000D01*
X64124000Y-119000000D01*
X64056961Y-118980315D01*
X64011206Y-118927511D01*
X64000000Y-118876000D01*
X64000000Y-117124000D01*
X64019685Y-117056961D01*
X64072489Y-117011206D01*
X64124000Y-117000000D01*
X68876000Y-117000000D01*
X68943039Y-117019685D01*
G37*
G36*
X85943039Y-121019685D02*
G01*
X85988794Y-121072489D01*
X86000000Y-121124000D01*
X86000000Y-122876000D01*
X85980315Y-122943039D01*
X85927511Y-122988794D01*
X85876000Y-123000000D01*
X81124000Y-123000000D01*
X81056961Y-122980315D01*
X81011206Y-122927511D01*
X81000000Y-122876000D01*
X81000000Y-121124000D01*
X81019685Y-121056961D01*
X81072489Y-121011206D01*
X81124000Y-121000000D01*
X85876000Y-121000000D01*
X85943039Y-121019685D01*
G37*
G36*
X68943039Y-109019685D02*
G01*
X68988794Y-109072489D01*
X69000000Y-109124000D01*
X69000000Y-110876000D01*
X68980315Y-110943039D01*
X68927511Y-110988794D01*
X68876000Y-111000000D01*
X64124000Y-111000000D01*
X64056961Y-110980315D01*
X64011206Y-110927511D01*
X64000000Y-110876000D01*
X64000000Y-109124000D01*
X64019685Y-109056961D01*
X64072489Y-109011206D01*
X64124000Y-109000000D01*
X68876000Y-109000000D01*
X68943039Y-109019685D01*
G37*
G36*
X68943039Y-105019685D02*
G01*
X68988794Y-105072489D01*
X69000000Y-105124000D01*
X69000000Y-106876000D01*
X68980315Y-106943039D01*
X68927511Y-106988794D01*
X68876000Y-107000000D01*
X64124000Y-107000000D01*
X64056961Y-106980315D01*
X64011206Y-106927511D01*
X64000000Y-106876000D01*
X64000000Y-105124000D01*
X64019685Y-105056961D01*
X64072489Y-105011206D01*
X64124000Y-105000000D01*
X68876000Y-105000000D01*
X68943039Y-105019685D01*
G37*
G36*
X85943039Y-117019685D02*
G01*
X85988794Y-117072489D01*
X86000000Y-117124000D01*
X86000000Y-118876000D01*
X85980315Y-118943039D01*
X85927511Y-118988794D01*
X85876000Y-119000000D01*
X81124000Y-119000000D01*
X81056961Y-118980315D01*
X81011206Y-118927511D01*
X81000000Y-118876000D01*
X81000000Y-117124000D01*
X81019685Y-117056961D01*
X81072489Y-117011206D01*
X81124000Y-117000000D01*
X85876000Y-117000000D01*
X85943039Y-117019685D01*
G37*
G36*
X85943039Y-101019685D02*
G01*
X85988794Y-101072489D01*
X86000000Y-101124000D01*
X86000000Y-102876000D01*
X85980315Y-102943039D01*
X85927511Y-102988794D01*
X85876000Y-103000000D01*
X81124000Y-103000000D01*
X81056961Y-102980315D01*
X81011206Y-102927511D01*
X81000000Y-102876000D01*
X81000000Y-101124000D01*
X81019685Y-101056961D01*
X81072489Y-101011206D01*
X81124000Y-101000000D01*
X85876000Y-101000000D01*
X85943039Y-101019685D01*
G37*
G36*
X68943039Y-93019685D02*
G01*
X68988794Y-93072489D01*
X69000000Y-93124000D01*
X69000000Y-94876000D01*
X68980315Y-94943039D01*
X68927511Y-94988794D01*
X68876000Y-95000000D01*
X64124000Y-95000000D01*
X64056961Y-94980315D01*
X64011206Y-94927511D01*
X64000000Y-94876000D01*
X64000000Y-93124000D01*
X64019685Y-93056961D01*
X64072489Y-93011206D01*
X64124000Y-93000000D01*
X68876000Y-93000000D01*
X68943039Y-93019685D01*
G37*
G36*
X68943039Y-97019685D02*
G01*
X68988794Y-97072489D01*
X69000000Y-97124000D01*
X69000000Y-98876000D01*
X68980315Y-98943039D01*
X68927511Y-98988794D01*
X68876000Y-99000000D01*
X64124000Y-99000000D01*
X64056961Y-98980315D01*
X64011206Y-98927511D01*
X64000000Y-98876000D01*
X64000000Y-97124000D01*
X64019685Y-97056961D01*
X64072489Y-97011206D01*
X64124000Y-97000000D01*
X68876000Y-97000000D01*
X68943039Y-97019685D01*
G37*
G36*
X68943039Y-101019685D02*
G01*
X68988794Y-101072489D01*
X69000000Y-101124000D01*
X69000000Y-102876000D01*
X68980315Y-102943039D01*
X68927511Y-102988794D01*
X68876000Y-103000000D01*
X64124000Y-103000000D01*
X64056961Y-102980315D01*
X64011206Y-102927511D01*
X64000000Y-102876000D01*
X64000000Y-101124000D01*
X64019685Y-101056961D01*
X64072489Y-101011206D01*
X64124000Y-101000000D01*
X68876000Y-101000000D01*
X68943039Y-101019685D01*
G37*
G36*
X68943039Y-121019685D02*
G01*
X68988794Y-121072489D01*
X69000000Y-121124000D01*
X69000000Y-122876000D01*
X68980315Y-122943039D01*
X68927511Y-122988794D01*
X68876000Y-123000000D01*
X64124000Y-123000000D01*
X64056961Y-122980315D01*
X64011206Y-122927511D01*
X64000000Y-122876000D01*
X64000000Y-121124000D01*
X64019685Y-121056961D01*
X64072489Y-121011206D01*
X64124000Y-121000000D01*
X68876000Y-121000000D01*
X68943039Y-121019685D01*
G37*
G36*
X68943039Y-113019685D02*
G01*
X68988794Y-113072489D01*
X69000000Y-113124000D01*
X69000000Y-114876000D01*
X68980315Y-114943039D01*
X68927511Y-114988794D01*
X68876000Y-115000000D01*
X64124000Y-115000000D01*
X64056961Y-114980315D01*
X64011206Y-114927511D01*
X64000000Y-114876000D01*
X64000000Y-113124000D01*
X64019685Y-113056961D01*
X64072489Y-113011206D01*
X64124000Y-113000000D01*
X68876000Y-113000000D01*
X68943039Y-113019685D01*
G37*
G36*
X85943039Y-125019685D02*
G01*
X85988794Y-125072489D01*
X86000000Y-125124000D01*
X86000000Y-126876000D01*
X85980315Y-126943039D01*
X85927511Y-126988794D01*
X85876000Y-127000000D01*
X81124000Y-127000000D01*
X81056961Y-126980315D01*
X81011206Y-126927511D01*
X81000000Y-126876000D01*
X81000000Y-125124000D01*
X81019685Y-125056961D01*
X81072489Y-125011206D01*
X81124000Y-125000000D01*
X85876000Y-125000000D01*
X85943039Y-125019685D01*
G37*
G36*
X85943039Y-105019685D02*
G01*
X85988794Y-105072489D01*
X86000000Y-105124000D01*
X86000000Y-106876000D01*
X85980315Y-106943039D01*
X85927511Y-106988794D01*
X85876000Y-107000000D01*
X81124000Y-107000000D01*
X81056961Y-106980315D01*
X81011206Y-106927511D01*
X81000000Y-106876000D01*
X81000000Y-105124000D01*
X81019685Y-105056961D01*
X81072489Y-105011206D01*
X81124000Y-105000000D01*
X85876000Y-105000000D01*
X85943039Y-105019685D01*
G37*
G36*
X68943039Y-125019685D02*
G01*
X68988794Y-125072489D01*
X69000000Y-125124000D01*
X69000000Y-126876000D01*
X68980315Y-126943039D01*
X68927511Y-126988794D01*
X68876000Y-127000000D01*
X64124000Y-127000000D01*
X64056961Y-126980315D01*
X64011206Y-126927511D01*
X64000000Y-126876000D01*
X64000000Y-125124000D01*
X64019685Y-125056961D01*
X64072489Y-125011206D01*
X64124000Y-125000000D01*
X68876000Y-125000000D01*
X68943039Y-125019685D01*
G37*
G36*
X85943039Y-113019685D02*
G01*
X85988794Y-113072489D01*
X86000000Y-113124000D01*
X86000000Y-114876000D01*
X85980315Y-114943039D01*
X85927511Y-114988794D01*
X85876000Y-115000000D01*
X81124000Y-115000000D01*
X81056961Y-114980315D01*
X81011206Y-114927511D01*
X81000000Y-114876000D01*
X81000000Y-113124000D01*
X81019685Y-113056961D01*
X81072489Y-113011206D01*
X81124000Y-113000000D01*
X85876000Y-113000000D01*
X85943039Y-113019685D01*
G37*
G36*
X68943039Y-89019685D02*
G01*
X68988794Y-89072489D01*
X69000000Y-89124000D01*
X69000000Y-90876000D01*
X68980315Y-90943039D01*
X68927511Y-90988794D01*
X68876000Y-91000000D01*
X64124000Y-91000000D01*
X64056961Y-90980315D01*
X64011206Y-90927511D01*
X64000000Y-90876000D01*
X64000000Y-89124000D01*
X64019685Y-89056961D01*
X64072489Y-89011206D01*
X64124000Y-89000000D01*
X68876000Y-89000000D01*
X68943039Y-89019685D01*
G37*
G36*
X85943039Y-89019685D02*
G01*
X85988794Y-89072489D01*
X86000000Y-89124000D01*
X86000000Y-90876000D01*
X85980315Y-90943039D01*
X85927511Y-90988794D01*
X85876000Y-91000000D01*
X81124000Y-91000000D01*
X81056961Y-90980315D01*
X81011206Y-90927511D01*
X81000000Y-90876000D01*
X81000000Y-89124000D01*
X81019685Y-89056961D01*
X81072489Y-89011206D01*
X81124000Y-89000000D01*
X85876000Y-89000000D01*
X85943039Y-89019685D01*
G37*
G36*
X85943039Y-109019685D02*
G01*
X85988794Y-109072489D01*
X86000000Y-109124000D01*
X86000000Y-110876000D01*
X85980315Y-110943039D01*
X85927511Y-110988794D01*
X85876000Y-111000000D01*
X81124000Y-111000000D01*
X81056961Y-110980315D01*
X81011206Y-110927511D01*
X81000000Y-110876000D01*
X81000000Y-109124000D01*
X81019685Y-109056961D01*
X81072489Y-109011206D01*
X81124000Y-109000000D01*
X85876000Y-109000000D01*
X85943039Y-109019685D01*
G37*
%LPD*%
M02*
